  0
SECTION
  2
HEADER
  9
$ACADVER
  1
AC1006
  9
$EXTMIN
 10
0.000000
 20
0.000000
 30
0.000000
  9
$EXTMAX
 10
1000.000000
 20
200.000000
 30
0.000000
  0
ENDSEC
  0
SECTION
  2
ENTITIES
  0
POLYLINE
  8
0
 66
1
 70
1
  0
VERTEX
  8
0
 10
433.000000
 20
155.417338
 42
0.045462
  0
VERTEX
  8
0
 10
423.537487
 20
151.976004
 42
0.042556
  0
VERTEX
  8
0
 10
414.627965
 20
146.818611
 42
0.043568
  0
VERTEX
  8
0
 10
406.929734
 20
140.375509
 42
0.054134
  0
VERTEX
  8
0
 10
401.071882
 20
133.112018
 42
0.022978
  0
VERTEX
  8
0
 10
399.655954
 20
130.665049
 42
0.009354
  0
VERTEX
  8
0
 10
397.948115
 20
127.217249
 42
0.009233
  0
VERTEX
  8
0
 10
396.247415
 20
123.436778
 42
0.011630
  0
VERTEX
  8
0
 10
394.820296
 20
119.874274
 42
0.015505
  0
VERTEX
  8
0
 10
393.115262
 20
114.843194
 42
0.031479
  0
VERTEX
  8
0
 10
392.151850
 20
110.779969
 42
0.025893
  0
VERTEX
  8
0
 10
391.602727
 20
106.151689
 42
0.007483
  0
VERTEX
  8
0
 10
391.233104
 20
98.960280
 42
0.018166
  0
VERTEX
  8
0
 10
391.232533
 20
89.179381
 42
0.037712
  0
VERTEX
  8
0
 10
392.082440
 20
81.599424
 42
0.040254
  0
VERTEX
  8
0
 10
394.014134
 20
74.551540
 42
0.023814
  0
VERTEX
  8
0
 10
397.376550
 20
66.500000
 42
0.043005
  0
VERTEX
  8
0
 10
403.048274
 20
56.801537
 42
0.057886
  0
VERTEX
  8
0
 10
409.832081
 20
49.232937
 42
0.057270
  0
VERTEX
  8
0
 10
418.230388
 20
43.363623
 42
0.040928
  0
VERTEX
  8
0
 10
428.737874
 20
38.749923
 42
0.014536
  0
VERTEX
  8
0
 10
433.644483
 20
37.216728
 42
0.031344
  0
VERTEX
  8
0
 10
437.512808
 20
36.387669
 42
0.027831
  0
VERTEX
  8
0
 10
441.729667
 20
35.995169
 42
0.009291
  0
VERTEX
  8
0
 10
447.926989
 20
35.880000
 42
0.009339
  0
VERTEX
  8
0
 10
453.952471
 20
35.992548
 42
0.025373
  0
VERTEX
  8
0
 10
458.204617
 20
36.368085
 42
0.029432
  0
VERTEX
  8
0
 10
462.025988
 20
37.133454
 42
0.016839
  0
VERTEX
  8
0
 10
466.535095
 20
38.479979
 42
0.019940
  0
VERTEX
  8
0
 10
473.359200
 20
41.077806
 42
0.033039
  0
VERTEX
  8
0
 10
478.851082
 20
43.865238
 42
0.035263
  0
VERTEX
  8
0
 10
483.673139
 20
47.208432
 42
0.027176
  0
VERTEX
  8
0
 10
488.440061
 20
51.483539
 42
0.059530
  0
VERTEX
  8
0
 10
495.345380
 20
60.262906
 42
0.047893
  0
VERTEX
  8
0
 10
500.593408
 20
71.076104
 42
0.045698
  0
VERTEX
  8
0
 10
503.889819
 20
83.232369
 42
0.043395
  0
VERTEX
  8
0
 10
505.000000
 20
96.000000
 42
0.069430
  0
VERTEX
  8
0
 10
502.091010
 20
116.847966
 42
0.085885
  0
VERTEX
  8
0
 10
493.599173
 20
134.489209
 42
0.090116
  0
VERTEX
  8
0
 10
480.069714
 20
147.636497
 42
0.085549
  0
VERTEX
  8
0
 10
462.539901
 20
155.478381
 42
0.042422
  0
VERTEX
  8
0
 10
456.084607
 20
156.554390
 42
0.020613
  0
VERTEX
  8
0
 10
447.723205
 20
156.881937
 42
0.020605
  0
VERTEX
  8
0
 10
439.381888
 20
156.520786
 42
0.043396
  0
SEQEND
  0
POLYLINE
  8
0
 66
1
 70
1
  0
VERTEX
  8
0
 10
462.539901
 20
152.468337
 42
-0.052587
  0
VERTEX
  8
0
 10
472.389222
 20
148.798971
 42
-0.050162
  0
VERTEX
  8
0
 10
481.425907
 20
143.108970
 42
-0.050633
  0
VERTEX
  8
0
 10
489.071450
 20
135.793180
 42
-0.055886
  0
VERTEX
  8
0
 10
494.805415
 20
127.313952
 42
-0.065427
  0
VERTEX
  8
0
 10
500.095894
 20
112.922384
 42
-0.052882
  0
VERTEX
  8
0
 10
502.001939
 20
96.556683
 42
-0.053040
  0
VERTEX
  8
0
 10
500.432696
 20
80.209855
 42
-0.066934
  0
VERTEX
  8
0
 10
495.436898
 20
65.875475
 42
-0.059561
  0
VERTEX
  8
0
 10
490.004832
 20
57.727410
 42
-0.047215
  0
VERTEX
  8
0
 10
482.397691
 20
50.359094
 42
-0.046398
  0
VERTEX
  8
0
 10
473.383138
 20
44.422552
 42
-0.052207
  0
VERTEX
  8
0
 10
463.769749
 20
40.523488
 42
-0.048374
  0
VERTEX
  8
0
 10
457.008197
 20
39.262880
 42
-0.021916
  0
VERTEX
  8
0
 10
448.000000
 20
38.867845
 42
-0.021916
  0
VERTEX
  8
0
 10
438.991803
 20
39.262880
 42
-0.048374
  0
VERTEX
  8
0
 10
432.230251
 20
40.523488
 42
-0.064461
  0
VERTEX
  8
0
 10
419.411514
 20
46.090903
 42
-0.069178
  0
VERTEX
  8
0
 10
408.772188
 20
54.635146
 42
-0.067963
  0
VERTEX
  8
0
 10
400.723607
 20
65.901329
 42
-0.058990
  0
VERTEX
  8
0
 10
395.515032
 20
79.460099
 42
-0.043964
  0
VERTEX
  8
0
 10
394.377231
 20
86.463695
 42
-0.018423
  0
VERTEX
  8
0
 10
394.029787
 20
96.020316
 42
-0.018412
  0
VERTEX
  8
0
 10
394.386317
 20
105.568912
 42
-0.044377
  0
VERTEX
  8
0
 10
395.531591
 20
112.539901
 42
-0.057570
  0
VERTEX
  8
0
 10
400.956665
 20
126.671657
 42
-0.068314
  0
VERTEX
  8
0
 10
409.233914
 20
138.315792
 42
-0.070766
  0
VERTEX
  8
0
 10
420.067577
 20
146.989331
 42
-0.068650
  0
VERTEX
  8
0
 10
433.000000
 20
152.407330
 42
-0.043643
  0
VERTEX
  8
0
 10
439.384432
 20
153.519159
 42
-0.020783
  0
VERTEX
  8
0
 10
447.722021
 20
153.883127
 42
-0.020792
  0
VERTEX
  8
0
 10
456.080234
 20
153.552703
 42
-0.042639
  0
SEQEND
  0
POLYLINE
  8
0
 66
1
 70
1
  0
VERTEX
  8
0
 10
709.907000
 20
154.826229
 42
0.034381
  0
VERTEX
  8
0
 10
706.828523
 20
147.981651
 42
0.000315
  0
VERTEX
  8
0
 10
687.497983
 20
95.562545
 42
0.000128
  0
VERTEX
  8
0
 10
667.543635
 20
41.303712
 42
0.088266
  0
VERTEX
  8
0
 10
667.000000
 20
38.248196
 42
0.142978
  0
VERTEX
  8
0
 10
667.383186
 20
36.935572
 42
0.206480
  0
VERTEX
  8
0
 10
668.370762
 20
36.266443
 42
0.050871
  0
VERTEX
  8
0
 10
670.636340
 20
36.069741
 42
0.002889
  0
VERTEX
  8
0
 10
677.665945
 20
36.216168
 42
0.000000
  0
VERTEX
  8
0
 10
688.331890
 20
36.500000
 42
0.000000
  0
VERTEX
  8
0
 10
710.273082
 20
95.249614
 42
0.001589
  0
VERTEX
  8
0
 10
718.643440
 20
117.881160
 42
0.002574
  0
VERTEX
  8
0
 10
725.599922
 20
137.182267
 42
0.000403
  0
VERTEX
  8
0
 10
731.654851
 20
154.300771
 42
0.178246
  0
VERTEX
  8
0
 10
731.638522
 20
155.499614
 42
0.213468
  0
VERTEX
  8
0
 10
730.878278
 20
156.257379
 42
0.055598
  0
VERTEX
  8
0
 10
729.167090
 20
156.698077
 42
0.029320
  0
VERTEX
  8
0
 10
726.255349
 20
156.938422
 42
0.005934
  0
VERTEX
  8
0
 10
721.066569
 20
157.000000
 42
0.004732
  0
VERTEX
  8
0
 10
715.031042
 20
156.942874
 42
0.043390
  0
VERTEX
  8
0
 10
712.425339
 20
156.666540
 42
0.109538
  0
VERTEX
  8
0
 10
710.951293
 20
156.024846
 42
0.113131
  0
SEQEND
  0
POLYLINE
  8
0
 66
1
 70
1
  0
VERTEX
  8
0
 10
728.550661
 20
152.250000
 42
-0.008625
  0
VERTEX
  8
0
 10
728.066207
 20
150.877857
 42
-0.000031
  0
VERTEX
  8
0
 10
722.041522
 20
134.710938
 42
-0.000166
  0
VERTEX
  8
0
 10
715.210290
 20
116.401671
 42
-0.000104
  0
VERTEX
  8
0
 10
707.212133
 20
95.000000
 42
0.000000
  0
VERTEX
  8
0
 10
686.457718
 20
39.500000
 42
0.000000
  0
VERTEX
  8
0
 10
678.228859
 20
39.209558
 42
-0.009367
  0
VERTEX
  8
0
 10
675.073684
 20
39.157342
 42
-0.015596
  0
VERTEX
  8
0
 10
672.417227
 20
39.246033
 42
-0.009391
  0
VERTEX
  8
0
 10
670.286684
 20
39.424019
 42
-0.384607
  0
VERTEX
  8
0
 10
670.000000
 20
39.741585
 42
-0.088114
  0
VERTEX
  8
0
 10
670.114575
 20
40.386694
 42
-0.000062
  0
VERTEX
  8
0
 10
676.168750
 20
56.886546
 42
-0.000731
  0
VERTEX
  8
0
 10
682.948514
 20
75.273712
 42
-0.000447
  0
VERTEX
  8
0
 10
691.000000
 20
96.952450
 42
0.000179
  0
VERTEX
  8
0
 10
699.052070
 20
118.597256
 42
0.000296
  0
VERTEX
  8
0
 10
705.831250
 20
136.873566
 42
0.000010
  0
VERTEX
  8
0
 10
711.953164
 20
153.409007
 42
0.088873
  0
VERTEX
  8
0
 10
712.000000
 20
153.670422
 42
-0.401315
  0
VERTEX
  8
0
 10
712.128159
 20
153.804380
 42
-0.001447
  0
VERTEX
  8
0
 10
714.516670
 20
153.903186
 42
-0.006007
  0
VERTEX
  8
0
 10
717.282261
 20
153.976313
 42
-0.003605
  0
VERTEX
  8
0
 10
720.567388
 20
154.000000
 42
-0.004555
  0
VERTEX
  8
0
 10
725.625248
 20
153.953920
 42
-0.049434
  0
VERTEX
  8
0
 10
727.649507
 20
153.715979
 42
-0.200091
  0
VERTEX
  8
0
 10
728.439202
 20
153.163152
 42
-0.225516
  0
SEQEND
  0
POLYLINE
  8
0
 66
1
 70
1
  0
VERTEX
  8
0
 10
774.000000
 20
155.423920
 42
0.084421
  0
VERTEX
  8
0
 10
756.532383
 20
147.512657
 42
0.090200
  0
VERTEX
  8
0
 10
743.121640
 20
134.413986
 42
0.085898
  0
VERTEX
  8
0
 10
734.728219
 20
116.854015
 42
0.068376
  0
VERTEX
  8
0
 10
731.835155
 20
96.018106
 42
0.024088
  0
VERTEX
  8
0
 10
732.224103
 20
87.702173
 42
0.030441
  0
VERTEX
  8
0
 10
733.418266
 20
80.097956
 42
0.031299
  0
VERTEX
  8
0
 10
735.490231
 20
72.870955
 42
0.028131
  0
VERTEX
  8
0
 10
738.510203
 20
65.688682
 42
0.044647
  0
VERTEX
  8
0
 10
744.073820
 20
56.480688
 42
0.055824
  0
VERTEX
  8
0
 10
750.833736
 20
49.140705
 42
0.054677
  0
VERTEX
  8
0
 10
759.170249
 20
43.366915
 42
0.040393
  0
VERTEX
  8
0
 10
769.443619
 20
38.831407
 42
0.015301
  0
VERTEX
  8
0
 10
774.150898
 20
37.352517
 42
0.030863
  0
VERTEX
  8
0
 10
777.951422
 20
36.534117
 42
0.027487
  0
VERTEX
  8
0
 10
782.095205
 20
36.137463
 42
0.009801
  0
VERTEX
  8
0
 10
788.039901
 20
36.013378
 42
0.020608
  0
VERTEX
  8
0
 10
796.618097
 20
36.356175
 42
0.035735
  0
VERTEX
  8
0
 10
803.663420
 20
37.439639
 42
0.037931
  0
VERTEX
  8
0
 10
810.188022
 20
39.456895
 42
0.027043
  0
VERTEX
  8
0
 10
817.143507
 20
42.644751
 42
0.077413
  0
VERTEX
  8
0
 10
829.139951
 20
51.545824
 42
0.070781
  0
VERTEX
  8
0
 10
838.294384
 20
63.928739
 42
0.066806
  0
VERTEX
  8
0
 10
844.021733
 20
79.059134
 42
0.057175
  0
VERTEX
  8
0
 10
845.965273
 20
96.000000
 42
0.025199
  0
VERTEX
  8
0
 10
845.548864
 20
104.257210
 42
0.031209
  0
VERTEX
  8
0
 10
844.298606
 20
111.851343
 42
0.031192
  0
VERTEX
  8
0
 10
842.112123
 20
119.234047
 42
0.025128
  0
VERTEX
  8
0
 10
838.884528
 20
126.856488
 42
0.051321
  0
VERTEX
  8
0
 10
832.625287
 20
136.989466
 42
0.058926
  0
VERTEX
  8
0
 10
824.681933
 20
145.122398
 42
0.058177
  0
VERTEX
  8
0
 10
814.968907
 20
151.256078
 42
0.048093
  0
VERTEX
  8
0
 10
803.466911
 20
155.466603
 42
0.043372
  0
VERTEX
  8
0
 10
797.074617
 20
156.551481
 42
0.020721
  0
VERTEX
  8
0
 10
788.741192
 20
156.884894
 42
0.020723
  0
VERTEX
  8
0
 10
780.404587
 20
156.527128
 42
0.043152
  0
SEQEND
  0
POLYLINE
  8
0
 66
1
 70
1
  0
VERTEX
  8
0
 10
803.296806
 20
152.510910
 42
-0.086023
  0
VERTEX
  8
0
 10
819.725409
 20
145.047315
 42
-0.090421
  0
VERTEX
  8
0
 10
832.356341
 20
132.591865
 42
-0.085566
  0
VERTEX
  8
0
 10
840.262055
 20
115.856672
 42
-0.067756
  0
VERTEX
  8
0
 10
842.965273
 20
96.000000
 42
-0.068181
  0
VERTEX
  8
0
 10
840.311217
 20
76.627179
 42
-0.083827
  0
VERTEX
  8
0
 10
832.555153
 20
60.133666
 42
-0.088961
  0
VERTEX
  8
0
 10
820.267519
 20
47.818573
 42
-0.088796
  0
VERTEX
  8
0
 10
804.458446
 20
40.531192
 42
-0.044110
  0
VERTEX
  8
0
 10
797.551005
 20
39.369345
 42
-0.020132
  0
VERTEX
  8
0
 10
788.400601
 20
39.019429
 42
-0.019977
  0
VERTEX
  8
0
 10
779.367157
 20
39.398919
 42
-0.050984
  0
VERTEX
  8
0
 10
772.931501
 20
40.595379
 42
-0.065042
  0
VERTEX
  8
0
 10
760.096077
 20
46.259627
 42
-0.068403
  0
VERTEX
  8
0
 10
749.389486
 20
54.954677
 42
-0.067971
  0
VERTEX
  8
0
 10
741.373514
 20
66.269278
 42
-0.062950
  0
VERTEX
  8
0
 10
736.428093
 20
79.613280
 42
-0.036568
  0
VERTEX
  8
0
 10
735.267757
 20
86.987112
 42
-0.020936
  0
VERTEX
  8
0
 10
734.897355
 20
95.992297
 42
-0.020925
  0
VERTEX
  8
0
 10
735.282022
 20
105.016357
 42
-0.035876
  0
VERTEX
  8
0
 10
736.452981
 20
112.453491
 42
-0.062758
  0
VERTEX
  8
0
 10
741.580547
 20
126.360512
 42
-0.069046
  0
VERTEX
  8
0
 10
749.877638
 20
138.069893
 42
-0.070358
  0
VERTEX
  8
0
 10
760.897017
 20
146.907709
 42
-0.069120
  0
VERTEX
  8
0
 10
774.000000
 20
152.408512
 42
-0.043600
  0
VERTEX
  8
0
 10
780.340417
 20
153.511919
 42
-0.020418
  0
VERTEX
  8
0
 10
788.669242
 20
153.881341
 42
-0.020411
  0
VERTEX
  8
0
 10
796.989627
 20
153.570677
 42
-0.044196
  0
SEQEND
  0
POLYLINE
  8
0
 66
1
 70
1
  0
VERTEX
  8
0
 10
12.200000
 20
153.800000
 42
0.198519
  0
VERTEX
  8
0
 10
10.942139
 20
150.769749
 42
0.000379
  0
VERTEX
  8
0
 10
10.901027
 20
96.500000
 42
0.000379
  0
VERTEX
  8
0
 10
10.942139
 20
42.230251
 42
0.198519
  0
VERTEX
  8
0
 10
12.200000
 20
39.200000
 42
0.192195
  0
VERTEX
  8
0
 10
14.765096
 20
38.098406
 42
0.006470
  0
VERTEX
  8
0
 10
26.000000
 20
37.953026
 42
0.006470
  0
VERTEX
  8
0
 10
37.234904
 20
38.098406
 42
0.192195
  0
VERTEX
  8
0
 10
39.800000
 20
39.200000
 42
0.177415
  0
VERTEX
  8
0
 10
40.398457
 20
40.490496
 42
0.008273
  0
VERTEX
  8
0
 10
40.723684
 20
45.373684
 42
0.009663
  0
VERTEX
  8
0
 10
40.938916
 20
52.397440
 42
0.002827
  0
VERTEX
  8
0
 10
41.000000
 20
63.200000
 42
0.000000
  0
VERTEX
  8
0
 10
41.000000
 20
86.000000
 42
0.000000
  0
VERTEX
  8
0
 10
61.000000
 20
86.000000
 42
0.000000
  0
VERTEX
  8
0
 10
81.000000
 20
86.000000
 42
0.000000
  0
VERTEX
  8
0
 10
81.000000
 20
63.200000
 42
0.002827
  0
VERTEX
  8
0
 10
81.061084
 20
52.397440
 42
0.009663
  0
VERTEX
  8
0
 10
81.276316
 20
45.373684
 42
0.008273
  0
VERTEX
  8
0
 10
81.601543
 20
40.490496
 42
0.177415
  0
VERTEX
  8
0
 10
82.200000
 20
39.200000
 42
0.158915
  0
VERTEX
  8
0
 10
83.280394
 20
38.650921
 42
0.016472
  0
VERTEX
  8
0
 10
86.148554
 20
38.299065
 42
0.015917
  0
VERTEX
  8
0
 10
90.145679
 20
38.069806
 42
0.006366
  0
VERTEX
  8
0
 10
95.628571
 20
38.000000
 42
0.005121
  0
VERTEX
  8
0
 10
102.013547
 20
38.065397
 42
0.023229
  0
VERTEX
  8
0
 10
105.725941
 20
38.314252
 42
0.040234
  0
VERTEX
  8
0
 10
108.066328
 20
38.773604
 42
0.128491
  0
VERTEX
  8
0
 10
109.428571
 20
39.571429
 42
0.184038
  0
VERTEX
  8
0
 10
110.374203
 20
41.681054
 42
0.007449
  0
VERTEX
  8
0
 10
110.735806
 20
50.185482
 42
0.006179
  0
VERTEX
  8
0
 10
110.953909
 20
64.496999
 42
0.000720
  0
VERTEX
  8
0
 10
111.000000
 20
96.500000
 42
0.000720
  0
VERTEX
  8
0
 10
110.953909
 20
128.503001
 42
0.006179
  0
VERTEX
  8
0
 10
110.735806
 20
142.814518
 42
0.007449
  0
VERTEX
  8
0
 10
110.374203
 20
151.318946
 42
0.184038
  0
VERTEX
  8
0
 10
109.428571
 20
153.428571
 42
0.128491
  0
VERTEX
  8
0
 10
108.066328
 20
154.226396
 42
0.040234
  0
VERTEX
  8
0
 10
105.725941
 20
154.685748
 42
0.023229
  0
VERTEX
  8
0
 10
102.013547
 20
154.934603
 42
0.005121
  0
VERTEX
  8
0
 10
95.628571
 20
155.000000
 42
0.006366
  0
VERTEX
  8
0
 10
90.145679
 20
154.930194
 42
0.015917
  0
VERTEX
  8
0
 10
86.148554
 20
154.700935
 42
0.016472
  0
VERTEX
  8
0
 10
83.280394
 20
154.349079
 42
0.158915
  0
VERTEX
  8
0
 10
82.200000
 20
153.800000
 42
0.174528
  0
VERTEX
  8
0
 10
81.609845
 20
152.545857
 42
0.009623
  0
VERTEX
  8
0
 10
81.279557
 20
148.150390
 42
0.010672
  0
VERTEX
  8
0
 10
81.062344
 20
141.840852
 42
0.003267
  0
VERTEX
  8
0
 10
81.000000
 20
132.300000
 42
0.000000
  0
VERTEX
  8
0
 10
81.000000
 20
112.000000
 42
0.000000
  0
VERTEX
  8
0
 10
61.000000
 20
112.000000
 42
0.000000
  0
VERTEX
  8
0
 10
41.000000
 20
112.000000
 42
0.000000
  0
VERTEX
  8
0
 10
41.000000
 20
132.300000
 42
0.003267
  0
VERTEX
  8
0
 10
40.937656
 20
141.840852
 42
0.010672
  0
VERTEX
  8
0
 10
40.720443
 20
148.150390
 42
0.009623
  0
VERTEX
  8
0
 10
40.390155
 20
152.545857
 42
0.174528
  0
VERTEX
  8
0
 10
39.800000
 20
153.800000
 42
0.159952
  0
VERTEX
  8
0
 10
38.708891
 20
154.351751
 42
0.016058
  0
VERTEX
  8
0
 10
35.772619
 20
154.702381
 42
0.015577
  0
VERTEX
  8
0
 10
31.668738
 20
154.930738
 42
0.006109
  0
VERTEX
  8
0
 10
26.000000
 20
155.000000
 42
0.006109
  0
VERTEX
  8
0
 10
20.331262
 20
154.930738
 42
0.015577
  0
VERTEX
  8
0
 10
16.227381
 20
154.702381
 42
0.016058
  0
VERTEX
  8
0
 10
13.291109
 20
154.351751
 42
0.159952
  0
SEQEND
  0
POLYLINE
  8
0
 66
1
 70
1
  0
VERTEX
  8
0
 10
38.000000
 20
130.500000
 42
0.000000
  0
VERTEX
  8
0
 10
38.000000
 20
109.000000
 42
0.000000
  0
VERTEX
  8
0
 10
61.000000
 20
109.000000
 42
0.000000
  0
VERTEX
  8
0
 10
84.000000
 20
109.000000
 42
0.000000
  0
VERTEX
  8
0
 10
84.000000
 20
130.500000
 42
0.000000
  0
VERTEX
  8
0
 10
84.000000
 20
152.000000
 42
0.000000
  0
VERTEX
  8
0
 10
96.000000
 20
152.000000
 42
0.000000
  0
VERTEX
  8
0
 10
108.000000
 20
152.000000
 42
0.000000
  0
VERTEX
  8
0
 10
108.000000
 20
96.500000
 42
0.000000
  0
VERTEX
  8
0
 10
108.000000
 20
41.000000
 42
0.000000
  0
VERTEX
  8
0
 10
96.000000
 20
41.000000
 42
0.000000
  0
VERTEX
  8
0
 10
84.000000
 20
41.000000
 42
0.000000
  0
VERTEX
  8
0
 10
84.000000
 20
65.000000
 42
0.000000
  0
VERTEX
  8
0
 10
84.000000
 20
89.000000
 42
0.000000
  0
VERTEX
  8
0
 10
61.000000
 20
89.000000
 42
0.000000
  0
VERTEX
  8
0
 10
38.000000
 20
89.000000
 42
0.000000
  0
VERTEX
  8
0
 10
38.000000
 20
65.000000
 42
0.000000
  0
VERTEX
  8
0
 10
38.000000
 20
41.000000
 42
0.000000
  0
VERTEX
  8
0
 10
26.000000
 20
41.000000
 42
0.000000
  0
VERTEX
  8
0
 10
14.000000
 20
41.000000
 42
0.000000
  0
VERTEX
  8
0
 10
14.000000
 20
96.500000
 42
0.000000
  0
VERTEX
  8
0
 10
14.000000
 20
152.000000
 42
0.000000
  0
VERTEX
  8
0
 10
26.000000
 20
152.000000
 42
0.000000
  0
VERTEX
  8
0
 10
38.000000
 20
152.000000
 42
0.000000
  0
SEQEND
  0
POLYLINE
  8
0
 66
1
 70
1
  0
VERTEX
  8
0
 10
307.750000
 20
154.310674
 42
0.321737
  0
VERTEX
  8
0
 10
306.639001
 20
152.971745
 42
0.009949
  0
VERTEX
  8
0
 10
306.259627
 20
145.417341
 42
0.007003
  0
VERTEX
  8
0
 10
306.040174
 20
131.934194
 42
0.000567
  0
VERTEX
  8
0
 10
306.000000
 20
96.533665
 42
0.000654
  0
VERTEX
  8
0
 10
306.043931
 20
62.933800
 42
0.006171
  0
VERTEX
  8
0
 10
306.259546
 20
48.519636
 42
0.006337
  0
VERTEX
  8
0
 10
306.602089
 20
39.954864
 42
0.296166
  0
VERTEX
  8
0
 10
307.581787
 20
38.606989
 42
0.089764
  0
VERTEX
  8
0
 10
311.184643
 20
37.923950
 42
0.008198
  0
VERTEX
  8
0
 10
320.347277
 20
37.998034
 42
0.005228
  0
VERTEX
  8
0
 10
329.825946
 20
38.329322
 42
0.187141
  0
VERTEX
  8
0
 10
331.800000
 20
39.200000
 42
0.162608
  0
VERTEX
  8
0
 10
332.358574
 20
40.318951
 42
0.014962
  0
VERTEX
  8
0
 10
332.705966
 20
43.444650
 42
0.014701
  0
VERTEX
  8
0
 10
332.932093
 20
47.843104
 42
0.005492
  0
VERTEX
  8
0
 10
333.000000
 20
54.025686
 42
-0.003232
  0
VERTEX
  8
0
 10
333.054843
 20
62.509790
 42
-0.033143
  0
VERTEX
  8
0
 10
333.332359
 20
66.006938
 42
-0.083246
  0
VERTEX
  8
0
 10
334.003499
 20
68.090925
 42
-0.084939
  0
VERTEX
  8
0
 10
335.314451
 20
69.825686
 42
-0.011827
  0
VERTEX
  8
0
 10
336.244058
 20
70.658504
 42
-0.016123
  0
VERTEX
  8
0
 10
337.122731
 20
71.361295
 42
-0.012950
  0
VERTEX
  8
0
 10
337.876499
 20
71.895443
 42
-0.148733
  0
VERTEX
  8
0
 10
338.220217
 20
72.000000
 42
-0.251444
  0
VERTEX
  8
0
 10
338.577431
 20
71.808238
 42
-0.001227
  0
VERTEX
  8
0
 10
340.920844
 20
68.254688
 42
-0.005115
  0
VERTEX
  8
0
 10
343.561323
 20
64.138005
 42
-0.003165
  0
VERTEX
  8
0
 10
346.583484
 20
59.250000
 42
0.001449
  0
VERTEX
  8
0
 10
349.770846
 20
54.055023
 42
0.001545
  0
VERTEX
  8
0
 10
352.921049
 20
48.988929
 42
0.001467
  0
VERTEX
  8
0
 10
355.656875
 20
44.647764
 42
0.007198
  0
VERTEX
  8
0
 10
357.244369
 20
42.222950
 42
0.000000
  0
VERTEX
  8
0
 10
360.133303
 20
37.945900
 42
0.000000
  0
VERTEX
  8
0
 10
374.209295
 20
38.222950
 42
0.004097
  0
VERTEX
  8
0
 10
381.590699
 20
38.428755
 42
0.020862
  0
VERTEX
  8
0
 10
385.686855
 20
38.748027
 42
0.035666
  0
VERTEX
  8
0
 10
388.158844
 20
39.225508
 42
0.188875
  0
VERTEX
  8
0
 10
389.247966
 20
40.028748
 42
0.267990
  0
VERTEX
  8
0
 10
389.305070
 20
41.518633
 42
0.010372
  0
VERTEX
  8
0
 10
386.530561
 20
46.524404
 42
0.011026
  0
VERTEX
  8
0
 10
381.996858
 20
53.937301
 42
0.002477
  0
VERTEX
  8
0
 10
373.937861
 20
66.348475
 42
0.000000
  0
VERTEX
  8
0
 10
357.665076
 20
91.139455
 42
0.000000
  0
VERTEX
  8
0
 10
371.832538
 20
105.332239
 42
0.003959
  0
VERTEX
  8
0
 10
377.262914
 20
110.859167
 42
0.006193
  0
VERTEX
  8
0
 10
381.838308
 20
115.709069
 42
0.002147
  0
VERTEX
  8
0
 10
385.695511
 20
119.936789
 42
0.185926
  0
VERTEX
  8
0
 10
386.000000
 20
120.727327
 42
0.269990
  0
VERTEX
  8
0
 10
385.099142
 20
122.274034
 42
0.079052
  0
VERTEX
  8
0
 10
382.420377
 20
123.276859
 42
0.039997
  0
VERTEX
  8
0
 10
377.677200
 20
123.851108
 42
0.009822
  0
VERTEX
  8
0
 10
369.815741
 20
124.015345
 42
0.000000
  0
VERTEX
  8
0
 10
357.500000
 20
124.030689
 42
0.000000
  0
VERTEX
  8
0
 10
345.250000
 20
111.469918
 42
0.000000
  0
VERTEX
  8
0
 10
333.000000
 20
98.909148
 42
0.000000
  0
VERTEX
  8
0
 10
333.000000
 20
125.383145
 42
0.001753
  0
VERTEX
  8
0
 10
332.948082
 20
140.195029
 42
0.012241
  0
VERTEX
  8
0
 10
332.720321
 20
147.425049
 42
0.020889
  0
VERTEX
  8
0
 10
332.303788
 20
151.672916
 42
0.162889
  0
VERTEX
  8
0
 10
331.428571
 20
153.428571
 42
0.119999
  0
VERTEX
  8
0
 10
330.148158
 20
154.207520
 42
0.046144
  0
VERTEX
  8
0
 10
328.100641
 20
154.655638
 42
0.027097
  0
VERTEX
  8
0
 10
324.931258
 20
154.874857
 42
0.006568
  0
VERTEX
  8
0
 10
319.678571
 20
154.883999
 42
0.003964
  0
VERTEX
  8
0
 10
315.652535
 20
154.806187
 42
0.005193
  0
VERTEX
  8
0
 10
311.975893
 20
154.667734
 42
0.003869
  0
VERTEX
  8
0
 10
308.902788
 20
154.496187
 42
0.048064
  0
SEQEND
  0
POLYLINE
  8
0
 66
1
 70
1
  0
VERTEX
  8
0
 10
330.040614
 20
121.750000
 42
0.000000
  0
VERTEX
  8
0
 10
330.081227
 20
91.500000
 42
0.000000
  0
VERTEX
  8
0
 10
344.290614
 20
106.280294
 42
0.000000
  0
VERTEX
  8
0
 10
358.500000
 20
121.060589
 42
0.000000
  0
VERTEX
  8
0
 10
371.000000
 20
121.021239
 42
0.000000
  0
VERTEX
  8
0
 10
383.500000
 20
120.981890
 42
0.000000
  0
VERTEX
  8
0
 10
368.750000
 20
106.310227
 42
0.001068
  0
VERTEX
  8
0
 10
363.094718
 20
100.660904
 42
0.001751
  0
VERTEX
  8
0
 10
358.332812
 20
95.850085
 42
0.000174
  0
VERTEX
  8
0
 10
354.094473
 20
91.535110
 42
0.196494
  0
VERTEX
  8
0
 10
354.000000
 20
91.303996
 42
0.146283
  0
VERTEX
  8
0
 10
354.074495
 20
91.054819
 42
0.000073
  0
VERTEX
  8
0
 10
358.645439
 20
84.095635
 42
0.001001
  0
VERTEX
  8
0
 10
363.750837
 20
76.359029
 42
0.000609
  0
VERTEX
  8
0
 10
369.814260
 20
67.234714
 42
-0.000240
  0
VERTEX
  8
0
 10
375.929358
 20
58.047356
 42
-0.000371
  0
VERTEX
  8
0
 10
381.201853
 20
50.104885
 42
-0.000109
  0
VERTEX
  8
0
 10
385.780154
 20
43.193747
 42
-0.011884
  0
VERTEX
  8
0
 10
386.373277
 20
42.250000
 42
-0.489331
  0
VERTEX
  8
0
 10
386.129589
 20
41.626940
 42
-0.046505
  0
VERTEX
  8
0
 10
384.269273
 20
41.259743
 42
-0.021574
  0
VERTEX
  8
0
 10
380.731396
 20
41.051491
 42
-0.003914
  0
VERTEX
  8
0
 10
374.153251
 20
41.000000
 42
0.000000
  0
VERTEX
  8
0
 10
361.188468
 20
41.000000
 42
0.000000
  0
VERTEX
  8
0
 10
353.393768
 20
53.750000
 42
0.000627
  0
VERTEX
  8
0
 10
350.160155
 20
59.024438
 42
0.000613
  0
VERTEX
  8
0
 10
346.889943
 20
64.329005
 42
0.000603
  0
VERTEX
  8
0
 10
344.008487
 20
68.977615
 42
0.002316
  0
VERTEX
  8
0
 10
342.198836
 20
71.859380
 42
0.000000
  0
VERTEX
  8
0
 10
338.798603
 20
77.218760
 42
0.000000
  0
VERTEX
  8
0
 10
334.399302
 20
72.901172
 42
0.000000
  0
VERTEX
  8
0
 10
330.000000
 20
68.583584
 42
0.000000
  0
VERTEX
  8
0
 10
330.000000
 20
54.791792
 42
0.000000
  0
VERTEX
  8
0
 10
330.000000
 20
41.000000
 42
0.000000
  0
VERTEX
  8
0
 10
319.500000
 20
41.000000
 42
0.000000
  0
VERTEX
  8
0
 10
309.000000
 20
41.000000
 42
0.000000
  0
VERTEX
  8
0
 10
309.000000
 20
96.500000
 42
0.000000
  0
VERTEX
  8
0
 10
309.000000
 20
152.000000
 42
0.000000
  0
VERTEX
  8
0
 10
319.500000
 20
152.000000
 42
0.000000
  0
VERTEX
  8
0
 10
330.000000
 20
152.000000
 42
0.000000
  0
SEQEND
  0
POLYLINE
  8
0
 66
1
 70
1
  0
VERTEX
  8
0
 10
518.750000
 20
153.919901
 42
0.247591
  0
VERTEX
  8
0
 10
517.652096
 20
152.160770
 42
0.010522
  0
VERTEX
  8
0
 10
517.262272
 20
144.598464
 42
0.007021
  0
VERTEX
  8
0
 10
517.041209
 20
131.136081
 42
0.000595
  0
VERTEX
  8
0
 10
517.000000
 20
96.485494
 42
0.000522
  0
VERTEX
  8
0
 10
517.037889
 20
60.208037
 42
0.007892
  0
VERTEX
  8
0
 10
517.263159
 20
47.604895
 42
0.015856
  0
VERTEX
  8
0
 10
517.703314
 20
40.880664
 42
0.250640
  0
VERTEX
  8
0
 10
518.934259
 20
39.035184
 42
0.095310
  0
VERTEX
  8
0
 10
520.243792
 20
38.628158
 42
0.008593
  0
VERTEX
  8
0
 10
523.676783
 20
38.304085
 42
0.010917
  0
VERTEX
  8
0
 10
527.819467
 20
38.075583
 42
0.008317
  0
VERTEX
  8
0
 10
532.362830
 20
38.000000
 42
0.005627
  0
VERTEX
  8
0
 10
538.317839
 20
38.067016
 42
0.024302
  0
VERTEX
  8
0
 10
541.846859
 20
38.318357
 42
0.041492
  0
VERTEX
  8
0
 10
544.095079
 20
38.780259
 42
0.125612
  0
VERTEX
  8
0
 10
545.428571
 20
39.571429
 42
0.156218
  0
VERTEX
  8
0
 10
546.287436
 20
41.239575
 42
0.025043
  0
VERTEX
  8
0
 10
546.714968
 20
44.926007
 42
0.014172
  0
VERTEX
  8
0
 10
546.946028
 20
51.161208
 42
0.002174
  0
VERTEX
  8
0
 10
547.000000
 20
63.571429
 42
0.000000
  0
VERTEX
  8
0
 10
547.000000
 20
86.000000
 42
0.000000
  0
VERTEX
  8
0
 10
566.500000
 20
86.000000
 42
0.000000
  0
VERTEX
  8
0
 10
586.000000
 20
86.000000
 42
0.000000
  0
VERTEX
  8
0
 10
586.000000
 20
63.571429
 42
0.002174
  0
VERTEX
  8
0
 10
586.053972
 20
51.161208
 42
0.014172
  0
VERTEX
  8
0
 10
586.285032
 20
44.926007
 42
0.025043
  0
VERTEX
  8
0
 10
586.712564
 20
41.239575
 42
0.156218
  0
VERTEX
  8
0
 10
587.571429
 20
39.571429
 42
0.125612
  0
VERTEX
  8
0
 10
588.904921
 20
38.780259
 42
0.041492
  0
VERTEX
  8
0
 10
591.153141
 20
38.318357
 42
0.024302
  0
VERTEX
  8
0
 10
594.682161
 20
38.067016
 42
0.005627
  0
VERTEX
  8
0
 10
600.637170
 20
38.000000
 42
0.008317
  0
VERTEX
  8
0
 10
605.180533
 20
38.075583
 42
0.010917
  0
VERTEX
  8
0
 10
609.323217
 20
38.304085
 42
0.008593
  0
VERTEX
  8
0
 10
612.756208
 20
38.628158
 42
0.095310
  0
VERTEX
  8
0
 10
614.065741
 20
39.035184
 42
0.250650
  0
VERTEX
  8
0
 10
615.296719
 20
40.880783
 42
0.015849
  0
VERTEX
  8
0
 10
615.736844
 20
47.606772
 42
0.007890
  0
VERTEX
  8
0
 10
615.962113
 20
60.212993
 42
0.000522
  0
VERTEX
  8
0
 10
616.000000
 20
96.500000
 42
0.000522
  0
VERTEX
  8
0
 10
615.962113
 20
132.787007
 42
0.007890
  0
VERTEX
  8
0
 10
615.736844
 20
145.393228
 42
0.015849
  0
VERTEX
  8
0
 10
615.296719
 20
152.119217
 42
0.250650
  0
VERTEX
  8
0
 10
614.065741
 20
153.964816
 42
0.095310
  0
VERTEX
  8
0
 10
612.756208
 20
154.371842
 42
0.008593
  0
VERTEX
  8
0
 10
609.323217
 20
154.695915
 42
0.010917
  0
VERTEX
  8
0
 10
605.180533
 20
154.924417
 42
0.008317
  0
VERTEX
  8
0
 10
600.637170
 20
155.000000
 42
0.005627
  0
VERTEX
  8
0
 10
594.682161
 20
154.932984
 42
0.024302
  0
VERTEX
  8
0
 10
591.153141
 20
154.681643
 42
0.041492
  0
VERTEX
  8
0
 10
588.904921
 20
154.219741
 42
0.125612
  0
VERTEX
  8
0
 10
587.571429
 20
153.428571
 42
0.151123
  0
VERTEX
  8
0
 10
586.724218
 20
151.822552
 42
0.028129
  0
VERTEX
  8
0
 10
586.289427
 20
148.476115
 42
0.015694
  0
VERTEX
  8
0
 10
586.055670
 20
142.856713
 42
0.002547
  0
VERTEX
  8
0
 10
586.000000
 20
131.928571
 42
0.000000
  0
VERTEX
  8
0
 10
586.000000
 20
112.000000
 42
0.000000
  0
VERTEX
  8
0
 10
566.500000
 20
112.000000
 42
0.000000
  0
VERTEX
  8
0
 10
547.000000
 20
112.000000
 42
0.000000
  0
VERTEX
  8
0
 10
547.000000
 20
131.928571
 42
0.002547
  0
VERTEX
  8
0
 10
546.944330
 20
142.856713
 42
0.015694
  0
VERTEX
  8
0
 10
546.710573
 20
148.476115
 42
0.028129
  0
VERTEX
  8
0
 10
546.275782
 20
151.822552
 42
0.151123
  0
VERTEX
  8
0
 10
545.428571
 20
153.428571
 42
0.126372
  0
VERTEX
  8
0
 10
544.087376
 20
154.221600
 42
0.041722
  0
VERTEX
  8
0
 10
541.825942
 20
154.678084
 42
0.024154
  0
VERTEX
  8
0
 10
538.258876
 20
154.919174
 42
0.005448
  0
VERTEX
  8
0
 10
532.178571
 20
154.969591
 42
0.008042
  0
VERTEX
  8
0
 10
527.577846
 20
154.883608
 42
0.010810
  0
VERTEX
  8
0
 10
523.416518
 20
154.648701
 42
0.008116
  0
VERTEX
  8
0
 10
519.970720
 20
154.323002
 42
0.104614
  0
SEQEND
  0
POLYLINE
  8
0
 66
1
 70
1
  0
VERTEX
  8
0
 10
544.000000
 20
130.500000
 42
0.000000
  0
VERTEX
  8
0
 10
544.000000
 20
109.000000
 42
0.000000
  0
VERTEX
  8
0
 10
566.500000
 20
109.000000
 42
0.000000
  0
VERTEX
  8
0
 10
589.000000
 20
109.000000
 42
0.000000
  0
VERTEX
  8
0
 10
589.000000
 20
130.500000
 42
0.000000
  0
VERTEX
  8
0
 10
589.000000
 20
152.000000
 42
0.000000
  0
VERTEX
  8
0
 10
601.000000
 20
152.000000
 42
0.000000
  0
VERTEX
  8
0
 10
613.000000
 20
152.000000
 42
0.000000
  0
VERTEX
  8
0
 10
613.000000
 20
96.500000
 42
0.000000
  0
VERTEX
  8
0
 10
613.000000
 20
41.000000
 42
0.000000
  0
VERTEX
  8
0
 10
601.000000
 20
41.000000
 42
0.000000
  0
VERTEX
  8
0
 10
589.000000
 20
41.000000
 42
0.000000
  0
VERTEX
  8
0
 10
589.000000
 20
65.000000
 42
0.000000
  0
VERTEX
  8
0
 10
589.000000
 20
89.000000
 42
0.000000
  0
VERTEX
  8
0
 10
566.500000
 20
89.000000
 42
0.000000
  0
VERTEX
  8
0
 10
544.000000
 20
89.000000
 42
0.000000
  0
VERTEX
  8
0
 10
544.000000
 20
65.000000
 42
0.000000
  0
VERTEX
  8
0
 10
544.000000
 20
41.000000
 42
0.000000
  0
VERTEX
  8
0
 10
532.000000
 20
41.000000
 42
0.000000
  0
VERTEX
  8
0
 10
520.000000
 20
41.000000
 42
0.000000
  0
VERTEX
  8
0
 10
520.000000
 20
96.500000
 42
0.000000
  0
VERTEX
  8
0
 10
520.000000
 20
152.000000
 42
0.000000
  0
VERTEX
  8
0
 10
532.000000
 20
152.000000
 42
0.000000
  0
VERTEX
  8
0
 10
544.000000
 20
152.000000
 42
0.000000
  0
SEQEND
  0
POLYLINE
  8
0
 66
1
 70
1
  0
VERTEX
  8
0
 10
633.571429
 20
153.428571
 42
0.184038
  0
VERTEX
  8
0
 10
632.625797
 20
151.318946
 42
0.007449
  0
VERTEX
  8
0
 10
632.264194
 20
142.814518
 42
0.006179
  0
VERTEX
  8
0
 10
632.046091
 20
128.503001
 42
0.000720
  0
VERTEX
  8
0
 10
632.000000
 20
96.500000
 42
0.000720
  0
VERTEX
  8
0
 10
632.046091
 20
64.496999
 42
0.006179
  0
VERTEX
  8
0
 10
632.264194
 20
50.185482
 42
0.007449
  0
VERTEX
  8
0
 10
632.625797
 20
41.681054
 42
0.184038
  0
VERTEX
  8
0
 10
633.571429
 20
39.571429
 42
0.125612
  0
VERTEX
  8
0
 10
634.904921
 20
38.780259
 42
0.041492
  0
VERTEX
  8
0
 10
637.153141
 20
38.318357
 42
0.024302
  0
VERTEX
  8
0
 10
640.682161
 20
38.067016
 42
0.005627
  0
VERTEX
  8
0
 10
646.637170
 20
38.000000
 42
0.008317
  0
VERTEX
  8
0
 10
651.180533
 20
38.075583
 42
0.010917
  0
VERTEX
  8
0
 10
655.323217
 20
38.304085
 42
0.008593
  0
VERTEX
  8
0
 10
658.756208
 20
38.628158
 42
0.095310
  0
VERTEX
  8
0
 10
660.065741
 20
39.035184
 42
0.250650
  0
VERTEX
  8
0
 10
661.296719
 20
40.880783
 42
0.015849
  0
VERTEX
  8
0
 10
661.736844
 20
47.606772
 42
0.007890
  0
VERTEX
  8
0
 10
661.962113
 20
60.212993
 42
0.000522
  0
VERTEX
  8
0
 10
662.000000
 20
96.500000
 42
0.000522
  0
VERTEX
  8
0
 10
661.962113
 20
132.787007
 42
0.007890
  0
VERTEX
  8
0
 10
661.736844
 20
145.393228
 42
0.015849
  0
VERTEX
  8
0
 10
661.296719
 20
152.119217
 42
0.250650
  0
VERTEX
  8
0
 10
660.065741
 20
153.964816
 42
0.095310
  0
VERTEX
  8
0
 10
658.756208
 20
154.371842
 42
0.008593
  0
VERTEX
  8
0
 10
655.323217
 20
154.695915
 42
0.010917
  0
VERTEX
  8
0
 10
651.180533
 20
154.924417
 42
0.008317
  0
VERTEX
  8
0
 10
646.637170
 20
155.000000
 42
0.005627
  0
VERTEX
  8
0
 10
640.682161
 20
154.932984
 42
0.024302
  0
VERTEX
  8
0
 10
637.153141
 20
154.681643
 42
0.041492
  0
VERTEX
  8
0
 10
634.904921
 20
154.219741
 42
0.125612
  0
SEQEND
  0
POLYLINE
  8
0
 66
1
 70
1
  0
VERTEX
  8
0
 10
659.000000
 20
96.500000
 42
0.000000
  0
VERTEX
  8
0
 10
659.000000
 20
41.000000
 42
0.000000
  0
VERTEX
  8
0
 10
647.000000
 20
41.000000
 42
0.000000
  0
VERTEX
  8
0
 10
635.000000
 20
41.000000
 42
0.000000
  0
VERTEX
  8
0
 10
635.000000
 20
96.500000
 42
0.000000
  0
VERTEX
  8
0
 10
635.000000
 20
152.000000
 42
0.000000
  0
VERTEX
  8
0
 10
647.000000
 20
152.000000
 42
0.000000
  0
VERTEX
  8
0
 10
659.000000
 20
152.000000
 42
0.000000
  0
SEQEND
  0
POLYLINE
  8
0
 66
1
 70
1
  0
VERTEX
  8
0
 10
894.587520
 20
153.719639
 42
0.056627
  0
VERTEX
  8
0
 10
893.896329
 20
153.068830
 42
0.062582
  0
VERTEX
  8
0
 10
893.395356
 20
152.299736
 42
0.071263
  0
VERTEX
  8
0
 10
893.150066
 20
151.534140
 42
0.135059
  0
VERTEX
  8
0
 10
893.214700
 20
150.894608
 42
0.053434
  0
VERTEX
  8
0
 10
893.738264
 20
149.878994
 42
0.000451
  0
VERTEX
  8
0
 10
898.622294
 20
142.483423
 42
0.001592
  0
VERTEX
  8
0
 10
904.268142
 20
134.009782
 42
0.001025
  0
VERTEX
  8
0
 10
910.865712
 20
124.219172
 42
0.000000
  0
VERTEX
  8
0
 10
927.977064
 20
98.938344
 42
0.000000
  0
VERTEX
  8
0
 10
910.152214
 20
72.219172
 42
0.000609
  0
VERTEX
  8
0
 10
895.603348
 20
50.353052
 42
0.017137
  0
VERTEX
  8
0
 10
892.028342
 20
44.543083
 42
0.084047
  0
VERTEX
  8
0
 10
890.947792
 20
41.579578
 42
0.246661
  0
VERTEX
  8
0
 10
891.573411
 20
39.569446
 42
0.132374
  0
VERTEX
  8
0
 10
892.972021
 20
38.764601
 42
0.038359
  0
VERTEX
  8
0
 10
895.442194
 20
38.309281
 42
0.021851
  0
VERTEX
  8
0
 10
899.407527
 20
38.063491
 42
0.004553
  0
VERTEX
  8
0
 10
906.380299
 20
38.000000
 42
0.005754
  0
VERTEX
  8
0
 10
912.456958
 20
38.069931
 42
0.015350
  0
VERTEX
  8
0
 10
916.784916
 20
38.302619
 42
0.017292
  0
VERTEX
  8
0
 10
919.846015
 20
38.668586
 42
0.133149
  0
VERTEX
  8
0
 10
921.153888
 20
39.250000
 42
0.070888
  0
VERTEX
  8
0
 10
922.094260
 20
40.267136
 42
0.002511
  0
VERTEX
  8
0
 10
925.114999
 20
44.685937
 42
0.004603
  0
VERTEX
  8
0
 10
928.618387
 20
49.970612
 42
0.003201
  0
VERTEX
  8
0
 10
932.481376
 20
56.000000
 42
-0.001634
  0
VERTEX
  8
0
 10
936.320540
 20
62.033767
 42
-0.002373
  0
VERTEX
  8
0
 10
939.750874
 20
67.330803
 42
-0.001189
  0
VERTEX
  8
0
 10
942.694225
 20
71.805657
 42
-0.040320
  0
VERTEX
  8
0
 10
943.479062
 20
72.806990
 42
-0.431217
  0
VERTEX
  8
0
 10
944.529337
 20
72.818724
 42
-0.031190
  0
VERTEX
  8
0
 10
946.626447
 20
70.355857
 42
-0.018125
  0
VERTEX
  8
0
 10
949.855965
 20
65.703025
 42
-0.003130
  0
VERTEX
  8
0
 10
955.592704
 20
56.638574
 42
0.005204
  0
VERTEX
  8
0
 10
960.254771
 20
49.339357
 42
0.010538
  0
VERTEX
  8
0
 10
964.103247
 20
43.712589
 42
0.007285
  0
VERTEX
  8
0
 10
967.247657
 20
39.449610
 42
0.162411
  0
VERTEX
  8
0
 10
968.500000
 20
38.595238
 42
0.055922
  0
VERTEX
  8
0
 10
969.852057
 20
38.370168
 42
0.003732
  0
VERTEX
  8
0
 10
973.783705
 20
38.190127
 42
0.005344
  0
VERTEX
  8
0
 10
978.485011
 20
38.060291
 42
0.003972
  0
VERTEX
  8
0
 10
983.678571
 20
38.013655
 42
0.004568
  0
VERTEX
  8
0
 10
990.624732
 20
38.069918
 42
0.021970
  0
VERTEX
  8
0
 10
994.571733
 20
38.311654
 42
0.038667
  0
VERTEX
  8
0
 10
997.029978
 20
38.765073
 42
0.132188
  0
VERTEX
  8
0
 10
998.426589
 20
39.569446
 42
0.246763
  0
VERTEX
  8
0
 10
999.051984
 20
41.580208
 42
0.083969
  0
VERTEX
  8
0
 10
997.969914
 20
44.545797
 42
0.017120
  0
VERTEX
  8
0
 10
994.391667
 20
50.360545
 42
0.000608
  0
VERTEX
  8
0
 10
979.826954
 20
72.250388
 42
0.000000
  0
VERTEX
  8
0
 10
961.981272
 20
99.000776
 42
0.000000
  0
VERTEX
  8
0
 10
978.990636
 20
124.485970
 42
0.003408
  0
VERTEX
  8
0
 10
985.509697
 20
134.399192
 42
0.005239
  0
VERTEX
  8
0
 10
991.003499
 20
143.076624
 42
0.001946
  0
VERTEX
  8
0
 10
995.608061
 20
150.586156
 42
0.137392
  0
VERTEX
  8
0
 10
996.000000
 20
151.985582
 42
0.240235
  0
VERTEX
  8
0
 10
995.426260
 20
153.110787
 42
0.123841
  0
VERTEX
  8
0
 10
993.921049
 20
153.714256
 42
0.031699
  0
VERTEX
  8
0
 10
990.583504
 20
153.953281
 42
0.002249
  0
VERTEX
  8
0
 10
981.250000
 20
153.987084
 42
0.000000
  0
VERTEX
  8
0
 10
966.500000
 20
153.974168
 42
0.000000
  0
VERTEX
  8
0
 10
961.833798
 20
146.737084
 42
0.000168
  0
VERTEX
  8
0
 10
959.623537
 20
143.306531
 42
0.000081
  0
VERTEX
  8
0
 10
956.790473
 20
138.904516
 42
0.000080
  0
VERTEX
  8
0
 10
953.836226
 20
134.310962
 42
0.000114
  0
VERTEX
  8
0
 10
951.217571
 20
130.235736
 42
0.000000
  0
VERTEX
  8
0
 10
945.267546
 20
120.971472
 42
0.000000
  0
VERTEX
  8
0
 10
935.490815
 20
137.015072
 42
0.001648
  0
VERTEX
  8
0
 10
931.699270
 20
143.191100
 42
0.002615
  0
VERTEX
  8
0
 10
928.407681
 20
148.451634
 42
0.000584
  0
VERTEX
  8
0
 10
925.492187
 20
153.045471
 42
0.117726
  0
VERTEX
  8
0
 10
925.107043
 20
153.418741
 42
0.115482
  0
VERTEX
  8
0
 10
924.604566
 20
153.577168
 42
0.001003
  0
VERTEX
  8
0
 10
920.565819
 20
153.874444
 42
0.003433
  0
VERTEX
  8
0
 10
915.910004
 20
154.175628
 42
0.002200
  0
VERTEX
  8
0
 10
910.500000
 20
154.464437
 42
0.004095
  0
VERTEX
  8
0
 10
903.076704
 20
154.767061
 42
0.019834
  0
VERTEX
  8
0
 10
898.859089
 20
154.737079
 42
0.034745
  0
VERTEX
  8
0
 10
896.195564
 20
154.426088
 42
0.114620
  0
SEQEND
  0
POLYLINE
  8
0
 66
1
 70
1
  0
VERTEX
  8
0
 10
923.204808
 20
149.656113
 42
0.002263
  0
VERTEX
  8
0
 10
932.168835
 20
135.100855
 42
0.006034
  0
VERTEX
  8
0
 10
938.735491
 20
124.824213
 42
0.002699
  0
VERTEX
  8
0
 10
943.903448
 20
117.039572
 42
0.199194
  0
VERTEX
  8
0
 10
945.146572
 20
116.214241
 42
0.282291
  0
VERTEX
  8
0
 10
946.132321
 20
116.582365
 42
0.007527
  0
VERTEX
  8
0
 10
949.057538
 20
120.445729
 42
0.011806
  0
VERTEX
  8
0
 10
952.743247
 20
125.725810
 42
0.004797
  0
VERTEX
  8
0
 10
957.520665
 20
133.078407
 42
-0.003221
  0
VERTEX
  8
0
 10
961.782022
 20
139.682234
 42
-0.005010
  0
VERTEX
  8
0
 10
965.549103
 20
145.314372
 42
-0.001669
  0
VERTEX
  8
0
 10
968.859703
 20
150.123741
 42
-0.150669
  0
VERTEX
  8
0
 10
969.529990
 20
150.649882
 42
-0.085802
  0
VERTEX
  8
0
 10
970.331048
 20
150.808283
 42
-0.003129
  0
VERTEX
  8
0
 10
973.446150
 20
150.863672
 42
-0.005641
  0
VERTEX
  8
0
 10
977.143290
 20
150.864562
 42
-0.003920
  0
VERTEX
  8
0
 10
981.318968
 20
150.785716
 42
0.000000
  0
VERTEX
  8
0
 10
992.009405
 20
150.500000
 42
0.000000
  0
VERTEX
  8
0
 10
975.504703
 20
125.759103
 42
0.002655
  0
VERTEX
  8
0
 10
969.178421
 20
116.165940
 42
0.004154
  0
VERTEX
  8
0
 10
963.848256
 20
107.838743
 42
0.001237
  0
VERTEX
  8
0
 10
959.307553
 20
100.573565
 42
0.139933
  0
VERTEX
  8
0
 10
959.000000
 20
99.496156
 42
0.141140
  0
VERTEX
  8
0
 10
959.313028
 20
98.409317
 42
0.000951
  0
VERTEX
  8
0
 10
964.589202
 20
90.045022
 42
0.003636
  0
VERTEX
  8
0
 10
970.733607
 20
80.499550
 42
0.002304
  0
VERTEX
  8
0
 10
978.027071
 20
69.459431
 42
0.000000
  0
VERTEX
  8
0
 10
997.054142
 20
40.944757
 42
0.000000
  0
VERTEX
  8
0
 10
982.880308
 20
41.222378
 42
0.000000
  0
VERTEX
  8
0
 10
968.706474
 20
41.500000
 42
0.000000
  0
VERTEX
  8
0
 10
957.037175
 20
59.938687
 42
0.002737
  0
VERTEX
  8
0
 10
952.496595
 20
67.027106
 42
0.004338
  0
VERTEX
  8
0
 10
948.521389
 20
73.043735
 42
0.001148
  0
VERTEX
  8
0
 10
945.006711
 20
78.238503
 42
0.171863
  0
VERTEX
  8
0
 10
944.433938
 20
78.658992
 42
0.323421
  0
VERTEX
  8
0
 10
943.856274
 20
78.459357
 42
0.001711
  0
VERTEX
  8
0
 10
940.249344
 20
73.287948
 42
0.006421
  0
VERTEX
  8
0
 10
936.168050
 20
67.228730
 42
0.003923
  0
VERTEX
  8
0
 10
931.500000
 20
59.979127
 42
0.000000
  0
VERTEX
  8
0
 10
919.500000
 20
41.017645
 42
0.000000
  0
VERTEX
  8
0
 10
906.134990
 20
41.008823
 42
0.000000
  0
VERTEX
  8
0
 10
892.769980
 20
41.000000
 42
0.000000
  0
VERTEX
  8
0
 10
894.531942
 20
43.750000
 42
-0.004991
  0
VERTEX
  8
0
 10
895.802202
 20
45.689670
 42
-0.000170
  0
VERTEX
  8
0
 10
900.873786
 20
53.262217
 42
-0.000320
  0
VERTEX
  8
0
 10
906.870453
 20
62.197116
 42
-0.000223
  0
VERTEX
  8
0
 10
913.646952
 20
72.270312
 42
0.001357
  0
VERTEX
  8
0
 10
920.299641
 20
82.208078
 42
0.002192
  0
VERTEX
  8
0
 10
925.902542
 20
90.707573
 42
0.000346
  0
VERTEX
  8
0
 10
930.825122
 20
98.258164
 42
0.145272
  0
VERTEX
  8
0
 10
931.000000
 20
98.847361
 42
0.145180
  0
VERTEX
  8
0
 10
930.825444
 20
99.435858
 42
0.000369
  0
VERTEX
  8
0
 10
926.067928
 20
106.738236
 42
0.002264
  0
VERTEX
  8
0
 10
920.646770
 20
114.964196
 42
0.001404
  0
VERTEX
  8
0
 10
914.209969
 20
124.577049
 42
-0.000207
  0
VERTEX
  8
0
 10
907.713357
 20
134.229191
 42
-0.000319
  0
VERTEX
  8
0
 10
902.102124
 20
142.584898
 42
-0.000098
  0
VERTEX
  8
0
 10
897.238406
 20
149.840571
 42
-0.009658
  0
VERTEX
  8
0
 10
896.569261
 20
150.882179
 42
-0.471625
  0
VERTEX
  8
0
 10
896.798622
 20
151.552515
 42
-0.077019
  0
VERTEX
  8
0
 10
898.344686
 20
151.875599
 42
-0.023621
  0
VERTEX
  8
0
 10
901.757101
 20
151.892800
 42
-0.002994
  0
VERTEX
  8
0
 10
909.109292
 20
151.538292
 42
-0.006271
  0
VERTEX
  8
0
 10
914.761405
 20
151.160676
 42
-0.013374
  0
VERTEX
  8
0
 10
919.114912
 20
150.697473
 42
-0.009759
  0
VERTEX
  8
0
 10
922.419825
 20
150.190332
 42
-0.216161
  0
SEQEND
  0
POLYLINE
  8
0
 66
1
 70
1
  0
VERTEX
  8
0
 10
151.235865
 20
124.940167
 42
0.071518
  0
VERTEX
  8
0
 10
140.458633
 20
121.158718
 42
0.076298
  0
VERTEX
  8
0
 10
131.447160
 20
114.553094
 42
0.085952
  0
VERTEX
  8
0
 10
125.657622
 20
106.347816
 42
0.135342
  0
VERTEX
  8
0
 10
124.174796
 20
97.908821
 42
0.000000
  0
VERTEX
  8
0
 10
124.500000
 20
94.500000
 42
0.000000
  0
VERTEX
  8
0
 10
136.358171
 20
94.217329
 42
0.008390
  0
VERTEX
  8
0
 10
144.707761
 20
94.158432
 42
0.073703
  0
VERTEX
  8
0
 10
148.348761
 20
94.734311
 42
0.170111
  0
VERTEX
  8
0
 10
150.306295
 20
96.194832
 42
0.094428
  0
VERTEX
  8
0
 10
151.492402
 20
98.965406
 42
-0.082889
  0
VERTEX
  8
0
 10
152.763252
 20
102.132445
 42
-0.132726
  0
VERTEX
  8
0
 10
154.862170
 20
104.126893
 42
-0.095221
  0
VERTEX
  8
0
 10
158.222638
 20
105.188920
 42
-0.029067
  0
VERTEX
  8
0
 10
163.569273
 20
105.500000
 42
-0.022628
  0
VERTEX
  8
0
 10
168.849344
 20
105.260928
 42
-0.104322
  0
VERTEX
  8
0
 10
171.758626
 20
104.366120
 42
-0.151511
  0
VERTEX
  8
0
 10
173.486091
 20
102.562310
 42
-0.066511
  0
VERTEX
  8
0
 10
174.569940
 20
99.400298
 42
-0.162656
  0
VERTEX
  8
0
 10
174.134696
 20
95.939101
 42
-0.183190
  0
VERTEX
  8
0
 10
171.716814
 20
93.637098
 42
-0.057132
  0
VERTEX
  8
0
 10
165.859503
 20
91.925184
 42
-0.005548
  0
VERTEX
  8
0
 10
151.244250
 20
89.579868
 42
0.019861
  0
VERTEX
  8
0
 10
142.591021
 20
87.936000
 42
0.043419
  0
VERTEX
  8
0
 10
136.178227
 20
85.851816
 42
0.054569
  0
VERTEX
  8
0
 10
131.207170
 20
83.070883
 42
0.057545
  0
VERTEX
  8
0
 10
127.053004
 20
79.322875
 42
0.055507
  0
VERTEX
  8
0
 10
124.122419
 20
75.137769
 42
0.054245
  0
VERTEX
  8
0
 10
122.157250
 20
70.378697
 42
0.052139
  0
VERTEX
  8
0
 10
121.208049
 20
65.133744
 42
0.044454
  0
VERTEX
  8
0
 10
121.286756
 20
59.510550
 42
0.058890
  0
VERTEX
  8
0
 10
122.747667
 20
52.992484
 42
0.070688
  0
VERTEX
  8
0
 10
125.643341
 20
47.420544
 42
0.068966
  0
VERTEX
  8
0
 10
130.043877
 20
42.773227
 42
0.052543
  0
VERTEX
  8
0
 10
135.951747
 20
38.986771
 42
0.085794
  0
VERTEX
  8
0
 10
143.891161
 20
36.584600
 42
0.044852
  0
VERTEX
  8
0
 10
154.246676
 20
36.242811
 42
0.044537
  0
VERTEX
  8
0
 10
164.669908
 20
37.771935
 42
0.074730
  0
VERTEX
  8
0
 10
172.859939
 20
41.079868
 42
-0.007463
  0
VERTEX
  8
0
 10
174.169610
 20
41.826467
 42
-0.012590
  0
VERTEX
  8
0
 10
175.292042
 20
42.407984
 42
-0.006282
  0
VERTEX
  8
0
 10
176.226977
 20
42.848441
 42
-0.421416
  0
VERTEX
  8
0
 10
176.376032
 20
42.790635
 42
0.058152
  0
VERTEX
  8
0
 10
177.802759
 20
40.295048
 42
0.148519
  0
VERTEX
  8
0
 10
179.455759
 20
39.063315
 42
0.072458
  0
VERTEX
  8
0
 10
182.232009
 20
38.498098
 42
0.007034
  0
VERTEX
  8
0
 10
189.106317
 20
38.208418
 42
0.006325
  0
VERTEX
  8
0
 10
198.263266
 20
38.067413
 42
0.069794
  0
VERTEX
  8
0
 10
201.887530
 20
38.565640
 42
0.236903
  0
VERTEX
  8
0
 10
203.351251
 20
39.905387
 42
0.143929
  0
VERTEX
  8
0
 10
203.539207
 20
42.295850
 42
-0.040813
  0
VERTEX
  8
0
 10
203.247799
 20
44.599164
 42
-0.001345
  0
VERTEX
  8
0
 10
202.862494
 20
53.860756
 42
-0.002559
  0
VERTEX
  8
0
 10
202.492882
 20
64.800993
 42
-0.001777
  0
VERTEX
  8
0
 10
202.182437
 20
77.166298
 42
0.000000
  0
VERTEX
  8
0
 10
201.500000
 20
108.832595
 42
0.000000
  0
VERTEX
  8
0
 10
198.469073
 20
113.142639
 42
0.055170
  0
VERTEX
  8
0
 10
195.017691
 20
117.053133
 42
0.049799
  0
VERTEX
  8
0
 10
190.680800
 20
120.268243
 42
0.046271
  0
VERTEX
  8
0
 10
185.484020
 20
122.752621
 42
0.036197
  0
VERTEX
  8
0
 10
179.474171
 20
124.487962
 42
0.031428
  0
VERTEX
  8
0
 10
173.093890
 20
125.425546
 42
0.016766
  0
VERTEX
  8
0
 10
165.125697
 20
125.820630
 42
0.016740
  0
VERTEX
  8
0
 10
157.255898
 20
125.683172
 42
0.035945
  0
SEQEND
  0
POLYLINE
  8
0
 66
1
 70
1
  0
VERTEX
  8
0
 10
177.534616
 20
121.908968
 42
-0.028474
  0
VERTEX
  8
0
 10
182.050222
 20
120.805223
 42
-0.026985
  0
VERTEX
  8
0
 10
186.494997
 20
119.179640
 42
-0.028389
  0
VERTEX
  8
0
 10
190.424620
 20
117.226159
 42
-0.051011
  0
VERTEX
  8
0
 10
193.352379
 20
115.135849
 42
-0.095572
  0
VERTEX
  8
0
 10
196.279685
 20
111.350488
 42
-0.080040
  0
VERTEX
  8
0
 10
197.820947
 20
106.504888
 42
-0.029475
  0
VERTEX
  8
0
 10
198.578243
 20
98.045318
 42
-0.002579
  0
VERTEX
  8
0
 10
199.121092
 20
76.500000
 42
0.002106
  0
VERTEX
  8
0
 10
199.413115
 20
64.457401
 42
0.003156
  0
VERTEX
  8
0
 10
199.778740
 20
53.945312
 42
0.001314
  0
VERTEX
  8
0
 10
200.171935
 20
44.954878
 42
0.068514
  0
VERTEX
  8
0
 10
200.487723
 20
43.250000
 42
-0.147591
  0
VERTEX
  8
0
 10
200.521997
 20
41.976163
 42
-0.276260
  0
VERTEX
  8
0
 10
199.803666
 20
41.285788
 42
-0.054038
  0
VERTEX
  8
0
 10
197.712844
 20
41.036835
 42
-0.002635
  0
VERTEX
  8
0
 10
190.723620
 20
41.000000
 42
-0.008105
  0
VERTEX
  8
0
 10
183.458460
 20
41.117783
 42
-0.094429
  0
VERTEX
  8
0
 10
180.699730
 20
41.736775
 42
-0.222109
  0
VERTEX
  8
0
 10
179.419704
 20
43.182582
 42
-0.072007
  0
VERTEX
  8
0
 10
179.000000
 20
46.081787
 42
0.063181
  0
VERTEX
  8
0
 10
178.826674
 20
47.447978
 42
0.396993
  0
VERTEX
  8
0
 10
178.284723
 20
47.789709
 42
0.087654
  0
VERTEX
  8
0
 10
177.144826
 20
47.350076
 42
0.003304
  0
VERTEX
  8
0
 10
173.231221
 20
44.952955
 42
-0.077036
  0
VERTEX
  8
0
 10
162.301707
 20
40.300978
 42
-0.070583
  0
VERTEX
  8
0
 10
150.136130
 20
38.985556
 42
-0.075130
  0
VERTEX
  8
0
 10
138.818637
 20
41.082459
 42
-0.113539
  0
VERTEX
  8
0
 10
130.358970
 20
46.377872
 42
-0.054407
  0
VERTEX
  8
0
 10
127.209378
 20
50.299156
 42
-0.064320
  0
VERTEX
  8
0
 10
125.186852
 20
54.600598
 42
-0.060199
  0
VERTEX
  8
0
 10
124.238940
 20
59.508072
 42
-0.040051
  0
VERTEX
  8
0
 10
124.293461
 20
65.244373
 42
-0.102174
  0
VERTEX
  8
0
 10
127.025208
 20
74.292714
 42
-0.127646
  0
VERTEX
  8
0
 10
132.991110
 20
80.686858
 42
-0.085101
  0
VERTEX
  8
0
 10
143.354780
 20
85.023662
 42
-0.026610
  0
VERTEX
  8
0
 10
160.004489
 20
87.938634
 42
0.031405
  0
VERTEX
  8
0
 10
169.891905
 20
89.767501
 42
0.117679
  0
VERTEX
  8
0
 10
175.454217
 20
92.663107
 42
0.198576
  0
VERTEX
  8
0
 10
177.531049
 20
96.808025
 42
0.117592
  0
VERTEX
  8
0
 10
176.627232
 20
102.349733
 42
0.091104
  0
VERTEX
  8
0
 10
174.734462
 20
105.254626
 42
0.087570
  0
VERTEX
  8
0
 10
171.909092
 20
107.344704
 42
0.073334
  0
VERTEX
  8
0
 10
168.096446
 20
108.590472
 42
0.042458
  0
VERTEX
  8
0
 10
163.282119
 20
108.998446
 42
0.052090
  0
VERTEX
  8
0
 10
158.634868
 20
108.511452
 42
0.075561
  0
VERTEX
  8
0
 10
154.779602
 20
107.063254
 42
0.081622
  0
VERTEX
  8
0
 10
151.741475
 20
104.641155
 42
0.073057
  0
VERTEX
  8
0
 10
149.500000
 20
101.286238
 42
0.000000
  0
VERTEX
  8
0
 10
147.500000
 20
97.072475
 42
0.000000
  0
VERTEX
  8
0
 10
137.250000
 20
97.036238
 42
0.000000
  0
VERTEX
  8
0
 10
127.000000
 20
97.000000
 42
0.000000
  0
VERTEX
  8
0
 10
127.000000
 20
99.532119
 42
-0.091128
  0
VERTEX
  8
0
 10
127.881209
 20
104.326955
 42
-0.061186
  0
VERTEX
  8
0
 10
130.489065
 20
109.266884
 42
-0.056141
  0
VERTEX
  8
0
 10
134.504527
 20
113.844131
 42
-0.051458
  0
VERTEX
  8
0
 10
139.549850
 20
117.566939
 42
-0.069102
  0
VERTEX
  8
0
 10
146.908470
 20
120.633835
 42
-0.035786
  0
VERTEX
  8
0
 10
156.717975
 20
122.473213
 42
-0.034325
  0
VERTEX
  8
0
 10
167.409486
 20
122.956720
 42
-0.039863
  0
SEQEND
  0
POLYLINE
  8
0
 66
1
 70
1
  0
VERTEX
  8
0
 10
243.000000
 20
124.569027
 42
0.059962
  0
VERTEX
  8
0
 10
233.028072
 20
120.456379
 42
0.067206
  0
VERTEX
  8
0
 10
224.735372
 20
114.215324
 42
0.066341
  0
VERTEX
  8
0
 10
218.313495
 20
105.922667
 42
0.056239
  0
VERTEX
  8
0
 10
213.851111
 20
95.769441
 42
0.046247
  0
VERTEX
  8
0
 10
212.379218
 20
88.840119
 42
0.028771
  0
VERTEX
  8
0
 10
211.886016
 20
80.539786
 42
0.028804
  0
VERTEX
  8
0
 10
212.348265
 20
72.259560
 42
0.047276
  0
VERTEX
  8
0
 10
213.795728
 20
65.395823
 42
0.037943
  0
VERTEX
  8
0
 10
215.985076
 20
59.885152
 42
0.027989
  0
VERTEX
  8
0
 10
219.190964
 20
54.153546
 42
0.028532
  0
VERTEX
  8
0
 10
222.823456
 20
49.097457
 42
0.059962
  0
VERTEX
  8
0
 10
226.287382
 20
45.732052
 42
0.087702
  0
VERTEX
  8
0
 10
240.761007
 20
38.266032
 42
0.083796
  0
VERTEX
  8
0
 10
257.153892
 20
36.054842
 42
0.086424
  0
VERTEX
  8
0
 10
272.925273
 20
39.342983
 42
0.102212
  0
VERTEX
  8
0
 10
285.631780
 20
47.698447
 42
0.052255
  0
VERTEX
  8
0
 10
288.678634
 20
51.458657
 42
0.026483
  0
VERTEX
  8
0
 10
291.728597
 20
56.741158
 42
0.026470
  0
VERTEX
  8
0
 10
294.218105
 20
62.349953
 42
0.049400
  0
VERTEX
  8
0
 10
295.523677
 20
67.140146
 42
0.067395
  0
VERTEX
  8
0
 10
295.648000
 20
70.931262
 42
0.242591
  0
VERTEX
  8
0
 10
294.367205
 20
72.895615
 42
0.117587
  0
VERTEX
  8
0
 10
291.220051
 20
73.810537
 42
0.012205
  0
VERTEX
  8
0
 10
283.459343
 20
74.000000
 42
0.005416
  0
VERTEX
  8
0
 10
279.401288
 20
73.956042
 42
0.007273
  0
VERTEX
  8
0
 10
275.726496
 20
73.822921
 42
0.005211
  0
VERTEX
  8
0
 10
272.662099
 20
73.635211
 42
0.073835
  0
VERTEX
  8
0
 10
271.592644
 20
73.397177
 42
0.133098
  0
VERTEX
  8
0
 10
270.916388
 20
72.903022
 42
0.037474
  0
VERTEX
  8
0
 10
270.171815
 20
71.815133
 42
0.034946
  0
VERTEX
  8
0
 10
269.483134
 20
70.408955
 42
0.030640
  0
VERTEX
  8
0
 10
268.961767
 20
68.858013
 42
-0.037105
  0
VERTEX
  8
0
 10
268.353441
 20
67.122911
 42
-0.022114
  0
VERTEX
  8
0
 10
267.390016
 20
65.156691
 42
-0.022066
  0
VERTEX
  8
0
 10
266.250220
 20
63.272159
 42
-0.035298
  0
VERTEX
  8
0
 10
265.099560
 20
61.785398
 42
-0.035962
  0
VERTEX
  8
0
 10
263.350450
 20
60.090391
 42
-0.078603
  0
VERTEX
  8
0
 10
261.754906
 20
59.131993
 42
-0.063128
  0
VERTEX
  8
0
 10
259.726279
 20
58.596804
 42
-0.016894
  0
VERTEX
  8
0
 10
256.398650
 20
58.269421
 42
-0.093345
  0
VERTEX
  8
0
 10
249.344858
 20
59.133328
 42
-0.137582
  0
VERTEX
  8
0
 10
244.160814
 20
62.540618
 42
-0.112391
  0
VERTEX
  8
0
 10
240.830418
 20
68.753908
 42
-0.049982
  0
VERTEX
  8
0
 10
239.264749
 20
77.967866
 42
-0.033748
  0
VERTEX
  8
0
 10
239.257954
 20
85.014230
 42
-0.052485
  0
VERTEX
  8
0
 10
240.293150
 20
90.995345
 42
-0.060520
  0
VERTEX
  8
0
 10
242.380398
 20
95.971702
 42
-0.070863
  0
VERTEX
  8
0
 10
245.515036
 20
100.014574
 42
-0.024835
  0
VERTEX
  8
0
 10
247.798610
 20
102.017898
 42
-0.083769
  0
VERTEX
  8
0
 10
249.532269
 20
102.972460
 42
-0.070118
  0
VERTEX
  8
0
 10
251.643564
 20
103.391992
 42
-0.014038
  0
VERTEX
  8
0
 10
255.489879
 20
103.500000
 42
-0.013706
  0
VERTEX
  8
0
 10
259.168678
 20
103.399138
 42
-0.060468
  0
VERTEX
  8
0
 10
261.300086
 20
103.020947
 42
-0.080670
  0
VERTEX
  8
0
 10
262.968854
 20
102.199577
 42
-0.036417
  0
VERTEX
  8
0
 10
264.853432
 20
100.640421
 42
-0.030270
  0
VERTEX
  8
0
 10
266.044599
 20
99.352245
 42
-0.024979
  0
VERTEX
  8
0
 10
267.155673
 20
97.846863
 42
-0.025688
  0
VERTEX
  8
0
 10
268.036956
 20
96.358180
 42
-0.059379
  0
VERTEX
  8
0
 10
268.499488
 20
95.146016
 42
0.072011
  0
VERTEX
  8
0
 10
269.697183
 20
92.229645
 42
0.172973
  0
VERTEX
  8
0
 10
271.466434
 20
90.755123
 42
0.080078
  0
VERTEX
  8
0
 10
274.688659
 20
90.127346
 42
0.008151
  0
VERTEX
  8
0
 10
282.500000
 20
90.000000
 42
0.010163
  0
VERTEX
  8
0
 10
291.367470
 20
90.180266
 42
0.132002
  0
VERTEX
  8
0
 10
294.490255
 20
91.157006
 42
0.262575
  0
VERTEX
  8
0
 10
295.643224
 20
93.310222
 42
0.047365
  0
VERTEX
  8
0
 10
295.094464
 20
97.995134
 42
0.050941
  0
VERTEX
  8
0
 10
292.714960
 20
105.346107
 42
0.062197
  0
VERTEX
  8
0
 10
289.006947
 20
111.544903
 42
0.061676
  0
VERTEX
  8
0
 10
283.859696
 20
116.680695
 42
0.048911
  0
VERTEX
  8
0
 10
277.211757
 20
120.879648
 42
0.049376
  0
VERTEX
  8
0
 10
269.210140
 20
123.954926
 42
0.040229
  0
VERTEX
  8
0
 10
260.188393
 20
125.669781
 42
0.040649
  0
VERTEX
  8
0
 10
251.124085
 20
125.907063
 42
0.054129
  0
SEQEND
  0
POLYLINE
  8
0
 66
1
 70
1
  0
VERTEX
  8
0
 10
272.201632
 20
120.070821
 42
-0.062660
  0
VERTEX
  8
0
 10
279.418922
 20
116.220309
 42
-0.060242
  0
VERTEX
  8
0
 10
285.565145
 20
110.657750
 42
-0.061917
  0
VERTEX
  8
0
 10
290.065024
 20
103.954350
 42
-0.074377
  0
VERTEX
  8
0
 10
292.444765
 20
96.750000
 42
0.000000
  0
VERTEX
  8
0
 10
293.090626
 20
93.000000
 42
0.000000
  0
VERTEX
  8
0
 10
282.789461
 20
93.000000
 42
0.000000
  0
VERTEX
  8
0
 10
272.488296
 20
93.000000
 42
0.000000
  0
VERTEX
  8
0
 10
270.191504
 20
98.006533
 42
0.066297
  0
VERTEX
  8
0
 10
267.718364
 20
101.929304
 42
0.081900
  0
VERTEX
  8
0
 10
264.452390
 20
104.750425
 42
0.079413
  0
VERTEX
  8
0
 10
260.368800
 20
106.431472
 42
0.058071
  0
VERTEX
  8
0
 10
255.490178
 20
107.000000
 42
0.047093
  0
VERTEX
  8
0
 10
251.605375
 20
106.633295
 42
0.065700
  0
VERTEX
  8
0
 10
248.295292
 20
105.538410
 42
0.062360
  0
VERTEX
  8
0
 10
245.259154
 20
103.569928
 42
0.037640
  0
VERTEX
  8
0
 10
242.191370
 20
100.565177
 42
0.129914
  0
VERTEX
  8
0
 10
236.908601
 20
89.960036
 42
0.081210
  0
VERTEX
  8
0
 10
236.326689
 20
76.016358
 42
0.085770
  0
VERTEX
  8
0
 10
240.128024
 20
63.346156
 42
0.180012
  0
VERTEX
  8
0
 10
247.529884
 20
56.423067
 42
0.104645
  0
VERTEX
  8
0
 10
255.109781
 20
54.986922
 42
0.103233
  0
VERTEX
  8
0
 10
262.661957
 20
56.731499
 42
0.109173
  0
VERTEX
  8
0
 10
268.571062
 20
61.225891
 42
0.130133
  0
VERTEX
  8
0
 10
271.571500
 20
67.529437
 42
0.000000
  0
VERTEX
  8
0
 10
272.222582
 20
71.000000
 42
0.000000
  0
VERTEX
  8
0
 10
282.722582
 20
71.000000
 42
0.000000
  0
VERTEX
  8
0
 10
293.222582
 20
71.000000
 42
0.000000
  0
VERTEX
  8
0
 10
292.532266
 20
67.250000
 42
-0.087275
  0
VERTEX
  8
0
 10
288.566323
 20
56.589414
 42
-0.085971
  0
VERTEX
  8
0
 10
281.185345
 20
47.858050
 42
-0.083093
  0
VERTEX
  8
0
 10
271.056302
 20
41.900271
 42
-0.074547
  0
VERTEX
  8
0
 10
259.148787
 20
39.274197
 42
-0.071627
  0
VERTEX
  8
0
 10
244.141822
 20
40.398282
 42
-0.092163
  0
VERTEX
  8
0
 10
231.433127
 20
45.795145
 42
-0.096113
  0
VERTEX
  8
0
 10
221.891898
 20
55.177928
 42
-0.084979
  0
VERTEX
  8
0
 10
216.040174
 20
67.850806
 42
-0.047394
  0
VERTEX
  8
0
 10
215.198641
 20
72.803193
 42
-0.018055
  0
VERTEX
  8
0
 10
214.935911
 20
79.806899
 42
-0.018270
  0
VERTEX
  8
0
 10
215.187546
 20
86.963863
 42
-0.037213
  0
VERTEX
  8
0
 10
216.005870
 20
92.526191
 42
-0.049107
  0
VERTEX
  8
0
 10
218.422683
 20
99.853555
 42
-0.045514
  0
VERTEX
  8
0
 10
222.270756
 20
106.770301
 42
-0.046526
  0
VERTEX
  8
0
 10
227.202653
 20
112.725879
 42
-0.057670
  0
VERTEX
  8
0
 10
232.836372
 20
117.197914
 42
-0.072605
  0
VERTEX
  8
0
 10
241.302052
 20
120.885215
 42
-0.048281
  0
VERTEX
  8
0
 10
251.755568
 20
122.672512
 42
-0.047499
  0
VERTEX
  8
0
 10
262.587953
 20
122.433345
 42
-0.062064
  0
SEQEND
  0
POLYLINE
  8
0
 66
1
 70
1
  0
VERTEX
  8
0
 10
437.172551
 20
132.731040
 42
0.079237
  0
VERTEX
  8
0
 10
433.010838
 20
130.628291
 42
0.040109
  0
VERTEX
  8
0
 10
428.530981
 20
126.807494
 42
0.039016
  0
VERTEX
  8
0
 10
424.500881
 20
122.085068
 42
0.051705
  0
VERTEX
  8
0
 10
421.669819
 20
117.199058
 42
0.059493
  0
VERTEX
  8
0
 10
418.432146
 20
106.842216
 42
0.049394
  0
VERTEX
  8
0
 10
417.446312
 20
95.331018
 42
0.049838
  0
VERTEX
  8
0
 10
418.734577
 20
83.965657
 42
0.063793
  0
VERTEX
  8
0
 10
422.242726
 20
74.044346
 42
0.144983
  0
VERTEX
  8
0
 10
433.569865
 20
62.012778
 42
0.146940
  0
VERTEX
  8
0
 10
449.560200
 20
58.170884
 42
0.146349
  0
VERTEX
  8
0
 10
465.068983
 20
63.772922
 42
0.143576
  0
VERTEX
  8
0
 10
475.094667
 20
77.007023
 42
0.066813
  0
VERTEX
  8
0
 10
478.312504
 20
90.769059
 42
0.064280
  0
VERTEX
  8
0
 10
477.852690
 20
105.080857
 42
0.068529
  0
VERTEX
  8
0
 10
473.918190
 20
117.920753
 42
0.101421
  0
VERTEX
  8
0
 10
466.942617
 20
127.361684
 42
0.023873
  0
VERTEX
  8
0
 10
464.837357
 20
129.080109
 42
0.019401
  0
VERTEX
  8
0
 10
462.430179
 20
130.720026
 42
0.019822
  0
VERTEX
  8
0
 10
460.089904
 20
132.058741
 42
0.047252
  0
VERTEX
  8
0
 10
458.235816
 20
132.811202
 42
0.053361
  0
VERTEX
  8
0
 10
453.847426
 20
133.630065
 42
0.020418
  0
VERTEX
  8
0
 10
447.631611
 20
133.860310
 42
0.020324
  0
VERTEX
  8
0
 10
441.442486
 20
133.585033
 42
0.056212
  0
SEQEND
  0
POLYLINE
  8
0
 66
1
 70
1
  0
VERTEX
  8
0
 10
459.508577
 20
129.135018
 42
-0.130108
  0
VERTEX
  8
0
 10
468.109112
 20
122.106127
 42
-0.086961
  0
VERTEX
  8
0
 10
473.707779
 20
110.615070
 42
-0.075290
  0
VERTEX
  8
0
 10
475.578163
 20
96.262777
 42
-0.062398
  0
VERTEX
  8
0
 10
473.344085
 20
81.000000
 42
-0.053208
  0
VERTEX
  8
0
 10
470.794571
 20
74.547472
 42
-0.063684
  0
VERTEX
  8
0
 10
467.055063
 20
69.194801
 42
-0.066659
  0
VERTEX
  8
0
 10
462.251402
 20
65.143167
 42
-0.067405
  0
VERTEX
  8
0
 10
456.568499
 20
62.516548
 42
-0.081231
  0
VERTEX
  8
0
 10
446.780690
 20
61.174762
 42
-0.093144
  0
VERTEX
  8
0
 10
437.563587
 20
63.154921
 42
-0.094570
  0
VERTEX
  8
0
 10
429.799637
 20
68.307893
 42
-0.086572
  0
VERTEX
  8
0
 10
424.191105
 20
76.105230
 42
-0.053296
  0
VERTEX
  8
0
 10
422.180433
 20
81.711635
 42
-0.030193
  0
VERTEX
  8
0
 10
420.905364
 20
88.819908
 42
-0.029199
  0
VERTEX
  8
0
 10
420.457519
 20
96.435096
 42
-0.034654
  0
VERTEX
  8
0
 10
420.953563
 20
103.621117
 42
-0.040448
  0
VERTEX
  8
0
 10
422.940791
 20
112.547477
 42
-0.062069
  0
VERTEX
  8
0
 10
426.194635
 20
119.758410
 42
-0.070812
  0
VERTEX
  8
0
 10
430.725275
 20
125.256272
 42
-0.076584
  0
VERTEX
  8
0
 10
436.500000
 20
129.100150
 42
-0.073960
  0
VERTEX
  8
0
 10
441.377787
 20
130.538596
 42
-0.034414
  0
VERTEX
  8
0
 10
447.974498
 20
131.003221
 42
-0.034417
  0
VERTEX
  8
0
 10
454.584128
 20
130.557773
 42
-0.072707
  0
SEQEND
  0
POLYLINE
  8
0
 66
1
 70
1
  0
VERTEX
  8
0
 10
778.933337
 20
133.049563
 42
0.056406
  0
VERTEX
  8
0
 10
775.402522
 20
131.526713
 42
0.032887
  0
VERTEX
  8
0
 10
771.554976
 20
128.974797
 42
0.032711
  0
VERTEX
  8
0
 10
768.032047
 20
125.904918
 42
0.051046
  0
VERTEX
  8
0
 10
765.483145
 20
122.795165
 42
0.089465
  0
VERTEX
  8
0
 10
759.808956
 20
109.601264
 42
0.067647
  0
VERTEX
  8
0
 10
758.347872
 20
93.869303
 42
0.068818
  0
VERTEX
  8
0
 10
761.123073
 20
78.609642
 42
0.101147
  0
VERTEX
  8
0
 10
767.862861
 20
66.808974
 42
0.104825
  0
VERTEX
  8
0
 10
775.505136
 20
61.102597
 42
0.083926
  0
VERTEX
  8
0
 10
785.441538
 20
58.405715
 42
0.081447
  0
VERTEX
  8
0
 10
795.991591
 20
59.092066
 42
0.089620
  0
VERTEX
  8
0
 10
805.391155
 20
63.135700
 42
0.080304
  0
VERTEX
  8
0
 10
811.283527
 20
68.573388
 42
0.068160
  0
VERTEX
  8
0
 10
815.562859
 20
75.891567
 42
0.059252
  0
VERTEX
  8
0
 10
818.142556
 20
85.046530
 42
0.039404
  0
VERTEX
  8
0
 10
818.988131
 20
95.931501
 42
0.042635
  0
VERTEX
  8
0
 10
817.876836
 20
108.752844
 42
0.073084
  0
VERTEX
  8
0
 10
814.531758
 20
118.929122
 42
0.085879
  0
VERTEX
  8
0
 10
808.894833
 20
126.582347
 42
0.085205
  0
VERTEX
  8
0
 10
801.000000
 20
131.921460
 42
0.067747
  0
VERTEX
  8
0
 10
796.592924
 20
133.233436
 42
0.025750
  0
VERTEX
  8
0
 10
790.198938
 20
133.891559
 42
0.025918
  0
VERTEX
  8
0
 10
783.708838
 20
133.886713
 42
0.060557
  0
SEQEND
  0
POLYLINE
  8
0
 66
1
 70
1
  0
VERTEX
  8
0
 10
803.165742
 20
127.468345
 42
-0.075250
  0
VERTEX
  8
0
 10
809.318344
 20
121.613775
 42
-0.077650
  0
VERTEX
  8
0
 10
813.383742
 20
114.259898
 42
-0.064427
  0
VERTEX
  8
0
 10
815.497142
 20
104.868263
 42
-0.033520
  0
VERTEX
  8
0
 10
815.805682
 20
92.843183
 42
-0.026264
  0
VERTEX
  8
0
 10
814.988718
 20
84.166299
 42
-0.057359
  0
VERTEX
  8
0
 10
813.267565
 20
77.721867
 42
-0.066823
  0
VERTEX
  8
0
 10
810.334595
 20
72.466380
 42
-0.049043
  0
VERTEX
  8
0
 10
805.826400
 20
67.533827
 42
-0.112244
  0
VERTEX
  8
0
 10
796.187989
 20
62.158200
 42
-0.106656
  0
VERTEX
  8
0
 10
784.984171
 20
61.342272
 42
-0.107020
  0
VERTEX
  8
0
 10
774.470914
 20
65.216176
 42
-0.113730
  0
VERTEX
  8
0
 10
766.771202
 20
73.030056
 42
-0.092578
  0
VERTEX
  8
0
 10
762.274128
 20
84.731263
 42
-0.061048
  0
VERTEX
  8
0
 10
761.402393
 20
99.159034
 42
-0.061947
  0
VERTEX
  8
0
 10
764.014462
 20
113.091284
 42
-0.106553
  0
VERTEX
  8
0
 10
769.870798
 20
123.287128
 42
-0.045270
  0
VERTEX
  8
0
 10
774.058525
 20
127.162223
 42
-0.075798
  0
VERTEX
  8
0
 10
778.248350
 20
129.477641
 42
-0.067430
  0
VERTEX
  8
0
 10
783.281035
 20
130.597220
 42
-0.029062
  0
VERTEX
  8
0
 10
790.165742
 20
130.777180
 42
-0.009591
  0
VERTEX
  8
0
 10
795.239375
 20
130.517409
 42
-0.044754
  0
VERTEX
  8
0
 10
798.127047
 20
130.052035
 42
-0.061428
  0
VERTEX
  8
0
 10
800.436193
 20
129.151256
 42
-0.028940
  0
SEQEND
  0
POLYLINE
  8
0
 66
1
 70
1
  0
VERTEX
  8
0
 10
174.958360
 20
79.036505
 42
-0.069518
  0
VERTEX
  8
0
 10
173.910854
 20
78.604820
 42
-0.006101
  0
VERTEX
  8
0
 10
171.116369
 20
77.921300
 42
-0.007904
  0
VERTEX
  8
0
 10
167.746194
 20
77.196361
 42
-0.006069
  0
VERTEX
  8
0
 10
164.044098
 20
76.507651
 42
0.011863
  0
VERTEX
  8
0
 10
157.475979
 20
75.206855
 42
0.037853
  0
VERTEX
  8
0
 10
153.202071
 20
73.908572
 42
0.055262
  0
VERTEX
  8
0
 10
150.138415
 20
72.309730
 42
0.061033
  0
VERTEX
  8
0
 10
147.611276
 20
70.122958
 42
0.114242
  0
VERTEX
  8
0
 10
146.331195
 20
67.824059
 42
0.056339
  0
VERTEX
  8
0
 10
145.768828
 20
64.508415
 42
0.054882
  0
VERTEX
  8
0
 10
145.959024
 20
61.002826
 42
0.082069
  0
VERTEX
  8
0
 10
146.944128
 20
58.104398
 42
0.163335
  0
VERTEX
  8
0
 10
150.313090
 20
54.930528
 42
0.075886
  0
VERTEX
  8
0
 10
156.155774
 20
53.248557
 42
0.068953
  0
VERTEX
  8
0
 10
162.907479
 20
53.308457
 42
0.081624
  0
VERTEX
  8
0
 10
168.980167
 20
55.250000
 42
0.071873
  0
VERTEX
  8
0
 10
172.669402
 20
57.860638
 42
0.085582
  0
VERTEX
  8
0
 10
175.215018
 20
61.274563
 42
0.068668
  0
VERTEX
  8
0
 10
176.830158
 20
65.946558
 42
0.030068
  0
VERTEX
  8
0
 10
177.717884
 20
72.452803
 42
0.008951
  0
VERTEX
  8
0
 10
178.001415
 20
77.371151
 42
0.109581
  0
VERTEX
  8
0
 10
177.668862
 20
79.213204
 42
0.356213
  0
VERTEX
  8
0
 10
176.735868
 20
79.710250
 42
0.083899
  0
SEQEND
  0
POLYLINE
  8
0
 66
1
 70
1
  0
VERTEX
  8
0
 10
174.612734
 20
70.362059
 42
-0.062089
  0
VERTEX
  8
0
 10
172.918890
 20
63.470609
 42
-0.126894
  0
VERTEX
  8
0
 10
169.717365
 20
58.962021
 42
-0.128928
  0
VERTEX
  8
0
 10
164.773503
 20
56.607638
 42
-0.065145
  0
VERTEX
  8
0
 10
157.835725
 20
56.205502
 42
-0.034591
  0
VERTEX
  8
0
 10
153.361332
 20
56.842261
 42
-0.116535
  0
VERTEX
  8
0
 10
150.708141
 20
58.099575
 42
-0.148546
  0
VERTEX
  8
0
 10
149.259815
 20
60.210698
 42
-0.069618
  0
VERTEX
  8
0
 10
148.702569
 20
63.509356
 42
-0.106448
  0
VERTEX
  8
0
 10
149.363077
 20
67.063235
 42
-0.132211
  0
VERTEX
  8
0
 10
151.413994
 20
69.712625
 42
-0.090979
  0
VERTEX
  8
0
 10
155.194374
 20
71.621947
 42
-0.031367
  0
VERTEX
  8
0
 10
161.188704
 20
72.984554
 42
0.004000
  0
VERTEX
  8
0
 10
164.207872
 20
73.499099
 42
0.003940
  0
VERTEX
  8
0
 10
167.233557
 20
74.064336
 42
0.003874
  0
VERTEX
  8
0
 10
169.876619
 20
74.600974
 42
0.015044
  0
VERTEX
  8
0
 10
171.500000
 20
74.995056
 42
-0.000470
  0
VERTEX
  8
0
 10
172.677453
 20
75.317494
 42
-0.000654
  0
VERTEX
  8
0
 10
173.732631
 20
75.603899
 42
-0.000398
  0
VERTEX
  8
0
 10
174.621684
 20
75.843206
 42
-0.008393
  0
VERTEX
  8
0
 10
174.887681
 20
75.909812
 42
-0.492227
  0
VERTEX
  8
0
 10
175.025883
 20
75.796617
 42
-0.004811
  0
VERTEX
  8
0
 10
174.966834
 20
74.317362
 42
-0.010678
  0
VERTEX
  8
0
 10
174.839085
 20
72.517897
 42
-0.006191
  0
SEQEND
  0
ENDSEC
  0
EOF
