  0
SECTION
  2
HEADER
  9
$ACADVER
  1
AC1006
  9
$EXTMIN
 10
0.000000
 20
0.000000
 30
0.000000
  9
$EXTMAX
 10
144.000000
 20
144.000000
 30
0.000000
  0
ENDSEC
  0
SECTION
  2
ENTITIES
  0
POLYLINE
  8
0
 66
1
 70
1
  0
VERTEX
  8
0
 10
0.000000
 20
113.513481
 42
0.000000
  0
VERTEX
  8
0
 10
0.000000
 20
107.026961
 42
0.000000
  0
VERTEX
  8
0
 10
33.250000
 20
106.763481
 42
0.000000
  0
VERTEX
  8
0
 10
66.500000
 20
106.500000
 42
0.000000
  0
VERTEX
  8
0
 10
66.500000
 20
90.000000
 42
0.000000
  0
VERTEX
  8
0
 10
66.500000
 20
73.500000
 42
0.000000
  0
VERTEX
  8
0
 10
59.250000
 20
73.206190
 42
0.015515
  0
VERTEX
  8
0
 10
54.684413
 20
72.879048
 42
0.106600
  0
VERTEX
  8
0
 10
52.556609
 20
72.185806
 42
0.316948
  0
VERTEX
  8
0
 10
52.039450
 20
71.056913
 42
0.129644
  0
VERTEX
  8
0
 10
52.800145
 20
69.450000
 42
-0.183090
  0
VERTEX
  8
0
 10
53.085694
 20
68.637115
 42
-0.002967
  0
VERTEX
  8
0
 10
52.936472
 20
63.711875
 42
-0.007314
  0
VERTEX
  8
0
 10
52.642223
 20
57.930113
 42
-0.004735
  0
VERTEX
  8
0
 10
52.140631
 20
51.250000
 42
-0.002434
  0
VERTEX
  8
0
 10
51.229362
 20
41.070856
 42
-0.023723
  0
VERTEX
  8
0
 10
50.619347
 20
36.791401
 42
-0.066116
  0
VERTEX
  8
0
 10
49.914323
 20
34.671513
 42
-0.286928
  0
VERTEX
  8
0
 10
48.840487
 20
34.000000
 42
0.142701
  0
VERTEX
  8
0
 10
47.898404
 20
33.725539
 42
0.171889
  0
VERTEX
  8
0
 10
47.333658
 20
33.002915
 42
0.070483
  0
VERTEX
  8
0
 10
47.062874
 20
31.533090
 42
0.010363
  0
VERTEX
  8
0
 10
47.000000
 20
28.500000
 42
0.000000
  0
VERTEX
  8
0
 10
47.000000
 20
23.000000
 42
0.000000
  0
VERTEX
  8
0
 10
53.000000
 20
23.000000
 42
-0.006857
  0
VERTEX
  8
0
 10
56.920691
 20
22.946226
 42
-0.105239
  0
VERTEX
  8
0
 10
58.228261
 20
22.630208
 42
-0.235324
  0
VERTEX
  8
0
 10
58.826118
 20
21.862600
 42
-0.049911
  0
VERTEX
  8
0
 10
59.000000
 20
20.125000
 42
0.017012
  0
VERTEX
  8
0
 10
59.045247
 20
18.795556
 42
0.009146
  0
VERTEX
  8
0
 10
59.186727
 20
17.160896
 42
0.009098
  0
VERTEX
  8
0
 10
59.392037
 20
15.497724
 42
0.014095
  0
VERTEX
  8
0
 10
59.635666
 20
14.071669
 42
0.028266
  0
VERTEX
  8
0
 10
60.080158
 20
12.358885
 42
0.134837
  0
VERTEX
  8
0
 10
60.627698
 20
11.520399
 42
0.163957
  0
VERTEX
  8
0
 10
61.464620
 20
11.167316
 42
0.047464
  0
VERTEX
  8
0
 10
62.885666
 20
11.196669
 42
0.068792
  0
VERTEX
  8
0
 10
64.371845
 20
11.580709
 42
0.185038
  0
VERTEX
  8
0
 10
65.152731
 20
12.317246
 42
0.089850
  0
VERTEX
  8
0
 10
65.551041
 20
13.759469
 42
0.009533
  0
VERTEX
  8
0
 10
65.799904
 20
17.250000
 42
0.000000
  0
VERTEX
  8
0
 10
66.099808
 20
23.000000
 42
0.000000
  0
VERTEX
  8
0
 10
72.920738
 20
23.000000
 42
0.000000
  0
VERTEX
  8
0
 10
79.741667
 20
23.000000
 42
0.000000
  0
VERTEX
  8
0
 10
80.420490
 20
17.000000
 42
0.008169
  0
VERTEX
  8
0
 10
80.914582
 20
13.190999
 42
0.099994
  0
VERTEX
  8
0
 10
81.408216
 20
11.815936
 42
0.206111
  0
VERTEX
  8
0
 10
82.285497
 20
11.189266
 42
0.053488
  0
VERTEX
  8
0
 10
84.049656
 20
11.000000
 42
0.031709
  0
VERTEX
  8
0
 10
85.685846
 20
11.103868
 42
0.162835
  0
VERTEX
  8
0
 10
86.493448
 20
11.493616
 42
0.167236
  0
VERTEX
  8
0
 10
86.892051
 20
12.284332
 42
0.033893
  0
VERTEX
  8
0
 10
87.000000
 20
13.875000
 42
-0.016605
  0
VERTEX
  8
0
 10
87.043938
 20
15.197690
 42
-0.009160
  0
VERTEX
  8
0
 10
87.180865
 20
16.809792
 42
-0.009124
  0
VERTEX
  8
0
 10
87.379699
 20
18.440935
 42
-0.014463
  0
VERTEX
  8
0
 10
87.615710
 20
19.828549
 42
-0.046197
  0
VERTEX
  8
0
 10
88.157618
 20
21.646351
 42
-0.175162
  0
VERTEX
  8
0
 10
88.935027
 20
22.517046
 42
-0.100718
  0
VERTEX
  8
0
 10
90.350351
 20
22.946148
 42
-0.010263
  0
VERTEX
  8
0
 10
93.865710
 20
23.203549
 42
0.000000
  0
VERTEX
  8
0
 10
99.500000
 20
23.500000
 42
0.000000
  0
VERTEX
  8
0
 10
99.802260
 20
28.750000
 42
0.009309
  0
VERTEX
  8
0
 10
99.922121
 20
31.830349
 42
0.085715
  0
VERTEX
  8
0
 10
99.722092
 20
33.147281
 42
0.213702
  0
VERTEX
  8
0
 10
99.146327
 20
33.774287
 42
0.102078
  0
VERTEX
  8
0
 10
98.052260
 20
34.000000
 42
-0.058980
  0
VERTEX
  8
0
 10
97.267088
 20
34.092943
 42
-0.077793
  0
VERTEX
  8
0
 10
96.601659
 20
34.367188
 42
-0.096145
  0
VERTEX
  8
0
 10
96.155129
 20
34.773190
 42
-0.160855
  0
VERTEX
  8
0
 10
95.995941
 20
35.250000
 42
0.020189
  0
VERTEX
  8
0
 10
95.955670
 20
36.172657
 42
0.000384
  0
VERTEX
  8
0
 10
95.548910
 20
40.960268
 42
0.000932
  0
VERTEX
  8
0
 10
95.059555
 20
46.545728
 42
0.000624
  0
VERTEX
  8
0
 10
94.479833
 20
52.933892
 42
-0.004192
  0
VERTEX
  8
0
 10
93.860101
 20
60.350589
 42
-0.011642
  0
VERTEX
  8
0
 10
93.589803
 20
65.574442
 42
-0.009442
  0
VERTEX
  8
0
 10
93.553738
 20
69.358995
 42
-0.196482
  0
VERTEX
  8
0
 10
93.983892
 20
70.383892
 42
0.131885
  0
VERTEX
  8
0
 10
94.691843
 20
71.611393
 42
0.366887
  0
VERTEX
  8
0
 10
94.297002
 20
72.444907
 42
0.087311
  0
VERTEX
  8
0
 10
92.389752
 20
72.933830
 42
0.009066
  0
VERTEX
  8
0
 10
87.750000
 20
73.206190
 42
0.000000
  0
VERTEX
  8
0
 10
80.500000
 20
73.500000
 42
0.000000
  0
VERTEX
  8
0
 10
80.224387
 20
90.000000
 42
0.000000
  0
VERTEX
  8
0
 10
79.948775
 20
106.500000
 42
0.000000
  0
VERTEX
  8
0
 10
73.251207
 20
113.250000
 42
0.000000
  0
VERTEX
  8
0
 10
66.553639
 20
120.000000
 42
0.000000
  0
VERTEX
  8
0
 10
33.276820
 20
120.000000
 42
0.000000
  0
VERTEX
  8
0
 10
0.000000
 20
120.000000
 42
0.000000
  0
SEQEND
  0
ENDSEC
  0
EOF
