  0
SECTION
  2
HEADER
  9
$ACADVER
  1
AC1006
  9
$EXTMIN
 10
0.000000
 20
0.000000
 30
0.000000
  9
$EXTMAX
 10
1600.000000
 20
1689.000000
 30
0.000000
  0
ENDSEC
  0
SECTION
  2
ENTITIES
  0
POLYLINE
  8
0
 66
1
 70
1
  0
VERTEX
  8
0
 10
1414.000000
 20
1551.833262
 42
-0.000137
  0
VERTEX
  8
0
 10
1405.588215
 20
1549.116279
 42
-0.000081
  0
VERTEX
  8
0
 10
1395.542605
 20
1545.876400
 42
-0.000081
  0
VERTEX
  8
0
 10
1385.510710
 20
1542.644521
 42
-0.000139
  0
VERTEX
  8
0
 10
1377.145037
 20
1539.953481
 42
0.006306
  0
VERTEX
  8
0
 10
1369.667249
 20
1537.445856
 42
0.006623
  0
VERTEX
  8
0
 10
1362.376740
 20
1534.789438
 42
0.006377
  0
VERTEX
  8
0
 10
1356.148116
 20
1532.334704
 42
0.029234
  0
VERTEX
  8
0
 10
1352.645037
 20
1530.657105
 42
-0.023976
  0
VERTEX
  8
0
 10
1349.750157
 20
1529.233174
 42
-0.016038
  0
VERTEX
  8
0
 10
1346.317228
 20
1527.873493
 42
-0.016065
  0
VERTEX
  8
0
 10
1342.816283
 20
1526.740787
 42
-0.024670
  0
VERTEX
  8
0
 10
1339.715530
 20
1526.010003
 42
0.022659
  0
VERTEX
  8
0
 10
1335.968710
 20
1525.142835
 42
0.038537
  0
VERTEX
  8
0
 10
1332.948959
 20
1524.041282
 42
0.035184
  0
VERTEX
  8
0
 10
1329.953240
 20
1522.415756
 42
0.015615
  0
VERTEX
  8
0
 10
1326.236943
 20
1519.880265
 42
-0.015171
  0
VERTEX
  8
0
 10
1323.347860
 20
1517.905387
 42
-0.021783
  0
VERTEX
  8
0
 10
1320.666656
 20
1516.349830
 42
-0.023398
  0
VERTEX
  8
0
 10
1318.389862
 20
1515.290824
 42
-0.097451
  0
VERTEX
  8
0
 10
1316.911878
 20
1515.000000
 42
0.067404
  0
VERTEX
  8
0
 10
1315.521353
 20
1514.811691
 42
0.016741
  0
VERTEX
  8
0
 10
1313.323447
 20
1514.125324
 42
0.016813
  0
VERTEX
  8
0
 10
1310.838636
 20
1513.162165
 42
0.016158
  0
VERTEX
  8
0
 10
1308.390465
 20
1512.022379
 42
-0.029672
  0
VERTEX
  8
0
 10
1305.288211
 20
1510.678799
 42
-0.009586
  0
VERTEX
  8
0
 10
1300.549760
 20
1509.054637
 42
-0.009521
  0
VERTEX
  8
0
 10
1295.199452
 20
1507.446371
 42
-0.010546
  0
VERTEX
  8
0
 10
1289.970420
 20
1506.100766
 42
0.020678
  0
VERTEX
  8
0
 10
1281.464775
 20
1503.727265
 42
0.017926
  0
VERTEX
  8
0
 10
1272.762148
 20
1500.557197
 42
0.009461
  0
VERTEX
  8
0
 10
1260.373581
 20
1495.259460
 42
0.001525
  0
VERTEX
  8
0
 10
1236.470420
 20
1484.410469
 42
0.001828
  0
VERTEX
  8
0
 10
1220.313479
 20
1476.946198
 42
0.002421
  0
VERTEX
  8
0
 10
1205.662787
 20
1470.026144
 42
0.001729
  0
VERTEX
  8
0
 10
1193.432591
 20
1464.124738
 42
0.023941
  0
VERTEX
  8
0
 10
1189.126302
 20
1461.767151
 42
0.029748
  0
VERTEX
  8
0
 10
1182.481746
 20
1457.140406
 42
0.000959
  0
VERTEX
  8
0
 10
1156.881641
 20
1436.873265
 42
0.002022
  0
VERTEX
  8
0
 10
1129.163171
 20
1414.658974
 42
0.002222
  0
VERTEX
  8
0
 10
1102.489373
 20
1392.907533
 42
-0.029964
  0
VERTEX
  8
0
 10
1093.629741
 20
1386.466399
 42
-0.039900
  0
VERTEX
  8
0
 10
1084.846016
 20
1381.792968
 42
-0.044341
  0
VERTEX
  8
0
 10
1076.291213
 20
1378.952502
 42
-0.058054
  0
VERTEX
  8
0
 10
1068.115222
 20
1378.000000
 42
-0.018631
  0
VERTEX
  8
0
 10
1065.202316
 20
1378.108580
 42
-0.016845
  0
VERTEX
  8
0
 10
1062.205286
 20
1378.434141
 42
-0.017295
  0
VERTEX
  8
0
 10
1059.525078
 20
1378.912110
 42
-0.046211
  0
VERTEX
  8
0
 10
1057.674771
 20
1379.491423
 42
0.030018
  0
VERTEX
  8
0
 10
1055.398580
 20
1380.285758
 42
0.115715
  0
VERTEX
  8
0
 10
1053.912648
 20
1380.353177
 42
0.082197
  0
VERTEX
  8
0
 10
1052.294915
 20
1379.764328
 42
0.010766
  0
VERTEX
  8
0
 10
1049.134045
 20
1377.892546
 42
-0.082478
  0
VERTEX
  8
0
 10
1043.012201
 20
1375.364740
 42
-0.058143
  0
VERTEX
  8
0
 10
1035.597893
 20
1374.539466
 42
-0.040759
  0
VERTEX
  8
0
 10
1025.906127
 20
1375.382593
 42
-0.015049
  0
VERTEX
  8
0
 10
1012.450216
 20
1378.087067
 42
0.000000
  0
VERTEX
  8
0
 10
997.400433
 20
1381.586142
 42
0.000000
  0
VERTEX
  8
0
 10
978.051438
 20
1377.883102
 42
0.004157
  0
VERTEX
  8
0
 10
961.296402
 20
1374.531855
 42
0.020834
  0
VERTEX
  8
0
 10
952.019618
 20
1372.188920
 42
0.031219
  0
VERTEX
  8
0
 10
944.789736
 20
1369.537798
 42
0.018339
  0
VERTEX
  8
0
 10
936.494647
 20
1365.525117
 42
-0.012437
  0
VERTEX
  8
0
 10
930.169280
 20
1362.372616
 42
-0.034539
  0
VERTEX
  8
0
 10
925.537765
 20
1360.584545
 42
-0.026659
  0
VERTEX
  8
0
 10
920.085099
 20
1359.214982
 42
-0.005109
  0
VERTEX
  8
0
 10
910.047939
 20
1357.361958
 42
0.008060
  0
VERTEX
  8
0
 10
898.606807
 20
1355.179821
 42
0.043992
  0
VERTEX
  8
0
 10
892.578662
 20
1353.364443
 42
0.031914
  0
VERTEX
  8
0
 10
886.223325
 20
1350.339450
 42
0.002930
  0
VERTEX
  8
0
 10
871.000000
 20
1341.745805
 42
0.000000
  0
VERTEX
  8
0
 10
866.500000
 20
1339.170638
 42
0.000000
  0
VERTEX
  8
0
 10
851.733443
 20
1341.964685
 42
0.000000
  0
VERTEX
  8
0
 10
836.966886
 20
1344.758732
 42
0.000000
  0
VERTEX
  8
0
 10
827.733443
 20
1351.790483
 42
0.006219
  0
VERTEX
  8
0
 10
823.758632
 20
1354.740131
 42
0.005130
  0
VERTEX
  8
0
 10
819.449824
 20
1357.788462
 42
0.005184
  0
VERTEX
  8
0
 10
815.437377
 20
1360.504704
 42
0.013774
  0
VERTEX
  8
0
 10
812.500000
 20
1362.334761
 42
-0.019705
  0
VERTEX
  8
0
 10
809.878141
 20
1364.011726
 42
-0.012475
  0
VERTEX
  8
0
 10
806.952901
 20
1366.159788
 42
-0.012527
  0
VERTEX
  8
0
 10
804.180792
 20
1368.417087
 42
-0.022511
  0
VERTEX
  8
0
 10
802.041792
 20
1370.423644
 42
0.030448
  0
VERTEX
  8
0
 10
799.084810
 20
1373.110640
 42
0.066051
  0
VERTEX
  8
0
 10
796.464566
 20
1374.698478
 42
0.154855
  0
VERTEX
  8
0
 10
794.761136
 20
1374.879083
 42
0.356315
  0
VERTEX
  8
0
 10
794.000000
 20
1373.946618
 42
0.146325
  0
VERTEX
  8
0
 10
794.200426
 20
1373.276419
 42
0.006060
  0
VERTEX
  8
0
 10
795.615625
 20
1371.177778
 42
0.010072
  0
VERTEX
  8
0
 10
797.392700
 20
1368.717602
 42
0.006937
  0
VERTEX
  8
0
 10
799.500000
 20
1366.000000
 42
-0.003450
  0
VERTEX
  8
0
 10
801.608087
 20
1363.320184
 42
-0.005368
  0
VERTEX
  8
0
 10
803.384375
 20
1360.978320
 42
-0.001827
  0
VERTEX
  8
0
 10
804.883576
 20
1358.941549
 42
-0.159038
  0
VERTEX
  8
0
 10
805.000000
 20
1358.584783
 42
-0.549085
  0
VERTEX
  8
0
 10
804.828912
 20
1358.475960
 42
-0.005690
  0
VERTEX
  8
0
 10
803.295921
 20
1359.214866
 42
-0.011111
  0
VERTEX
  8
0
 10
801.424137
 20
1360.195884
 42
-0.006289
  0
VERTEX
  8
0
 10
799.198881
 20
1361.462743
 42
0.013511
  0
VERTEX
  8
0
 10
795.442059
 20
1363.530272
 42
0.071243
  0
VERTEX
  8
0
 10
793.224861
 20
1364.299238
 42
0.067710
  0
VERTEX
  8
0
 10
790.832164
 20
1364.434279
 42
0.011519
  0
VERTEX
  8
0
 10
786.279039
 20
1363.968828
 42
-0.013477
  0
VERTEX
  8
0
 10
782.011087
 20
1363.549406
 42
-0.048788
  0
VERTEX
  8
0
 10
779.286012
 20
1363.621619
 42
-0.050436
  0
VERTEX
  8
0
 10
776.672500
 20
1364.219176
 42
-0.015099
  0
VERTEX
  8
0
 10
772.837847
 20
1365.644018
 42
0.013723
  0
VERTEX
  8
0
 10
768.907016
 20
1367.116922
 42
0.056149
  0
VERTEX
  8
0
 10
766.423776
 20
1367.669323
 42
0.054904
  0
VERTEX
  8
0
 10
763.853269
 20
1367.661634
 42
0.012746
  0
VERTEX
  8
0
 10
759.566798
 20
1367.065534
 42
0.023190
  0
VERTEX
  8
0
 10
755.883482
 20
1366.280308
 42
0.028946
  0
VERTEX
  8
0
 10
752.558050
 20
1365.199336
 42
0.026965
  0
VERTEX
  8
0
 10
749.198718
 20
1363.674577
 42
0.016410
  0
VERTEX
  8
0
 10
745.398753
 20
1361.534958
 42
-0.010399
  0
VERTEX
  8
0
 10
742.188853
 20
1359.676415
 42
-0.007316
  0
VERTEX
  8
0
 10
738.505918
 20
1357.714770
 42
-0.007386
  0
VERTEX
  8
0
 10
734.925071
 20
1355.940608
 42
-0.015341
  0
VERTEX
  8
0
 10
732.071755
 20
1354.684974
 42
0.000000
  0
VERTEX
  8
0
 10
725.964222
 20
1352.218032
 42
0.000000
  0
VERTEX
  8
0
 10
721.303503
 20
1355.957395
 42
0.011197
  0
VERTEX
  8
0
 10
718.273687
 20
1358.278690
 42
0.090158
  0
VERTEX
  8
0
 10
716.701580
 20
1359.041081
 42
0.117278
  0
VERTEX
  8
0
 10
715.132046
 20
1359.101090
 42
0.024270
  0
VERTEX
  8
0
 10
712.431043
 20
1358.429210
 42
-0.016795
  0
VERTEX
  8
0
 10
709.789709
 20
1357.730103
 42
-0.111109
  0
VERTEX
  8
0
 10
708.433180
 20
1357.724882
 42
-0.124646
  0
VERTEX
  8
0
 10
707.278054
 20
1358.305087
 42
-0.023335
  0
VERTEX
  8
0
 10
705.547800
 20
1359.950108
 42
-0.010846
  0
VERTEX
  8
0
 10
704.055009
 20
1361.577481
 42
-0.111522
  0
VERTEX
  8
0
 10
703.621545
 20
1362.373815
 42
-0.292235
  0
VERTEX
  8
0
 10
703.785871
 20
1362.919926
 42
-0.086079
  0
VERTEX
  8
0
 10
704.572392
 20
1363.389406
 42
-0.066384
  0
VERTEX
  8
0
 10
705.448748
 20
1363.598147
 42
-0.023632
  0
VERTEX
  8
0
 10
706.736662
 20
1363.667772
 42
-0.022964
  0
VERTEX
  8
0
 10
708.174361
 20
1363.611432
 42
-0.025095
  0
VERTEX
  8
0
 10
709.558372
 20
1363.423071
 42
0.031471
  0
VERTEX
  8
0
 10
711.463624
 20
1363.188456
 42
0.134283
  0
VERTEX
  8
0
 10
712.574928
 20
1363.422264
 42
0.127994
  0
VERTEX
  8
0
 10
713.441501
 20
1364.196123
 42
0.027508
  0
VERTEX
  8
0
 10
714.472026
 20
1365.945903
 42
-0.083430
  0
VERTEX
  8
0
 10
716.301833
 20
1368.384517
 42
-0.098319
  0
VERTEX
  8
0
 10
718.736385
 20
1369.926473
 42
-0.048272
  0
VERTEX
  8
0
 10
722.815603
 20
1371.064716
 42
-0.007059
  0
VERTEX
  8
0
 10
731.308061
 20
1372.448530
 42
-0.010162
  0
VERTEX
  8
0
 10
739.706699
 20
1373.521663
 42
-0.022011
  0
VERTEX
  8
0
 10
746.200951
 20
1373.929703
 42
-0.028084
  0
VERTEX
  8
0
 10
751.117983
 20
1373.745626
 42
-0.083683
  0
VERTEX
  8
0
 10
754.362971
 20
1372.880481
 42
0.054245
  0
VERTEX
  8
0
 10
755.802335
 20
1372.404861
 42
0.112238
  0
VERTEX
  8
0
 10
756.980096
 20
1372.419917
 42
0.082432
  0
VERTEX
  8
0
 10
758.262908
 20
1372.963516
 42
0.020058
  0
VERTEX
  8
0
 10
760.160024
 20
1374.276552
 42
-0.058092
  0
VERTEX
  8
0
 10
762.561675
 20
1375.682035
 42
-0.050263
  0
VERTEX
  8
0
 10
765.341482
 20
1376.581638
 42
-0.026383
  0
VERTEX
  8
0
 10
769.563257
 20
1377.262035
 42
-0.004436
  0
VERTEX
  8
0
 10
777.713848
 20
1378.064711
 42
0.004542
  0
VERTEX
  8
0
 10
783.253262
 20
1378.611420
 42
0.006594
  0
VERTEX
  8
0
 10
788.130185
 20
1379.202679
 42
0.003594
  0
VERTEX
  8
0
 10
792.226900
 20
1379.784270
 42
0.104438
  0
VERTEX
  8
0
 10
793.213848
 20
1380.151633
 42
0.246483
  0
VERTEX
  8
0
 10
793.646965
 20
1380.902831
 42
0.082295
  0
VERTEX
  8
0
 10
793.484348
 20
1382.201843
 42
0.040170
  0
VERTEX
  8
0
 10
792.691585
 20
1384.251521
 42
0.008965
  0
VERTEX
  8
0
 10
791.000000
 20
1387.604187
 42
0.008902
  0
VERTEX
  8
0
 10
789.586413
 20
1390.173304
 42
0.012708
  0
VERTEX
  8
0
 10
788.234375
 20
1392.397291
 42
0.008655
  0
VERTEX
  8
0
 10
787.039223
 20
1394.186311
 42
0.156667
  0
VERTEX
  8
0
 10
786.500000
 20
1394.599405
 42
0.066898
  0
VERTEX
  8
0
 10
785.769457
 20
1394.754591
 42
0.002250
  0
VERTEX
  8
0
 10
782.819780
 20
1394.965020
 42
0.004221
  0
VERTEX
  8
0
 10
779.327451
 20
1395.168779
 42
0.002925
  0
VERTEX
  8
0
 10
775.375848
 20
1395.342711
 42
0.000000
  0
VERTEX
  8
0
 10
765.251695
 20
1395.729002
 42
0.000000
  0
VERTEX
  8
0
 10
757.998718
 20
1403.364501
 42
0.011440
  0
VERTEX
  8
0
 10
755.090192
 20
1406.289406
 42
0.015998
  0
VERTEX
  8
0
 10
752.351199
 20
1408.757072
 42
0.012314
  0
VERTEX
  8
0
 10
749.995507
 20
1410.649260
 42
0.164482
  0
VERTEX
  8
0
 10
748.958154
 20
1411.000000
 42
0.197047
  0
VERTEX
  8
0
 10
747.989775
 20
1410.602951
 42
0.087551
  0
VERTEX
  8
0
 10
747.175617
 20
1409.457500
 42
0.043431
  0
VERTEX
  8
0
 10
746.380050
 20
1407.320964
 42
0.009532
  0
VERTEX
  8
0
 10
745.407460
 20
1403.521292
 42
-0.004365
  0
VERTEX
  8
0
 10
744.690408
 20
1400.594354
 42
-0.006083
  0
VERTEX
  8
0
 10
743.994188
 20
1397.989231
 42
-0.003849
  0
VERTEX
  8
0
 10
743.367332
 20
1395.817552
 42
-0.075838
  0
VERTEX
  8
0
 10
743.072176
 20
1395.190760
 42
-0.135609
  0
VERTEX
  8
0
 10
742.557237
 20
1394.748389
 42
-0.006273
  0
VERTEX
  8
0
 10
740.438560
 20
1393.782815
 42
-0.010022
  0
VERTEX
  8
0
 10
737.859579
 20
1392.707508
 42
-0.006990
  0
VERTEX
  8
0
 10
734.910158
 20
1391.593933
 42
0.000000
  0
VERTEX
  8
0
 10
727.320315
 20
1388.848930
 42
0.000000
  0
VERTEX
  8
0
 10
718.683384
 20
1390.900196
 42
-0.026684
  0
VERTEX
  8
0
 10
709.509905
 20
1393.603093
 42
-0.045023
  0
VERTEX
  8
0
 10
702.225605
 20
1396.942726
 42
-0.049235
  0
VERTEX
  8
0
 10
696.116350
 20
1401.288081
 42
-0.040538
  0
VERTEX
  8
0
 10
690.527263
 20
1407.016123
 42
0.012487
  0
VERTEX
  8
0
 10
684.063661
 20
1414.429531
 42
0.041306
  0
VERTEX
  8
0
 10
679.311372
 20
1418.823132
 42
0.065121
  0
VERTEX
  8
0
 10
675.293917
 20
1421.196367
 42
0.101223
  0
VERTEX
  8
0
 10
671.364972
 20
1422.000000
 42
-0.062326
  0
VERTEX
  8
0
 10
668.444049
 20
1422.365516
 42
-0.019392
  0
VERTEX
  8
0
 10
664.196295
 20
1423.622742
 42
-0.014149
  0
VERTEX
  8
0
 10
658.406357
 20
1425.768014
 42
-0.005035
  0
VERTEX
  8
0
 10
650.255762
 20
1429.148887
 42
-0.004387
  0
VERTEX
  8
0
 10
639.782393
 20
1433.726408
 42
-0.029683
  0
VERTEX
  8
0
 10
634.766769
 20
1436.338656
 42
-0.043198
  0
VERTEX
  8
0
 10
630.899822
 20
1439.133646
 42
-0.015453
  0
VERTEX
  8
0
 10
625.884576
 20
1443.741641
 42
0.000000
  0
VERTEX
  8
0
 10
618.269151
 20
1451.185507
 42
0.000000
  0
VERTEX
  8
0
 10
605.384576
 20
1452.568679
 42
-0.007411
  0
VERTEX
  8
0
 10
588.462124
 20
1454.639452
 42
-0.032837
  0
VERTEX
  8
0
 10
578.642241
 20
1456.652907
 42
-0.059354
  0
VERTEX
  8
0
 10
572.575513
 20
1459.121566
 42
-0.128754
  0
VERTEX
  8
0
 10
568.958568
 20
1462.567038
 42
0.022908
  0
VERTEX
  8
0
 10
568.060622
 20
1463.881303
 42
0.029863
  0
VERTEX
  8
0
 10
567.116897
 20
1464.990656
 42
0.030453
  0
VERTEX
  8
0
 10
566.250137
 20
1465.790553
 42
0.173477
  0
VERTEX
  8
0
 10
565.668441
 20
1465.996895
 42
0.008384
  0
VERTEX
  8
0
 10
563.070090
 20
1465.946419
 42
0.000001
  0
VERTEX
  8
0
 10
423.205063
 20
1460.881971
 42
0.000039
  0
VERTEX
  8
0
 10
299.210672
 20
1456.382099
 42
0.000134
  0
VERTEX
  8
0
 10
218.500000
 20
1453.425081
 42
0.001796
  0
VERTEX
  8
0
 10
201.950841
 20
1452.754800
 42
0.002900
  0
VERTEX
  8
0
 10
187.869808
 20
1452.051959
 42
0.000507
  0
VERTEX
  8
0
 10
175.450775
 20
1451.347212
 42
0.179394
  0
VERTEX
  8
0
 10
174.609984
 20
1450.979065
 42
0.198599
  0
VERTEX
  8
0
 10
173.715380
 20
1448.926244
 42
0.000267
  0
VERTEX
  8
0
 10
172.906595
 20
1404.843512
 42
0.001944
  0
VERTEX
  8
0
 10
172.163901
 20
1351.501600
 42
0.000825
  0
VERTEX
  8
0
 10
171.564436
 20
1280.000000
 42
-0.000170
  0
VERTEX
  8
0
 10
171.271733
 20
1238.622160
 42
-0.000083
  0
VERTEX
  8
0
 10
170.870918
 20
1185.743750
 42
-0.000082
  0
VERTEX
  8
0
 10
170.435491
 20
1130.691615
 42
-0.000118
  0
VERTEX
  8
0
 10
170.030862
 20
1082.000000
 42
0.000011
  0
VERTEX
  8
0
 10
169.629280
 20
1034.893610
 42
0.000009
  0
VERTEX
  8
0
 10
169.203530
 20
984.718750
 42
0.000009
  0
VERTEX
  8
0
 10
168.814805
 20
938.711567
 42
0.000024
  0
VERTEX
  8
0
 10
168.540606
 20
906.000000
 42
-0.000038
  0
VERTEX
  8
0
 10
168.294854
 20
876.774232
 42
-0.000024
  0
VERTEX
  8
0
 10
168.006639
 20
842.996875
 42
-0.000025
  0
VERTEX
  8
0
 10
167.722071
 20
810.025445
 42
-0.000047
  0
VERTEX
  8
0
 10
167.489356
 20
783.500000
 42
0.000102
  0
VERTEX
  8
0
 10
167.261009
 20
757.142689
 42
0.000055
  0
VERTEX
  8
0
 10
166.990422
 20
724.737500
 42
0.000055
  0
VERTEX
  8
0
 10
166.722336
 20
691.762935
 42
0.000087
  0
VERTEX
  8
0
 10
166.500571
 20
663.500000
 42
-0.000229
  0
VERTEX
  8
0
 10
166.268723
 20
634.985951
 42
-0.000138
  0
VERTEX
  8
0
 10
165.969202
 20
601.203354
 42
-0.000139
  0
VERTEX
  8
0
 10
165.653103
 20
567.648161
 42
-0.000243
  0
VERTEX
  8
0
 10
165.370446
 20
539.894397
 42
0.000892
  0
VERTEX
  8
0
 10
165.104164
 20
509.931969
 42
0.003916
  0
VERTEX
  8
0
 10
165.117075
 20
492.241089
 42
0.001451
  0
VERTEX
  8
0
 10
165.261044
 20
479.683697
 42
0.256103
  0
VERTEX
  8
0
 10
165.895607
 20
478.564518
 42
0.239627
  0
VERTEX
  8
0
 10
166.731292
 20
478.494836
 42
0.012845
  0
VERTEX
  8
0
 10
169.242437
 20
479.594872
 42
0.017454
  0
VERTEX
  8
0
 10
172.299233
 20
481.161003
 42
0.010784
  0
VERTEX
  8
0
 10
175.783756
 20
483.202394
 42
-0.019893
  0
VERTEX
  8
0
 10
181.790775
 20
486.576151
 42
-0.020384
  0
VERTEX
  8
0
 10
187.999046
 20
489.432329
 42
-0.020301
  0
VERTEX
  8
0
 10
193.547542
 20
491.456610
 42
-0.082779
  0
VERTEX
  8
0
 10
197.087892
 20
491.970158
 42
-0.128925
  0
VERTEX
  8
0
 10
197.880949
 20
491.744200
 42
-0.016038
  0
VERTEX
  8
0
 10
199.407068
 20
490.774436
 42
-0.018047
  0
VERTEX
  8
0
 10
201.173517
 20
489.474990
 42
-0.014042
  0
VERTEX
  8
0
 10
203.000000
 20
487.941519
 42
0.008993
  0
VERTEX
  8
0
 10
205.339621
 20
485.936611
 42
0.002956
  0
VERTEX
  8
0
 10
208.851848
 20
483.069531
 42
0.002944
  0
VERTEX
  8
0
 10
212.787268
 20
479.933641
 42
0.003329
  0
VERTEX
  8
0
 10
216.602037
 20
476.971361
 42
0.006182
  0
VERTEX
  8
0
 10
222.171466
 20
472.813906
 42
0.042625
  0
VERTEX
  8
0
 10
225.089624
 20
471.050047
 42
0.074111
  0
VERTEX
  8
0
 10
227.557014
 20
470.258232
 42
0.040667
  0
VERTEX
  8
0
 10
230.726718
 20
470.000000
 42
0.043769
  0
VERTEX
  8
0
 10
233.761283
 20
470.266149
 42
0.028973
  0
VERTEX
  8
0
 10
237.167141
 20
471.074014
 42
0.020867
  0
VERTEX
  8
0
 10
241.445765
 20
472.551763
 42
0.007762
  0
VERTEX
  8
0
 10
247.333629
 20
474.970644
 42
-0.005491
  0
VERTEX
  8
0
 10
257.207859
 20
479.079733
 42
-0.048397
  0
VERTEX
  8
0
 10
261.737555
 20
480.414912
 42
-0.077589
  0
VERTEX
  8
0
 10
265.605648
 20
480.550568
 42
-0.024780
  0
VERTEX
  8
0
 10
271.296853
 20
479.577366
 42
0.000000
  0
VERTEX
  8
0
 10
278.627613
 20
477.946427
 42
0.000000
  0
VERTEX
  8
0
 10
283.763530
 20
470.558788
 42
0.009895
  0
VERTEX
  8
0
 10
286.993797
 20
466.103066
 42
0.057625
  0
VERTEX
  8
0
 10
288.992551
 20
464.009357
 42
0.077196
  0
VERTEX
  8
0
 10
291.159845
 20
462.712022
 42
0.025603
  0
VERTEX
  8
0
 10
294.669627
 20
461.493712
 42
-0.022750
  0
VERTEX
  8
0
 10
300.484032
 20
459.512505
 42
-0.044335
  0
VERTEX
  8
0
 10
304.866121
 20
457.327710
 42
-0.042641
  0
VERTEX
  8
0
 10
308.901694
 20
454.345894
 42
-0.019496
  0
VERTEX
  8
0
 10
313.650560
 20
449.827205
 42
-0.012021
  0
VERTEX
  8
0
 10
317.383791
 20
445.797304
 42
-0.056986
  0
VERTEX
  8
0
 10
319.181364
 20
443.221596
 42
-0.058646
  0
VERTEX
  8
0
 10
320.326687
 20
440.339908
 42
-0.013196
  0
VERTEX
  8
0
 10
321.556371
 20
435.198356
 42
0.015011
  0
VERTEX
  8
0
 10
322.745158
 20
430.306362
 42
0.046075
  0
VERTEX
  8
0
 10
323.946744
 20
427.118818
 42
0.044527
  0
VERTEX
  8
0
 10
325.734182
 20
424.147510
 42
0.013322
  0
VERTEX
  8
0
 10
328.966394
 20
419.958753
 42
-0.038129
  0
VERTEX
  8
0
 10
332.933562
 20
414.253835
 42
-0.042661
  0
VERTEX
  8
0
 10
335.821025
 20
408.216909
 42
-0.027205
  0
VERTEX
  8
0
 10
338.472737
 20
399.837146
 42
-0.006326
  0
VERTEX
  8
0
 10
341.975435
 20
385.488076
 42
0.000000
  0
VERTEX
  8
0
 10
344.054848
 20
376.476152
 42
0.000000
  0
VERTEX
  8
0
 10
351.777424
 20
372.309578
 42
0.014477
  0
VERTEX
  8
0
 10
355.581751
 20
370.397083
 42
0.006170
  0
VERTEX
  8
0
 10
360.775486
 20
368.049458
 42
0.006099
  0
VERTEX
  8
0
 10
366.380228
 20
365.679892
 42
0.007968
  0
VERTEX
  8
0
 10
371.564657
 20
363.657977
 42
0.000000
  0
VERTEX
  8
0
 10
383.629314
 20
359.172950
 42
0.000000
  0
VERTEX
  8
0
 10
401.396972
 20
361.127417
 42
0.000000
  0
VERTEX
  8
0
 10
419.164630
 20
363.081884
 42
0.000000
  0
VERTEX
  8
0
 10
427.283779
 20
359.950809
 42
-0.012618
  0
VERTEX
  8
0
 10
435.753515
 20
356.436553
 42
-0.013550
  0
VERTEX
  8
0
 10
443.833464
 20
352.576916
 42
-0.011486
  0
VERTEX
  8
0
 10
450.572326
 20
348.932981
 42
-0.090352
  0
VERTEX
  8
0
 10
453.284012
 20
346.654114
 42
-0.021323
  0
VERTEX
  8
0
 10
454.103570
 20
345.573922
 42
-0.009088
  0
VERTEX
  8
0
 10
455.110778
 20
344.063889
 42
-0.008973
  0
VERTEX
  8
0
 10
456.128294
 20
342.412142
 42
-0.011649
  0
VERTEX
  8
0
 10
456.997579
 20
340.861254
 42
0.058938
  0
VERTEX
  8
0
 10
460.104243
 20
336.371659
 42
0.008576
  0
VERTEX
  8
0
 10
467.605520
 20
328.159819
 42
0.007610
  0
VERTEX
  8
0
 10
475.408302
 20
320.154405
 42
0.076586
  0
VERTEX
  8
0
 10
479.164815
 20
317.414771
 42
0.034268
  0
VERTEX
  8
0
 10
482.707895
 20
315.880140
 42
0.001345
  0
VERTEX
  8
0
 10
496.087288
 20
311.184347
 42
0.000627
  0
VERTEX
  8
0
 10
510.181560
 20
306.300013
 42
0.083277
  0
VERTEX
  8
0
 10
511.970360
 20
306.000000
 42
0.225787
  0
VERTEX
  8
0
 10
512.389193
 20
306.199295
 42
0.004433
  0
VERTEX
  8
0
 10
513.910274
 20
308.104803
 42
0.009697
  0
VERTEX
  8
0
 10
515.652835
 20
310.418972
 42
0.006241
  0
VERTEX
  8
0
 10
517.586799
 20
313.165287
 42
-0.018200
  0
VERTEX
  8
0
 10
520.354931
 20
316.902981
 42
-0.030251
  0
VERTEX
  8
0
 10
522.981045
 20
319.811972
 42
-0.030393
  0
VERTEX
  8
0
 10
525.930028
 20
322.373545
 42
-0.018586
  0
VERTEX
  8
0
 10
529.689389
 20
325.041961
 42
-0.012728
  0
VERTEX
  8
0
 10
534.155749
 20
327.808992
 42
-0.049856
  0
VERTEX
  8
0
 10
537.101099
 20
329.158255
 42
-0.049403
  0
VERTEX
  8
0
 10
540.268271
 20
329.903881
 42
-0.012345
  0
VERTEX
  8
0
 10
545.558193
 20
330.476340
 42
0.000000
  0
VERTEX
  8
0
 10
554.237607
 20
331.199331
 42
0.000000
  0
VERTEX
  8
0
 10
562.368804
 20
325.672083
 42
0.009636
  0
VERTEX
  8
0
 10
567.379871
 20
322.405158
 42
0.045971
  0
VERTEX
  8
0
 10
570.428610
 20
320.869560
 42
0.054498
  0
VERTEX
  8
0
 10
573.465382
 20
320.042746
 42
0.017054
  0
VERTEX
  8
0
 10
578.153801
 20
319.463945
 42
-0.016172
  0
VERTEX
  8
0
 10
582.695804
 20
318.911348
 42
-0.049105
  0
VERTEX
  8
0
 10
585.706009
 20
318.137772
 42
-0.046222
  0
VERTEX
  8
0
 10
588.604206
 20
316.766088
 42
-0.013108
  0
VERTEX
  8
0
 10
592.833035
 20
314.111034
 42
-0.020952
  0
VERTEX
  8
0
 10
595.876954
 20
311.897460
 42
-0.015482
  0
VERTEX
  8
0
 10
599.058131
 20
309.209189
 42
-0.015726
  0
VERTEX
  8
0
 10
601.954816
 20
306.433736
 42
-0.028741
  0
VERTEX
  8
0
 10
604.106766
 20
303.969507
 42
0.005127
  0
VERTEX
  8
0
 10
609.933566
 20
296.624472
 42
0.081547
  0
VERTEX
  8
0
 10
612.302887
 20
294.516178
 42
0.159904
  0
VERTEX
  8
0
 10
614.709776
 20
293.908488
 42
0.033992
  0
VERTEX
  8
0
 10
619.047435
 20
294.509899
 42
0.025082
  0
VERTEX
  8
0
 10
621.559304
 20
295.167046
 42
0.019862
  0
VERTEX
  8
0
 10
624.200381
 20
296.118432
 42
0.020278
  0
VERTEX
  8
0
 10
626.584293
 20
297.200298
 42
0.046290
  0
VERTEX
  8
0
 10
628.257168
 20
298.246986
 42
-0.065450
  0
VERTEX
  8
0
 10
630.706806
 20
299.652450
 42
-0.033237
  0
VERTEX
  8
0
 10
634.081192
 20
300.784657
 42
-0.019356
  0
VERTEX
  8
0
 10
639.213944
 20
301.924732
 42
-0.004376
  0
VERTEX
  8
0
 10
648.016679
 20
303.445854
 42
0.001033
  0
VERTEX
  8
0
 10
654.449852
 20
304.513269
 42
0.001491
  0
VERTEX
  8
0
 10
660.134144
 20
305.485932
 42
0.000767
  0
VERTEX
  8
0
 10
664.950442
 20
306.332476
 42
0.024323
  0
VERTEX
  8
0
 10
666.120833
 20
306.599317
 42
0.136665
  0
VERTEX
  8
0
 10
666.987238
 20
307.123916
 42
0.013517
  0
VERTEX
  8
0
 10
668.621288
 20
308.958423
 42
0.016254
  0
VERTEX
  8
0
 10
670.471027
 20
311.302189
 42
0.012203
  0
VERTEX
  8
0
 10
672.356955
 20
313.993535
 42
-0.016943
  0
VERTEX
  8
0
 10
674.466991
 20
316.944778
 42
-0.022052
  0
VERTEX
  8
0
 10
676.603535
 20
319.488182
 42
-0.024376
  0
VERTEX
  8
0
 10
678.598355
 20
321.458728
 42
-0.066301
  0
VERTEX
  8
0
 10
680.236121
 20
322.574685
 42
0.032861
  0
VERTEX
  8
0
 10
681.798844
 20
323.493291
 42
0.012358
  0
VERTEX
  8
0
 10
683.863111
 20
324.972706
 42
0.012180
  0
VERTEX
  8
0
 10
686.037845
 20
326.698855
 42
0.014496
  0
VERTEX
  8
0
 10
688.000000
 20
328.434622
 42
-0.031097
  0
VERTEX
  8
0
 10
690.296871
 20
330.334450
 42
-0.019556
  0
VERTEX
  8
0
 10
693.192681
 20
332.272474
 42
-0.019014
  0
VERTEX
  8
0
 10
696.362684
 20
334.056724
 42
-0.022246
  0
VERTEX
  8
0
 10
699.500000
 20
335.496133
 42
0.007502
  0
VERTEX
  8
0
 10
702.851292
 20
336.915681
 42
0.003322
  0
VERTEX
  8
0
 10
707.234375
 20
338.885250
 42
0.003287
  0
VERTEX
  8
0
 10
711.850906
 20
341.033515
 42
0.004426
  0
VERTEX
  8
0
 10
716.000000
 20
343.042696
 42
0.000000
  0
VERTEX
  8
0
 10
725.500000
 20
347.747286
 42
0.000000
  0
VERTEX
  8
0
 10
730.660341
 20
345.210720
 42
0.000000
  0
VERTEX
  8
0
 10
735.820682
 20
342.674154
 42
0.000000
  0
VERTEX
  8
0
 10
736.529746
 20
334.663964
 42
0.032959
  0
VERTEX
  8
0
 10
737.986230
 20
325.292566
 42
0.020060
  0
VERTEX
  8
0
 10
740.870656
 20
314.458222
 42
0.020127
  0
VERTEX
  8
0
 10
744.563133
 20
304.038290
 42
0.037379
  0
VERTEX
  8
0
 10
748.506468
 20
295.988967
 42
0.000000
  0
VERTEX
  8
0
 10
753.012488
 20
288.302920
 42
0.000000
  0
VERTEX
  8
0
 10
771.401740
 20
279.155834
 42
0.000000
  0
VERTEX
  8
0
 10
789.790991
 20
270.008749
 42
0.000000
  0
VERTEX
  8
0
 10
801.352996
 20
257.940547
 42
-0.006808
  0
VERTEX
  8
0
 10
807.846097
 20
250.975777
 42
-0.023096
  0
VERTEX
  8
0
 10
811.801615
 20
246.188690
 42
-0.028470
  0
VERTEX
  8
0
 10
814.854355
 20
241.604173
 42
-0.015043
  0
VERTEX
  8
0
 10
818.134549
 20
235.606219
 42
0.000000
  0
VERTEX
  8
0
 10
823.354097
 20
225.340094
 42
0.000000
  0
VERTEX
  8
0
 10
833.461655
 20
223.240226
 42
0.000000
  0
VERTEX
  8
0
 10
843.569213
 20
221.140358
 42
0.000000
  0
VERTEX
  8
0
 10
861.034607
 20
226.022417
 42
-0.005660
  0
VERTEX
  8
0
 10
868.491010
 20
228.015971
 42
-0.004723
  0
VERTEX
  8
0
 10
876.453916
 20
229.968722
 42
-0.004769
  0
VERTEX
  8
0
 10
883.773925
 20
231.617161
 42
-0.012945
  0
VERTEX
  8
0
 10
889.000000
 20
232.600988
 42
0.006674
  0
VERTEX
  8
0
 10
893.113558
 20
233.322092
 42
0.009210
  0
VERTEX
  8
0
 10
896.784410
 20
234.086498
 42
0.006330
  0
VERTEX
  8
0
 10
899.820904
 20
234.817945
 42
0.103586
  0
VERTEX
  8
0
 10
900.755438
 20
235.275707
 42
0.118666
  0
VERTEX
  8
0
 10
903.206741
 20
238.352970
 42
0.018435
  0
VERTEX
  8
0
 10
906.257105
 20
245.576547
 42
0.020939
  0
VERTEX
  8
0
 10
909.062158
 20
254.017719
 42
0.024246
  0
VERTEX
  8
0
 10
910.996946
 20
262.263498
 42
-0.008656
  0
VERTEX
  8
0
 10
911.978795
 20
267.124589
 42
-0.006483
  0
VERTEX
  8
0
 10
913.221895
 20
272.443848
 42
-0.006557
  0
VERTEX
  8
0
 10
914.523288
 20
277.422818
 42
-0.014884
  0
VERTEX
  8
0
 10
915.667536
 20
281.141092
 42
-0.007459
  0
VERTEX
  8
0
 10
917.376185
 20
285.922323
 42
-0.072209
  0
VERTEX
  8
0
 10
918.410664
 20
287.805582
 42
-0.138794
  0
VERTEX
  8
0
 10
919.693070
 20
288.777430
 42
-0.052235
  0
VERTEX
  8
0
 10
921.885169
 20
289.380087
 42
-0.016495
  0
VERTEX
  8
0
 10
923.636328
 20
289.610689
 42
-0.007251
  0
VERTEX
  8
0
 10
925.966579
 20
289.805588
 42
-0.007167
  0
VERTEX
  8
0
 10
928.446600
 20
289.941157
 42
-0.009541
  0
VERTEX
  8
0
 10
930.703185
 20
289.988994
 42
0.028626
  0
VERTEX
  8
0
 10
934.049717
 20
290.187848
 42
0.110392
  0
VERTEX
  8
0
 10
936.003081
 20
290.871099
 42
0.069105
  0
VERTEX
  8
0
 10
937.921815
 20
292.468830
 42
0.006946
  0
VERTEX
  8
0
 10
941.878722
 20
296.939160
 42
0.000000
  0
VERTEX
  8
0
 10
947.851074
 20
303.878319
 42
0.000000
  0
VERTEX
  8
0
 10
946.333219
 20
309.189160
 42
-0.033490
  0
VERTEX
  8
0
 10
945.706841
 20
312.107507
 42
-0.010562
  0
VERTEX
  8
0
 10
945.157745
 20
316.536519
 42
-0.010169
  0
VERTEX
  8
0
 10
944.736023
 20
321.675042
 42
-0.009205
  0
VERTEX
  8
0
 10
944.506157
 20
327.000000
 42
0.007643
  0
VERTEX
  8
0
 10
944.216951
 20
334.223189
 42
0.026038
  0
VERTEX
  8
0
 10
943.712582
 20
338.902785
 42
0.030526
  0
VERTEX
  8
0
 10
942.770054
 20
343.108528
 42
0.013743
  0
VERTEX
  8
0
 10
941.049083
 20
348.500000
 42
-0.006702
  0
VERTEX
  8
0
 10
939.272259
 20
353.807291
 42
-0.039791
  0
VERTEX
  8
0
 10
938.605559
 20
356.653197
 42
-0.068757
  0
VERTEX
  8
0
 10
938.576583
 20
358.835133
 42
-0.047031
  0
VERTEX
  8
0
 10
939.113355
 20
361.258144
 42
-0.049985
  0
VERTEX
  8
0
 10
939.911017
 20
363.083958
 42
-0.038975
  0
VERTEX
  8
0
 10
941.115723
 20
364.884433
 42
-0.035811
  0
VERTEX
  8
0
 10
942.699445
 20
366.621725
 42
-0.028687
  0
VERTEX
  8
0
 10
944.631826
 20
368.258144
 42
0.011942
  0
VERTEX
  8
0
 10
946.283800
 20
369.564723
 42
0.016985
  0
VERTEX
  8
0
 10
947.682256
 20
370.808761
 42
0.013024
  0
VERTEX
  8
0
 10
948.760789
 20
371.890843
 42
0.182726
  0
VERTEX
  8
0
 10
948.969079
 20
372.388702
 42
-0.092838
  0
VERTEX
  8
0
 10
949.106544
 20
373.003646
 42
-0.002517
  0
VERTEX
  8
0
 10
950.211810
 20
375.545917
 42
-0.005142
  0
VERTEX
  8
0
 10
951.561414
 20
378.524584
 42
-0.003492
  0
VERTEX
  8
0
 10
953.156232
 20
381.888702
 42
0.015452
  0
VERTEX
  8
0
 10
955.070304
 20
386.189062
 42
0.017967
  0
VERTEX
  8
0
 10
956.613253
 20
390.390721
 42
0.018685
  0
VERTEX
  8
0
 10
957.799329
 20
394.536643
 42
0.019960
  0
VERTEX
  8
0
 10
958.642984
 20
398.669669
 42
-0.020064
  0
VERTEX
  8
0
 10
959.624466
 20
403.472820
 42
-0.035660
  0
VERTEX
  8
0
 10
960.867137
 20
407.312786
 42
-0.028268
  0
VERTEX
  8
0
 10
962.837634
 20
411.489819
 42
-0.008290
  0
VERTEX
  8
0
 10
966.326024
 20
417.669669
 42
-0.002173
  0
VERTEX
  8
0
 10
975.434176
 20
433.044558
 42
-0.026430
  0
VERTEX
  8
0
 10
979.256179
 20
438.728086
 42
-0.061528
  0
VERTEX
  8
0
 10
982.517169
 20
442.106199
 42
-0.037910
  0
VERTEX
  8
0
 10
987.069802
 20
445.250000
 42
-0.006755
  0
VERTEX
  8
0
 10
989.607746
 20
446.686526
 42
-0.009402
  0
VERTEX
  8
0
 10
991.920082
 20
447.898438
 42
-0.006334
  0
VERTEX
  8
0
 10
993.877000
 20
448.846816
 42
-0.110093
  0
VERTEX
  8
0
 10
994.564271
 20
449.000000
 42
-0.140980
  0
VERTEX
  8
0
 10
997.025625
 20
448.291925
 42
-0.010353
  0
VERTEX
  8
0
 10
1002.962619
 20
444.394286
 42
-0.015398
  0
VERTEX
  8
0
 10
1009.167408
 20
439.847158
 42
-0.022117
  0
VERTEX
  8
0
 10
1014.345405
 20
435.419438
 42
-0.010320
  0
VERTEX
  8
0
 10
1018.239873
 20
431.625553
 42
-0.056003
  0
VERTEX
  8
0
 10
1020.058626
 20
429.310691
 42
-0.071173
  0
VERTEX
  8
0
 10
1021.112266
 20
426.899390
 42
-0.022620
  0
VERTEX
  8
0
 10
1021.987801
 20
423.067273
 42
-0.009502
  0
VERTEX
  8
0
 10
1022.546999
 20
419.610551
 42
-0.046880
  0
VERTEX
  8
0
 10
1022.640974
 20
417.641358
 42
-0.084619
  0
VERTEX
  8
0
 10
1022.346238
 20
416.290646
 42
-0.088200
  0
VERTEX
  8
0
 10
1021.622645
 20
415.135522
 42
0.122788
  0
VERTEX
  8
0
 10
1020.331442
 20
412.721803
 42
0.017274
  0
VERTEX
  8
0
 10
1019.132207
 20
407.158508
 42
0.013318
  0
VERTEX
  8
0
 10
1018.265499
 20
401.467567
 42
0.231481
  0
VERTEX
  8
0
 10
1018.857110
 20
399.742890
 42
0.184491
  0
VERTEX
  8
0
 10
1019.517278
 20
399.447667
 42
0.010091
  0
VERTEX
  8
0
 10
1021.828655
 20
399.365676
 42
0.014576
  0
VERTEX
  8
0
 10
1024.643285
 20
399.404725
 42
0.010046
  0
VERTEX
  8
0
 10
1027.825907
 20
399.605859
 42
0.000000
  0
VERTEX
  8
0
 10
1035.977829
 20
400.285703
 42
0.000000
  0
VERTEX
  8
0
 10
1042.161853
 20
411.392852
 42
-0.000646
  0
VERTEX
  8
0
 10
1044.556744
 20
415.681269
 42
-0.001012
  0
VERTEX
  8
0
 10
1046.629083
 20
419.363360
 42
-0.000255
  0
VERTEX
  8
0
 10
1048.449243
 20
422.578294
 42
-0.038445
  0
VERTEX
  8
0
 10
1048.685496
 20
422.929224
 42
-0.294097
  0
VERTEX
  8
0
 10
1048.970341
 20
423.026586
 42
-0.016288
  0
VERTEX
  8
0
 10
1049.918442
 20
422.758792
 42
-0.020929
  0
VERTEX
  8
0
 10
1051.085552
 20
422.333151
 42
-0.013354
  0
VERTEX
  8
0
 10
1052.405846
 20
421.746290
 42
0.032955
  0
VERTEX
  8
0
 10
1054.507558
 20
420.909069
 42
0.075767
  0
VERTEX
  8
0
 10
1056.183560
 20
420.635235
 42
0.054863
  0
VERTEX
  8
0
 10
1058.175535
 20
420.832900
 42
0.011081
  0
VERTEX
  8
0
 10
1061.643288
 20
421.647354
 42
0.008802
  0
VERTEX
  8
0
 10
1063.947912
 20
422.286292
 42
0.011542
  0
VERTEX
  8
0
 10
1066.027451
 20
422.955031
 42
0.009174
  0
VERTEX
  8
0
 10
1067.729863
 20
423.581416
 42
0.099378
  0
VERTEX
  8
0
 10
1068.343780
 20
423.974069
 42
0.234704
  0
VERTEX
  8
0
 10
1068.553115
 20
424.560974
 42
0.027326
  0
VERTEX
  8
0
 10
1068.305866
 20
425.975112
 42
0.028213
  0
VERTEX
  8
0
 10
1067.795048
 20
427.724228
 42
0.019395
  0
VERTEX
  8
0
 10
1067.029826
 20
429.643780
 42
-0.030439
  0
VERTEX
  8
0
 10
1065.930381
 20
432.589127
 42
-0.040667
  0
VERTEX
  8
0
 10
1065.321488
 20
435.375867
 42
-0.030191
  0
VERTEX
  8
0
 10
1065.069527
 20
438.799478
 42
-0.009193
  0
VERTEX
  8
0
 10
1065.097023
 20
444.000000
 42
0.000000
  0
VERTEX
  8
0
 10
1065.321955
 20
453.500000
 42
0.000000
  0
VERTEX
  8
0
 10
1059.660977
 20
462.788880
 42
-0.001579
  0
VERTEX
  8
0
 10
1057.490831
 20
466.375221
 42
-0.002526
  0
VERTEX
  8
0
 10
1055.662912
 20
469.452761
 42
-0.000492
  0
VERTEX
  8
0
 10
1054.070053
 20
472.171795
 42
-0.133012
  0
VERTEX
  8
0
 10
1054.000000
 20
472.430472
 42
-0.300328
  0
VERTEX
  8
0
 10
1054.109824
 20
472.596820
 42
-0.012347
  0
VERTEX
  8
0
 10
1054.807812
 20
472.874855
 42
-0.017946
  0
VERTEX
  8
0
 10
1055.695926
 20
473.167678
 42
-0.011354
  0
VERTEX
  8
0
 10
1056.750000
 20
473.447966
 42
0.043004
  0
VERTEX
  8
0
 10
1059.076539
 20
474.227083
 42
0.006191
  0
VERTEX
  8
0
 10
1063.654320
 20
476.279528
 42
0.004944
  0
VERTEX
  8
0
 10
1068.243442
 20
478.461059
 42
0.066860
  0
VERTEX
  8
0
 10
1069.786156
 20
479.487657
 42
0.182323
  0
VERTEX
  8
0
 10
1069.918599
 20
479.736302
 42
0.000537
  0
VERTEX
  8
0
 10
1070.395178
 20
483.448803
 42
0.003005
  0
VERTEX
  8
0
 10
1070.905892
 20
487.663355
 42
0.001861
  0
VERTEX
  8
0
 10
1071.457585
 20
492.619490
 42
-0.007084
  0
VERTEX
  8
0
 10
1073.094042
 20
506.043770
 42
-0.047931
  0
VERTEX
  8
0
 10
1074.626543
 20
512.551909
 42
-0.069649
  0
VERTEX
  8
0
 10
1077.163380
 20
517.594315
 42
-0.024048
  0
VERTEX
  8
0
 10
1082.132034
 20
524.085870
 42
0.004940
  0
VERTEX
  8
0
 10
1085.113859
 20
527.687754
 42
0.003885
  0
VERTEX
  8
0
 10
1088.275448
 20
531.647009
 42
0.003928
  0
VERTEX
  8
0
 10
1091.156822
 20
535.373305
 42
0.009665
  0
VERTEX
  8
0
 10
1093.198003
 20
538.166769
 42
-0.016782
  0
VERTEX
  8
0
 10
1094.898843
 20
540.426235
 42
-0.019902
  0
VERTEX
  8
0
 10
1096.657632
 20
542.437110
 42
-0.019124
  0
VERTEX
  8
0
 10
1098.254862
 20
543.998744
 42
-0.107551
  0
VERTEX
  8
0
 10
1099.283798
 20
544.590074
 42
-0.069013
  0
VERTEX
  8
0
 10
1100.570211
 20
544.810264
 42
-0.007784
  0
VERTEX
  8
0
 10
1103.536934
 20
544.858174
 42
-0.009317
  0
VERTEX
  8
0
 10
1107.086562
 20
544.794087
 42
-0.007443
  0
VERTEX
  8
0
 10
1110.908218
 20
544.596823
 42
0.008146
  0
VERTEX
  8
0
 10
1114.662882
 20
544.408306
 42
0.011565
  0
VERTEX
  8
0
 10
1118.005675
 20
544.372380
 42
0.007751
  0
VERTEX
  8
0
 10
1120.776794
 20
544.449671
 42
0.142865
  0
VERTEX
  8
0
 10
1121.600461
 20
544.729219
 42
0.144345
  0
VERTEX
  8
0
 10
1122.174306
 20
545.448968
 42
0.004242
  0
VERTEX
  8
0
 10
1123.620600
 20
549.092333
 42
0.008175
  0
VERTEX
  8
0
 10
1125.231031
 20
553.462653
 42
0.005509
  0
VERTEX
  8
0
 10
1126.932201
 20
558.500000
 42
-0.016882
  0
VERTEX
  8
0
 10
1130.284745
 20
567.729294
 42
-0.066609
  0
VERTEX
  8
0
 10
1133.256684
 20
572.977998
 42
-0.049083
  0
VERTEX
  8
0
 10
1137.899900
 20
577.999038
 42
-0.006378
  0
VERTEX
  8
0
 10
1148.944571
 20
587.562175
 42
-0.009440
  0
VERTEX
  8
0
 10
1153.072118
 20
590.913598
 42
-0.063422
  0
VERTEX
  8
0
 10
1155.336257
 20
592.259854
 42
-0.081869
  0
VERTEX
  8
0
 10
1157.625584
 20
592.835620
 42
-0.021105
  0
VERTEX
  8
0
 10
1161.444571
 20
592.991564
 42
0.000000
  0
VERTEX
  8
0
 10
1167.500000
 20
592.983127
 42
0.000000
  0
VERTEX
  8
0
 10
1171.000000
 20
586.381759
 42
0.016548
  0
VERTEX
  8
0
 10
1173.236288
 20
582.481446
 42
0.061242
  0
VERTEX
  8
0
 10
1175.008140
 20
580.272459
 42
0.060533
  0
VERTEX
  8
0
 10
1177.272704
 20
578.545494
 42
0.015919
  0
VERTEX
  8
0
 10
1181.284911
 20
576.360042
 42
0.013771
  0
VERTEX
  8
0
 10
1184.108401
 20
575.032896
 42
0.023718
  0
VERTEX
  8
0
 10
1186.534964
 20
574.107252
 42
0.023488
  0
VERTEX
  8
0
 10
1188.460065
 20
573.574401
 42
0.196576
  0
VERTEX
  8
0
 10
1189.332798
 20
573.719847
 42
0.017367
  0
VERTEX
  8
0
 10
1190.101694
 20
574.232520
 42
0.001890
  0
VERTEX
  8
0
 10
1191.826333
 20
575.480972
 42
0.002314
  0
VERTEX
  8
0
 10
1193.867735
 20
576.985042
 42
0.001865
  0
VERTEX
  8
0
 10
1196.047887
 20
578.619631
 42
-0.025964
  0
VERTEX
  8
0
 10
1198.856595
 20
580.521282
 42
-0.021665
  0
VERTEX
  8
0
 10
1202.019165
 20
582.248676
 42
-0.021032
  0
VERTEX
  8
0
 10
1205.424023
 20
583.746944
 42
-0.020722
  0
VERTEX
  8
0
 10
1208.959468
 20
584.962038
 42
0.008917
  0
VERTEX
  8
0
 10
1218.535703
 20
588.002524
 42
0.032797
  0
VERTEX
  8
0
 10
1224.408675
 20
590.422411
 42
0.045118
  0
VERTEX
  8
0
 10
1228.900767
 20
593.155484
 42
0.030467
  0
VERTEX
  8
0
 10
1233.500000
 20
597.011131
 42
-0.017569
  0
VERTEX
  8
0
 10
1236.252918
 20
599.442520
 42
-0.011579
  0
VERTEX
  8
0
 10
1239.576884
 20
602.049896
 42
-0.011657
  0
VERTEX
  8
0
 10
1242.932130
 20
604.438636
 42
-0.022002
  0
VERTEX
  8
0
 10
1245.761734
 20
606.178876
 42
0.029789
  0
VERTEX
  8
0
 10
1249.342696
 20
608.458765
 42
0.033968
  0
VERTEX
  8
0
 10
1252.464553
 20
611.058611
 42
0.025076
  0
VERTEX
  8
0
 10
1255.873669
 20
614.657473
 42
0.008189
  0
VERTEX
  8
0
 10
1260.539855
 20
620.290337
 42
-0.031204
  0
VERTEX
  8
0
 10
1272.401432
 20
633.337864
 42
-0.017993
  0
VERTEX
  8
0
 10
1288.160504
 20
647.572125
 42
-0.017698
  0
VERTEX
  8
0
 10
1305.474405
 20
661.099341
 42
-0.023565
  0
VERTEX
  8
0
 10
1322.165231
 20
672.051696
 42
0.033943
  0
VERTEX
  8
0
 10
1326.718941
 20
675.176785
 42
0.088728
  0
VERTEX
  8
0
 10
1329.339507
 20
678.137735
 42
0.068038
  0
VERTEX
  8
0
 10
1331.147284
 20
682.278594
 42
0.014248
  0
VERTEX
  8
0
 10
1333.088461
 20
689.968410
 42
-0.029692
  0
VERTEX
  8
0
 10
1333.794352
 20
692.440510
 42
-0.016413
  0
VERTEX
  8
0
 10
1334.931333
 20
695.369035
 42
-0.016318
  0
VERTEX
  8
0
 10
1336.282724
 20
698.271240
 42
-0.025174
  0
VERTEX
  8
0
 10
1337.654758
 20
700.674471
 42
0.014957
  0
VERTEX
  8
0
 10
1339.719701
 20
704.125707
 42
0.081131
  0
VERTEX
  8
0
 10
1340.459810
 20
706.169959
 42
0.070724
  0
VERTEX
  8
0
 10
1340.561305
 20
708.462476
 42
0.009801
  0
VERTEX
  8
0
 10
1340.005824
 20
713.206061
 42
0.019272
  0
VERTEX
  8
0
 10
1339.431812
 20
716.458053
 42
0.012082
  0
VERTEX
  8
0
 10
1338.523123
 20
720.213329
 42
0.012124
  0
VERTEX
  8
0
 10
1337.447697
 20
723.872856
 42
0.021592
  0
VERTEX
  8
0
 10
1336.361769
 20
726.818037
 42
0.000000
  0
VERTEX
  8
0
 10
1333.717131
 20
733.136074
 42
0.000000
  0
VERTEX
  8
0
 10
1337.882478
 20
737.380254
 42
0.028317
  0
VERTEX
  8
0
 10
1340.058475
 20
739.864218
 42
0.042755
  0
VERTEX
  8
0
 10
1341.627291
 20
742.272747
 42
0.037679
  0
VERTEX
  8
0
 10
1342.891524
 20
745.130153
 42
0.016707
  0
VERTEX
  8
0
 10
1344.141613
 20
749.062217
 42
-0.020695
  0
VERTEX
  8
0
 10
1345.232308
 20
752.400507
 42
-0.012123
  0
VERTEX
  8
0
 10
1346.797815
 20
756.303959
 42
-0.012112
  0
VERTEX
  8
0
 10
1348.556265
 20
760.139339
 42
-0.020113
  0
VERTEX
  8
0
 10
1350.243791
 20
763.270408
 42
0.000000
  0
VERTEX
  8
0
 10
1354.252180
 20
770.040816
 42
0.000000
  0
VERTEX
  8
0
 10
1353.056641
 20
776.117626
 42
-0.005617
  0
VERTEX
  8
0
 10
1352.621451
 20
778.468793
 42
-0.008831
  0
VERTEX
  8
0
 10
1352.306130
 20
780.498386
 42
-0.003621
  0
VERTEX
  8
0
 10
1352.081999
 20
782.223139
 42
-0.237774
  0
VERTEX
  8
0
 10
1352.180551
 20
782.497461
 42
-0.126437
  0
VERTEX
  8
0
 10
1352.447499
 20
782.645899
 42
-0.003647
  0
VERTEX
  8
0
 10
1353.716445
 20
782.968088
 42
-0.007151
  0
VERTEX
  8
0
 10
1355.228170
 20
783.317351
 42
-0.004838
  0
VERTEX
  8
0
 10
1356.960539
 20
783.674067
 42
0.057789
  0
VERTEX
  8
0
 10
1360.011279
 20
784.647430
 42
0.152538
  0
VERTEX
  8
0
 10
1361.705411
 20
786.154533
 42
0.107938
  0
VERTEX
  8
0
 10
1362.571780
 20
788.717536
 42
0.021599
  0
VERTEX
  8
0
 10
1362.900320
 20
793.560386
 42
-0.040826
  0
VERTEX
  8
0
 10
1363.113583
 20
795.561891
 42
-0.015293
  0
VERTEX
  8
0
 10
1363.725471
 20
798.319671
 42
-0.015032
  0
VERTEX
  8
0
 10
1364.578388
 20
801.297153
 42
-0.017650
  0
VERTEX
  8
0
 10
1365.569368
 20
804.060386
 42
0.028189
  0
VERTEX
  8
0
 10
1366.884654
 20
807.986263
 42
0.020773
  0
VERTEX
  8
0
 10
1367.909580
 20
812.456658
 42
0.015525
  0
VERTEX
  8
0
 10
1368.785154
 20
818.142634
 42
0.006166
  0
VERTEX
  8
0
 10
1369.647650
 20
825.994323
 42
-0.006503
  0
VERTEX
  8
0
 10
1370.700935
 20
835.523575
 42
-0.026388
  0
VERTEX
  8
0
 10
1371.721989
 20
841.269816
 42
-0.027065
  0
VERTEX
  8
0
 10
1373.330805
 20
846.807531
 42
-0.007091
  0
VERTEX
  8
0
 10
1376.511934
 20
855.494323
 42
0.008208
  0
VERTEX
  8
0
 10
1378.818602
 20
861.837035
 42
0.005092
  0
VERTEX
  8
0
 10
1381.327817
 20
869.353306
 42
0.005107
  0
VERTEX
  8
0
 10
1383.653859
 20
876.824909
 42
0.009182
  0
VERTEX
  8
0
 10
1385.386122
 20
883.006295
 42
-0.014702
  0
VERTEX
  8
0
 10
1388.975216
 20
895.290104
 42
-0.033174
  0
VERTEX
  8
0
 10
1392.569726
 20
904.289752
 42
-0.042191
  0
VERTEX
  8
0
 10
1396.664300
 20
911.267670
 42
-0.047146
  0
VERTEX
  8
0
 10
1401.740309
 20
917.182764
 42
0.014157
  0
VERTEX
  8
0
 10
1405.169238
 20
920.682955
 42
0.053457
  0
VERTEX
  8
0
 10
1406.998913
 20
923.140452
 42
0.055887
  0
VERTEX
  8
0
 10
1408.225118
 20
925.875098
 42
0.016453
  0
VERTEX
  8
0
 10
1409.483839
 20
930.303107
 42
0.045339
  0
VERTEX
  8
0
 10
1410.608691
 20
937.576456
 42
0.049023
  0
VERTEX
  8
0
 10
1410.356777
 20
944.741198
 42
0.051993
  0
VERTEX
  8
0
 10
1408.768334
 20
951.317367
 42
0.066836
  0
VERTEX
  8
0
 10
1405.929616
 20
956.845786
 42
-0.019426
  0
VERTEX
  8
0
 10
1404.278903
 20
959.426814
 42
-0.068295
  0
VERTEX
  8
0
 10
1403.524158
 20
961.243398
 42
-0.073981
  0
VERTEX
  8
0
 10
1403.317602
 20
963.118689
 42
-0.025425
  0
VERTEX
  8
0
 10
1403.560484
 20
965.845786
 42
-0.026832
  0
VERTEX
  8
0
 10
1403.989618
 20
968.037885
 42
-0.012535
  0
VERTEX
  8
0
 10
1404.767389
 20
970.826030
 42
-0.012379
  0
VERTEX
  8
0
 10
1405.731416
 20
973.716988
 42
-0.016947
  0
VERTEX
  8
0
 10
1406.750287
 20
976.264105
 42
0.021835
  0
VERTEX
  8
0
 10
1408.157655
 20
979.884659
 42
0.050582
  0
VERTEX
  8
0
 10
1408.810221
 20
982.722783
 42
0.036827
  0
VERTEX
  8
0
 10
1408.985429
 20
986.134998
 42
0.007263
  0
VERTEX
  8
0
 10
1408.759509
 20
992.264105
 42
0.000000
  0
VERTEX
  8
0
 10
1408.233231
 20
1002.500000
 42
0.000000
  0
VERTEX
  8
0
 10
1399.080945
 20
1019.414329
 42
-0.004888
  0
VERTEX
  8
0
 10
1395.628485
 20
1025.946581
 42
-0.008008
  0
VERTEX
  8
0
 10
1392.847933
 20
1031.552920
 42
-0.002604
  0
VERTEX
  8
0
 10
1390.579234
 20
1036.382082
 42
-0.339375
  0
VERTEX
  8
0
 10
1390.714329
 20
1036.985153
 42
-0.002022
  0
VERTEX
  8
0
 10
1399.209748
 20
1044.025659
 42
-0.033914
  0
VERTEX
  8
0
 10
1402.181971
 20
1046.148349
 42
-0.095457
  0
VERTEX
  8
0
 10
1404.391770
 20
1046.985268
 42
-0.057723
  0
VERTEX
  8
0
 10
1407.195041
 20
1047.143490
 42
0.068300
  0
VERTEX
  8
0
 10
1414.893871
 20
1047.740979
 42
0.052275
  0
VERTEX
  8
0
 10
1422.922284
 20
1050.386329
 42
0.054530
  0
VERTEX
  8
0
 10
1429.750932
 20
1054.402970
 42
0.111720
  0
VERTEX
  8
0
 10
1433.766510
 20
1059.097307
 42
0.121985
  0
VERTEX
  8
0
 10
1434.971274
 20
1063.971008
 42
0.000026
  0
VERTEX
  8
0
 10
1434.852808
 20
1309.344989
 42
0.000012
  0
VERTEX
  8
0
 10
1434.714772
 20
1556.033223
 42
0.346501
  0
VERTEX
  8
0
 10
1433.500000
 20
1557.573821
 42
0.130069
  0
VERTEX
  8
0
 10
1432.740891
 20
1557.556593
 42
0.001231
  0
VERTEX
  8
0
 10
1427.359375
 20
1555.986728
 42
0.004020
  0
VERTEX
  8
0
 10
1421.163184
 20
1554.108382
 42
0.002578
  0
SEQEND
  0
POLYLINE
  8
0
 66
1
 70
1
  0
VERTEX
  8
0
 10
1428.752008
 20
1059.221427
 42
-0.049942
  0
VERTEX
  8
0
 10
1424.938855
 20
1055.878142
 42
-0.056769
  0
VERTEX
  8
0
 10
1420.691823
 20
1053.521347
 42
-0.051423
  0
VERTEX
  8
0
 10
1415.676098
 20
1052.022146
 42
-0.031357
  0
VERTEX
  8
0
 10
1409.536215
 20
1051.250641
 42
0.026748
  0
VERTEX
  8
0
 10
1403.657529
 20
1050.566887
 42
0.080419
  0
VERTEX
  8
0
 10
1399.847491
 20
1049.262847
 42
0.053664
  0
VERTEX
  8
0
 10
1395.864220
 20
1046.552425
 42
0.007296
  0
VERTEX
  8
0
 10
1388.267862
 20
1039.899259
 42
0.000000
  0
VERTEX
  8
0
 10
1385.035724
 20
1036.984006
 42
0.000000
  0
VERTEX
  8
0
 10
1388.646695
 20
1030.242003
 42
0.001232
  0
VERTEX
  8
0
 10
1390.446804
 20
1026.900851
 42
0.000472
  0
VERTEX
  8
0
 10
1392.965618
 20
1022.263653
 42
0.000468
  0
VERTEX
  8
0
 10
1395.708891
 20
1017.235786
 42
0.000575
  0
VERTEX
  8
0
 10
1398.278685
 20
1012.549157
 42
-0.006371
  0
VERTEX
  8
0
 10
1402.018243
 20
1005.537605
 42
-0.041143
  0
VERTEX
  8
0
 10
1403.560329
 20
1001.838597
 42
-0.051732
  0
VERTEX
  8
0
 10
1404.315536
 20
998.284457
 42
-0.013436
  0
VERTEX
  8
0
 10
1404.778289
 20
992.448661
 42
-0.009868
  0
VERTEX
  8
0
 10
1404.951332
 20
987.130116
 42
-0.035979
  0
VERTEX
  8
0
 10
1404.751854
 20
983.760915
 42
-0.042834
  0
VERTEX
  8
0
 10
1404.091558
 20
980.761425
 42
-0.018491
  0
VERTEX
  8
0
 10
1402.728608
 20
976.899504
 42
0.015028
  0
VERTEX
  8
0
 10
1401.712897
 20
974.083751
 42
0.011079
  0
VERTEX
  8
0
 10
1400.752353
 20
970.911104
 42
0.011218
  0
VERTEX
  8
0
 10
1399.977460
 20
967.868667
 42
0.024471
  0
VERTEX
  8
0
 10
1399.551266
 20
965.500000
 42
0.023930
  0
VERTEX
  8
0
 10
1399.309635
 20
962.532358
 42
0.070495
  0
VERTEX
  8
0
 10
1399.528541
 20
960.501268
 42
0.063250
  0
VERTEX
  8
0
 10
1400.318404
 20
958.491401
 42
0.016617
  0
VERTEX
  8
0
 10
1402.082700
 20
955.507754
 42
-0.054412
  0
VERTEX
  8
0
 10
1404.897972
 20
949.804399
 42
-0.053097
  0
VERTEX
  8
0
 10
1406.445478
 20
943.580973
 42
-0.052813
  0
VERTEX
  8
0
 10
1406.652268
 20
937.139520
 42
-0.052684
  0
VERTEX
  8
0
 10
1405.505715
 20
930.792136
 42
-0.023053
  0
VERTEX
  8
0
 10
1404.313970
 20
927.313687
 42
-0.047163
  0
VERTEX
  8
0
 10
1403.008023
 20
924.745478
 42
-0.044483
  0
VERTEX
  8
0
 10
1401.192802
 20
922.375394
 42
-0.018407
  0
VERTEX
  8
0
 10
1398.352208
 20
919.500000
 42
0.053979
  0
VERTEX
  8
0
 10
1393.339518
 20
913.647589
 42
0.038363
  0
VERTEX
  8
0
 10
1389.015625
 20
906.160539
 42
0.031369
  0
VERTEX
  8
0
 10
1385.161189
 20
896.629931
 42
0.016999
  0
VERTEX
  8
0
 10
1381.573085
 20
884.500000
 42
-0.009117
  0
VERTEX
  8
0
 10
1379.792882
 20
878.113466
 42
-0.005155
  0
VERTEX
  8
0
 10
1377.415191
 20
870.437533
 42
-0.005144
  0
VERTEX
  8
0
 10
1374.857311
 20
862.744256
 42
-0.008421
  0
VERTEX
  8
0
 10
1372.514137
 20
856.287345
 42
0.006787
  0
VERTEX
  8
0
 10
1369.244392
 20
847.368159
 42
0.028025
  0
VERTEX
  8
0
 10
1367.647372
 20
841.851230
 42
0.027234
  0
VERTEX
  8
0
 10
1366.655555
 20
836.117471
 42
0.006163
  0
VERTEX
  8
0
 10
1365.624536
 20
826.287345
 42
-0.005320
  0
VERTEX
  8
0
 10
1364.761033
 20
817.918344
 42
-0.017956
  0
VERTEX
  8
0
 10
1363.942846
 20
812.481341
 42
-0.026572
  0
VERTEX
  8
0
 10
1362.952643
 20
808.406872
 42
-0.032202
  0
VERTEX
  8
0
 10
1361.582604
 20
804.721487
 42
0.022073
  0
VERTEX
  8
0
 10
1360.487689
 20
801.949323
 42
0.023880
  0
VERTEX
  8
0
 10
1359.673450
 20
799.162591
 42
0.025228
  0
VERTEX
  8
0
 10
1359.167727
 20
796.476184
 42
0.033921
  0
VERTEX
  8
0
 10
1359.000000
 20
794.006670
 42
-0.038175
  0
VERTEX
  8
0
 10
1358.735685
 20
790.549826
 42
-0.156043
  0
VERTEX
  8
0
 10
1357.808632
 20
788.689065
 42
-0.131691
  0
VERTEX
  8
0
 10
1355.873723
 20
787.536796
 42
-0.024183
  0
VERTEX
  8
0
 10
1351.785079
 20
786.592893
 42
0.016102
  0
VERTEX
  8
0
 10
1350.328523
 20
786.281329
 42
0.021211
  0
VERTEX
  8
0
 10
1349.025162
 20
785.898988
 42
0.019254
  0
VERTEX
  8
0
 10
1347.988871
 20
785.501499
 42
0.154322
  0
VERTEX
  8
0
 10
1347.606312
 20
785.172017
 42
0.167933
  0
VERTEX
  8
0
 10
1347.479919
 20
784.608952
 42
0.006909
  0
VERTEX
  8
0
 10
1347.743599
 20
782.523419
 42
0.011359
  0
VERTEX
  8
0
 10
1348.152317
 20
780.027283
 42
0.007748
  0
VERTEX
  8
0
 10
1348.725029
 20
777.209432
 42
-0.006678
  0
VERTEX
  8
0
 10
1349.589026
 20
773.004540
 42
-0.045471
  0
VERTEX
  8
0
 10
1349.797033
 20
770.897871
 42
-0.093874
  0
VERTEX
  8
0
 10
1349.543079
 20
769.499590
 42
-0.086984
  0
VERTEX
  8
0
 10
1348.792585
 20
768.248683
 42
0.044687
  0
VERTEX
  8
0
 10
1346.508096
 20
765.079691
 42
0.022189
  0
VERTEX
  8
0
 10
1344.170889
 20
760.707604
 42
0.021435
  0
VERTEX
  8
0
 10
1342.080779
 20
755.814423
 42
0.024961
  0
VERTEX
  8
0
 10
1340.533741
 20
751.000000
 42
-0.023821
  0
VERTEX
  8
0
 10
1339.442046
 20
747.575839
 42
-0.035118
  0
VERTEX
  8
0
 10
1338.137200
 20
744.703999
 42
-0.033835
  0
VERTEX
  8
0
 10
1336.404572
 20
741.966788
 42
-0.020110
  0
VERTEX
  8
0
 10
1334.000257
 20
738.945584
 42
0.000000
  0
VERTEX
  8
0
 10
1329.202882
 20
733.391168
 42
0.000000
  0
VERTEX
  8
0
 10
1332.002549
 20
726.828435
 42
-0.018805
  0
VERTEX
  8
0
 10
1333.151314
 20
723.827738
 42
-0.011560
  0
VERTEX
  8
0
 10
1334.287419
 20
720.217700
 42
-0.011586
  0
VERTEX
  8
0
 10
1335.247193
 20
716.589438
 42
-0.020249
  0
VERTEX
  8
0
 10
1335.849381
 20
713.539559
 42
-0.011236
  0
VERTEX
  8
0
 10
1336.427223
 20
709.186562
 42
-0.075327
  0
VERTEX
  8
0
 10
1336.338335
 20
707.012755
 42
-0.081835
  0
VERTEX
  8
0
 10
1335.607496
 20
705.038507
 42
-0.014492
  0
VERTEX
  8
0
 10
1333.548817
 20
701.656708
 42
0.029104
  0
VERTEX
  8
0
 10
1332.032664
 20
698.994010
 42
0.021295
  0
VERTEX
  8
0
 10
1330.655124
 20
695.882970
 42
0.020356
  0
VERTEX
  8
0
 10
1329.481470
 20
692.495773
 42
0.019921
  0
VERTEX
  8
0
 10
1328.577645
 20
689.000000
 42
-0.005664
  0
VERTEX
  8
0
 10
1327.902807
 20
686.044674
 42
-0.007486
  0
VERTEX
  8
0
 10
1327.217502
 20
683.369698
 42
-0.005580
  0
VERTEX
  8
0
 10
1326.587383
 20
681.152783
 42
-0.070525
  0
VERTEX
  8
0
 10
1326.227100
 20
680.364930
 42
-0.094697
  0
VERTEX
  8
0
 10
1325.547607
 20
679.647938
 42
-0.001496
  0
VERTEX
  8
0
 10
1320.953071
 20
676.364945
 42
-0.003896
  0
VERTEX
  8
0
 10
1315.557402
 20
672.596746
 42
-0.002565
  0
VERTEX
  8
0
 10
1309.293994
 20
668.341889
 42
0.014630
  0
VERTEX
  8
0
 10
1293.852078
 20
657.298200
 42
0.016917
  0
VERTEX
  8
0
 10
1279.833584
 20
645.870654
 42
0.018276
  0
VERTEX
  8
0
 10
1267.789010
 20
634.552737
 42
0.028265
  0
VERTEX
  8
0
 10
1258.340280
 20
623.853872
 42
-0.007859
  0
VERTEX
  8
0
 10
1253.551335
 20
617.963564
 42
-0.027453
  0
VERTEX
  8
0
 10
1250.202755
 20
614.392381
 42
-0.037282
  0
VERTEX
  8
0
 10
1247.060875
 20
611.809113
 42
-0.026299
  0
VERTEX
  8
0
 10
1243.188503
 20
609.375830
 42
0.020969
  0
VERTEX
  8
0
 10
1240.193895
 20
607.538317
 42
0.011712
  0
VERTEX
  8
0
 10
1236.702248
 20
605.068087
 42
0.011668
  0
VERTEX
  8
0
 10
1233.282807
 20
602.400631
 42
0.018549
  0
VERTEX
  8
0
 10
1230.500000
 20
599.945561
 42
-0.018719
  0
VERTEX
  8
0
 10
1226.771408
 20
596.658342
 42
-0.044500
  0
VERTEX
  8
0
 10
1223.715395
 20
594.584638
 42
-0.036518
  0
VERTEX
  8
0
 10
1219.995726
 20
592.859546
 42
-0.009270
  0
VERTEX
  8
0
 10
1213.722653
 20
590.621405
 42
-0.003519
  0
VERTEX
  8
0
 10
1209.495430
 20
589.234010
 42
-0.004989
  0
VERTEX
  8
0
 10
1205.713904
 20
588.063788
 42
-0.002914
  0
VERTEX
  8
0
 10
1202.516418
 20
587.129416
 42
-0.069732
  0
VERTEX
  8
0
 10
1201.592973
 20
587.000000
 42
0.130072
  0
VERTEX
  8
0
 10
1200.786113
 20
586.786488
 42
0.011129
  0
VERTEX
  8
0
 10
1198.935574
 20
585.678125
 42
0.014119
  0
VERTEX
  8
0
 10
1196.763776
 20
584.223565
 42
0.010472
  0
VERTEX
  8
0
 10
1194.445529
 20
582.500000
 42
-0.006682
  0
VERTEX
  8
0
 10
1192.162810
 20
580.775830
 42
-0.009717
  0
VERTEX
  8
0
 10
1190.100561
 20
579.321875
 42
-0.005753
  0
VERTEX
  8
0
 10
1188.341646
 20
578.161536
 42
-0.143894
  0
VERTEX
  8
0
 10
1187.791965
 20
578.000000
 42
-0.095012
  0
VERTEX
  8
0
 10
1187.247041
 20
578.104492
 42
-0.006630
  0
VERTEX
  8
0
 10
1185.800136
 20
578.702923
 42
-0.009216
  0
VERTEX
  8
0
 10
1184.086002
 20
579.476360
 42
-0.006800
  0
VERTEX
  8
0
 10
1182.216756
 20
580.392929
 42
-0.033223
  0
VERTEX
  8
0
 10
1179.629471
 20
581.929485
 42
-0.056515
  0
VERTEX
  8
0
 10
1177.732070
 20
583.577737
 42
-0.046897
  0
VERTEX
  8
0
 10
1176.031082
 20
585.820308
 42
-0.016281
  0
VERTEX
  8
0
 10
1174.002999
 20
589.340890
 42
0.024004
  0
VERTEX
  8
0
 10
1171.301638
 20
593.867197
 42
0.118960
  0
VERTEX
  8
0
 10
1169.143373
 20
595.869450
 42
0.109019
  0
VERTEX
  8
0
 10
1166.216694
 20
596.755354
 42
0.018633
  0
VERTEX
  8
0
 10
1160.370320
 20
596.986345
 42
0.019802
  0
VERTEX
  8
0
 10
1156.612980
 20
596.845866
 42
0.071363
  0
VERTEX
  8
0
 10
1154.279430
 20
596.325378
 42
0.062071
  0
VERTEX
  8
0
 10
1152.023656
 20
595.133969
 42
0.012589
  0
VERTEX
  8
0
 10
1148.373698
 20
592.444223
 42
0.011559
  0
VERTEX
  8
0
 10
1145.591984
 20
590.179192
 42
0.005050
  0
VERTEX
  8
0
 10
1142.003298
 20
587.053247
 42
0.004995
  0
VERTEX
  8
0
 10
1138.257440
 20
583.655673
 42
0.006648
  0
VERTEX
  8
0
 10
1134.925912
 20
580.489439
 42
0.000000
  0
VERTEX
  8
0
 10
1127.345066
 20
573.090433
 42
0.000000
  0
VERTEX
  8
0
 10
1123.422533
 20
560.446888
 42
0.000000
  0
VERTEX
  8
0
 10
1119.500000
 20
547.803343
 42
0.000000
  0
VERTEX
  8
0
 10
1110.861950
 20
548.467986
 42
0.015137
  0
VERTEX
  8
0
 10
1102.293497
 20
548.866881
 42
0.086064
  0
VERTEX
  8
0
 10
1097.801697
 20
548.162916
 42
0.118454
  0
VERTEX
  8
0
 10
1094.502798
 20
546.080987
 42
0.040099
  0
VERTEX
  8
0
 10
1090.855626
 20
541.678676
 42
-0.010718
  0
VERTEX
  8
0
 10
1088.675411
 20
538.708101
 42
-0.004264
  0
VERTEX
  8
0
 10
1085.563249
 20
534.723735
 42
-0.004218
  0
VERTEX
  8
0
 10
1082.131127
 20
530.480136
 42
-0.005290
  0
VERTEX
  8
0
 10
1078.874901
 20
526.607018
 42
0.006942
  0
VERTEX
  8
0
 10
1073.990283
 20
520.757897
 42
0.049739
  0
VERTEX
  8
0
 10
1071.967402
 20
517.687120
 42
0.061777
  0
VERTEX
  8
0
 10
1070.782060
 20
514.535229
 42
0.013842
  0
VERTEX
  8
0
 10
1069.590780
 20
508.908387
 42
0.008755
  0
VERTEX
  8
0
 10
1068.930735
 20
504.905977
 42
0.005097
  0
VERTEX
  8
0
 10
1068.272040
 20
500.083116
 42
0.005094
  0
VERTEX
  8
0
 10
1067.710477
 20
495.236677
 42
0.008577
  0
VERTEX
  8
0
 10
1067.350610
 20
491.158589
 42
0.000000
  0
VERTEX
  8
0
 10
1066.712112
 20
482.163381
 42
0.000000
  0
VERTEX
  8
0
 10
1060.106056
 20
479.176094
 42
-0.004140
  0
VERTEX
  8
0
 10
1057.406618
 20
477.982220
 42
-0.004484
  0
VERTEX
  8
0
 10
1054.758347
 20
476.865179
 42
-0.004230
  0
VERTEX
  8
0
 10
1052.472039
 20
475.947412
 42
-0.021638
  0
VERTEX
  8
0
 10
1051.177679
 20
475.504062
 42
0.173146
  0
VERTEX
  8
0
 10
1049.846693
 20
474.534395
 42
0.232489
  0
VERTEX
  8
0
 10
1049.639508
 20
473.079155
 42
0.047211
  0
VERTEX
  8
0
 10
1050.879306
 20
470.225011
 42
0.002474
  0
VERTEX
  8
0
 10
1055.745435
 20
461.507013
 42
0.000000
  0
VERTEX
  8
0
 10
1061.388265
 20
451.514027
 42
0.000000
  0
VERTEX
  8
0
 10
1061.115952
 20
442.912007
 42
0.011469
  0
VERTEX
  8
0
 10
1061.079518
 20
438.728843
 42
0.022918
  0
VERTEX
  8
0
 10
1061.278030
 20
435.427303
 42
0.028740
  0
VERTEX
  8
0
 10
1061.719714
 20
432.747440
 42
0.043770
  0
VERTEX
  8
0
 10
1062.434946
 20
430.501454
 42
-0.007748
  0
VERTEX
  8
0
 10
1063.025919
 20
429.023066
 42
-0.012249
  0
VERTEX
  8
0
 10
1063.481513
 20
427.736306
 42
-0.006239
  0
VERTEX
  8
0
 10
1063.819857
 20
426.655242
 42
-0.279137
  0
VERTEX
  8
0
 10
1063.763127
 20
426.436340
 42
-0.114091
  0
VERTEX
  8
0
 10
1063.545233
 20
426.304063
 42
-0.003590
  0
VERTEX
  8
0
 10
1062.549168
 20
425.983652
 42
-0.006817
  0
VERTEX
  8
0
 10
1061.360175
 20
425.628312
 42
-0.004654
  0
VERTEX
  8
0
 10
1060.000000
 20
425.255579
 42
-0.038368
  0
VERTEX
  8
0
 10
1058.064246
 20
424.900408
 42
-0.055238
  0
VERTEX
  8
0
 10
1056.323892
 20
424.910156
 42
-0.048615
  0
VERTEX
  8
0
 10
1054.470641
 20
425.311211
 42
-0.022554
  0
VERTEX
  8
0
 10
1052.159663
 20
426.168884
 42
0.014578
  0
VERTEX
  8
0
 10
1050.441008
 20
426.838099
 42
0.020435
  0
VERTEX
  8
0
 10
1048.868201
 20
427.326872
 42
0.017281
  0
VERTEX
  8
0
 10
1047.568147
 20
427.625629
 42
0.188407
  0
VERTEX
  8
0
 10
1047.049626
 20
427.530671
 42
0.117896
  0
VERTEX
  8
0
 10
1046.587583
 20
427.065954
 42
0.001899
  0
VERTEX
  8
0
 10
1044.661604
 20
423.881946
 42
0.004858
  0
VERTEX
  8
0
 10
1042.463092
 20
420.133943
 42
0.003190
  0
VERTEX
  8
0
 10
1040.001044
 20
415.777485
 42
-0.000300
  0
VERTEX
  8
0
 10
1037.585680
 20
411.445373
 42
-0.000491
  0
VERTEX
  8
0
 10
1035.533953
 20
407.779117
 42
-0.000038
  0
VERTEX
  8
0
 10
1033.687748
 20
404.488286
 42
-0.064782
  0
VERTEX
  8
0
 10
1033.611080
 20
404.385468
 42
-0.164915
  0
VERTEX
  8
0
 10
1033.504772
 20
404.330957
 42
-0.000492
  0
VERTEX
  8
0
 10
1031.949682
 20
404.102387
 42
-0.002763
  0
VERTEX
  8
0
 10
1030.185123
 20
403.854751
 42
-0.001715
  0
VERTEX
  8
0
 10
1028.111242
 20
403.582619
 42
0.000000
  0
VERTEX
  8
0
 10
1022.722485
 20
402.894301
 42
0.000000
  0
VERTEX
  8
0
 10
1023.285769
 20
407.093899
 42
-0.033956
  0
VERTEX
  8
0
 10
1023.642421
 20
408.842368
 42
-0.029041
  0
VERTEX
  8
0
 10
1024.246703
 20
410.622981
 42
-0.030091
  0
VERTEX
  8
0
 10
1024.990091
 20
412.180146
 42
-0.070072
  0
VERTEX
  8
0
 10
1025.766040
 20
413.210485
 42
0.068431
  0
VERTEX
  8
0
 10
1026.804708
 20
414.580340
 42
0.117014
  0
VERTEX
  8
0
 10
1027.198052
 20
415.952736
 42
0.053360
  0
VERTEX
  8
0
 10
1027.072754
 20
418.022594
 42
0.005578
  0
VERTEX
  8
0
 10
1026.209636
 20
422.813736
 42
0.015740
  0
VERTEX
  8
0
 10
1025.132372
 20
427.611504
 42
0.064270
  0
VERTEX
  8
0
 10
1024.024740
 20
430.378943
 42
0.055654
  0
VERTEX
  8
0
 10
1022.179278
 20
432.962495
 42
0.009896
  0
VERTEX
  8
0
 10
1018.118122
 20
437.310928
 42
0.019805
  0
VERTEX
  8
0
 10
1014.943052
 20
440.329582
 42
0.012403
  0
VERTEX
  8
0
 10
1011.007161
 20
443.616173
 42
0.012378
  0
VERTEX
  8
0
 10
1006.893356
 20
446.718771
 42
0.019010
  0
VERTEX
  8
0
 10
1003.170049
 20
449.176342
 42
0.000000
  0
VERTEX
  8
0
 10
994.840098
 20
454.230828
 42
0.000000
  0
VERTEX
  8
0
 10
989.670049
 20
451.462548
 42
0.020580
  0
VERTEX
  8
0
 10
982.208234
 20
447.062882
 42
0.064952
  0
VERTEX
  8
0
 10
977.789816
 20
443.313785
 42
0.045456
  0
VERTEX
  8
0
 10
973.705139
 20
437.902490
 42
0.006437
  0
VERTEX
  8
0
 10
966.492970
 20
425.948689
 42
0.003571
  0
VERTEX
  8
0
 10
960.416073
 20
415.405059
 42
0.022647
  0
VERTEX
  8
0
 10
957.611470
 20
409.889642
 42
0.039561
  0
VERTEX
  8
0
 10
956.046926
 20
405.550565
 42
0.027398
  0
VERTEX
  8
0
 10
954.947765
 20
400.448689
 42
-0.040905
  0
VERTEX
  8
0
 10
952.890058
 20
392.010276
 42
-0.028878
  0
VERTEX
  8
0
 10
949.280242
 20
382.937877
 42
-0.028337
  0
VERTEX
  8
0
 10
945.036363
 20
375.040187
 42
-0.098584
  0
VERTEX
  8
0
 10
941.122448
 20
370.807397
 42
0.041670
  0
VERTEX
  8
0
 10
939.485139
 20
369.396440
 42
0.032863
  0
VERTEX
  8
0
 10
937.958501
 20
367.622190
 42
0.031963
  0
VERTEX
  8
0
 10
936.633610
 20
365.604023
 42
0.033441
  0
VERTEX
  8
0
 10
935.598950
 20
363.462973
 42
0.000000
  0
VERTEX
  8
0
 10
933.697900
 20
358.748577
 42
0.000000
  0
VERTEX
  8
0
 10
937.098950
 20
347.624288
 42
-0.008533
  0
VERTEX
  8
0
 10
938.871737
 20
341.450920
 42
-0.024408
  0
VERTEX
  8
0
 10
939.818845
 20
337.088156
 42
-0.029589
  0
VERTEX
  8
0
 10
940.237450
 20
333.146590
 42
-0.018451
  0
VERTEX
  8
0
 10
940.282747
 20
328.500000
 42
0.017374
  0
VERTEX
  8
0
 10
940.310297
 20
324.872150
 42
0.010341
  0
VERTEX
  8
0
 10
940.582400
 20
320.560004
 42
0.010344
  0
VERTEX
  8
0
 10
941.032042
 20
316.268153
 42
0.017567
  0
VERTEX
  8
0
 10
941.607921
 20
312.704268
 42
0.000000
  0
VERTEX
  8
0
 10
943.150347
 20
304.908535
 42
0.000000
  0
VERTEX
  8
0
 10
938.825174
 20
299.501581
 42
-0.011847
  0
VERTEX
  8
0
 10
936.117947
 20
296.276926
 42
-0.073740
  0
VERTEX
  8
0
 10
934.474076
 20
294.888090
 42
-0.102606
  0
VERTEX
  8
0
 10
932.738830
 20
294.255084
 42
-0.033225
  0
VERTEX
  8
0
 10
930.000000
 20
294.038621
 42
0.009293
  0
VERTEX
  8
0
 10
927.912750
 20
293.973831
 42
0.004947
  0
VERTEX
  8
0
 10
925.332740
 20
293.820112
 42
0.004921
  0
VERTEX
  8
0
 10
922.698880
 20
293.610952
 42
0.007628
  0
VERTEX
  8
0
 10
920.430606
 20
293.373407
 42
0.000000
  0
VERTEX
  8
0
 10
915.361211
 20
292.764198
 42
0.000000
  0
VERTEX
  8
0
 10
912.205622
 20
283.132099
 42
0.010635
  0
VERTEX
  8
0
 10
910.857272
 20
278.699936
 42
0.006100
  0
VERTEX
  8
0
 10
909.410788
 20
273.302786
 42
0.006091
  0
VERTEX
  8
0
 10
908.088544
 20
267.839888
 42
0.010090
  0
VERTEX
  8
0
 10
907.122547
 20
263.196533
 42
-0.014575
  0
VERTEX
  8
0
 10
906.132258
 20
258.641678
 42
-0.011271
  0
VERTEX
  8
0
 10
904.798073
 20
253.740401
 42
-0.011494
  0
VERTEX
  8
0
 10
903.316929
 20
249.137174
 42
-0.022145
  0
VERTEX
  8
0
 10
901.885736
 20
245.539008
 42
0.000000
  0
VERTEX
  8
0
 10
898.576410
 20
238.184951
 42
0.000000
  0
VERTEX
  8
0
 10
888.246500
 20
236.576093
 42
0.014089
  0
VERTEX
  8
0
 10
883.100817
 20
235.625465
 42
0.005160
  0
VERTEX
  8
0
 10
875.881665
 20
234.002177
 42
0.005110
  0
VERTEX
  8
0
 10
868.023583
 20
232.064838
 42
0.006101
  0
VERTEX
  8
0
 10
860.659276
 20
230.073075
 42
0.000000
  0
VERTEX
  8
0
 10
843.401963
 20
225.178915
 42
0.000000
  0
VERTEX
  8
0
 10
834.663600
 20
227.186003
 42
0.000000
  0
VERTEX
  8
0
 10
825.925237
 20
229.193090
 42
0.000000
  0
VERTEX
  8
0
 10
821.848237
 20
237.346545
 42
0.019306
  0
VERTEX
  8
0
 10
818.268909
 20
243.863081
 42
0.028112
  0
VERTEX
  8
0
 10
814.584095
 20
249.282846
 42
0.021608
  0
VERTEX
  8
0
 10
809.642045
 20
255.191906
 42
0.006719
  0
VERTEX
  8
0
 10
801.724843
 20
263.636689
 42
0.012112
  0
VERTEX
  8
0
 10
795.872989
 20
269.425349
 42
0.040943
  0
VERTEX
  8
0
 10
791.674998
 20
272.777998
 42
0.028754
  0
VERTEX
  8
0
 10
786.306822
 20
275.956382
 42
0.003788
  0
VERTEX
  8
0
 10
774.501762
 20
281.945628
 42
0.000000
  0
VERTEX
  8
0
 10
756.078220
 20
291.117878
 42
0.000000
  0
VERTEX
  8
0
 10
751.717914
 20
298.308939
 42
-0.042942
  0
VERTEX
  8
0
 10
747.942323
 20
305.943961
 42
-0.021768
  0
VERTEX
  8
0
 10
744.466349
 20
316.095811
 42
-0.021458
  0
VERTEX
  8
0
 10
741.770012
 20
326.951710
 42
-0.030009
  0
VERTEX
  8
0
 10
740.369859
 20
336.848662
 42
0.000000
  0
VERTEX
  8
0
 10
739.695992
 20
345.197324
 42
0.000000
  0
VERTEX
  8
0
 10
732.477378
 20
348.671903
 42
0.000000
  0
VERTEX
  8
0
 10
725.258765
 20
352.146482
 42
0.000000
  0
VERTEX
  8
0
 10
714.379382
 20
346.726389
 42
-0.005069
  0
VERTEX
  8
0
 10
709.676860
 20
344.442804
 42
-0.003994
  0
VERTEX
  8
0
 10
704.540785
 20
342.062734
 42
-0.004039
  0
VERTEX
  8
0
 10
699.733432
 20
339.928124
 42
-0.009965
  0
VERTEX
  8
0
 10
696.163717
 20
338.461310
 42
0.017431
  0
VERTEX
  8
0
 10
692.668098
 20
336.963563
 42
0.028354
  0
VERTEX
  8
0
 10
689.829419
 20
335.426201
 42
0.032979
  0
VERTEX
  8
0
 10
687.527354
 20
333.786278
 42
0.042507
  0
VERTEX
  8
0
 10
685.663717
 20
331.979613
 42
-0.027232
  0
VERTEX
  8
0
 10
684.147541
 20
330.417282
 42
-0.016350
  0
VERTEX
  8
0
 10
682.192288
 20
328.725629
 42
-0.016351
  0
VERTEX
  8
0
 10
680.131100
 20
327.165691
 42
-0.027282
  0
VERTEX
  8
0
 10
678.288754
 20
326.009091
 42
0.044516
  0
VERTEX
  8
0
 10
676.161687
 20
324.569373
 42
0.030522
  0
VERTEX
  8
0
 10
674.017901
 20
322.592072
 42
0.026604
  0
VERTEX
  8
0
 10
671.844229
 20
320.071092
 42
0.017887
  0
VERTEX
  8
0
 10
669.626334
 20
316.981333
 42
0.000000
  0
VERTEX
  8
0
 10
665.175160
 20
310.287387
 42
0.000000
  0
VERTEX
  8
0
 10
647.837580
 20
307.529983
 42
0.004279
  0
VERTEX
  8
0
 10
638.880161
 20
306.026678
 42
0.016897
  0
VERTEX
  8
0
 10
633.412434
 20
304.869124
 42
0.027209
  0
VERTEX
  8
0
 10
629.804976
 20
303.765760
 42
0.073047
  0
VERTEX
  8
0
 10
627.451172
 20
302.488840
 42
-0.048601
  0
VERTEX
  8
0
 10
624.936673
 20
300.961784
 42
-0.023175
  0
VERTEX
  8
0
 10
621.451565
 20
299.478838
 42
-0.022784
  0
VERTEX
  8
0
 10
617.934354
 20
298.350625
 42
-0.065043
  0
VERTEX
  8
0
 10
615.392834
 20
298.005577
 42
-0.196021
  0
VERTEX
  8
0
 10
614.732923
 20
298.270759
 42
-0.007599
  0
VERTEX
  8
0
 10
612.836783
 20
300.163219
 42
-0.012555
  0
VERTEX
  8
0
 10
610.640695
 20
302.539243
 42
-0.008423
  0
VERTEX
  8
0
 10
608.246131
 20
305.358572
 42
0.018484
  0
VERTEX
  8
0
 10
605.193737
 20
308.809254
 42
0.017273
  0
VERTEX
  8
0
 10
601.827331
 20
312.106784
 42
0.017475
  0
VERTEX
  8
0
 10
598.286196
 20
315.123350
 42
0.020284
  0
VERTEX
  8
0
 10
594.710150
 20
317.731071
 42
0.011605
  0
VERTEX
  8
0
 10
590.141509
 20
320.635620
 42
0.046314
  0
VERTEX
  8
0
 10
587.157675
 20
322.078918
 42
0.050649
  0
VERTEX
  8
0
 10
584.090739
 20
322.884140
 42
0.015742
  0
VERTEX
  8
0
 10
579.356853
 20
323.474462
 42
-0.015764
  0
VERTEX
  8
0
 10
574.520203
 20
324.077814
 42
-0.055459
  0
VERTEX
  8
0
 10
571.499461
 20
324.902247
 42
-0.048331
  0
VERTEX
  8
0
 10
568.528582
 20
326.425678
 42
-0.009985
  0
VERTEX
  8
0
 10
563.639464
 20
329.701921
 42
0.000000
  0
VERTEX
  8
0
 10
555.778929
 20
335.199916
 42
0.000000
  0
VERTEX
  8
0
 10
545.969793
 20
334.497838
 42
0.009812
  0
VERTEX
  8
0
 10
539.803159
 20
333.934651
 42
0.048995
  0
VERTEX
  8
0
 10
536.409296
 20
333.216205
 42
0.050674
  0
VERTEX
  8
0
 10
533.271090
 20
331.860510
 42
0.010950
  0
VERTEX
  8
0
 10
528.166484
 20
328.863165
 42
0.014614
  0
VERTEX
  8
0
 10
523.895937
 20
326.052592
 42
0.033372
  0
VERTEX
  8
0
 10
520.893631
 20
323.634586
 42
0.036705
  0
VERTEX
  8
0
 10
518.414524
 20
320.987735
 42
0.021568
  0
VERTEX
  8
0
 10
515.836155
 20
317.496958
 42
-0.008691
  0
VERTEX
  8
0
 10
514.109851
 20
315.029275
 42
-0.013055
  0
VERTEX
  8
0
 10
512.511601
 20
312.943915
 42
-0.007897
  0
VERTEX
  8
0
 10
511.119755
 20
311.277388
 42
-0.208886
  0
VERTEX
  8
0
 10
510.607594
 20
311.031672
 42
-0.081822
  0
VERTEX
  8
0
 10
509.945999
 20
311.116691
 42
-0.000974
  0
VERTEX
  8
0
 10
505.757267
 20
312.380518
 42
-0.002905
  0
VERTEX
  8
0
 10
500.919579
 20
313.881196
 42
-0.001891
  0
VERTEX
  8
0
 10
495.349010
 20
315.667964
 42
0.000000
  0
VERTEX
  8
0
 10
480.982833
 20
320.335929
 42
0.000000
  0
VERTEX
  8
0
 10
471.220217
 20
330.417964
 42
-0.008055
  0
VERTEX
  8
0
 10
467.203907
 20
334.701662
 42
-0.007393
  0
VERTEX
  8
0
 10
463.209155
 20
339.235264
 42
-0.007409
  0
VERTEX
  8
0
 10
459.765351
 20
343.385041
 42
-0.024012
  0
VERTEX
  8
0
 10
457.657722
 20
346.276551
 42
0.024635
  0
VERTEX
  8
0
 10
455.175572
 20
349.672983
 42
0.056138
  0
VERTEX
  8
0
 10
452.917032
 20
351.899557
 42
0.042072
  0
VERTEX
  8
0
 10
449.843307
 20
353.922241
 42
0.009032
  0
VERTEX
  8
0
 10
444.178922
 20
356.870164
 42
0.007159
  0
VERTEX
  8
0
 10
439.923431
 20
358.912571
 42
0.005202
  0
VERTEX
  8
0
 10
435.133268
 20
361.067567
 42
0.005256
  0
VERTEX
  8
0
 10
430.543868
 20
363.017883
 42
0.011465
  0
VERTEX
  8
0
 10
426.976886
 20
364.394811
 42
0.000000
  0
VERTEX
  8
0
 10
419.453771
 20
367.102396
 42
0.000000
  0
VERTEX
  8
0
 10
401.976886
 20
365.180160
 42
0.000000
  0
VERTEX
  8
0
 10
384.500000
 20
363.257923
 42
0.000000
  0
VERTEX
  8
0
 10
373.000000
 20
367.534902
 42
-0.006729
  0
VERTEX
  8
0
 10
368.072982
 20
369.443179
 42
-0.005264
  0
VERTEX
  8
0
 10
362.775842
 20
371.642317
 42
-0.005324
  0
VERTEX
  8
0
 10
357.887873
 20
373.794029
 42
-0.012950
  0
VERTEX
  8
0
 10
354.343291
 20
375.511620
 42
0.000000
  0
VERTEX
  8
0
 10
347.186581
 20
379.211359
 42
0.000000
  0
VERTEX
  8
0
 10
345.952041
 20
385.855679
 42
0.011707
  0
VERTEX
  8
0
 10
345.255267
 20
389.171504
 42
0.004257
  0
VERTEX
  8
0
 10
344.117893
 20
393.838415
 42
0.004219
  0
VERTEX
  8
0
 10
342.786422
 20
398.925324
 42
0.005022
  0
VERTEX
  8
0
 10
341.441744
 20
403.700626
 42
0.009394
  0
VERTEX
  8
0
 10
339.419654
 20
410.161566
 42
0.033276
  0
VERTEX
  8
0
 10
337.774374
 20
414.179800
 42
0.039165
  0
VERTEX
  8
0
 10
335.753891
 20
417.601119
 42
0.016962
  0
VERTEX
  8
0
 10
332.569959
 20
421.827349
 42
-0.013199
  0
VERTEX
  8
0
 10
329.346274
 20
426.040009
 42
-0.045967
  0
VERTEX
  8
0
 10
327.601579
 20
428.984433
 42
-0.047249
  0
VERTEX
  8
0
 10
326.448695
 20
432.156346
 42
-0.014515
  0
VERTEX
  8
0
 10
325.310240
 20
437.126723
 42
0.013238
  0
VERTEX
  8
0
 10
324.116840
 20
442.398792
 42
0.061564
  0
VERTEX
  8
0
 10
322.984955
 20
445.299323
 42
0.056706
  0
VERTEX
  8
0
 10
321.142105
 20
447.945480
 42
0.010173
  0
VERTEX
  8
0
 10
317.073275
 20
452.384088
 42
0.032724
  0
VERTEX
  8
0
 10
311.876103
 20
457.158862
 42
0.032056
  0
VERTEX
  8
0
 10
306.065810
 20
461.250560
 42
0.033481
  0
VERTEX
  8
0
 10
300.553717
 20
464.137914
 42
0.104174
  0
VERTEX
  8
0
 10
296.472506
 20
464.999211
 42
-0.112269
  0
VERTEX
  8
0
 10
294.086637
 20
465.542744
 42
-0.071644
  0
VERTEX
  8
0
 10
291.713296
 20
467.134014
 42
-0.045350
  0
VERTEX
  8
0
 10
289.016577
 20
470.049260
 42
-0.014109
  0
VERTEX
  8
0
 10
285.510164
 20
474.882477
 42
0.000000
  0
VERTEX
  8
0
 10
280.760914
 20
481.833246
 42
0.000000
  0
VERTEX
  8
0
 10
271.401095
 20
483.596129
 42
0.000000
  0
VERTEX
  8
0
 10
262.041276
 20
485.359012
 42
0.000000
  0
VERTEX
  8
0
 10
249.270638
 20
480.013309
 42
-0.009274
  0
VERTEX
  8
0
 10
244.036384
 20
477.935506
 42
-0.010069
  0
VERTEX
  8
0
 10
238.869423
 20
476.112401
 42
-0.009619
  0
VERTEX
  8
0
 10
234.388704
 20
474.727204
 42
-0.047541
  0
VERTEX
  8
0
 10
231.795484
 20
474.240357
 42
-0.033202
  0
VERTEX
  8
0
 10
228.903179
 20
474.170380
 42
-0.083570
  0
VERTEX
  8
0
 10
226.848015
 20
474.606150
 42
-0.058080
  0
VERTEX
  8
0
 10
224.638455
 20
475.789601
 42
-0.010061
  0
VERTEX
  8
0
 10
220.795484
 20
478.579077
 42
-0.007706
  0
VERTEX
  8
0
 10
217.836592
 20
480.891681
 42
-0.003634
  0
VERTEX
  8
0
 10
214.084641
 20
483.963687
 42
-0.003600
  0
VERTEX
  8
0
 10
210.201889
 20
487.237751
 42
-0.005069
  0
VERTEX
  8
0
 10
206.790528
 20
490.217029
 42
0.000000
  0
VERTEX
  8
0
 10
199.081055
 20
497.089013
 42
0.000000
  0
VERTEX
  8
0
 10
190.790528
 20
494.550062
 42
0.017335
  0
VERTEX
  8
0
 10
187.142716
 20
493.293073
 42
0.011338
  0
VERTEX
  8
0
 10
183.025967
 20
491.604785
 42
0.011408
  0
VERTEX
  8
0
 10
179.084215
 20
489.774668
 42
0.021362
  0
VERTEX
  8
0
 10
176.000000
 20
488.088924
 42
-0.005272
  0
VERTEX
  8
0
 10
173.485555
 20
486.607612
 42
-0.008592
  0
VERTEX
  8
0
 10
171.317939
 20
485.410306
 42
-0.003017
  0
VERTEX
  8
0
 10
169.454026
 20
484.436529
 42
-0.326055
  0
VERTEX
  8
0
 10
169.188728
 20
484.477974
 42
-0.200475
  0
VERTEX
  8
0
 10
169.062064
 20
484.786335
 42
-0.000009
  0
VERTEX
  8
0
 10
169.272658
 20
520.052183
 42
-0.000406
  0
VERTEX
  8
0
 10
169.537413
 20
558.972999
 42
-0.000244
  0
VERTEX
  8
0
 10
169.911555
 20
605.144606
 42
0.000017
  0
VERTEX
  8
0
 10
170.346696
 20
655.989675
 42
0.000015
  0
VERTEX
  8
0
 10
170.799044
 20
709.239353
 42
0.000015
  0
VERTEX
  8
0
 10
171.205422
 20
757.412897
 42
0.000044
  0
VERTEX
  8
0
 10
171.480655
 20
790.500000
 42
-0.000088
  0
VERTEX
  8
0
 10
171.723269
 20
819.357033
 42
-0.000059
  0
VERTEX
  8
0
 10
172.010940
 20
852.415625
 42
-0.000059
  0
VERTEX
  8
0
 10
172.297535
 20
884.479724
 42
-0.000116
  0
VERTEX
  8
0
 10
172.534602
 20
910.000000
 42
0.000275
  0
VERTEX
  8
0
 10
172.818506
 20
941.645486
 42
0.000047
  0
VERTEX
  8
0
 10
173.321958
 20
1002.100000
 42
0.000051
  0
VERTEX
  8
0
 10
173.899667
 20
1073.132753
 42
0.000045
  0
VERTEX
  8
0
 10
174.486231
 20
1147.000000
 42
-0.000100
  0
VERTEX
  8
0
 10
176.112626
 20
1349.036830
 42
-0.001990
  0
VERTEX
  8
0
 10
176.868067
 20
1410.810360
 42
-0.001290
  0
VERTEX
  8
0
 10
177.533129
 20
1446.204728
 42
-0.407126
  0
VERTEX
  8
0
 10
179.365223
 20
1448.003282
 42
0.008327
  0
VERTEX
  8
0
 10
180.998078
 20
1448.035204
 42
0.000007
  0
VERTEX
  8
0
 10
221.091007
 20
1449.487809
 42
0.000063
  0
VERTEX
  8
0
 10
271.547928
 20
1451.322925
 42
0.000021
  0
VERTEX
  8
0
 10
345.000000
 20
1454.006679
 42
-0.000046
  0
VERTEX
  8
0
 10
461.120424
 20
1458.243598
 42
-0.000277
  0
VERTEX
  8
0
 10
521.553572
 20
1460.409486
 42
-0.000009
  0
VERTEX
  8
0
 10
564.183681
 20
1461.912844
 42
-0.266973
  0
VERTEX
  8
0
 10
564.489343
 20
1461.751161
 42
0.021855
  0
VERTEX
  8
0
 10
567.079220
 20
1458.015279
 42
0.077461
  0
VERTEX
  8
0
 10
569.174170
 20
1455.998847
 42
0.071304
  0
VERTEX
  8
0
 10
571.873244
 20
1454.630114
 42
0.016707
  0
VERTEX
  8
0
 10
576.737730
 20
1453.159706
 42
0.019720
  0
VERTEX
  8
0
 10
584.335883
 20
1451.455068
 42
0.008227
  0
VERTEX
  8
0
 10
594.698086
 20
1449.731687
 42
0.007800
  0
VERTEX
  8
0
 10
604.849698
 20
1448.376057
 42
0.029297
  0
VERTEX
  8
0
 10
611.262259
 20
1448.000000
 42
-0.054135
  0
VERTEX
  8
0
 10
613.889004
 20
1447.714768
 42
-0.086865
  0
VERTEX
  8
0
 10
615.968666
 20
1446.860827
 42
-0.046842
  0
VERTEX
  8
0
 10
618.405132
 20
1444.983368
 42
-0.006645
  0
VERTEX
  8
0
 10
622.977876
 20
1440.607161
 42
0.015234
  0
VERTEX
  8
0
 10
627.910017
 20
1436.046684
 42
0.043604
  0
VERTEX
  8
0
 10
631.683259
 20
1433.303368
 42
0.030780
  0
VERTEX
  8
0
 10
636.531408
 20
1430.779652
 42
0.004734
  0
VERTEX
  8
0
 10
646.500000
 20
1426.459480
 42
-0.002233
  0
VERTEX
  8
0
 10
652.700360
 20
1423.809145
 42
-0.003362
  0
VERTEX
  8
0
 10
658.079062
 20
1421.438504
 42
-0.001357
  0
VERTEX
  8
0
 10
662.667170
 20
1419.364385
 42
-0.076139
  0
VERTEX
  8
0
 10
663.450000
 20
1418.852319
 42
0.130257
  0
VERTEX
  8
0
 10
664.101001
 20
1418.519830
 42
0.018070
  0
VERTEX
  8
0
 10
665.607396
 20
1418.250369
 42
0.019687
  0
VERTEX
  8
0
 10
667.453102
 20
1418.062378
 42
0.015535
  0
VERTEX
  8
0
 10
669.460283
 20
1418.000000
 42
-0.024649
  0
VERTEX
  8
0
 10
672.429078
 20
1417.853555
 42
-0.077415
  0
VERTEX
  8
0
 10
674.355955
 20
1417.355177
 42
-0.071704
  0
VERTEX
  8
0
 10
676.119261
 20
1416.272180
 42
-0.019136
  0
VERTEX
  8
0
 10
678.576009
 20
1414.063773
 42
-0.012093
  0
VERTEX
  8
0
 10
680.510226
 20
1412.093365
 42
-0.004992
  0
VERTEX
  8
0
 10
683.036485
 20
1409.337525
 42
-0.004935
  0
VERTEX
  8
0
 10
685.688280
 20
1406.326877
 42
-0.006328
  0
VERTEX
  8
0
 10
688.065727
 20
1403.501887
 42
0.049312
  0
VERTEX
  8
0
 10
693.689657
 20
1397.878798
 42
0.046235
  0
VERTEX
  8
0
 10
700.422743
 20
1393.327831
 42
0.041494
  0
VERTEX
  8
0
 10
708.545185
 20
1389.710003
 42
0.027582
  0
VERTEX
  8
0
 10
718.347428
 20
1386.881334
 42
0.000000
  0
VERTEX
  8
0
 10
727.880991
 20
1384.691401
 42
0.000000
  0
VERTEX
  8
0
 10
737.163211
 20
1388.190800
 42
0.000000
  0
VERTEX
  8
0
 10
746.445430
 20
1391.690198
 42
0.000000
  0
VERTEX
  8
0
 10
747.972715
 20
1397.774859
 42
-0.006729
  0
VERTEX
  8
0
 10
748.603000
 20
1400.150067
 42
-0.009448
  0
VERTEX
  8
0
 10
749.233854
 20
1402.250798
 42
-0.006214
  0
VERTEX
  8
0
 10
749.814099
 20
1403.983979
 42
-0.115652
  0
VERTEX
  8
0
 10
750.121256
 20
1404.467682
 42
-0.387636
  0
VERTEX
  8
0
 10
750.579668
 20
1404.483799
 42
-0.007559
  0
VERTEX
  8
0
 10
752.504270
 20
1402.797224
 42
-0.013930
  0
VERTEX
  8
0
 10
754.778742
 20
1400.624362
 42
-0.008368
  0
VERTEX
  8
0
 10
757.361244
 20
1397.927002
 42
0.006723
  0
VERTEX
  8
0
 10
761.224680
 20
1393.865071
 42
0.046799
  0
VERTEX
  8
0
 10
763.313201
 20
1392.093529
 42
0.103401
  0
VERTEX
  8
0
 10
764.927006
 20
1391.403856
 42
0.111383
  0
VERTEX
  8
0
 10
766.636853
 20
1391.444992
 42
-0.050793
  0
VERTEX
  8
0
 10
768.135127
 20
1391.662868
 42
-0.010818
  0
VERTEX
  8
0
 10
770.771471
 20
1391.718958
 42
-0.011209
  0
VERTEX
  8
0
 10
773.843238
 20
1391.648971
 42
-0.010454
  0
VERTEX
  8
0
 10
776.981217
 20
1391.441237
 42
-0.007746
  0
VERTEX
  8
0
 10
781.832088
 20
1390.942265
 42
-0.071503
  0
VERTEX
  8
0
 10
783.868077
 20
1390.399001
 42
-0.126143
  0
VERTEX
  8
0
 10
785.174170
 20
1389.396843
 42
-0.042866
  0
VERTEX
  8
0
 10
786.495043
 20
1387.379347
 42
-0.013194
  0
VERTEX
  8
0
 10
787.165301
 20
1386.052012
 42
-0.020564
  0
VERTEX
  8
0
 10
787.664253
 20
1384.872219
 42
-0.015840
  0
VERTEX
  8
0
 10
787.991798
 20
1383.907472
 42
-0.287027
  0
VERTEX
  8
0
 10
787.910689
 20
1383.606697
 42
-0.153370
  0
VERTEX
  8
0
 10
787.535919
 20
1383.428427
 42
-0.000915
  0
VERTEX
  8
0
 10
783.710396
 20
1382.897889
 42
-0.003688
  0
VERTEX
  8
0
 10
779.320864
 20
1382.330262
 42
-0.002326
  0
VERTEX
  8
0
 10
774.188532
 20
1381.729242
 42
0.005463
  0
VERTEX
  8
0
 10
767.305130
 20
1380.879344
 42
0.022028
  0
VERTEX
  8
0
 10
763.138864
 20
1380.130573
 42
0.036409
  0
VERTEX
  8
0
 10
760.425283
 20
1379.307023
 42
0.093545
  0
VERTEX
  8
0
 10
758.688532
 20
1378.232655
 42
-0.038813
  0
VERTEX
  8
0
 10
757.565527
 20
1377.355764
 42
-0.077466
  0
VERTEX
  8
0
 10
756.543821
 20
1376.886271
 42
-0.091516
  0
VERTEX
  8
0
 10
755.545496
 20
1376.792558
 42
-0.074497
  0
VERTEX
  8
0
 10
754.500000
 20
1377.045802
 42
0.082922
  0
VERTEX
  8
0
 10
751.311926
 20
1377.761736
 42
0.019945
  0
VERTEX
  8
0
 10
745.876889
 20
1377.846263
 42
0.018063
  0
VERTEX
  8
0
 10
739.028653
 20
1377.431735
 42
0.011086
  0
VERTEX
  8
0
 10
731.000000
 20
1376.473829
 42
0.008082
  0
VERTEX
  8
0
 10
722.281751
 20
1375.092953
 42
0.038940
  0
VERTEX
  8
0
 10
717.420277
 20
1373.845973
 42
0.072292
  0
VERTEX
  8
0
 10
714.421861
 20
1372.310554
 42
0.105296
  0
VERTEX
  8
0
 10
712.418567
 20
1370.131431
 42
-0.047234
  0
VERTEX
  8
0
 10
711.438602
 20
1368.781615
 42
-0.089741
  0
VERTEX
  8
0
 10
710.389239
 20
1367.951221
 42
-0.082200
  0
VERTEX
  8
0
 10
709.051636
 20
1367.498432
 42
-0.034585
  0
VERTEX
  8
0
 10
707.155245
 20
1367.321123
 42
0.043594
  0
VERTEX
  8
0
 10
701.158773
 20
1366.651445
 42
0.015884
  0
VERTEX
  8
0
 10
692.829347
 20
1364.700134
 42
0.007372
  0
VERTEX
  8
0
 10
684.510267
 20
1362.338301
 42
0.331230
  0
VERTEX
  8
0
 10
683.500000
 20
1360.980594
 42
0.276788
  0
VERTEX
  8
0
 10
683.954900
 20
1360.221803
 42
0.068972
  0
VERTEX
  8
0
 10
685.370066
 20
1359.700476
 42
0.033256
  0
VERTEX
  8
0
 10
687.947743
 20
1359.314202
 42
0.006652
  0
VERTEX
  8
0
 10
692.588345
 20
1358.993699
 42
-0.006770
  0
VERTEX
  8
0
 10
698.123814
 20
1358.610084
 42
-0.051111
  0
VERTEX
  8
0
 10
700.697675
 20
1358.128776
 42
-0.093720
  0
VERTEX
  8
0
 10
702.432268
 20
1357.239155
 42
-0.049953
  0
VERTEX
  8
0
 10
704.185353
 20
1355.570903
 42
0.023624
  0
VERTEX
  8
0
 10
705.850395
 20
1353.810632
 42
0.135940
  0
VERTEX
  8
0
 10
706.968023
 20
1353.206252
 42
0.111526
  0
VERTEX
  8
0
 10
708.342948
 20
1353.201617
 42
0.013558
  0
VERTEX
  8
0
 10
711.289694
 20
1353.941118
 42
-0.019729
  0
VERTEX
  8
0
 10
714.269524
 20
1354.649958
 42
-0.113948
  0
VERTEX
  8
0
 10
715.877062
 20
1354.597160
 42
-0.095271
  0
VERTEX
  8
0
 10
717.430095
 20
1353.847498
 42
-0.011697
  0
VERTEX
  8
0
 10
720.415190
 20
1351.515983
 42
0.000000
  0
VERTEX
  8
0
 10
724.945008
 20
1347.804137
 42
0.000000
  0
VERTEX
  8
0
 10
732.222504
 20
1350.566097
 42
0.015182
  0
VERTEX
  8
0
 10
735.533104
 20
1351.938906
 42
0.008373
  0
VERTEX
  8
0
 10
739.497034
 20
1353.806002
 42
0.008342
  0
VERTEX
  8
0
 10
743.456377
 20
1355.835311
 42
0.013250
  0
VERTEX
  8
0
 10
746.767398
 20
1357.717063
 42
-0.016897
  0
VERTEX
  8
0
 10
750.311254
 20
1359.697092
 42
-0.021490
  0
VERTEX
  8
0
 10
753.711729
 20
1361.267958
 42
-0.023403
  0
VERTEX
  8
0
 10
756.952810
 20
1362.425328
 42
-0.030466
  0
VERTEX
  8
0
 10
760.016515
 20
1363.159729
 42
-0.017786
  0
VERTEX
  8
0
 10
763.640379
 20
1363.665936
 42
-0.056729
  0
VERTEX
  8
0
 10
766.079514
 20
1363.641260
 42
-0.051533
  0
VERTEX
  8
0
 10
768.572613
 20
1363.066902
 42
-0.012847
  0
VERTEX
  8
0
 10
772.499383
 20
1361.610799
 42
0.013894
  0
VERTEX
  8
0
 10
776.403889
 20
1360.172242
 42
0.049236
  0
VERTEX
  8
0
 10
779.002173
 20
1359.572570
 42
0.051311
  0
VERTEX
  8
0
 10
781.612459
 20
1359.504953
 42
0.016013
  0
VERTEX
  8
0
 10
785.511931
 20
1359.930338
 42
0.000000
  0
VERTEX
  8
0
 10
792.023329
 20
1360.852466
 42
0.000000
  0
VERTEX
  8
0
 10
800.261664
 20
1356.248715
 42
0.000102
  0
VERTEX
  8
0
 10
803.779883
 20
1354.283605
 42
0.000084
  0
VERTEX
  8
0
 10
807.539481
 20
1352.185508
 42
0.000085
  0
VERTEX
  8
0
 10
810.995816
 20
1350.258178
 42
0.000224
  0
VERTEX
  8
0
 10
813.468485
 20
1348.881363
 42
0.013686
  0
VERTEX
  8
0
 10
815.963507
 20
1347.581664
 42
0.048923
  0
VERTEX
  8
0
 10
817.648277
 20
1346.956911
 42
0.085169
  0
VERTEX
  8
0
 10
818.857174
 20
1346.850973
 42
0.153746
  0
VERTEX
  8
0
 10
819.768998
 20
1347.223249
 42
0.222119
  0
VERTEX
  8
0
 10
820.153842
 20
1348.038735
 42
0.131674
  0
VERTEX
  8
0
 10
819.874084
 20
1349.098685
 42
0.052919
  0
VERTEX
  8
0
 10
818.745532
 20
1350.660818
 42
0.009577
  0
VERTEX
  8
0
 10
816.300513
 20
1353.282616
 42
-0.028948
  0
VERTEX
  8
0
 10
813.645189
 20
1356.360692
 42
-0.802068
  0
VERTEX
  8
0
 10
814.033462
 20
1356.823461
 42
-0.042132
  0
VERTEX
  8
0
 10
817.465779
 20
1354.654781
 42
-0.003941
  0
VERTEX
  8
0
 10
825.396906
 20
1348.555136
 42
0.007983
  0
VERTEX
  8
0
 10
830.729955
 20
1344.521801
 42
0.030646
  0
VERTEX
  8
0
 10
834.230328
 20
1342.276805
 42
0.044692
  0
VERTEX
  8
0
 10
837.250765
 20
1340.929120
 42
0.035464
  0
VERTEX
  8
0
 10
840.705651
 20
1340.012056
 42
0.000432
  0
VERTEX
  8
0
 10
843.635012
 20
1339.455687
 42
0.000151
  0
VERTEX
  8
0
 10
847.846659
 20
1338.660870
 42
0.000150
  0
VERTEX
  8
0
 10
852.480334
 20
1337.789304
 42
0.000176
  0
VERTEX
  8
0
 10
856.878722
 20
1336.964965
 42
0.000000
  0
VERTEX
  8
0
 10
867.257443
 20
1335.023578
 42
0.000000
  0
VERTEX
  8
0
 10
878.378722
 20
1341.382334
 42
-0.005257
  0
VERTEX
  8
0
 10
889.038429
 20
1347.329356
 42
-0.036316
  0
VERTEX
  8
0
 10
894.489315
 20
1349.801412
 42
-0.039093
  0
VERTEX
  8
0
 10
900.090368
 20
1351.381908
 42
-0.006652
  0
VERTEX
  8
0
 10
911.000000
 20
1353.407473
 42
0.005972
  0
VERTEX
  8
0
 10
920.325616
 20
1355.125811
 42
0.026475
  0
VERTEX
  8
0
 10
925.731674
 20
1356.489495
 42
0.031907
  0
VERTEX
  8
0
 10
930.480154
 20
1358.297607
 42
0.011446
  0
VERTEX
  8
0
 10
937.000000
 20
1361.451152
 42
-0.008413
  0
VERTEX
  8
0
 10
941.436260
 20
1363.630205
 42
-0.007663
  0
VERTEX
  8
0
 10
946.082737
 20
1365.729906
 42
-0.007691
  0
VERTEX
  8
0
 10
950.293621
 20
1367.479145
 42
-0.024492
  0
VERTEX
  8
0
 10
953.175276
 20
1368.464134
 42
-0.019177
  0
VERTEX
  8
0
 10
960.988334
 20
1370.393006
 42
-0.002998
  0
VERTEX
  8
0
 10
976.562874
 20
1373.512720
 42
-0.001789
  0
VERTEX
  8
0
 10
992.719797
 20
1376.588495
 42
-0.046101
  0
VERTEX
  8
0
 10
997.152876
 20
1376.999294
 42
-0.044602
  0
VERTEX
  8
0
 10
998.888349
 20
1376.844640
 42
-0.003145
  0
VERTEX
  8
0
 10
1003.681562
 20
1375.951045
 42
-0.004426
  0
VERTEX
  8
0
 10
1009.389708
 20
1374.797182
 42
-0.003321
  0
VERTEX
  8
0
 10
1015.652876
 20
1373.429795
 42
0.014079
  0
VERTEX
  8
0
 10
1027.896737
 20
1371.031410
 42
0.043505
  0
VERTEX
  8
0
 10
1036.292814
 20
1370.372447
 42
0.060161
  0
VERTEX
  8
0
 10
1043.060052
 20
1371.248982
 42
0.052811
  0
VERTEX
  8
0
 10
1049.746876
 20
1373.724097
 42
-0.012797
  0
VERTEX
  8
0
 10
1052.684664
 20
1375.087256
 42
-0.056683
  0
VERTEX
  8
0
 10
1054.504539
 20
1375.641458
 42
-0.089042
  0
VERTEX
  8
0
 10
1055.972376
 20
1375.648421
 42
-0.063749
  0
VERTEX
  8
0
 10
1057.543929
 20
1375.161939
 42
0.065476
  0
VERTEX
  8
0
 10
1059.017651
 20
1374.711289
 42
0.013937
  0
VERTEX
  8
0
 10
1061.679142
 20
1374.341319
 42
0.014352
  0
VERTEX
  8
0
 10
1064.811036
 20
1374.085346
 42
0.013213
  0
VERTEX
  8
0
 10
1068.040151
 20
1374.000000
 42
0.051834
  0
VERTEX
  8
0
 10
1076.348939
 20
1374.863684
 42
0.040419
  0
VERTEX
  8
0
 10
1085.057793
 20
1377.443053
 42
0.038830
  0
VERTEX
  8
0
 10
1093.607032
 20
1381.534511
 42
0.038549
  0
VERTEX
  8
0
 10
1101.442865
 20
1386.907308
 42
0.000328
  0
VERTEX
  8
0
 10
1104.678969
 20
1389.517591
 42
0.000171
  0
VERTEX
  8
0
 10
1108.713047
 20
1392.778176
 42
0.000170
  0
VERTEX
  8
0
 10
1112.852609
 20
1396.128678
 42
0.000259
  0
VERTEX
  8
0
 10
1116.442865
 20
1399.039674
 42
-0.000434
  0
VERTEX
  8
0
 10
1154.722327
 20
1430.054644
 42
-0.002844
  0
VERTEX
  8
0
 10
1174.020360
 20
1445.481927
 42
-0.004910
  0
VERTEX
  8
0
 10
1185.856130
 20
1454.646522
 42
-0.027437
  0
VERTEX
  8
0
 10
1192.500000
 20
1459.135508
 42
-0.023104
  0
VERTEX
  8
0
 10
1196.598040
 20
1461.337923
 42
-0.001505
  0
VERTEX
  8
0
 10
1208.781250
 20
1467.132189
 42
-0.002187
  0
VERTEX
  8
0
 10
1223.358496
 20
1473.933546
 42
-0.001629
  0
VERTEX
  8
0
 10
1239.500000
 20
1481.315269
 42
-0.001504
  0
VERTEX
  8
0
 10
1263.409412
 20
1492.068711
 42
-0.009466
  0
VERTEX
  8
0
 10
1275.724925
 20
1497.285978
 42
-0.018179
  0
VERTEX
  8
0
 10
1284.282398
 20
1500.365425
 42
-0.022144
  0
VERTEX
  8
0
 10
1292.500000
 20
1502.593707
 42
0.010098
  0
VERTEX
  8
0
 10
1297.389149
 20
1503.793832
 42
0.010536
  0
VERTEX
  8
0
 10
1302.156663
 20
1505.174945
 42
0.010268
  0
VERTEX
  8
0
 10
1306.221785
 20
1506.538254
 42
0.044785
  0
VERTEX
  8
0
 10
1308.522683
 20
1507.603605
 42
-0.026240
  0
VERTEX
  8
0
 10
1310.421900
 20
1508.569937
 42
-0.014573
  0
VERTEX
  8
0
 10
1312.827082
 20
1509.555947
 42
-0.014502
  0
VERTEX
  8
0
 10
1315.326824
 20
1510.414718
 42
-0.022666
  0
VERTEX
  8
0
 10
1317.527081
 20
1510.991997
 42
0.038025
  0
VERTEX
  8
0
 10
1320.005068
 20
1511.724112
 42
0.025294
  0
VERTEX
  8
0
 10
1322.718582
 20
1512.915984
 42
0.023535
  0
VERTEX
  8
0
 10
1325.525555
 20
1514.491640
 42
0.020912
  0
VERTEX
  8
0
 10
1328.288531
 20
1516.383446
 42
-0.021155
  0
VERTEX
  8
0
 10
1331.522834
 20
1518.595661
 42
-0.034368
  0
VERTEX
  8
0
 10
1334.460382
 20
1520.158307
 42
-0.033074
  0
VERTEX
  8
0
 10
1337.664184
 20
1521.342522
 42
-0.017910
  0
VERTEX
  8
0
 10
1341.735182
 20
1522.391186
 42
0.019944
  0
VERTEX
  8
0
 10
1345.067559
 20
1523.264050
 42
0.015584
  0
VERTEX
  8
0
 10
1348.610126
 20
1524.466501
 42
0.015915
  0
VERTEX
  8
0
 10
1351.879500
 20
1525.811227
 42
0.032400
  0
VERTEX
  8
0
 10
1354.333173
 20
1527.109985
 42
-0.032431
  0
VERTEX
  8
0
 10
1357.021821
 20
1528.532906
 42
-0.009202
  0
VERTEX
  8
0
 10
1361.375371
 20
1530.391641
 42
-0.009229
  0
VERTEX
  8
0
 10
1366.381123
 20
1532.313976
 42
-0.009643
  0
VERTEX
  8
0
 10
1371.382124
 20
1534.020900
 42
-0.000417
  0
VERTEX
  8
0
 10
1389.163510
 20
1539.693244
 42
-0.000380
  0
VERTEX
  8
0
 10
1407.511267
 20
1545.514057
 42
-0.000141
  0
VERTEX
  8
0
 10
1424.683614
 20
1550.942268
 42
-0.007441
  0
VERTEX
  8
0
 10
1428.000000
 20
1551.935524
 42
0.000000
  0
VERTEX
  8
0
 10
1430.500000
 20
1552.643906
 42
0.000000
  0
VERTEX
  8
0
 10
1430.752008
 20
1307.138542
 42
0.000000
  0
VERTEX
  8
0
 10
1431.004017
 20
1061.633178
 42
0.000000
  0
SEQEND
  0
POLYLINE
  8
0
 66
1
 70
1
  0
VERTEX
  8
0
 10
0.000000
 20
44.500000
 42
0.000000
  0
VERTEX
  8
0
 10
0.000000
 20
0.000000
 42
0.000000
  0
VERTEX
  8
0
 10
800.000000
 20
0.000000
 42
0.000000
  0
VERTEX
  8
0
 10
1600.000000
 20
0.000000
 42
0.000000
  0
VERTEX
  8
0
 10
1600.000000
 20
44.500000
 42
0.000000
  0
VERTEX
  8
0
 10
1600.000000
 20
89.000000
 42
0.000000
  0
VERTEX
  8
0
 10
800.000000
 20
89.000000
 42
0.000000
  0
VERTEX
  8
0
 10
0.000000
 20
89.000000
 42
0.000000
  0
SEQEND
  0
POLYLINE
  8
0
 66
1
 70
1
  0
VERTEX
  8
0
 10
67.356098
 20
69.637200
 42
-0.103450
  0
VERTEX
  8
0
 10
75.541556
 20
62.219138
 42
-0.089035
  0
VERTEX
  8
0
 10
80.609206
 20
51.748931
 42
-0.087539
  0
VERTEX
  8
0
 10
81.770049
 20
40.006265
 42
-0.095338
  0
VERTEX
  8
0
 10
78.755451
 20
28.950330
 42
-0.033230
  0
VERTEX
  8
0
 10
76.745482
 20
25.461996
 42
-0.050722
  0
VERTEX
  8
0
 10
74.522196
 20
22.771087
 42
-0.070605
  0
VERTEX
  8
0
 10
72.519097
 20
21.286104
 42
-0.332045
  0
VERTEX
  8
0
 10
71.187126
 20
21.479541
 42
-0.255507
  0
VERTEX
  8
0
 10
71.036102
 20
21.994854
 42
-0.008212
  0
VERTEX
  8
0
 10
71.551132
 20
24.178305
 42
-0.013983
  0
VERTEX
  8
0
 10
72.294489
 20
26.802541
 42
-0.009032
  0
VERTEX
  8
0
 10
73.294291
 20
29.798829
 42
0.014673
  0
VERTEX
  8
0
 10
74.336817
 20
33.044646
 42
0.013604
  0
VERTEX
  8
0
 10
75.216146
 20
36.428542
 42
0.013734
  0
VERTEX
  8
0
 10
75.833519
 20
39.481015
 42
0.043655
  0
VERTEX
  8
0
 10
76.009786
 20
41.553656
 42
0.094793
  0
VERTEX
  8
0
 10
74.805437
 20
47.767742
 42
0.061994
  0
VERTEX
  8
0
 10
71.268441
 20
54.176711
 42
0.060995
  0
VERTEX
  8
0
 10
66.181887
 20
59.637253
 42
0.082916
  0
VERTEX
  8
0
 10
60.393944
 20
63.056174
 42
0.067314
  0
VERTEX
  8
0
 10
56.534858
 20
63.974715
 42
0.032840
  0
VERTEX
  8
0
 10
51.466826
 20
64.145021
 42
0.032748
  0
VERTEX
  8
0
 10
46.497129
 20
63.658748
 42
0.078722
  0
VERTEX
  8
0
 10
42.996405
 20
62.498141
 42
0.083265
  0
VERTEX
  8
0
 10
37.249200
 20
58.188671
 42
0.081552
  0
VERTEX
  8
0
 10
33.173174
 20
52.211642
 42
0.083437
  0
VERTEX
  8
0
 10
31.285611
 20
45.372115
 42
0.093317
  0
VERTEX
  8
0
 10
31.853814
 20
38.567271
 42
0.094227
  0
VERTEX
  8
0
 10
35.524012
 20
31.108908
 42
0.109764
  0
VERTEX
  8
0
 10
41.519788
 20
25.987155
 42
0.117962
  0
VERTEX
  8
0
 10
48.762465
 20
24.111142
 42
0.121643
  0
VERTEX
  8
0
 10
55.980067
 20
25.751554
 42
0.139078
  0
VERTEX
  8
0
 10
61.707541
 20
31.001910
 42
0.133342
  0
VERTEX
  8
0
 10
63.942631
 20
38.565489
 42
0.146298
  0
VERTEX
  8
0
 10
61.978354
 20
45.709467
 42
0.175046
  0
VERTEX
  8
0
 10
56.518585
 20
49.993866
 42
0.164815
  0
VERTEX
  8
0
 10
50.475729
 20
49.946018
 42
0.166002
  0
VERTEX
  8
0
 10
45.727681
 20
46.233466
 42
0.175791
  0
VERTEX
  8
0
 10
44.401382
 20
40.572910
 42
0.181288
  0
VERTEX
  8
0
 10
47.037923
 20
35.465680
 42
0.029782
  0
VERTEX
  8
0
 10
48.119602
 20
34.598070
 42
0.123126
  0
VERTEX
  8
0
 10
48.894670
 20
34.296153
 42
0.152232
  0
VERTEX
  8
0
 10
49.627578
 20
34.426272
 42
0.053770
  0
VERTEX
  8
0
 10
50.526751
 20
35.022202
 42
0.050680
  0
VERTEX
  8
0
 10
51.094351
 20
35.599647
 42
0.056730
  0
VERTEX
  8
0
 10
51.509871
 20
36.259198
 42
0.064726
  0
VERTEX
  8
0
 10
51.721280
 20
36.898048
 42
0.139251
  0
VERTEX
  8
0
 10
51.676910
 20
37.410214
 42
-0.141146
  0
VERTEX
  8
0
 10
51.539694
 20
39.065652
 42
-0.079650
  0
VERTEX
  8
0
 10
52.248663
 20
40.968187
 42
-0.082973
  0
VERTEX
  8
0
 10
53.475240
 20
42.481166
 42
-0.183002
  0
VERTEX
  8
0
 10
54.845331
 20
43.000000
 42
-0.224309
  0
VERTEX
  8
0
 10
57.458120
 20
41.765756
 42
-0.150969
  0
VERTEX
  8
0
 10
58.729339
 20
38.659903
 42
-0.116194
  0
VERTEX
  8
0
 10
58.159950
 20
34.692065
 42
-0.115853
  0
VERTEX
  8
0
 10
55.879209
 20
31.390686
 42
-0.130522
  0
VERTEX
  8
0
 10
53.287680
 20
30.054700
 42
-0.058876
  0
VERTEX
  8
0
 10
49.452931
 20
29.674617
 42
-0.056992
  0
VERTEX
  8
0
 10
45.420334
 20
30.212845
 42
-0.085882
  0
VERTEX
  8
0
 10
42.187315
 20
31.648447
 42
0.012179
  0
VERTEX
  8
0
 10
41.118881
 20
32.325580
 42
0.017128
  0
VERTEX
  8
0
 10
40.132033
 20
32.872756
 42
0.013409
  0
VERTEX
  8
0
 10
39.300276
 20
33.269626
 42
0.175016
  0
VERTEX
  8
0
 10
38.964286
 20
33.293813
 42
-0.288028
  0
VERTEX
  8
0
 10
38.746846
 20
33.357803
 42
-0.073170
  0
VERTEX
  8
0
 10
38.536660
 20
33.680281
 42
-0.052089
  0
VERTEX
  8
0
 10
38.363849
 20
34.189000
 42
-0.030954
  0
VERTEX
  8
0
 10
38.260818
 20
34.821429
 42
0.004546
  0
VERTEX
  8
0
 10
38.156560
 20
35.776781
 42
0.000856
  0
VERTEX
  8
0
 10
37.947137
 20
37.520878
 42
0.000915
  0
VERTEX
  8
0
 10
37.695250
 20
39.557634
 42
0.000838
  0
VERTEX
  8
0
 10
37.428537
 20
41.653901
 42
-0.021171
  0
VERTEX
  8
0
 10
37.180627
 20
44.533066
 42
-0.054749
  0
VERTEX
  8
0
 10
37.317580
 20
46.610399
 42
-0.058027
  0
VERTEX
  8
0
 10
37.895077
 20
48.537585
 42
-0.026248
  0
VERTEX
  8
0
 10
39.066095
 20
50.903812
 42
-0.127608
  0
VERTEX
  8
0
 10
44.221262
 20
56.264279
 42
-0.110522
  0
VERTEX
  8
0
 10
51.617696
 20
58.805386
 42
-0.110019
  0
VERTEX
  8
0
 10
59.419601
 20
57.956470
 42
-0.125464
  0
VERTEX
  8
0
 10
65.701154
 20
53.866422
 42
-0.056108
  0
VERTEX
  8
0
 10
68.421037
 20
50.150974
 42
-0.046381
  0
VERTEX
  8
0
 10
70.454780
 20
45.682568
 42
-0.047264
  0
VERTEX
  8
0
 10
71.595511
 20
41.020467
 42
-0.065944
  0
VERTEX
  8
0
 10
71.654737
 20
36.732606
 42
-0.092009
  0
VERTEX
  8
0
 10
69.105476
 20
28.531869
 42
-0.093844
  0
VERTEX
  8
0
 10
63.795008
 20
21.856766
 42
-0.092386
  0
VERTEX
  8
0
 10
56.333014
 20
17.510897
 42
-0.085994
  0
VERTEX
  8
0
 10
47.613039
 20
16.000000
 42
-0.092576
  0
VERTEX
  8
0
 10
37.192777
 20
17.946003
 42
-0.112992
  0
VERTEX
  8
0
 10
28.994759
 20
23.485985
 42
-0.108454
  0
VERTEX
  8
0
 10
23.798330
 20
32.245584
 42
-0.080010
  0
VERTEX
  8
0
 10
22.000000
 20
43.411786
 42
-0.090732
  0
VERTEX
  8
0
 10
24.262973
 20
55.779753
 42
-0.117666
  0
VERTEX
  8
0
 10
30.714733
 20
65.287750
 42
-0.113836
  0
VERTEX
  8
0
 10
40.953871
 20
71.064302
 42
-0.081061
  0
VERTEX
  8
0
 10
54.069775
 20
72.714894
 42
-0.011209
  0
VERTEX
  8
0
 10
58.819408
 20
72.434357
 42
-0.036570
  0
VERTEX
  8
0
 10
61.929748
 20
71.949881
 42
-0.046776
  0
VERTEX
  8
0
 10
64.508288
 20
71.092195
 42
-0.028882
  0
SEQEND
  0
POLYLINE
  8
0
 66
1
 70
1
  0
VERTEX
  8
0
 10
124.806456
 20
51.500000
 42
-0.007862
  0
VERTEX
  8
0
 10
124.847549
 20
46.261825
 42
-0.009092
  0
VERTEX
  8
0
 10
124.717497
 20
41.273033
 42
-0.008288
  0
VERTEX
  8
0
 10
124.461056
 20
37.061888
 42
-0.051732
  0
VERTEX
  8
0
 10
124.073274
 20
34.940114
 42
-0.064589
  0
VERTEX
  8
0
 10
122.470891
 20
31.284783
 42
-0.095489
  0
VERTEX
  8
0
 10
120.136142
 20
28.689179
 42
-0.095091
  0
VERTEX
  8
0
 10
116.996086
 20
27.140305
 42
-0.063577
  0
VERTEX
  8
0
 10
113.017730
 20
26.572982
 42
-0.022866
  0
VERTEX
  8
0
 10
110.177830
 20
26.661219
 42
-0.073369
  0
VERTEX
  8
0
 10
108.336850
 20
27.079204
 42
-0.077050
  0
VERTEX
  8
0
 10
106.744114
 20
27.998630
 42
-0.026971
  0
VERTEX
  8
0
 10
104.770609
 20
29.769231
 42
-0.029234
  0
VERTEX
  8
0
 10
102.897054
 20
31.874797
 42
-0.088382
  0
VERTEX
  8
0
 10
101.992908
 20
33.560145
 42
-0.067061
  0
VERTEX
  8
0
 10
101.598119
 20
35.703215
 42
-0.012064
  0
VERTEX
  8
0
 10
101.500000
 20
39.769231
 42
-0.014258
  0
VERTEX
  8
0
 10
101.598163
 20
43.210896
 42
-0.038104
  0
VERTEX
  8
0
 10
101.923889
 20
45.641806
 42
-0.051663
  0
VERTEX
  8
0
 10
102.531883
 20
47.522964
 42
-0.056304
  0
VERTEX
  8
0
 10
103.500000
 20
49.181625
 42
-0.083110
  0
VERTEX
  8
0
 10
106.623061
 20
52.174646
 42
-0.093190
  0
VERTEX
  8
0
 10
110.433710
 20
53.842014
 42
-0.129791
  0
VERTEX
  8
0
 10
113.696263
 20
53.739125
 42
-0.248377
  0
VERTEX
  8
0
 10
115.515231
 20
51.952012
 42
-0.116304
  0
VERTEX
  8
0
 10
115.640846
 20
50.297203
 42
-0.098528
  0
VERTEX
  8
0
 10
115.034409
 20
48.647269
 42
-0.105083
  0
VERTEX
  8
0
 10
113.886895
 20
47.435195
 42
-0.151993
  0
VERTEX
  8
0
 10
112.488339
 20
47.000000
 42
0.138472
  0
VERTEX
  8
0
 10
110.453950
 20
46.425572
 42
0.083134
  0
VERTEX
  8
0
 10
108.547564
 20
44.766062
 42
0.078843
  0
VERTEX
  8
0
 10
107.199376
 20
42.471769
 42
0.100924
  0
VERTEX
  8
0
 10
106.779138
 20
40.063280
 42
0.113374
  0
VERTEX
  8
0
 10
107.812063
 20
36.087896
 42
0.162480
  0
VERTEX
  8
0
 10
110.408759
 20
33.576714
 42
0.179834
  0
VERTEX
  8
0
 10
113.782143
 20
33.270076
 42
0.139790
  0
VERTEX
  8
0
 10
116.961045
 20
35.188561
 42
0.090137
  0
VERTEX
  8
0
 10
118.073322
 20
36.922964
 42
0.064652
  0
VERTEX
  8
0
 10
118.669597
 20
39.152525
 42
0.029161
  0
VERTEX
  8
0
 10
118.939826
 20
42.802796
 42
0.003898
  0
VERTEX
  8
0
 10
119.000000
 20
50.521895
 42
-0.005037
  0
VERTEX
  8
0
 10
119.051270
 20
55.611038
 42
-0.007744
  0
VERTEX
  8
0
 10
119.208224
 20
60.013614
 42
-0.003309
  0
VERTEX
  8
0
 10
119.423965
 20
63.745850
 42
-0.182238
  0
VERTEX
  8
0
 10
119.708849
 20
64.375516
 42
-0.118669
  0
VERTEX
  8
0
 10
120.121725
 20
64.628178
 42
-0.040663
  0
VERTEX
  8
0
 10
120.809062
 20
64.790312
 42
-0.037695
  0
VERTEX
  8
0
 10
121.625458
 20
64.851670
 42
-0.035475
  0
VERTEX
  8
0
 10
122.458849
 20
64.792183
 42
-0.200166
  0
VERTEX
  8
0
 10
123.601912
 20
64.111200
 42
-0.116417
  0
VERTEX
  8
0
 10
124.243526
 20
62.621153
 42
-0.034882
  0
VERTEX
  8
0
 10
124.569989
 20
59.525707
 42
-0.002943
  0
SEQEND
  0
POLYLINE
  8
0
 66
1
 70
1
  0
VERTEX
  8
0
 10
313.500000
 20
61.500000
 42
-0.030694
  0
VERTEX
  8
0
 10
313.396354
 20
59.813227
 42
-0.166609
  0
VERTEX
  8
0
 10
313.001141
 20
59.001146
 42
-0.167409
  0
VERTEX
  8
0
 10
312.192051
 20
58.604362
 42
-0.031061
  0
VERTEX
  8
0
 10
310.513695
 20
58.500000
 42
-0.037292
  0
VERTEX
  8
0
 10
309.133780
 20
58.603064
 42
-0.087177
  0
VERTEX
  8
0
 10
308.155455
 20
58.930548
 42
-0.116726
  0
VERTEX
  8
0
 10
307.521990
 20
59.496683
 42
-0.105087
  0
VERTEX
  8
0
 10
307.179122
 20
60.308413
 42
-0.066027
  0
VERTEX
  8
0
 10
307.055318
 20
62.426284
 42
-0.150013
  0
VERTEX
  8
0
 10
307.631095
 20
63.905159
 42
-0.167989
  0
VERTEX
  8
0
 10
308.879976
 20
64.703617
 42
-0.087849
  0
VERTEX
  8
0
 10
310.744314
 20
64.816971
 42
-0.041896
  0
VERTEX
  8
0
 10
312.205933
 20
64.523327
 42
-0.150000
  0
VERTEX
  8
0
 10
312.993945
 20
64.007288
 42
-0.139669
  0
VERTEX
  8
0
 10
313.388354
 20
63.113772
 42
-0.034550
  0
SEQEND
  0
POLYLINE
  8
0
 66
1
 70
1
  0
VERTEX
  8
0
 10
285.000000
 20
56.927178
 42
0.063926
  0
VERTEX
  8
0
 10
285.219361
 20
55.218447
 42
0.230848
  0
VERTEX
  8
0
 10
285.914171
 20
54.408619
 42
0.086822
  0
VERTEX
  8
0
 10
287.463039
 20
54.038220
 42
0.005255
  0
VERTEX
  8
0
 10
292.250000
 20
53.793810
 42
0.000000
  0
VERTEX
  8
0
 10
299.500000
 20
53.500000
 42
0.000000
  0
VERTEX
  8
0
 10
299.500000
 20
50.500000
 42
0.000000
  0
VERTEX
  8
0
 10
299.500000
 20
47.500000
 42
0.000000
  0
VERTEX
  8
0
 10
292.250000
 20
47.206190
 42
0.000000
  0
VERTEX
  8
0
 10
285.000000
 20
46.912381
 42
0.000000
  0
VERTEX
  8
0
 10
285.000000
 20
42.178697
 42
0.079021
  0
VERTEX
  8
0
 10
285.862267
 20
36.756845
 42
0.174169
  0
VERTEX
  8
0
 10
288.399558
 20
33.489656
 42
0.311947
  0
VERTEX
  8
0
 10
291.305023
 20
33.603466
 42
0.154782
  0
VERTEX
  8
0
 10
293.550744
 20
36.750744
 42
-0.028240
  0
VERTEX
  8
0
 10
294.691273
 20
39.699191
 42
-0.112422
  0
VERTEX
  8
0
 10
295.856681
 20
41.233915
 42
-0.215271
  0
VERTEX
  8
0
 10
297.130445
 20
41.591049
 42
-0.136339
  0
VERTEX
  8
0
 10
298.561320
 20
40.949109
 42
-0.183552
  0
VERTEX
  8
0
 10
299.651041
 20
39.023647
 42
-0.065492
  0
VERTEX
  8
0
 10
299.718951
 20
35.812999
 42
-0.061925
  0
VERTEX
  8
0
 10
298.908461
 20
32.402856
 42
-0.094313
  0
VERTEX
  8
0
 10
297.334746
 20
29.807621
 42
-0.108274
  0
VERTEX
  8
0
 10
293.611879
 20
27.139041
 42
-0.111261
  0
VERTEX
  8
0
 10
289.151538
 20
26.306181
 42
-0.117290
  0
VERTEX
  8
0
 10
284.946559
 20
27.472313
 42
-0.130530
  0
VERTEX
  8
0
 10
281.910751
 20
30.378735
 42
-0.063763
  0
VERTEX
  8
0
 10
280.915970
 20
32.604983
 42
-0.043960
  0
VERTEX
  8
0
 10
280.353040
 20
35.312301
 42
-0.024358
  0
VERTEX
  8
0
 10
280.076116
 20
39.352295
 42
-0.004862
  0
VERTEX
  8
0
 10
280.003738
 20
46.583333
 42
-0.003987
  0
VERTEX
  8
0
 10
280.042606
 20
51.638455
 42
-0.006235
  0
VERTEX
  8
0
 10
280.164983
 20
55.987322
 42
-0.002173
  0
VERTEX
  8
0
 10
280.332721
 20
59.716706
 42
-0.186132
  0
VERTEX
  8
0
 10
280.557905
 20
60.224571
 42
-0.151482
  0
VERTEX
  8
0
 10
280.902249
 20
60.405911
 42
-0.041030
  0
VERTEX
  8
0
 10
281.522415
 20
60.469405
 42
-0.037599
  0
VERTEX
  8
0
 10
282.273509
 20
60.427940
 42
-0.031377
  0
VERTEX
  8
0
 10
283.057905
 20
60.274607
 42
-0.089798
  0
VERTEX
  8
0
 10
283.927304
 20
59.870721
 42
-0.108187
  0
VERTEX
  8
0
 10
284.534301
 20
59.207616
 42
-0.088525
  0
VERTEX
  8
0
 10
284.886437
 20
58.240311
 42
-0.043161
  0
SEQEND
  0
POLYLINE
  8
0
 66
1
 70
1
  0
VERTEX
  8
0
 10
144.500000
 20
51.029533
 42
-0.068355
  0
VERTEX
  8
0
 10
144.343999
 20
49.893759
 42
-0.076298
  0
VERTEX
  8
0
 10
143.888309
 20
48.887692
 42
-0.073909
  0
VERTEX
  8
0
 10
143.137250
 20
48.040205
 42
-0.058970
  0
VERTEX
  8
0
 10
142.114910
 20
47.369970
 42
0.069014
  0
VERTEX
  8
0
 10
139.927998
 20
45.872863
 42
0.123162
  0
VERTEX
  8
0
 10
138.726652
 20
44.069268
 42
0.072475
  0
VERTEX
  8
0
 10
138.163883
 20
41.261522
 42
0.012778
  0
VERTEX
  8
0
 10
138.015313
 20
35.872445
 42
-0.022136
  0
VERTEX
  8
0
 10
137.776674
 20
30.718892
 42
-0.088081
  0
VERTEX
  8
0
 10
136.947001
 20
27.676703
 42
-0.194377
  0
VERTEX
  8
0
 10
135.509516
 20
26.351248
 42
-0.183859
  0
VERTEX
  8
0
 10
133.512735
 20
26.356740
 42
-0.202322
  0
VERTEX
  8
0
 10
132.758553
 20
27.081724
 42
-0.061918
  0
VERTEX
  8
0
 10
132.308917
 20
28.632520
 42
-0.032646
  0
VERTEX
  8
0
 10
132.063911
 20
31.252200
 42
-0.006996
  0
VERTEX
  8
0
 10
132.000000
 20
35.819392
 42
-0.016812
  0
VERTEX
  8
0
 10
132.240397
 20
42.967076
 42
-0.060803
  0
VERTEX
  8
0
 10
133.092881
 20
47.431050
 42
-0.098177
  0
VERTEX
  8
0
 10
134.715657
 20
50.360439
 42
-0.101854
  0
VERTEX
  8
0
 10
137.315310
 20
52.403914
 42
-0.043314
  0
VERTEX
  8
0
 10
140.325117
 20
53.594216
 42
-0.120334
  0
VERTEX
  8
0
 10
142.581058
 20
53.708254
 42
-0.200133
  0
VERTEX
  8
0
 10
143.961693
 20
52.795681
 42
-0.149012
  0
SEQEND
  0
POLYLINE
  8
0
 66
1
 70
1
  0
VERTEX
  8
0
 10
169.605771
 20
51.522653
 42
-0.122779
  0
VERTEX
  8
0
 10
171.410115
 20
49.571874
 42
-0.175310
  0
VERTEX
  8
0
 10
171.770862
 20
47.263053
 42
-0.107109
  0
VERTEX
  8
0
 10
170.534537
 20
44.383167
 42
-0.031519
  0
VERTEX
  8
0
 10
167.487067
 20
40.629438
 42
-0.009731
  0
VERTEX
  8
0
 10
164.999531
 20
38.035198
 42
-0.060663
  0
VERTEX
  8
0
 10
163.554401
 20
36.900241
 42
-0.146762
  0
VERTEX
  8
0
 10
162.485682
 20
36.623781
 42
-0.165080
  0
VERTEX
  8
0
 10
161.497732
 20
37.001882
 42
-0.108554
  0
VERTEX
  8
0
 10
160.394976
 20
38.417468
 42
-0.130643
  0
VERTEX
  8
0
 10
160.084416
 20
40.070260
 42
-0.109110
  0
VERTEX
  8
0
 10
160.629655
 20
41.887837
 42
-0.060379
  0
VERTEX
  8
0
 10
162.000000
 20
43.769625
 42
0.013879
  0
VERTEX
  8
0
 10
163.557893
 20
45.537774
 42
0.163065
  0
VERTEX
  8
0
 10
163.886210
 20
46.381183
 42
0.369304
  0
VERTEX
  8
0
 10
163.514041
 20
46.861121
 42
0.050961
  0
VERTEX
  8
0
 10
162.154988
 20
47.000000
 42
0.201986
  0
VERTEX
  8
0
 10
159.200946
 20
45.755894
 42
0.122392
  0
VERTEX
  8
0
 10
157.253422
 20
42.432062
 42
0.110338
  0
VERTEX
  8
0
 10
156.976924
 20
38.289556
 42
0.146644
  0
VERTEX
  8
0
 10
158.590962
 20
34.899488
 42
0.080337
  0
VERTEX
  8
0
 10
159.731469
 20
33.986779
 42
0.066588
  0
VERTEX
  8
0
 10
161.176447
 20
33.406965
 42
0.046158
  0
VERTEX
  8
0
 10
163.166698
 20
33.093202
 42
0.016029
  0
VERTEX
  8
0
 10
166.073200
 20
33.000000
 42
-0.014453
  0
VERTEX
  8
0
 10
170.785639
 20
32.863754
 42
-0.079127
  0
VERTEX
  8
0
 10
173.266101
 20
32.320177
 42
-0.168366
  0
VERTEX
  8
0
 10
174.527272
 20
31.242157
 42
-0.133264
  0
VERTEX
  8
0
 10
175.000000
 20
29.500000
 42
-0.138111
  0
VERTEX
  8
0
 10
174.503657
 20
27.737374
 42
-0.169624
  0
VERTEX
  8
0
 10
173.188034
 20
26.660855
 42
-0.075063
  0
VERTEX
  8
0
 10
170.563231
 20
26.129109
 42
-0.012509
  0
VERTEX
  8
0
 10
165.403527
 20
26.000000
 42
-0.014172
  0
VERTEX
  8
0
 10
161.568973
 20
26.108712
 42
-0.066149
  0
VERTEX
  8
0
 10
159.402442
 20
26.522665
 42
-0.079534
  0
VERTEX
  8
0
 10
157.613708
 20
27.453061
 42
-0.025869
  0
VERTEX
  8
0
 10
155.309608
 20
29.355076
 42
-0.026486
  0
VERTEX
  8
0
 10
153.266318
 20
31.437067
 42
-0.077204
  0
VERTEX
  8
0
 10
152.184307
 20
33.129043
 42
-0.068530
  0
VERTEX
  8
0
 10
151.598391
 20
35.182032
 42
-0.017814
  0
VERTEX
  8
0
 10
151.235792
 20
38.605076
 42
-0.016482
  0
VERTEX
  8
0
 10
151.114722
 20
41.880222
 42
-0.052432
  0
VERTEX
  8
0
 10
151.334803
 20
44.056616
 42
-0.063894
  0
VERTEX
  8
0
 10
151.972438
 20
45.899167
 42
-0.034036
  0
VERTEX
  8
0
 10
153.191515
 20
47.985431
 42
-0.026814
  0
VERTEX
  8
0
 10
154.279455
 20
49.415116
 42
-0.021729
  0
VERTEX
  8
0
 10
155.589837
 20
50.828645
 42
-0.022247
  0
VERTEX
  8
0
 10
156.915728
 20
52.027945
 42
-0.051698
  0
VERTEX
  8
0
 10
158.030015
 20
52.770022
 42
-0.092963
  0
VERTEX
  8
0
 10
160.525319
 20
53.538685
 42
-0.055248
  0
VERTEX
  8
0
 10
163.645917
 20
53.548176
 42
-0.053143
  0
VERTEX
  8
0
 10
166.850034
 20
52.853411
 42
-0.065173
  0
SEQEND
  0
POLYLINE
  8
0
 66
1
 70
1
  0
VERTEX
  8
0
 10
199.430933
 20
51.317307
 42
-0.088770
  0
VERTEX
  8
0
 10
201.626729
 20
49.018138
 42
-0.076934
  0
VERTEX
  8
0
 10
203.023765
 20
45.986089
 42
-0.052172
  0
VERTEX
  8
0
 10
203.777694
 20
41.695696
 42
-0.017427
  0
VERTEX
  8
0
 10
204.000000
 20
35.319392
 42
-0.007626
  0
VERTEX
  8
0
 10
203.934735
 20
31.040663
 42
-0.034189
  0
VERTEX
  8
0
 10
203.687569
 20
28.548539
 42
-0.064186
  0
VERTEX
  8
0
 10
203.235668
 20
27.063519
 42
-0.197715
  0
VERTEX
  8
0
 10
202.487265
 20
26.356740
 42
-0.184617
  0
VERTEX
  8
0
 10
200.574084
 20
26.354280
 42
-0.194556
  0
VERTEX
  8
0
 10
199.199315
 20
27.630262
 42
-0.085677
  0
VERTEX
  8
0
 10
198.388722
 20
30.589028
 42
-0.020362
  0
VERTEX
  8
0
 10
198.102945
 20
35.709916
 42
0.011413
  0
VERTEX
  8
0
 10
197.962355
 20
39.421940
 42
0.030888
  0
VERTEX
  8
0
 10
197.640585
 20
42.036828
 42
0.044343
  0
VERTEX
  8
0
 10
197.118770
 20
43.901803
 42
0.093802
  0
VERTEX
  8
0
 10
196.339019
 20
45.177882
 42
0.106878
  0
VERTEX
  8
0
 10
194.483248
 20
46.509144
 42
0.113852
  0
VERTEX
  8
0
 10
192.286112
 20
46.914878
 42
0.107625
  0
VERTEX
  8
0
 10
190.036085
 20
46.319827
 42
0.087171
  0
VERTEX
  8
0
 10
188.038955
 20
44.811439
 42
0.131751
  0
VERTEX
  8
0
 10
186.220521
 20
41.386007
 42
0.136617
  0
VERTEX
  8
0
 10
186.394717
 20
37.561323
 42
0.135872
  0
VERTEX
  8
0
 10
188.523736
 20
34.361931
 42
0.129760
  0
VERTEX
  8
0
 10
192.031656
 20
32.643669
 42
-0.029560
  0
VERTEX
  8
0
 10
193.721147
 20
32.200556
 42
-0.142496
  0
VERTEX
  8
0
 10
194.533368
 20
31.646449
 42
-0.161336
  0
VERTEX
  8
0
 10
194.867232
 20
30.783388
 42
-0.040942
  0
VERTEX
  8
0
 10
194.817531
 20
29.261494
 42
-0.045672
  0
VERTEX
  8
0
 10
194.534786
 20
27.906805
 42
-0.113406
  0
VERTEX
  8
0
 10
194.031865
 20
27.034292
 42
-0.121947
  0
VERTEX
  8
0
 10
193.224615
 20
26.506139
 42
-0.057275
  0
VERTEX
  8
0
 10
192.000000
 20
26.229404
 42
-0.115573
  0
VERTEX
  8
0
 10
189.152957
 20
26.579360
 42
-0.062550
  0
VERTEX
  8
0
 10
186.001196
 20
28.209666
 42
-0.060388
  0
VERTEX
  8
0
 10
183.214926
 20
30.667907
 42
-0.083054
  0
VERTEX
  8
0
 10
181.439824
 20
33.489778
 42
-0.139429
  0
VERTEX
  8
0
 10
180.359247
 20
42.549788
 42
-0.159226
  0
VERTEX
  8
0
 10
184.330929
 20
50.288610
 42
-0.180865
  0
VERTEX
  8
0
 10
191.646889
 20
53.581816
 42
-0.175887
  0
SEQEND
  0
POLYLINE
  8
0
 66
1
 70
1
  0
VERTEX
  8
0
 10
226.752671
 20
52.460683
 42
0.032660
  0
VERTEX
  8
0
 10
228.085997
 20
51.651053
 42
0.129146
  0
VERTEX
  8
0
 10
229.013689
 20
51.440144
 42
0.114242
  0
VERTEX
  8
0
 10
229.987643
 20
51.700094
 42
0.022934
  0
VERTEX
  8
0
 10
231.543387
 20
52.620385
 42
-0.115272
  0
VERTEX
  8
0
 10
234.578678
 20
53.730103
 42
-0.101695
  0
VERTEX
  8
0
 10
237.942846
 20
53.454585
 42
-0.093387
  0
VERTEX
  8
0
 10
241.157780
 20
51.818906
 42
-0.080715
  0
VERTEX
  8
0
 10
243.750190
 20
49.051927
 42
-0.043525
  0
VERTEX
  8
0
 10
245.006373
 20
46.778291
 42
-0.065742
  0
VERTEX
  8
0
 10
245.644685
 20
44.611383
 42
-0.039310
  0
VERTEX
  8
0
 10
245.872431
 20
41.643849
 42
-0.006930
  0
VERTEX
  8
0
 10
245.783823
 20
36.051927
 42
-0.003586
  0
VERTEX
  8
0
 10
245.552536
 20
29.782854
 42
-0.059956
  0
VERTEX
  8
0
 10
245.213794
 20
27.733575
 42
-0.212356
  0
VERTEX
  8
0
 10
244.451518
 20
26.832384
 42
-0.113032
  0
VERTEX
  8
0
 10
243.000000
 20
26.500000
 42
-0.113496
  0
VERTEX
  8
0
 10
241.548600
 20
26.833757
 42
-0.205231
  0
VERTEX
  8
0
 10
240.763859
 20
27.739568
 42
-0.060201
  0
VERTEX
  8
0
 10
240.372030
 20
29.790137
 42
-0.003846
  0
VERTEX
  8
0
 10
240.000000
 20
35.895679
 42
0.007214
  0
VERTEX
  8
0
 10
239.668818
 20
40.787767
 42
0.032304
  0
VERTEX
  8
0
 10
239.249398
 20
43.628068
 42
0.058846
  0
VERTEX
  8
0
 10
238.652254
 20
45.378567
 42
0.141853
  0
VERTEX
  8
0
 10
237.750000
 20
46.390564
 42
0.051881
  0
VERTEX
  8
0
 10
236.835257
 20
46.840551
 42
0.088720
  0
VERTEX
  8
0
 10
236.000000
 20
46.989544
 42
0.088699
  0
VERTEX
  8
0
 10
235.164746
 20
46.839805
 42
0.051837
  0
VERTEX
  8
0
 10
234.250000
 20
46.388978
 42
0.140014
  0
VERTEX
  8
0
 10
233.349968
 20
45.385467
 42
0.064426
  0
VERTEX
  8
0
 10
232.785804
 20
43.706673
 42
0.033977
  0
VERTEX
  8
0
 10
232.433168
 20
40.957972
 42
0.007081
  0
VERTEX
  8
0
 10
232.211865
 20
36.098075
 42
-0.006815
  0
VERTEX
  8
0
 10
231.996797
 20
31.319091
 42
-0.033073
  0
VERTEX
  8
0
 10
231.659332
 20
28.627447
 42
-0.064129
  0
VERTEX
  8
0
 10
231.138004
 20
27.048623
 42
-0.191640
  0
VERTEX
  8
0
 10
230.317258
 20
26.291502
 42
-0.239890
  0
VERTEX
  8
0
 10
228.584236
 20
26.473219
 42
-0.153713
  0
VERTEX
  8
0
 10
227.268334
 20
28.066295
 42
-0.070225
  0
VERTEX
  8
0
 10
226.433494
 20
31.403287
 42
-0.020439
  0
VERTEX
  8
0
 10
226.093503
 20
36.703891
 42
0.016442
  0
VERTEX
  8
0
 10
225.804818
 20
41.847778
 42
0.070856
  0
VERTEX
  8
0
 10
225.106762
 20
44.823471
 42
0.142248
  0
VERTEX
  8
0
 10
223.893585
 20
46.404527
 42
0.159764
  0
VERTEX
  8
0
 10
222.077555
 20
47.000000
 42
0.145727
  0
VERTEX
  8
0
 10
220.095559
 20
46.409805
 42
0.157284
  0
VERTEX
  8
0
 10
218.830592
 20
44.845369
 42
0.076267
  0
VERTEX
  8
0
 10
218.171928
 20
41.839230
 42
0.015866
  0
VERTEX
  8
0
 10
218.000000
 20
36.422445
 42
-0.019836
  0
VERTEX
  8
0
 10
217.780986
 20
30.904061
 42
-0.085210
  0
VERTEX
  8
0
 10
216.972380
 20
27.728612
 42
-0.197570
  0
VERTEX
  8
0
 10
215.537922
 20
26.361603
 42
-0.186523
  0
VERTEX
  8
0
 10
213.512735
 20
26.356740
 42
-0.207550
  0
VERTEX
  8
0
 10
212.752099
 20
27.102757
 42
-0.059227
  0
VERTEX
  8
0
 10
212.305176
 20
28.733472
 42
-0.030951
  0
VERTEX
  8
0
 10
212.062474
 20
31.506462
 42
-0.006355
  0
VERTEX
  8
0
 10
212.000000
 20
36.421562
 42
-0.010365
  0
VERTEX
  8
0
 10
212.078869
 20
40.225913
 42
-0.012282
  0
VERTEX
  8
0
 10
212.316073
 20
43.813575
 42
-0.011156
  0
VERTEX
  8
0
 10
212.656484
 20
46.816029
 42
-0.073210
  0
VERTEX
  8
0
 10
213.075992
 20
48.267439
 42
-0.114750
  0
VERTEX
  8
0
 10
215.483728
 20
51.395345
 42
-0.097499
  0
VERTEX
  8
0
 10
219.165113
 20
53.367866
 42
-0.100010
  0
VERTEX
  8
0
 10
223.236248
 20
53.768699
 42
-0.128144
  0
SEQEND
  0
POLYLINE
  8
0
 66
1
 70
1
  0
VERTEX
  8
0
 10
273.500000
 20
50.500000
 42
-0.035119
  0
VERTEX
  8
0
 10
273.384252
 20
48.854104
 42
-0.148791
  0
VERTEX
  8
0
 10
272.971918
 20
47.968699
 42
-0.148050
  0
VERTEX
  8
0
 10
272.134956
 20
47.460625
 42
-0.034656
  0
VERTEX
  8
0
 10
270.503250
 20
47.159767
 42
0.060721
  0
VERTEX
  8
0
 10
268.178296
 20
46.604733
 42
0.161700
  0
VERTEX
  8
0
 10
266.864425
 20
45.550358
 42
0.117784
  0
VERTEX
  8
0
 10
266.203211
 20
43.677700
 42
0.025345
  0
VERTEX
  8
0
 10
266.015313
 20
40.217881
 42
-0.043265
  0
VERTEX
  8
0
 10
265.694464
 20
36.664560
 42
-0.041272
  0
VERTEX
  8
0
 10
264.766061
 20
33.160842
 42
-0.044090
  0
VERTEX
  8
0
 10
263.395619
 20
30.169860
 42
-0.090416
  0
VERTEX
  8
0
 10
261.744134
 20
28.201609
 42
-0.061634
  0
VERTEX
  8
0
 10
260.902657
 20
27.663159
 42
-0.023216
  0
VERTEX
  8
0
 10
259.612476
 20
27.118140
 42
-0.022579
  0
VERTEX
  8
0
 10
258.137968
 20
26.648866
 42
-0.025530
  0
VERTEX
  8
0
 10
256.686031
 20
26.336476
 42
-0.025658
  0
VERTEX
  8
0
 10
254.799848
 20
26.128975
 42
-0.098177
  0
VERTEX
  8
0
 10
253.634524
 20
26.290179
 42
-0.128566
  0
VERTEX
  8
0
 10
252.790669
 20
26.853867
 42
-0.058755
  0
VERTEX
  8
0
 10
252.027407
 20
27.948789
 42
-0.111539
  0
VERTEX
  8
0
 10
251.500748
 20
29.857410
 42
-0.166767
  0
VERTEX
  8
0
 10
251.980232
 20
31.503678
 42
-0.151847
  0
VERTEX
  8
0
 10
253.422520
 20
32.612672
 42
-0.088758
  0
VERTEX
  8
0
 10
255.587261
 20
33.000000
 42
0.145245
  0
VERTEX
  8
0
 10
257.569293
 20
33.588170
 42
0.137638
  0
VERTEX
  8
0
 10
258.959433
 20
35.172221
 42
0.083766
  0
VERTEX
  8
0
 10
259.760903
 20
37.963707
 42
0.028120
  0
VERTEX
  8
0
 10
260.000000
 20
42.211752
 42
-0.062997
  0
VERTEX
  8
0
 10
260.664480
 20
47.464761
 42
-0.122708
  0
VERTEX
  8
0
 10
262.662022
 20
51.157591
 42
-0.137480
  0
VERTEX
  8
0
 10
265.975436
 20
53.223435
 42
-0.088781
  0
VERTEX
  8
0
 10
270.500000
 20
53.710153
 42
-0.033229
  0
VERTEX
  8
0
 10
272.154190
 20
53.483160
 42
-0.155337
  0
VERTEX
  8
0
 10
272.982487
 20
53.018740
 42
-0.155709
  0
VERTEX
  8
0
 10
273.388758
 20
52.161629
 42
-0.033436
  0
SEQEND
  0
POLYLINE
  8
0
 66
1
 70
1
  0
VERTEX
  8
0
 10
312.779166
 20
40.229807
 42
-0.003400
  0
VERTEX
  8
0
 10
312.887277
 20
32.634566
 42
-0.026841
  0
VERTEX
  8
0
 10
312.724555
 20
29.117847
 42
-0.065576
  0
VERTEX
  8
0
 10
312.276994
 20
27.213850
 42
-0.213809
  0
VERTEX
  8
0
 10
311.384558
 20
26.317327
 42
-0.245089
  0
VERTEX
  8
0
 10
309.403850
 20
26.544704
 42
-0.165050
  0
VERTEX
  8
0
 10
308.000193
 20
28.396317
 42
-0.065612
  0
VERTEX
  8
0
 10
307.216335
 20
32.462036
 42
-0.015196
  0
VERTEX
  8
0
 10
307.013655
 20
39.441130
 42
-0.007009
  0
VERTEX
  8
0
 10
307.138660
 20
47.570388
 42
-0.050261
  0
VERTEX
  8
0
 10
307.646414
 20
51.459232
 42
-0.147631
  0
VERTEX
  8
0
 10
308.690310
 20
53.268085
 42
-0.227818
  0
VERTEX
  8
0
 10
310.380352
 20
53.802469
 42
-0.191159
  0
VERTEX
  8
0
 10
311.576350
 20
53.118477
 42
-0.125300
  0
VERTEX
  8
0
 10
312.237952
 20
51.653652
 42
-0.035750
  0
VERTEX
  8
0
 10
312.557927
 20
48.572042
 42
-0.002740
  0
SEQEND
  0
POLYLINE
  8
0
 66
1
 70
1
  0
VERTEX
  8
0
 10
335.345148
 20
52.503779
 42
0.022555
  0
VERTEX
  8
0
 10
337.008602
 20
51.729501
 42
0.098258
  0
VERTEX
  8
0
 10
338.069503
 20
51.520350
 42
0.115787
  0
VERTEX
  8
0
 10
339.038805
 20
51.749132
 42
0.037187
  0
VERTEX
  8
0
 10
340.317654
 20
52.509940
 42
-0.129231
  0
VERTEX
  8
0
 10
343.945197
 20
53.850464
 42
-0.117484
  0
VERTEX
  8
0
 10
347.906634
 20
53.304497
 42
-0.107766
  0
VERTEX
  8
0
 10
351.458518
 20
50.949103
 42
-0.094741
  0
VERTEX
  8
0
 10
353.906376
 20
47.226029
 42
-0.063513
  0
VERTEX
  8
0
 10
354.367785
 20
45.531471
 42
-0.016001
  0
VERTEX
  8
0
 10
354.673754
 20
42.682626
 42
-0.015284
  0
VERTEX
  8
0
 10
354.827249
 20
39.229917
 42
-0.011619
  0
VERTEX
  8
0
 10
354.791735
 20
35.442136
 42
-0.003995
  0
VERTEX
  8
0
 10
354.555089
 20
29.617020
 42
-0.063590
  0
VERTEX
  8
0
 10
354.210231
 20
27.673387
 42
-0.213858
  0
VERTEX
  8
0
 10
353.449626
 20
26.813106
 42
-0.106764
  0
VERTEX
  8
0
 10
352.000000
 20
26.500000
 42
-0.109456
  0
VERTEX
  8
0
 10
350.550322
 20
26.821200
 42
-0.206085
  0
VERTEX
  8
0
 10
349.766667
 20
27.700000
 42
-0.062515
  0
VERTEX
  8
0
 10
349.371489
 20
29.681179
 42
-0.004129
  0
VERTEX
  8
0
 10
349.000000
 20
35.500000
 42
0.008975
  0
VERTEX
  8
0
 10
348.537974
 20
41.779282
 42
0.058156
  0
VERTEX
  8
0
 10
347.885091
 20
44.879224
 42
0.144410
  0
VERTEX
  8
0
 10
346.809687
 20
46.415941
 42
0.169949
  0
VERTEX
  8
0
 10
345.140983
 20
47.000000
 42
0.145505
  0
VERTEX
  8
0
 10
343.097051
 20
46.392331
 42
0.161277
  0
VERTEX
  8
0
 10
341.816354
 20
44.785844
 42
0.074438
  0
VERTEX
  8
0
 10
341.164697
 20
41.645890
 42
0.014009
  0
VERTEX
  8
0
 10
341.000000
 20
35.768615
 42
-0.006852
  0
VERTEX
  8
0
 10
340.936673
 20
31.147810
 42
-0.034322
  0
VERTEX
  8
0
 10
340.688611
 20
28.572441
 42
-0.068478
  0
VERTEX
  8
0
 10
340.221562
 20
27.069976
 42
-0.193943
  0
VERTEX
  8
0
 10
339.432783
 20
26.335833
 42
-0.211847
  0
VERTEX
  8
0
 10
337.677526
 20
26.425630
 42
-0.176544
  0
VERTEX
  8
0
 10
336.389820
 20
27.800498
 42
-0.070797
  0
VERTEX
  8
0
 10
335.541833
 20
30.964837
 42
-0.014956
  0
VERTEX
  8
0
 10
335.023475
 20
36.672839
 42
0.008407
  0
VERTEX
  8
0
 10
334.681528
 20
41.077971
 42
0.033893
  0
VERTEX
  8
0
 10
334.246576
 20
43.738598
 42
0.058990
  0
VERTEX
  8
0
 10
333.640156
 20
45.412105
 42
0.137030
  0
VERTEX
  8
0
 10
332.750000
 20
46.391200
 42
0.051924
  0
VERTEX
  8
0
 10
331.835466
 20
46.840691
 42
0.088640
  0
VERTEX
  8
0
 10
331.000000
 20
46.989487
 42
0.088614
  0
VERTEX
  8
0
 10
330.164537
 20
46.839759
 42
0.051869
  0
VERTEX
  8
0
 10
329.250000
 20
46.389218
 42
0.135813
  0
VERTEX
  8
0
 10
328.359143
 20
45.412457
 42
0.065454
  0
VERTEX
  8
0
 10
327.791734
 20
43.801956
 42
0.035632
  0
VERTEX
  8
0
 10
327.434115
 20
41.203779
 42
0.007984
  0
VERTEX
  8
0
 10
327.212398
 20
36.735571
 42
-0.017897
  0
VERTEX
  8
0
 10
326.811732
 20
30.971789
 42
-0.082317
  0
VERTEX
  8
0
 10
325.923278
 20
27.754762
 42
-0.195373
  0
VERTEX
  8
0
 10
324.462348
 20
26.390508
 42
-0.184997
  0
VERTEX
  8
0
 10
322.421811
 20
26.391630
 42
-0.203809
  0
VERTEX
  8
0
 10
321.596277
 20
27.189755
 42
-0.072088
  0
VERTEX
  8
0
 10
321.170751
 20
28.813912
 42
-0.031399
  0
VERTEX
  8
0
 10
321.026010
 20
31.733558
 42
-0.004742
  0
VERTEX
  8
0
 10
321.159076
 20
37.587434
 42
-0.004705
  0
VERTEX
  8
0
 10
321.446151
 20
44.480938
 42
-0.052574
  0
VERTEX
  8
0
 10
321.872658
 20
47.191334
 42
-0.104850
  0
VERTEX
  8
0
 10
322.801004
 20
49.018609
 42
-0.040749
  0
VERTEX
  8
0
 10
324.765777
 20
51.083928
 42
-0.050201
  0
VERTEX
  8
0
 10
327.402178
 20
53.000399
 42
-0.099032
  0
VERTEX
  8
0
 10
329.841004
 20
53.838025
 42
-0.100714
  0
VERTEX
  8
0
 10
332.386607
 20
53.666346
 42
-0.053213
  0
SEQEND
  0
POLYLINE
  8
0
 66
1
 70
1
  0
VERTEX
  8
0
 10
380.750000
 20
52.010960
 42
-0.036505
  0
VERTEX
  8
0
 10
382.086998
 20
51.055440
 42
-0.050484
  0
VERTEX
  8
0
 10
383.119461
 20
50.004287
 42
-0.059484
  0
VERTEX
  8
0
 10
383.780303
 20
48.942500
 42
-0.109912
  0
VERTEX
  8
0
 10
384.000000
 20
47.955156
 42
-0.147650
  0
VERTEX
  8
0
 10
383.164681
 20
45.188102
 42
-0.034221
  0
VERTEX
  8
0
 10
380.170310
 20
41.288012
 42
-0.031977
  0
VERTEX
  8
0
 10
376.743018
 20
37.872535
 42
-0.219119
  0
VERTEX
  8
0
 10
374.516962
 20
37.212326
 42
-0.154168
  0
VERTEX
  8
0
 10
372.954029
 20
37.965439
 42
-0.187217
  0
VERTEX
  8
0
 10
372.257846
 20
39.422654
 42
-0.126852
  0
VERTEX
  8
0
 10
372.621108
 20
41.455664
 42
-0.059678
  0
VERTEX
  8
0
 10
374.022225
 20
43.749240
 42
0.008547
  0
VERTEX
  8
0
 10
375.318658
 20
45.452816
 42
0.129619
  0
VERTEX
  8
0
 10
375.588744
 20
46.137725
 42
0.329907
  0
VERTEX
  8
0
 10
375.347143
 20
46.560166
 42
0.053828
  0
VERTEX
  8
0
 10
374.390750
 20
46.862737
 42
0.200650
  0
VERTEX
  8
0
 10
372.615778
 20
46.508121
 42
0.055552
  0
VERTEX
  8
0
 10
370.404322
 20
44.629419
 42
0.055211
  0
VERTEX
  8
0
 10
368.584511
 20
42.211953
 42
0.134545
  0
VERTEX
  8
0
 10
368.000000
 20
40.079095
 42
0.080252
  0
VERTEX
  8
0
 10
368.141575
 20
39.202708
 42
0.029020
  0
VERTEX
  8
0
 10
368.608820
 20
38.027232
 42
0.027892
  0
VERTEX
  8
0
 10
369.279355
 20
36.776556
 42
0.029661
  0
VERTEX
  8
0
 10
370.072580
 20
35.634859
 42
0.044962
  0
VERTEX
  8
0
 10
371.263470
 20
34.372767
 42
0.073299
  0
VERTEX
  8
0
 10
372.494127
 20
33.569611
 42
0.069862
  0
VERTEX
  8
0
 10
373.947054
 20
33.132266
 42
0.037197
  0
VERTEX
  8
0
 10
375.822580
 20
32.984687
 42
-0.034304
  0
VERTEX
  8
0
 10
378.900643
 20
32.760379
 42
-0.114679
  0
VERTEX
  8
0
 10
380.776003
 20
32.033677
 42
-0.173791
  0
VERTEX
  8
0
 10
381.702444
 20
30.759313
 42
-0.106633
  0
VERTEX
  8
0
 10
381.837492
 20
28.886910
 42
-0.074952
  0
VERTEX
  8
0
 10
381.457789
 20
27.614902
 42
-0.156096
  0
VERTEX
  8
0
 10
380.760465
 20
26.865479
 42
-0.093180
  0
VERTEX
  8
0
 10
379.492177
 20
26.436894
 42
-0.016725
  0
VERTEX
  8
0
 10
377.000000
 20
26.170205
 42
-0.088570
  0
VERTEX
  8
0
 10
371.198076
 20
26.772990
 42
-0.125422
  0
VERTEX
  8
0
 10
366.738029
 20
29.384664
 42
-0.120567
  0
VERTEX
  8
0
 10
363.957319
 20
33.904502
 42
-0.078048
  0
VERTEX
  8
0
 10
363.000000
 20
40.000000
 42
-0.047412
  0
VERTEX
  8
0
 10
363.403693
 20
44.247732
 42
-0.072240
  0
VERTEX
  8
0
 10
364.615239
 20
47.742211
 42
-0.080799
  0
VERTEX
  8
0
 10
366.641427
 20
50.468082
 42
-0.078129
  0
VERTEX
  8
0
 10
369.448661
 20
52.448541
 42
-0.049544
  0
VERTEX
  8
0
 10
372.442717
 20
53.573630
 42
-0.074925
  0
VERTEX
  8
0
 10
375.204860
 20
53.881133
 42
-0.075698
  0
VERTEX
  8
0
 10
377.914345
 20
53.360587
 42
-0.051700
  0
SEQEND
  0
POLYLINE
  8
0
 66
1
 70
1
  0
VERTEX
  8
0
 10
418.076923
 20
50.076923
 42
-0.032002
  0
VERTEX
  8
0
 10
419.195556
 20
48.805138
 42
-0.032112
  0
VERTEX
  8
0
 10
420.141346
 20
47.402404
 42
-0.033872
  0
VERTEX
  8
0
 10
420.800893
 20
46.075571
 42
-0.098717
  0
VERTEX
  8
0
 10
421.000000
 20
45.076923
 42
-0.080575
  0
VERTEX
  8
0
 10
420.828433
 20
44.019195
 42
-0.181335
  0
VERTEX
  8
0
 10
420.324926
 20
43.397033
 42
-0.111512
  0
VERTEX
  8
0
 10
419.339394
 20
43.081838
 42
-0.021862
  0
VERTEX
  8
0
 10
417.468615
 20
43.000000
 42
-0.032265
  0
VERTEX
  8
0
 10
415.967804
 20
43.096948
 42
-0.053573
  0
VERTEX
  8
0
 10
414.736165
 20
43.393211
 42
-0.068640
  0
VERTEX
  8
0
 10
413.845737
 20
43.856967
 42
-0.147853
  0
VERTEX
  8
0
 10
413.376234
 20
44.461933
 42
0.142452
  0
VERTEX
  8
0
 10
412.315466
 20
45.859023
 42
0.122757
  0
VERTEX
  8
0
 10
410.608147
 20
46.569015
 42
0.113373
  0
VERTEX
  8
0
 10
408.654259
 20
46.420277
 42
0.108878
  0
VERTEX
  8
0
 10
406.928336
 20
45.435145
 42
0.071941
  0
VERTEX
  8
0
 10
406.065128
 20
44.392657
 42
0.059547
  0
VERTEX
  8
0
 10
405.464893
 20
43.080450
 42
0.049490
  0
VERTEX
  8
0
 10
405.113859
 20
41.442812
 42
0.028072
  0
VERTEX
  8
0
 10
405.000000
 20
39.416441
 42
0.075924
  0
VERTEX
  8
0
 10
405.638582
 20
35.235297
 42
0.165642
  0
VERTEX
  8
0
 10
407.529380
 20
32.649731
 42
0.233704
  0
VERTEX
  8
0
 10
410.099288
 20
32.256313
 42
0.139759
  0
VERTEX
  8
0
 10
412.732028
 20
34.000000
 42
-0.067298
  0
VERTEX
  8
0
 10
413.665519
 20
34.832551
 42
-0.053232
  0
VERTEX
  8
0
 10
414.861757
 20
35.466845
 42
-0.050051
  0
VERTEX
  8
0
 10
416.242432
 20
35.865603
 42
-0.045317
  0
VERTEX
  8
0
 10
417.722241
 20
36.000000
 42
-0.025412
  0
VERTEX
  8
0
 10
419.425778
 20
35.913363
 42
-0.116311
  0
VERTEX
  8
0
 10
420.355455
 20
35.591590
 42
-0.175964
  0
VERTEX
  8
0
 10
420.837118
 20
34.967949
 42
-0.077476
  0
VERTEX
  8
0
 10
421.000000
 20
33.923077
 42
-0.098717
  0
VERTEX
  8
0
 10
420.800893
 20
32.924429
 42
-0.033872
  0
VERTEX
  8
0
 10
420.141346
 20
31.597596
 42
-0.032112
  0
VERTEX
  8
0
 10
419.195556
 20
30.194862
 42
-0.032002
  0
VERTEX
  8
0
 10
418.076923
 20
28.923077
 42
-0.033660
  0
VERTEX
  8
0
 10
416.376037
 20
27.436984
 42
-0.069371
  0
VERTEX
  8
0
 10
414.839068
 20
26.572645
 42
-0.065820
  0
VERTEX
  8
0
 10
413.071836
 20
26.135831
 42
-0.027724
  0
VERTEX
  8
0
 10
410.623976
 20
26.000000
 42
-0.041416
  0
VERTEX
  8
0
 10
406.462841
 20
26.345266
 42
-0.079848
  0
VERTEX
  8
0
 10
403.302469
 20
27.409890
 42
-0.089565
  0
VERTEX
  8
0
 10
400.870435
 20
29.308879
 42
-0.064455
  0
VERTEX
  8
0
 10
398.919791
 20
32.157223
 42
-0.048294
  0
VERTEX
  8
0
 10
397.585631
 20
35.544337
 42
-0.064381
  0
VERTEX
  8
0
 10
397.091543
 20
38.810583
 42
-0.061419
  0
VERTEX
  8
0
 10
397.436728
 20
42.212042
 42
-0.039218
  0
VERTEX
  8
0
 10
398.621212
 20
46.011336
 42
-0.067438
  0
VERTEX
  8
0
 10
400.411411
 20
49.172469
 42
-0.096582
  0
VERTEX
  8
0
 10
402.808925
 20
51.310606
 42
-0.086797
  0
VERTEX
  8
0
 10
406.035180
 20
52.534372
 42
-0.045305
  0
VERTEX
  8
0
 10
410.326923
 20
52.959962
 42
-0.023911
  0
VERTEX
  8
0
 10
412.986212
 20
52.854816
 42
-0.067304
  0
VERTEX
  8
0
 10
414.798107
 20
52.446334
 42
-0.073989
  0
VERTEX
  8
0
 10
416.338111
 20
51.597308
 42
-0.033472
  0
SEQEND
  0
POLYLINE
  8
0
 66
1
 70
1
  0
VERTEX
  8
0
 10
443.671615
 20
51.295596
 42
-0.156256
  0
VERTEX
  8
0
 10
447.638477
 20
46.397660
 42
-0.098727
  0
VERTEX
  8
0
 10
448.921930
 20
39.093068
 42
-0.100596
  0
VERTEX
  8
0
 10
447.303700
 20
31.970488
 42
-0.168988
  0
VERTEX
  8
0
 10
443.128438
 20
27.566418
 42
-0.068169
  0
VERTEX
  8
0
 10
440.181340
 20
26.520200
 42
-0.040735
  0
VERTEX
  8
0
 10
436.484576
 20
26.061060
 42
-0.040425
  0
VERTEX
  8
0
 10
432.710121
 20
26.207065
 42
-0.061039
  0
VERTEX
  8
0
 10
429.519532
 20
26.992574
 42
-0.134367
  0
VERTEX
  8
0
 10
427.346065
 20
28.578794
 42
-0.046307
  0
VERTEX
  8
0
 10
425.192888
 20
31.860502
 42
-0.045799
  0
VERTEX
  8
0
 10
423.575499
 20
35.722751
 42
-0.074387
  0
VERTEX
  8
0
 10
423.021962
 20
39.229764
 42
-0.068643
  0
VERTEX
  8
0
 10
423.467508
 20
42.663733
 42
-0.044782
  0
VERTEX
  8
0
 10
424.860961
 20
46.415738
 42
-0.045608
  0
VERTEX
  8
0
 10
426.793424
 20
49.667111
 42
-0.111876
  0
VERTEX
  8
0
 10
428.871212
 20
51.491535
 42
-0.084553
  0
VERTEX
  8
0
 10
432.133534
 20
52.605429
 42
-0.043418
  0
VERTEX
  8
0
 10
436.454524
 20
52.923789
 42
-0.043527
  0
VERTEX
  8
0
 10
440.694206
 20
52.497388
 42
-0.098518
  0
SEQEND
  0
POLYLINE
  8
0
 66
1
 70
1
  0
VERTEX
  8
0
 10
472.532473
 20
51.599913
 42
0.035757
  0
VERTEX
  8
0
 10
473.642687
 20
50.904038
 42
0.122712
  0
VERTEX
  8
0
 10
474.462235
 20
50.699827
 42
0.119918
  0
VERTEX
  8
0
 10
475.292668
 20
50.901901
 42
0.033417
  0
VERTEX
  8
0
 10
476.446109
 20
51.599913
 42
-0.106327
  0
VERTEX
  8
0
 10
479.215779
 20
52.768152
 42
-0.061328
  0
VERTEX
  8
0
 10
482.841960
 20
53.003440
 42
-0.062434
  0
VERTEX
  8
0
 10
486.313494
 20
52.363067
 42
-0.132618
  0
VERTEX
  8
0
 10
488.595012
 20
50.898058
 42
-0.091464
  0
VERTEX
  8
0
 10
489.594558
 20
49.281807
 42
-0.051782
  0
VERTEX
  8
0
 10
490.206087
 20
47.054649
 42
-0.028085
  0
VERTEX
  8
0
 10
490.583158
 20
43.588061
 42
-0.005679
  0
VERTEX
  8
0
 10
490.836053
 20
37.398058
 42
0.000000
  0
VERTEX
  8
0
 10
491.172106
 20
26.000000
 42
0.000000
  0
VERTEX
  8
0
 10
487.122265
 20
26.000000
 42
0.000000
  0
VERTEX
  8
0
 10
483.072424
 20
26.000000
 42
0.000000
  0
VERTEX
  8
0
 10
482.786212
 20
35.643878
 42
0.006588
  0
VERTEX
  8
0
 10
482.566928
 20
40.758713
 42
0.032455
  0
VERTEX
  8
0
 10
482.218862
 20
43.623386
 42
0.062102
  0
VERTEX
  8
0
 10
481.662529
 20
45.361091
 42
0.144837
  0
VERTEX
  8
0
 10
480.768764
 20
46.376927
 42
0.058611
  0
VERTEX
  8
0
 10
479.838202
 20
46.820116
 42
0.125041
  0
VERTEX
  8
0
 10
479.049521
 20
46.882231
 42
0.112273
  0
VERTEX
  8
0
 10
478.271426
 20
46.558925
 42
0.042020
  0
VERTEX
  8
0
 10
477.363060
 20
45.791632
 42
0.106025
  0
VERTEX
  8
0
 10
476.530494
 20
44.504468
 42
0.054219
  0
VERTEX
  8
0
 10
476.043796
 20
42.633923
 42
0.031493
  0
VERTEX
  8
0
 10
475.805893
 20
39.782816
 42
0.007661
  0
VERTEX
  8
0
 10
475.782452
 20
35.058583
 42
0.000000
  0
VERTEX
  8
0
 10
475.876311
 20
26.000000
 42
0.000000
  0
VERTEX
  8
0
 10
471.938155
 20
26.000000
 42
0.000000
  0
VERTEX
  8
0
 10
468.000000
 20
26.000000
 42
0.000000
  0
VERTEX
  8
0
 10
468.000000
 20
35.377555
 42
0.015144
  0
VERTEX
  8
0
 10
467.791046
 20
42.274767
 42
0.103611
  0
VERTEX
  8
0
 10
466.898877
 20
45.535696
 42
0.264025
  0
VERTEX
  8
0
 10
465.178570
 20
46.665205
 42
0.123685
  0
VERTEX
  8
0
 10
462.470386
 20
46.168461
 42
0.092191
  0
VERTEX
  8
0
 10
461.062745
 20
45.181720
 42
0.137750
  0
VERTEX
  8
0
 10
460.344418
 20
43.872339
 42
0.052488
  0
VERTEX
  8
0
 10
460.054793
 20
41.531711
 42
0.004558
  0
VERTEX
  8
0
 10
460.000000
 20
35.521439
 42
0.000000
  0
VERTEX
  8
0
 10
460.000000
 20
26.000000
 42
0.000000
  0
VERTEX
  8
0
 10
456.000000
 20
26.000000
 42
0.000000
  0
VERTEX
  8
0
 10
452.000000
 20
26.000000
 42
0.000000
  0
VERTEX
  8
0
 10
452.000000
 20
39.049435
 42
0.000000
  0
VERTEX
  8
0
 10
452.000000
 20
52.098870
 42
0.000000
  0
VERTEX
  8
0
 10
456.988481
 20
51.871249
 42
0.013173
  0
VERTEX
  8
0
 10
458.948655
 20
51.833505
 42
0.018065
  0
VERTEX
  8
0
 10
460.710813
 20
51.909709
 42
0.014934
  0
VERTEX
  8
0
 10
462.143256
 20
52.066771
 42
0.163002
  0
VERTEX
  8
0
 10
462.655148
 20
52.321814
 42
-0.185185
  0
VERTEX
  8
0
 10
464.144420
 20
52.985412
 42
-0.031488
  0
VERTEX
  8
0
 10
467.308245
 20
52.953770
 42
-0.034278
  0
VERTEX
  8
0
 10
470.533147
 20
52.494422
 42
-0.105730
  0
SEQEND
  0
POLYLINE
  8
0
 66
1
 70
1
  0
VERTEX
  8
0
 10
1313.819190
 20
43.512523
 42
-0.004327
  0
VERTEX
  8
0
 10
1313.804597
 20
38.105451
 42
-0.060833
  0
VERTEX
  8
0
 10
1313.547830
 20
36.184348
 42
-0.207040
  0
VERTEX
  8
0
 10
1312.876675
 20
35.324369
 42
-0.125602
  0
VERTEX
  8
0
 10
1311.605787
 20
35.000000
 42
-0.105684
  0
VERTEX
  8
0
 10
1310.341800
 20
35.270183
 42
-0.214993
  0
VERTEX
  8
0
 10
1309.681189
 20
36.014203
 42
-0.072735
  0
VERTEX
  8
0
 10
1309.422618
 20
37.644062
 42
-0.005857
  0
VERTEX
  8
0
 10
1309.420844
 20
42.000088
 42
0.007189
  0
VERTEX
  8
0
 10
1309.408796
 20
45.924420
 42
0.054268
  0
VERTEX
  8
0
 10
1309.176324
 20
47.761468
 42
0.151359
  0
VERTEX
  8
0
 10
1308.647512
 20
48.654264
 42
0.186018
  0
VERTEX
  8
0
 10
1307.750000
 20
49.000088
 42
-0.152181
  0
VERTEX
  8
0
 10
1306.287046
 20
49.455830
 42
-0.366114
  0
VERTEX
  8
0
 10
1306.011196
 20
50.472923
 42
-0.176119
  0
VERTEX
  8
0
 10
1307.175843
 20
51.636788
 42
-0.083435
  0
VERTEX
  8
0
 10
1309.250000
 20
52.210640
 42
-0.009183
  0
VERTEX
  8
0
 10
1310.540955
 20
52.320721
 42
-0.011792
  0
VERTEX
  8
0
 10
1311.731622
 20
52.372090
 42
-0.009720
  0
VERTEX
  8
0
 10
1312.722643
 20
52.372183
 42
-0.093190
  0
VERTEX
  8
0
 10
1313.134246
 20
52.286521
 42
-0.277106
  0
VERTEX
  8
0
 10
1313.390089
 20
51.942265
 42
-0.005141
  0
VERTEX
  8
0
 10
1313.597075
 20
49.601300
 42
-0.011033
  0
VERTEX
  8
0
 10
1313.753980
 20
46.794442
 42
-0.006956
  0
SEQEND
  0
POLYLINE
  8
0
 66
1
 70
1
  0
VERTEX
  8
0
 10
1561.000000
 20
50.500000
 42
0.047488
  0
VERTEX
  8
0
 10
1561.125765
 20
49.178806
 42
0.171771
  0
VERTEX
  8
0
 10
1561.546482
 20
48.460806
 42
0.145246
  0
VERTEX
  8
0
 10
1562.375770
 20
48.098326
 42
0.030909
  0
VERTEX
  8
0
 10
1563.964816
 20
48.000000
 42
-0.107353
  0
VERTEX
  8
0
 10
1566.292574
 20
47.494390
 42
-0.152368
  0
VERTEX
  8
0
 10
1567.860285
 20
46.090903
 42
-0.102283
  0
VERTEX
  8
0
 10
1568.738911
 20
43.561686
 42
-0.032635
  0
VERTEX
  8
0
 10
1569.000000
 20
39.565741
 42
-0.013805
  0
VERTEX
  8
0
 10
1568.931102
 20
37.070797
 42
-0.087104
  0
VERTEX
  8
0
 10
1568.643489
 20
35.836793
 42
-0.183887
  0
VERTEX
  8
0
 10
1568.053038
 20
35.223552
 42
-0.110602
  0
VERTEX
  8
0
 10
1567.054791
 20
35.000000
 42
-0.119421
  0
VERTEX
  8
0
 10
1566.056694
 20
35.241835
 42
-0.164714
  0
VERTEX
  8
0
 10
1565.420276
 20
35.899646
 42
-0.080395
  0
VERTEX
  8
0
 10
1565.041318
 20
37.208010
 42
-0.014352
  0
VERTEX
  8
0
 10
1564.804791
 20
39.750000
 42
0.017066
  0
VERTEX
  8
0
 10
1564.584392
 20
41.986991
 42
0.057757
  0
VERTEX
  8
0
 10
1564.225111
 20
43.407535
 42
0.106667
  0
VERTEX
  8
0
 10
1563.704885
 20
44.209171
 42
0.198192
  0
VERTEX
  8
0
 10
1563.000000
 20
44.500000
 42
0.198192
  0
VERTEX
  8
0
 10
1562.295115
 20
44.209171
 42
0.106667
  0
VERTEX
  8
0
 10
1561.774889
 20
43.407535
 42
0.057757
  0
VERTEX
  8
0
 10
1561.415608
 20
41.986991
 42
0.017066
  0
VERTEX
  8
0
 10
1561.195209
 20
39.750000
 42
-0.014352
  0
VERTEX
  8
0
 10
1560.958682
 20
37.208010
 42
-0.080395
  0
VERTEX
  8
0
 10
1560.579724
 20
35.899646
 42
-0.164714
  0
VERTEX
  8
0
 10
1559.943306
 20
35.241835
 42
-0.119421
  0
VERTEX
  8
0
 10
1558.945209
 20
35.000000
 42
-0.182375
  0
VERTEX
  8
0
 10
1557.898194
 20
35.395039
 42
-0.160447
  0
VERTEX
  8
0
 10
1557.304034
 20
36.406688
 42
-0.048649
  0
VERTEX
  8
0
 10
1557.049763
 20
38.595733
 42
-0.004604
  0
VERTEX
  8
0
 10
1557.000000
 20
44.000000
 42
-0.004487
  0
VERTEX
  8
0
 10
1557.049067
 20
49.467166
 42
-0.050222
  0
VERTEX
  8
0
 10
1557.305556
 20
51.625000
 42
-0.168559
  0
VERTEX
  8
0
 10
1557.915397
 20
52.613791
 42
-0.172730
  0
VERTEX
  8
0
 10
1559.000000
 20
53.000000
 42
-0.075780
  0
VERTEX
  8
0
 10
1559.935258
 20
52.857434
 42
-0.149477
  0
VERTEX
  8
0
 10
1560.550000
 20
52.437500
 42
-0.124434
  0
VERTEX
  8
0
 10
1560.893532
 20
51.682766
 42
-0.044917
  0
SEQEND
  0
POLYLINE
  8
0
 66
1
 70
1
  0
VERTEX
  8
0
 10
1280.500000
 20
43.500000
 42
-0.005627
  0
VERTEX
  8
0
 10
1280.445800
 20
38.683742
 42
-0.056366
  0
VERTEX
  8
0
 10
1280.175030
 20
36.692017
 42
-0.161129
  0
VERTEX
  8
0
 10
1279.543631
 20
35.700944
 42
-0.136384
  0
VERTEX
  8
0
 10
1278.400756
 20
35.200205
 42
-0.150616
  0
VERTEX
  8
0
 10
1277.246274
 20
35.383121
 42
-0.223007
  0
VERTEX
  8
0
 10
1276.615733
 20
36.169517
 42
-0.058092
  0
VERTEX
  8
0
 10
1276.382780
 20
38.086044
 42
-0.004117
  0
VERTEX
  8
0
 10
1276.400756
 20
43.480065
 42
-0.004525
  0
VERTEX
  8
0
 10
1276.508870
 20
48.723521
 42
-0.054571
  0
VERTEX
  8
0
 10
1276.787513
 20
50.719609
 42
-0.198740
  0
VERTEX
  8
0
 10
1277.413334
 20
51.559978
 42
-0.170976
  0
VERTEX
  8
0
 10
1278.500000
 20
51.779861
 42
-0.150230
  0
VERTEX
  8
0
 10
1279.573883
 20
51.277891
 42
-0.150701
  0
VERTEX
  8
0
 10
1280.178754
 20
50.259969
 42
-0.053475
  0
VERTEX
  8
0
 10
1280.444900
 20
48.226791
 42
-0.005828
  0
SEQEND
  0
POLYLINE
  8
0
 66
1
 70
1
  0
VERTEX
  8
0
 10
1295.000000
 20
50.000000
 42
-0.128742
  0
VERTEX
  8
0
 10
1296.428516
 20
47.558128
 42
-0.059713
  0
VERTEX
  8
0
 10
1296.996124
 20
43.900684
 42
-0.058776
  0
VERTEX
  8
0
 10
1296.681445
 20
40.106013
 42
-0.103077
  0
VERTEX
  8
0
 10
1295.443296
 20
37.222506
 42
-0.070277
  0
VERTEX
  8
0
 10
1294.385378
 20
36.089948
 42
-0.093194
  0
VERTEX
  8
0
 10
1293.145874
 20
35.423572
 42
-0.061301
  0
VERTEX
  8
0
 10
1291.371827
 20
35.091602
 42
-0.015636
  0
VERTEX
  8
0
 10
1288.443296
 20
35.000000
 42
0.000000
  0
VERTEX
  8
0
 10
1283.000000
 20
35.000000
 42
0.000000
  0
VERTEX
  8
0
 10
1283.000000
 20
43.500000
 42
0.000000
  0
VERTEX
  8
0
 10
1283.000000
 20
52.000000
 42
0.000000
  0
VERTEX
  8
0
 10
1288.000000
 20
52.000000
 42
-0.021730
  0
VERTEX
  8
0
 10
1290.469613
 20
51.892618
 42
-0.047884
  0
VERTEX
  8
0
 10
1292.325000
 20
51.550000
 42
-0.060970
  0
VERTEX
  8
0
 10
1293.779383
 20
50.934945
 42
-0.065976
  0
SEQEND
  0
POLYLINE
  8
0
 66
1
 70
1
  0
VERTEX
  8
0
 10
1329.000000
 20
47.000000
 42
0.018830
  0
VERTEX
  8
0
 10
1329.072205
 20
45.083446
 42
0.030530
  0
VERTEX
  8
0
 10
1329.293750
 20
43.468750
 42
0.031449
  0
VERTEX
  8
0
 10
1329.610183
 20
42.280551
 42
0.322437
  0
VERTEX
  8
0
 10
1330.000000
 20
42.000000
 42
-0.148195
  0
VERTEX
  8
0
 10
1330.381354
 20
41.884432
 42
-0.098894
  0
VERTEX
  8
0
 10
1330.706250
 20
41.559375
 42
-0.082425
  0
VERTEX
  8
0
 10
1330.925306
 20
41.073457
 42
-0.064853
  0
VERTEX
  8
0
 10
1331.000000
 20
40.500000
 42
-0.064853
  0
VERTEX
  8
0
 10
1330.925306
 20
39.926543
 42
-0.082425
  0
VERTEX
  8
0
 10
1330.706250
 20
39.440625
 42
-0.098894
  0
VERTEX
  8
0
 10
1330.381354
 20
39.115568
 42
-0.148195
  0
VERTEX
  8
0
 10
1330.000000
 20
39.000000
 42
0.191087
  0
VERTEX
  8
0
 10
1329.618118
 20
38.848523
 42
0.088204
  0
VERTEX
  8
0
 10
1329.293750
 20
38.412500
 42
0.068025
  0
VERTEX
  8
0
 10
1329.073693
 20
37.765418
 42
0.048028
  0
VERTEX
  8
0
 10
1329.000000
 20
37.000000
 42
-0.072254
  0
VERTEX
  8
0
 10
1328.873159
 20
36.126841
 42
-0.124864
  0
VERTEX
  8
0
 10
1328.500000
 20
35.500000
 42
-0.124864
  0
VERTEX
  8
0
 10
1327.873159
 20
35.126841
 42
-0.072254
  0
VERTEX
  8
0
 10
1327.000000
 20
35.000000
 42
-0.072254
  0
VERTEX
  8
0
 10
1326.126841
 20
35.126841
 42
-0.124864
  0
VERTEX
  8
0
 10
1325.500000
 20
35.500000
 42
-0.124864
  0
VERTEX
  8
0
 10
1325.126841
 20
36.126841
 42
-0.072254
  0
VERTEX
  8
0
 10
1325.000000
 20
37.000000
 42
0.087745
  0
VERTEX
  8
0
 10
1324.822713
 20
38.002462
 42
0.177212
  0
VERTEX
  8
0
 10
1324.312500
 20
38.607143
 42
0.107690
  0
VERTEX
  8
0
 10
1323.324280
 20
38.917816
 42
0.022514
  0
VERTEX
  8
0
 10
1321.500000
 20
39.000000
 42
-0.028348
  0
VERTEX
  8
0
 10
1320.158977
 20
39.076091
 42
-0.044424
  0
VERTEX
  8
0
 10
1319.028125
 20
39.307861
 42
-0.055432
  0
VERTEX
  8
0
 10
1318.236108
 20
39.644302
 42
-0.270940
  0
VERTEX
  8
0
 10
1318.000000
 20
40.048037
 42
-0.115595
  0
VERTEX
  8
0
 10
1318.152984
 20
40.700919
 42
-0.008031
  0
VERTEX
  8
0
 10
1319.024476
 20
42.389727
 42
-0.011070
  0
VERTEX
  8
0
 10
1320.151683
 20
44.383330
 42
-0.008089
  0
VERTEX
  8
0
 10
1321.487579
 20
46.548037
 42
-0.017263
  0
VERTEX
  8
0
 10
1323.145290
 20
48.952395
 42
-0.037929
  0
VERTEX
  8
0
 10
1324.607030
 20
50.639454
 42
-0.051342
  0
VERTEX
  8
0
 10
1325.892693
 20
51.675760
 42
-0.144959
  0
VERTEX
  8
0
 10
1326.987579
 20
52.000000
 42
-0.108858
  0
VERTEX
  8
0
 10
1328.042479
 20
51.767577
 42
-0.190875
  0
VERTEX
  8
0
 10
1328.649379
 20
51.128858
 42
-0.084347
  0
VERTEX
  8
0
 10
1328.935137
 20
49.816209
 42
-0.011515
  0
SEQEND
  0
POLYLINE
  8
0
 66
1
 70
1
  0
VERTEX
  8
0
 10
1342.800000
 20
50.800000
 42
-0.131796
  0
VERTEX
  8
0
 10
1343.758061
 20
49.139507
 42
-0.103522
  0
VERTEX
  8
0
 10
1343.872585
 20
47.056559
 42
-0.078750
  0
VERTEX
  8
0
 10
1343.096481
 20
44.621633
 42
-0.042962
  0
VERTEX
  8
0
 10
1341.449062
 20
41.944280
 42
0.000000
  0
VERTEX
  8
0
 10
1338.898124
 20
38.500000
 42
0.000000
  0
VERTEX
  8
0
 10
1341.949062
 20
38.186642
 42
-0.038133
  0
VERTEX
  8
0
 10
1343.194938
 20
37.961758
 42
-0.066590
  0
VERTEX
  8
0
 10
1344.164555
 20
37.565692
 42
-0.090943
  0
VERTEX
  8
0
 10
1344.783311
 20
37.042228
 42
-0.173522
  0
VERTEX
  8
0
 10
1345.000000
 20
36.436642
 42
-0.379408
  0
VERTEX
  8
0
 10
1343.948363
 20
35.250249
 42
-0.026274
  0
VERTEX
  8
0
 10
1339.112821
 20
34.922178
 42
-0.026198
  0
VERTEX
  8
0
 10
1334.199197
 20
35.104947
 42
-0.293628
  0
VERTEX
  8
0
 10
1332.726138
 20
36.250000
 42
-0.201585
  0
VERTEX
  8
0
 10
1332.768828
 20
36.972630
 42
-0.025218
  0
VERTEX
  8
0
 10
1333.548066
 20
38.374687
 42
-0.026461
  0
VERTEX
  8
0
 10
1334.697553
 20
40.017226
 42
-0.019025
  0
VERTEX
  8
0
 10
1336.142805
 20
41.727657
 42
0.016520
  0
VERTEX
  8
0
 10
1337.619707
 20
43.457892
 42
0.020669
  0
VERTEX
  8
0
 10
1338.866949
 20
45.160628
 42
0.019362
  0
VERTEX
  8
0
 10
1339.781418
 20
46.644989
 42
0.129068
  0
VERTEX
  8
0
 10
1340.000000
 20
47.477657
 42
0.205714
  0
VERTEX
  8
0
 10
1339.550600
 20
48.523725
 42
0.190537
  0
VERTEX
  8
0
 10
1338.463043
 20
48.961519
 42
0.155665
  0
VERTEX
  8
0
 10
1337.192874
 20
48.564835
 42
0.149302
  0
VERTEX
  8
0
 10
1336.361626
 20
47.500000
 42
-0.176607
  0
VERTEX
  8
0
 10
1335.444702
 20
46.446119
 42
-0.122811
  0
VERTEX
  8
0
 10
1333.905804
 20
46.035465
 42
-0.148288
  0
VERTEX
  8
0
 10
1332.548257
 20
46.422977
 42
-0.254892
  0
VERTEX
  8
0
 10
1332.000000
 20
47.428571
 42
-0.219880
  0
VERTEX
  8
0
 10
1333.138712
 20
49.892774
 42
-0.100958
  0
VERTEX
  8
0
 10
1336.307744
 20
51.639767
 42
-0.095509
  0
VERTEX
  8
0
 10
1340.060744
 20
52.062413
 42
-0.178640
  0
SEQEND
  0
POLYLINE
  8
0
 66
1
 70
1
  0
VERTEX
  8
0
 10
1356.428571
 20
50.428571
 42
-0.153852
  0
VERTEX
  8
0
 10
1357.538887
 20
48.296313
 42
-0.033778
  0
VERTEX
  8
0
 10
1357.986586
 20
44.137907
 42
-0.035577
  0
VERTEX
  8
0
 10
1357.851276
 20
39.831058
 42
-0.097524
  0
VERTEX
  8
0
 10
1356.964816
 20
36.934259
 42
-0.089342
  0
VERTEX
  8
0
 10
1356.254644
 20
36.037142
 42
-0.088095
  0
VERTEX
  8
0
 10
1355.272837
 20
35.438913
 42
-0.065737
  0
VERTEX
  8
0
 10
1353.904968
 20
35.103858
 42
-0.027240
  0
VERTEX
  8
0
 10
1352.000000
 20
35.000000
 42
-0.074216
  0
VERTEX
  8
0
 10
1349.007649
 20
35.446623
 42
-0.171493
  0
VERTEX
  8
0
 10
1347.203943
 20
36.778390
 42
-0.120640
  0
VERTEX
  8
0
 10
1346.261101
 20
39.321831
 42
-0.028726
  0
VERTEX
  8
0
 10
1346.000000
 20
43.862830
 42
-0.044332
  0
VERTEX
  8
0
 10
1346.333737
 20
47.619474
 42
-0.115040
  0
VERTEX
  8
0
 10
1347.400941
 20
50.100051
 42
-0.145717
  0
VERTEX
  8
0
 10
1349.267703
 20
51.507541
 42
-0.089398
  0
VERTEX
  8
0
 10
1352.000000
 20
52.000000
 42
-0.047729
  0
VERTEX
  8
0
 10
1353.209229
 20
51.884306
 42
-0.037570
  0
VERTEX
  8
0
 10
1354.479464
 20
51.538393
 42
-0.038733
  0
VERTEX
  8
0
 10
1355.620412
 20
51.031056
 42
-0.072518
  0
SEQEND
  0
POLYLINE
  8
0
 66
1
 70
1
  0
VERTEX
  8
0
 10
1370.604792
 20
49.480412
 42
-0.110872
  0
VERTEX
  8
0
 10
1371.617599
 20
46.783091
 42
-0.046253
  0
VERTEX
  8
0
 10
1371.796968
 20
42.879217
 42
-0.046240
  0
VERTEX
  8
0
 10
1371.258132
 20
39.026045
 42
-0.115856
  0
VERTEX
  8
0
 10
1370.000454
 20
36.500547
 42
-0.156607
  0
VERTEX
  8
0
 10
1368.264682
 20
35.394372
 42
-0.060323
  0
VERTEX
  8
0
 10
1365.400471
 20
35.001861
 42
-0.067167
  0
VERTEX
  8
0
 10
1362.826455
 20
35.308167
 42
-0.342028
  0
VERTEX
  8
0
 10
1362.000000
 20
36.375000
 42
-0.183021
  0
VERTEX
  8
0
 10
1362.216014
 20
36.945366
 42
-0.066225
  0
VERTEX
  8
0
 10
1362.881250
 20
37.522344
 42
-0.054647
  0
VERTEX
  8
0
 10
1363.851844
 20
38.019073
 42
-0.041636
  0
VERTEX
  8
0
 10
1365.000000
 20
38.350000
 42
0.041983
  0
VERTEX
  8
0
 10
1366.148135
 20
38.681782
 42
0.054959
  0
VERTEX
  8
0
 10
1367.118750
 20
39.180984
 42
0.066589
  0
VERTEX
  8
0
 10
1367.783679
 20
39.761615
 42
0.181968
  0
VERTEX
  8
0
 10
1368.000000
 20
40.336328
 42
0.144443
  0
VERTEX
  8
0
 10
1367.830995
 20
40.909143
 42
0.163838
  0
VERTEX
  8
0
 10
1367.384512
 20
41.264474
 42
0.100029
  0
VERTEX
  8
0
 10
1366.616018
 20
41.379062
 42
0.034390
  0
VERTEX
  8
0
 10
1365.494254
 20
41.243652
 42
-0.095878
  0
VERTEX
  8
0
 10
1363.232097
 20
41.248830
 42
-0.141531
  0
VERTEX
  8
0
 10
1361.477226
 20
42.150547
 42
-0.129924
  0
VERTEX
  8
0
 10
1360.375664
 20
43.921126
 42
-0.074674
  0
VERTEX
  8
0
 10
1360.000000
 20
46.422445
 42
-0.061106
  0
VERTEX
  8
0
 10
1360.318969
 20
49.022674
 42
-0.138401
  0
VERTEX
  8
0
 10
1361.293923
 20
50.728731
 42
-0.136412
  0
VERTEX
  8
0
 10
1363.028008
 20
51.688296
 42
-0.058633
  0
VERTEX
  8
0
 10
1365.676947
 20
52.000000
 42
-0.043002
  0
VERTEX
  8
0
 10
1367.306059
 20
51.859629
 42
-0.075327
  0
VERTEX
  8
0
 10
1368.587219
 20
51.431831
 42
-0.078664
  0
VERTEX
  8
0
 10
1369.647152
 20
50.659589
 42
-0.051070
  0
SEQEND
  0
POLYLINE
  8
0
 66
1
 70
1
  0
VERTEX
  8
0
 10
1384.000000
 20
50.566422
 42
-0.165703
  0
VERTEX
  8
0
 10
1383.802268
 20
49.986157
 42
-0.083761
  0
VERTEX
  8
0
 10
1383.228699
 20
49.455217
 42
-0.067018
  0
VERTEX
  8
0
 10
1382.367219
 20
49.043473
 42
-0.048584
  0
VERTEX
  8
0
 10
1381.327119
 20
48.816422
 42
0.036863
  0
VERTEX
  8
0
 10
1380.277180
 20
48.612836
 42
0.044015
  0
VERTEX
  8
0
 10
1379.331663
 20
48.264271
 42
0.049597
  0
VERTEX
  8
0
 10
1378.613079
 20
47.833260
 42
0.154887
  0
VERTEX
  8
0
 10
1378.287484
 20
47.381095
 42
0.202173
  0
VERTEX
  8
0
 10
1378.321892
 20
46.963570
 42
0.191306
  0
VERTEX
  8
0
 10
1378.645933
 20
46.684167
 42
0.096606
  0
VERTEX
  8
0
 10
1379.298454
 20
46.591612
 42
0.034306
  0
VERTEX
  8
0
 10
1380.238295
 20
46.705221
 42
-0.131561
  0
VERTEX
  8
0
 10
1382.119460
 20
46.568151
 42
-0.096881
  0
VERTEX
  8
0
 10
1383.933085
 20
45.511563
 42
-0.086929
  0
VERTEX
  8
0
 10
1385.370228
 20
43.722330
 42
-0.080075
  0
VERTEX
  8
0
 10
1386.165032
 20
41.500000
 42
-0.199917
  0
VERTEX
  8
0
 10
1385.478664
 20
38.295039
 42
-0.133214
  0
VERTEX
  8
0
 10
1382.568538
 20
35.842259
 42
-0.127578
  0
VERTEX
  8
0
 10
1378.715108
 20
35.134400
 42
-0.180235
  0
VERTEX
  8
0
 10
1375.571429
 20
36.571429
 42
-0.155315
  0
VERTEX
  8
0
 10
1374.320400
 20
38.990770
 42
-0.043829
  0
VERTEX
  8
0
 10
1373.970726
 20
43.273941
 42
-0.044130
  0
VERTEX
  8
0
 10
1374.379151
 20
47.590034
 42
-0.139141
  0
VERTEX
  8
0
 10
1375.654988
 20
50.171259
 42
-0.129877
  0
VERTEX
  8
0
 10
1377.651412
 20
51.470496
 42
-0.067929
  0
VERTEX
  8
0
 10
1380.588174
 20
52.013906
 42
-0.081066
  0
VERTEX
  8
0
 10
1383.126400
 20
51.722102
 42
-0.335433
  0
SEQEND
  0
POLYLINE
  8
0
 66
1
 70
1
  0
VERTEX
  8
0
 10
1399.000000
 20
50.500000
 42
-0.136104
  0
VERTEX
  8
0
 10
1398.742567
 20
49.571794
 42
-0.181028
  0
VERTEX
  8
0
 10
1398.062853
 20
49.031595
 42
-0.083494
  0
VERTEX
  8
0
 10
1396.736793
 20
48.835587
 42
-0.015245
  0
VERTEX
  8
0
 10
1394.250000
 20
48.960875
 42
0.064766
  0
VERTEX
  8
0
 10
1392.455518
 20
48.873729
 42
0.474716
  0
VERTEX
  8
0
 10
1392.093179
 20
48.220581
 42
0.194075
  0
VERTEX
  8
0
 10
1392.972464
 20
47.301602
 42
0.034457
  0
VERTEX
  8
0
 10
1395.250000
 20
46.456797
 42
-0.036936
  0
VERTEX
  8
0
 10
1396.886580
 20
45.840506
 42
-0.096572
  0
VERTEX
  8
0
 10
1397.900006
 20
45.106968
 42
-0.107423
  0
VERTEX
  8
0
 10
1398.501555
 20
44.098152
 42
-0.052517
  0
VERTEX
  8
0
 10
1398.828082
 20
42.629171
 42
-0.024602
  0
VERTEX
  8
0
 10
1398.910407
 20
41.356436
 42
-0.016652
  0
VERTEX
  8
0
 10
1398.884382
 20
39.902766
 42
-0.016804
  0
VERTEX
  8
0
 10
1398.764826
 20
38.496417
 42
-0.031884
  0
VERTEX
  8
0
 10
1398.559030
 20
37.379171
 42
-0.065089
  0
VERTEX
  8
0
 10
1398.074561
 20
36.151626
 42
-0.142738
  0
VERTEX
  8
0
 10
1397.363992
 20
35.446796
 42
-0.101261
  0
VERTEX
  8
0
 10
1396.212366
 20
35.095663
 42
-0.023533
  0
VERTEX
  8
0
 10
1394.180948
 20
35.000000
 42
-0.046559
  0
VERTEX
  8
0
 10
1391.590935
 20
35.241701
 42
-0.088555
  0
VERTEX
  8
0
 10
1389.640456
 20
35.981999
 42
-0.119484
  0
VERTEX
  8
0
 10
1388.437777
 20
37.165214
 42
-0.139830
  0
VERTEX
  8
0
 10
1388.000000
 20
38.700000
 42
-0.151750
  0
VERTEX
  8
0
 10
1388.154016
 20
39.195780
 42
-0.098319
  0
VERTEX
  8
0
 10
1388.587500
 20
39.618125
 42
-0.081200
  0
VERTEX
  8
0
 10
1389.235312
 20
39.903025
 42
-0.063155
  0
VERTEX
  8
0
 10
1390.000000
 20
40.000000
 42
-0.048028
  0
VERTEX
  8
0
 10
1390.765418
 20
39.926307
 42
-0.068025
  0
VERTEX
  8
0
 10
1391.412500
 20
39.706250
 42
-0.088204
  0
VERTEX
  8
0
 10
1391.848523
 20
39.381882
 42
-0.191087
  0
VERTEX
  8
0
 10
1392.000000
 20
39.000000
 42
0.154309
  0
VERTEX
  8
0
 10
1392.120573
 20
38.618617
 42
0.097864
  0
VERTEX
  8
0
 10
1392.460137
 20
38.293750
 42
0.080320
  0
VERTEX
  8
0
 10
1392.967466
 20
38.074527
 42
0.061975
  0
VERTEX
  8
0
 10
1393.566422
 20
38.000000
 42
0.122711
  0
VERTEX
  8
0
 10
1394.257497
 20
38.172197
 42
0.165427
  0
VERTEX
  8
0
 10
1394.695753
 20
38.638397
 42
0.103603
  0
VERTEX
  8
0
 10
1394.881185
 20
39.467019
 42
0.032073
  0
VERTEX
  8
0
 10
1394.816422
 20
40.750000
 42
0.041097
  0
VERTEX
  8
0
 10
1394.472749
 20
42.474536
 42
0.233320
  0
VERTEX
  8
0
 10
1393.861507
 20
43.147605
 42
0.152781
  0
VERTEX
  8
0
 10
1392.770016
 20
43.226158
 42
0.015793
  0
VERTEX
  8
0
 10
1390.250000
 20
42.547795
 42
-0.038364
  0
VERTEX
  8
0
 10
1389.005326
 20
42.272271
 42
-0.229753
  0
VERTEX
  8
0
 10
1388.390802
 20
42.469465
 42
-0.181971
  0
VERTEX
  8
0
 10
1388.079282
 20
43.116645
 42
-0.023369
  0
VERTEX
  8
0
 10
1388.013655
 20
44.682612
 42
-0.026465
  0
VERTEX
  8
0
 10
1388.248520
 20
48.743964
 42
-0.147166
  0
VERTEX
  8
0
 10
1389.095382
 20
50.730794
 42
-0.178029
  0
VERTEX
  8
0
 10
1390.803381
 20
51.716174
 42
-0.042754
  0
VERTEX
  8
0
 10
1394.116631
 20
52.000000
 42
-0.014606
  0
VERTEX
  8
0
 10
1396.510171
 20
51.930063
 42
-0.059971
  0
VERTEX
  8
0
 10
1397.936105
 20
51.673209
 42
-0.123714
  0
VERTEX
  8
0
 10
1398.710103
 20
51.204826
 42
-0.197620
  0
SEQEND
  0
POLYLINE
  8
0
 66
1
 70
1
  0
VERTEX
  8
0
 10
1412.416662
 20
48.772225
 42
-0.059085
  0
VERTEX
  8
0
 10
1412.775459
 20
47.155103
 42
-0.106868
  0
VERTEX
  8
0
 10
1412.623723
 20
45.813545
 42
-0.071982
  0
VERTEX
  8
0
 10
1411.865864
 20
44.318893
 42
-0.015991
  0
VERTEX
  8
0
 10
1410.138102
 20
42.022225
 42
0.000000
  0
VERTEX
  8
0
 10
1406.905754
 20
38.000000
 42
0.000000
  0
VERTEX
  8
0
 10
1409.952877
 20
38.000000
 42
-0.030837
  0
VERTEX
  8
0
 10
1411.403670
 20
37.910438
 42
-0.099766
  0
VERTEX
  8
0
 10
1412.314846
 20
37.606272
 42
-0.152900
  0
VERTEX
  8
0
 10
1412.818738
 20
37.061340
 42
-0.110900
  0
VERTEX
  8
0
 10
1413.001822
 20
36.250000
 42
-0.163225
  0
VERTEX
  8
0
 10
1412.706052
 20
35.365060
 42
-0.175171
  0
VERTEX
  8
0
 10
1411.944521
 20
34.868496
 42
-0.063635
  0
VERTEX
  8
0
 10
1410.372741
 20
34.704599
 42
-0.008299
  0
VERTEX
  8
0
 10
1407.001822
 20
34.838821
 42
-0.016329
  0
VERTEX
  8
0
 10
1404.698130
 20
35.044504
 42
-0.026404
  0
VERTEX
  8
0
 10
1402.760614
 20
35.386073
 42
-0.024503
  0
VERTEX
  8
0
 10
1401.308102
 20
35.797923
 42
-0.321846
  0
VERTEX
  8
0
 10
1401.000000
 20
36.226990
 42
-0.148701
  0
VERTEX
  8
0
 10
1401.187443
 20
36.843319
 42
-0.012016
  0
VERTEX
  8
0
 10
1402.175000
 20
38.242817
 42
-0.015361
  0
VERTEX
  8
0
 10
1403.467842
 20
39.877159
 42
-0.011184
  0
VERTEX
  8
0
 10
1405.000000
 20
41.615826
 42
0.010278
  0
VERTEX
  8
0
 10
1406.532268
 20
43.348279
 42
0.014337
  0
VERTEX
  8
0
 10
1407.825000
 20
44.963566
 42
0.010679
  0
VERTEX
  8
0
 10
1408.821408
 20
46.344906
 42
0.152042
  0
VERTEX
  8
0
 10
1409.000000
 20
46.918640
 42
0.164552
  0
VERTEX
  8
0
 10
1408.631614
 20
48.007689
 42
0.179997
  0
VERTEX
  8
0
 10
1407.690629
 20
48.600596
 42
0.158945
  0
VERTEX
  8
0
 10
1406.493949
 20
48.469419
 42
0.129464
  0
VERTEX
  8
0
 10
1405.488054
 20
47.652775
 42
-0.100364
  0
VERTEX
  8
0
 10
1404.165223
 20
46.446447
 42
-0.144009
  0
VERTEX
  8
0
 10
1402.638897
 20
46.051409
 42
-0.200539
  0
VERTEX
  8
0
 10
1401.476682
 20
46.582484
 42
-0.188783
  0
VERTEX
  8
0
 10
1401.000000
 20
47.800000
 42
-0.114041
  0
VERTEX
  8
0
 10
1401.436569
 20
49.689196
 42
-0.141905
  0
VERTEX
  8
0
 10
1402.641800
 20
51.019448
 42
-0.108103
  0
VERTEX
  8
0
 10
1404.661481
 20
51.727916
 42
-0.049040
  0
VERTEX
  8
0
 10
1407.476938
 20
51.795502
 42
-0.025547
  0
VERTEX
  8
0
 10
1409.619325
 20
51.526118
 42
-0.093535
  0
VERTEX
  8
0
 10
1410.892926
 20
51.042810
 42
-0.118302
  0
VERTEX
  8
0
 10
1411.739870
 20
50.196995
 42
-0.053598
  0
SEQEND
  0
POLYLINE
  8
0
 66
1
 70
1
  0
VERTEX
  8
0
 10
1426.361626
 20
50.500000
 42
-0.133279
  0
VERTEX
  8
0
 10
1425.937544
 20
49.920073
 42
-0.063760
  0
VERTEX
  8
0
 10
1425.143157
 20
49.436252
 42
-0.055896
  0
VERTEX
  8
0
 10
1424.118074
 20
49.110121
 42
-0.049127
  0
VERTEX
  8
0
 10
1423.000000
 20
49.000000
 42
0.049078
  0
VERTEX
  8
0
 10
1421.877051
 20
48.889510
 42
0.056581
  0
VERTEX
  8
0
 10
1420.852457
 20
48.562213
 42
0.064726
  0
VERTEX
  8
0
 10
1420.060121
 20
48.074782
 42
0.131655
  0
VERTEX
  8
0
 10
1419.633628
 20
47.487634
 42
0.069430
  0
VERTEX
  8
0
 10
1419.468978
 20
46.777295
 42
0.301769
  0
VERTEX
  8
0
 10
1419.664932
 20
46.416056
 42
0.162327
  0
VERTEX
  8
0
 10
1420.220439
 20
46.323120
 42
0.022459
  0
VERTEX
  8
0
 10
1421.382883
 20
46.559962
 42
-0.186328
  0
VERTEX
  8
0
 10
1424.233297
 20
46.208955
 42
-0.160243
  0
VERTEX
  8
0
 10
1426.329873
 20
44.012145
 42
-0.127931
  0
VERTEX
  8
0
 10
1426.995736
 20
40.545999
 42
-0.107084
  0
VERTEX
  8
0
 10
1425.964816
 20
36.934259
 42
-0.224417
  0
VERTEX
  8
0
 10
1423.668101
 20
35.231809
 42
-0.097522
  0
VERTEX
  8
0
 10
1419.775747
 20
35.224291
 42
-0.101020
  0
VERTEX
  8
0
 10
1416.267649
 20
36.682145
 42
-0.248850
  0
VERTEX
  8
0
 10
1415.000000
 20
39.071429
 42
-0.318314
  0
VERTEX
  8
0
 10
1415.491640
 20
39.765438
 42
-0.094578
  0
VERTEX
  8
0
 10
1416.851085
 20
39.970217
 42
-0.074822
  0
VERTEX
  8
0
 10
1418.487487
 20
39.658132
 42
-0.112365
  0
VERTEX
  8
0
 10
1419.712868
 20
38.887132
 42
0.146505
  0
VERTEX
  8
0
 10
1420.799980
 20
38.301038
 42
0.193461
  0
VERTEX
  8
0
 10
1421.896897
 20
38.499148
 42
0.157526
  0
VERTEX
  8
0
 10
1422.711413
 20
39.471231
 42
0.096535
  0
VERTEX
  8
0
 10
1423.000000
 20
40.952028
 42
0.130323
  0
VERTEX
  8
0
 10
1422.635053
 20
42.328413
 42
0.151965
  0
VERTEX
  8
0
 10
1421.649511
 20
43.248022
 42
0.161614
  0
VERTEX
  8
0
 10
1420.365238
 20
43.414259
 42
0.149516
  0
VERTEX
  8
0
 10
1419.189072
 20
42.789072
 42
-0.149228
  0
VERTEX
  8
0
 10
1417.723094
 20
42.008777
 42
-0.290926
  0
VERTEX
  8
0
 10
1416.537417
 20
42.473251
 42
-0.137388
  0
VERTEX
  8
0
 10
1415.842585
 20
44.329671
 42
-0.041134
  0
VERTEX
  8
0
 10
1415.833875
 20
47.379135
 42
0.000000
  0
VERTEX
  8
0
 10
1416.201387
 20
52.000000
 42
0.000000
  0
VERTEX
  8
0
 10
1421.569309
 20
52.000000
 42
-0.009749
  0
VERTEX
  8
0
 10
1424.400093
 20
51.944798
 42
-0.066183
  0
VERTEX
  8
0
 10
1425.776056
 20
51.706948
 42
-0.206686
  0
VERTEX
  8
0
 10
1426.330313
 20
51.229611
 42
-0.207556
  0
SEQEND
  0
POLYLINE
  8
0
 66
1
 70
1
  0
VERTEX
  8
0
 10
1447.985656
 20
51.007677
 42
-0.135660
  0
VERTEX
  8
0
 10
1449.852356
 20
49.229662
 42
-0.069833
  0
VERTEX
  8
0
 10
1451.120871
 20
46.234465
 42
-0.067105
  0
VERTEX
  8
0
 10
1451.553985
 20
42.846916
 42
-0.096764
  0
VERTEX
  8
0
 10
1450.956107
 20
39.894033
 42
-0.172701
  0
VERTEX
  8
0
 10
1447.019684
 20
35.537019
 42
-0.184195
  0
VERTEX
  8
0
 10
1441.335104
 20
34.795377
 42
-0.179062
  0
VERTEX
  8
0
 10
1436.483549
 20
38.036339
 42
-0.165441
  0
VERTEX
  8
0
 10
1434.710666
 20
43.776265
 42
-0.132609
  0
VERTEX
  8
0
 10
1435.975273
 20
47.983050
 42
-0.129798
  0
VERTEX
  8
0
 10
1439.192792
 20
51.022507
 42
-0.126418
  0
VERTEX
  8
0
 10
1443.564585
 20
52.126217
 42
-0.122403
  0
SEQEND
  0
POLYLINE
  8
0
 66
1
 70
1
  0
VERTEX
  8
0
 10
1471.964816
 20
50.065741
 42
-0.094835
  0
VERTEX
  8
0
 10
1473.052440
 20
46.578081
 42
-0.164029
  0
VERTEX
  8
0
 10
1472.419967
 20
43.639203
 42
-0.164577
  0
VERTEX
  8
0
 10
1470.139914
 20
41.689606
 42
-0.095589
  0
VERTEX
  8
0
 10
1466.565741
 20
41.000000
 42
0.044775
  0
VERTEX
  8
0
 10
1465.194125
 20
40.876925
 42
0.172760
  0
VERTEX
  8
0
 10
1464.463812
 20
40.457687
 42
0.147827
  0
VERTEX
  8
0
 10
1464.098018
 20
39.625203
 42
0.030128
  0
VERTEX
  8
0
 10
1464.000000
 20
38.000000
 42
-0.030703
  0
VERTEX
  8
0
 10
1463.907747
 20
36.499083
 42
-0.116834
  0
VERTEX
  8
0
 10
1463.583333
 20
35.625000
 42
-0.166173
  0
VERTEX
  8
0
 10
1462.975317
 20
35.159458
 42
-0.081208
  0
VERTEX
  8
0
 10
1462.000000
 20
35.000000
 42
-0.165398
  0
VERTEX
  8
0
 10
1460.918496
 20
35.367819
 42
-0.172700
  0
VERTEX
  8
0
 10
1460.308824
 20
36.312500
 42
-0.052938
  0
VERTEX
  8
0
 10
1460.050150
 20
38.365904
 42
-0.004884
  0
VERTEX
  8
0
 10
1460.000000
 20
43.500000
 42
0.000000
  0
VERTEX
  8
0
 10
1460.000000
 20
52.000000
 42
0.000000
  0
VERTEX
  8
0
 10
1465.464816
 20
52.000000
 42
-0.014551
  0
VERTEX
  8
0
 10
1468.321050
 20
51.916862
 42
-0.057823
  0
VERTEX
  8
0
 10
1470.046015
 20
51.614156
 42
-0.097098
  0
VERTEX
  8
0
 10
1471.167290
 20
51.026378
 42
-0.101089
  0
SEQEND
  0
POLYLINE
  8
0
 66
1
 70
1
  0
VERTEX
  8
0
 10
1492.000000
 20
49.500000
 42
0.064853
  0
VERTEX
  8
0
 10
1492.074694
 20
48.926543
 42
0.082425
  0
VERTEX
  8
0
 10
1492.293750
 20
48.440625
 42
0.098894
  0
VERTEX
  8
0
 10
1492.618646
 20
48.115568
 42
0.148195
  0
VERTEX
  8
0
 10
1493.000000
 20
48.000000
 42
-0.148195
  0
VERTEX
  8
0
 10
1493.381354
 20
47.884432
 42
-0.098894
  0
VERTEX
  8
0
 10
1493.706250
 20
47.559375
 42
-0.082425
  0
VERTEX
  8
0
 10
1493.925306
 20
47.073457
 42
-0.064853
  0
VERTEX
  8
0
 10
1494.000000
 20
46.500000
 42
-0.064853
  0
VERTEX
  8
0
 10
1493.925306
 20
45.926543
 42
-0.082425
  0
VERTEX
  8
0
 10
1493.706250
 20
45.440625
 42
-0.098894
  0
VERTEX
  8
0
 10
1493.381354
 20
45.115568
 42
-0.148195
  0
VERTEX
  8
0
 10
1493.000000
 20
45.000000
 42
0.277684
  0
VERTEX
  8
0
 10
1492.614308
 20
44.767902
 42
0.052312
  0
VERTEX
  8
0
 10
1492.293750
 20
43.971875
 42
0.042582
  0
VERTEX
  8
0
 10
1492.072542
 20
42.841111
 42
0.027026
  0
VERTEX
  8
0
 10
1492.000000
 20
41.500000
 42
0.027026
  0
VERTEX
  8
0
 10
1492.072542
 20
40.158889
 42
0.042582
  0
VERTEX
  8
0
 10
1492.293750
 20
39.028125
 42
0.052312
  0
VERTEX
  8
0
 10
1492.614308
 20
38.232098
 42
0.277684
  0
VERTEX
  8
0
 10
1493.000000
 20
38.000000
 42
-0.154309
  0
VERTEX
  8
0
 10
1493.381383
 20
37.879427
 42
-0.097864
  0
VERTEX
  8
0
 10
1493.706250
 20
37.539863
 42
-0.080320
  0
VERTEX
  8
0
 10
1493.925473
 20
37.032534
 42
-0.061975
  0
VERTEX
  8
0
 10
1494.000000
 20
36.433578
 42
-0.122711
  0
VERTEX
  8
0
 10
1493.827803
 20
35.742503
 42
-0.165427
  0
VERTEX
  8
0
 10
1493.361603
 20
35.304247
 42
-0.103603
  0
VERTEX
  8
0
 10
1492.532981
 20
35.118815
 42
-0.032073
  0
VERTEX
  8
0
 10
1491.250000
 20
35.183578
 42
-0.057241
  0
VERTEX
  8
0
 10
1489.706623
 20
35.543184
 42
-0.166348
  0
VERTEX
  8
0
 10
1488.861692
 20
36.216652
 42
-0.101712
  0
VERTEX
  8
0
 10
1488.373805
 20
37.491748
 42
-0.014594
  0
VERTEX
  8
0
 10
1488.000000
 20
40.274540
 42
0.018718
  0
VERTEX
  8
0
 10
1487.738344
 20
42.107744
 42
0.029022
  0
VERTEX
  8
0
 10
1487.362824
 20
43.660851
 42
0.028466
  0
VERTEX
  8
0
 10
1486.937875
 20
44.817183
 42
0.285236
  0
VERTEX
  8
0
 10
1486.533019
 20
45.097734
 42
0.286171
  0
VERTEX
  8
0
 10
1486.054427
 20
44.831804
 42
0.013899
  0
VERTEX
  8
0
 10
1485.179928
 20
43.145412
 42
0.019088
  0
VERTEX
  8
0
 10
1484.228950
 20
40.971808
 42
0.012228
  0
VERTEX
  8
0
 10
1483.284640
 20
38.383212
 42
-0.014540
  0
VERTEX
  8
0
 10
1481.642778
 20
33.946277
 42
-0.069989
  0
VERTEX
  8
0
 10
1480.300448
 20
31.619404
 42
-0.125518
  0
VERTEX
  8
0
 10
1478.781488
 20
30.445221
 42
-0.100231
  0
VERTEX
  8
0
 10
1476.750000
 20
30.015313
 42
-0.133282
  0
VERTEX
  8
0
 10
1475.549860
 20
30.329764
 42
-0.261844
  0
VERTEX
  8
0
 10
1475.060199
 20
31.151567
 42
-0.173546
  0
VERTEX
  8
0
 10
1475.443083
 20
32.312764
 42
-0.069423
  0
VERTEX
  8
0
 10
1476.662418
 20
33.495104
 42
0.078745
  0
VERTEX
  8
0
 10
1477.526128
 20
34.364255
 42
0.155746
  0
VERTEX
  8
0
 10
1477.825320
 20
35.279082
 42
0.072656
  0
VERTEX
  8
0
 10
1477.634319
 20
36.654512
 42
0.008269
  0
VERTEX
  8
0
 10
1476.706030
 20
39.659909
 42
0.001576
  0
VERTEX
  8
0
 10
1476.038552
 20
41.679046
 42
0.001675
  0
VERTEX
  8
0
 10
1475.371634
 20
43.653327
 42
0.001593
  0
VERTEX
  8
0
 10
1474.786476
 20
45.348948
 42
0.007730
  0
VERTEX
  8
0
 10
1474.436623
 20
46.304562
 42
-0.063345
  0
VERTEX
  8
0
 10
1474.238058
 20
47.116365
 42
-0.211475
  0
VERTEX
  8
0
 10
1474.398210
 20
47.627847
 42
-0.173296
  0
VERTEX
  8
0
 10
1474.918855
 20
47.917272
 42
-0.041067
  0
VERTEX
  8
0
 10
1475.924396
 20
48.000000
 42
-0.075805
  0
VERTEX
  8
0
 10
1476.784012
 20
47.868920
 42
-0.068089
  0
VERTEX
  8
0
 10
1477.600459
 20
47.485937
 42
-0.071161
  0
VERTEX
  8
0
 10
1478.251364
 20
46.918884
 42
-0.100334
  0
VERTEX
  8
0
 10
1478.627319
 20
46.250000
 42
0.005147
  0
VERTEX
  8
0
 10
1479.663462
 20
43.147807
 42
0.183100
  0
VERTEX
  8
0
 10
1480.141640
 20
42.574107
 42
0.459251
  0
VERTEX
  8
0
 10
1480.593782
 20
42.737754
 42
0.015721
  0
VERTEX
  8
0
 10
1481.285379
 20
44.750000
 42
-0.032687
  0
VERTEX
  8
0
 10
1481.931875
 20
46.442075
 42
-0.110594
  0
VERTEX
  8
0
 10
1482.643909
 20
47.377545
 42
-0.126581
  0
VERTEX
  8
0
 10
1483.628269
 20
47.850718
 42
-0.049104
  0
VERTEX
  8
0
 10
1485.144660
 20
48.000000
 42
0.036793
  0
VERTEX
  8
0
 10
1486.385707
 20
48.091448
 42
0.084349
  0
VERTEX
  8
0
 10
1487.274110
 20
48.381333
 42
0.124831
  0
VERTEX
  8
0
 10
1487.804906
 20
48.858347
 42
0.148665
  0
VERTEX
  8
0
 10
1488.000000
 20
49.500000
 42
-0.130775
  0
VERTEX
  8
0
 10
1488.153209
 20
50.075754
 42
-0.102140
  0
VERTEX
  8
0
 10
1488.583333
 20
50.562500
 42
-0.088920
  0
VERTEX
  8
0
 10
1489.230589
 20
50.888136
 42
-0.072314
  0
VERTEX
  8
0
 10
1490.000000
 20
51.000000
 42
-0.072314
  0
VERTEX
  8
0
 10
1490.769411
 20
50.888136
 42
-0.088920
  0
VERTEX
  8
0
 10
1491.416667
 20
50.562500
 42
-0.102140
  0
VERTEX
  8
0
 10
1491.846791
 20
50.075754
 42
-0.130775
  0
SEQEND
  0
POLYLINE
  8
0
 66
1
 70
1
  0
VERTEX
  8
0
 10
1499.714621
 20
44.750000
 42
0.015721
  0
VERTEX
  8
0
 10
1500.406218
 20
42.737754
 42
0.459251
  0
VERTEX
  8
0
 10
1500.858360
 20
42.574107
 42
0.183100
  0
VERTEX
  8
0
 10
1501.336538
 20
43.147807
 42
0.005147
  0
VERTEX
  8
0
 10
1502.372681
 20
46.250000
 42
-0.095784
  0
VERTEX
  8
0
 10
1502.740722
 20
46.918845
 42
-0.071022
  0
VERTEX
  8
0
 10
1503.368113
 20
47.485937
 42
-0.068969
  0
VERTEX
  8
0
 10
1504.149905
 20
47.868838
 42
-0.079596
  0
VERTEX
  8
0
 10
1504.968615
 20
48.000000
 42
-0.058176
  0
VERTEX
  8
0
 10
1506.394207
 20
47.833566
 42
-0.349484
  0
VERTEX
  8
0
 10
1506.824341
 20
47.286072
 42
-0.082132
  0
VERTEX
  8
0
 10
1506.617261
 20
46.082611
 42
-0.002492
  0
VERTEX
  8
0
 10
1504.924939
 20
41.287513
 42
-0.002552
  0
VERTEX
  8
0
 10
1502.194929
 20
33.793894
 42
-0.042796
  0
VERTEX
  8
0
 10
1501.070693
 20
31.405936
 42
-0.146802
  0
VERTEX
  8
0
 10
1499.972265
 20
30.374978
 42
-0.116067
  0
VERTEX
  8
0
 10
1498.378680
 20
30.000000
 42
-0.087117
  0
VERTEX
  8
0
 10
1496.806605
 20
30.276005
 42
-0.249563
  0
VERTEX
  8
0
 10
1496.087059
 20
31.073486
 42
-0.225130
  0
VERTEX
  8
0
 10
1496.311216
 20
32.191110
 42
-0.074792
  0
VERTEX
  8
0
 10
1497.529377
 20
33.397822
 42
0.119128
  0
VERTEX
  8
0
 10
1498.255753
 20
34.256216
 42
0.134880
  0
VERTEX
  8
0
 10
1498.466431
 20
35.311748
 42
0.057517
  0
VERTEX
  8
0
 10
1498.151720
 20
36.983762
 42
0.007603
  0
VERTEX
  8
0
 10
1497.029377
 20
40.414615
 42
-0.004680
  0
VERTEX
  8
0
 10
1495.429899
 20
45.208984
 42
-0.072553
  0
VERTEX
  8
0
 10
1495.140792
 20
46.915790
 42
-0.287490
  0
VERTEX
  8
0
 10
1495.606674
 20
47.698416
 42
-0.119051
  0
VERTEX
  8
0
 10
1496.855340
 20
48.000000
 42
-0.121730
  0
VERTEX
  8
0
 10
1497.721094
 20
47.786053
 42
-0.091436
  0
VERTEX
  8
0
 10
1498.495026
 20
47.176797
 42
-0.069427
  0
VERTEX
  8
0
 10
1499.163388
 20
46.163082
 42
-0.036181
  0
SEQEND
  0
POLYLINE
  8
0
 66
1
 70
1
  0
VERTEX
  8
0
 10
1517.428571
 20
46.428571
 42
-0.042641
  0
VERTEX
  8
0
 10
1518.649561
 20
44.979457
 42
-0.186957
  0
VERTEX
  8
0
 10
1518.916465
 20
43.913260
 42
-0.284216
  0
VERTEX
  8
0
 10
1518.369378
 20
43.234207
 42
-0.084899
  0
VERTEX
  8
0
 10
1517.000000
 20
43.000000
 42
-0.048028
  0
VERTEX
  8
0
 10
1516.234582
 20
43.073693
 42
-0.068025
  0
VERTEX
  8
0
 10
1515.587500
 20
43.293750
 42
-0.088204
  0
VERTEX
  8
0
 10
1515.151477
 20
43.618118
 42
-0.191087
  0
VERTEX
  8
0
 10
1515.000000
 20
44.000000
 42
0.262995
  0
VERTEX
  8
0
 10
1514.560604
 20
44.777589
 42
0.183928
  0
VERTEX
  8
0
 10
1513.547059
 20
44.960265
 42
0.124093
  0
VERTEX
  8
0
 10
1512.345812
 20
44.405861
 42
0.132027
  0
VERTEX
  8
0
 10
1511.584314
 20
43.359123
 42
0.094478
  0
VERTEX
  8
0
 10
1511.271124
 20
41.618354
 42
0.086219
  0
VERTEX
  8
0
 10
1511.602169
 20
39.823584
 42
0.102301
  0
VERTEX
  8
0
 10
1512.439833
 20
38.482446
 42
0.204948
  0
VERTEX
  8
0
 10
1513.567388
 20
38.000000
 42
0.068054
  0
VERTEX
  8
0
 10
1514.114976
 20
38.074877
 42
0.084602
  0
VERTEX
  8
0
 10
1514.579170
 20
38.293750
 42
0.099744
  0
VERTEX
  8
0
 10
1514.889573
 20
38.618660
 42
0.141874
  0
VERTEX
  8
0
 10
1515.000000
 20
39.000000
 42
-0.191087
  0
VERTEX
  8
0
 10
1515.151477
 20
39.381882
 42
-0.088204
  0
VERTEX
  8
0
 10
1515.587500
 20
39.706250
 42
-0.068025
  0
VERTEX
  8
0
 10
1516.234582
 20
39.926307
 42
-0.048028
  0
VERTEX
  8
0
 10
1517.000000
 20
40.000000
 42
-0.038714
  0
VERTEX
  8
0
 10
1518.394540
 20
39.891862
 42
-0.285153
  0
VERTEX
  8
0
 10
1518.878827
 20
39.475319
 42
-0.184122
  0
VERTEX
  8
0
 10
1518.832662
 20
38.697332
 42
-0.016992
  0
VERTEX
  8
0
 10
1517.964816
 20
36.934259
 42
-0.177875
  0
VERTEX
  8
0
 10
1516.184423
 20
35.349487
 42
-0.108843
  0
VERTEX
  8
0
 10
1513.375701
 20
34.900731
 42
-0.100997
  0
VERTEX
  8
0
 10
1510.460466
 20
35.675341
 42
-0.133214
  0
VERTEX
  8
0
 10
1508.412816
 20
37.492715
 42
-0.094162
  0
VERTEX
  8
0
 10
1507.534406
 20
39.615969
 42
-0.072548
  0
VERTEX
  8
0
 10
1507.384631
 20
42.123616
 42
-0.070825
  0
VERTEX
  8
0
 10
1507.962227
 20
44.628811
 42
-0.081356
  0
VERTEX
  8
0
 10
1509.202839
 20
46.744406
 42
-0.160638
  0
VERTEX
  8
0
 10
1510.736275
 20
47.704762
 42
-0.069949
  0
VERTEX
  8
0
 10
1513.155706
 20
47.950674
 42
-0.067884
  0
VERTEX
  8
0
 10
1515.650895
 20
47.512240
 42
-0.119540
  0
SEQEND
  0
POLYLINE
  8
0
 66
1
 70
1
  0
VERTEX
  8
0
 10
1531.000000
 20
47.194280
 42
-0.123773
  0
VERTEX
  8
0
 10
1530.879257
 20
46.713993
 42
-0.011231
  0
VERTEX
  8
0
 10
1530.265625
 20
45.629850
 42
-0.014019
  0
VERTEX
  8
0
 10
1529.457497
 20
44.356613
 42
-0.010513
  0
VERTEX
  8
0
 10
1528.500000
 20
43.000000
 42
0.010513
  0
VERTEX
  8
0
 10
1527.542503
 20
41.643387
 42
0.014019
  0
VERTEX
  8
0
 10
1526.734375
 20
40.370150
 42
0.011231
  0
VERTEX
  8
0
 10
1526.120743
 20
39.286007
 42
0.123773
  0
VERTEX
  8
0
 10
1526.000000
 20
38.805720
 42
0.260054
  0
VERTEX
  8
0
 10
1526.172839
 20
38.495879
 42
0.060410
  0
VERTEX
  8
0
 10
1526.734375
 20
38.236680
 42
0.047433
  0
VERTEX
  8
0
 10
1527.542236
 20
38.058586
 42
0.030556
  0
VERTEX
  8
0
 10
1528.500000
 20
38.000000
 42
-0.047160
  0
VERTEX
  8
0
 10
1529.543379
 20
37.901370
 42
-0.088208
  0
VERTEX
  8
0
 10
1530.333333
 20
37.600000
 42
-0.118484
  0
VERTEX
  8
0
 10
1530.822179
 20
37.119980
 42
-0.140575
  0
VERTEX
  8
0
 10
1531.000000
 20
36.500000
 42
-0.211442
  0
VERTEX
  8
0
 10
1530.683247
 20
35.784456
 42
-0.118311
  0
VERTEX
  8
0
 10
1529.833333
 20
35.318182
 42
-0.054498
  0
VERTEX
  8
0
 10
1528.247932
 20
35.066617
 42
-0.012120
  0
VERTEX
  8
0
 10
1525.500000
 20
35.000000
 42
-0.023248
  0
VERTEX
  8
0
 10
1521.479952
 20
35.187014
 42
-0.264979
  0
VERTEX
  8
0
 10
1520.227113
 20
36.064562
 42
-0.244119
  0
VERTEX
  8
0
 10
1520.286067
 20
37.650515
 42
-0.020207
  0
VERTEX
  8
0
 10
1522.536051
 20
41.267865
 42
0.000000
  0
VERTEX
  8
0
 10
1525.072102
 20
45.000000
 42
0.000000
  0
VERTEX
  8
0
 10
1522.536051
 20
45.000000
 42
-0.045902
  0
VERTEX
  8
0
 10
1521.472717
 20
45.097824
 42
-0.087887
  0
VERTEX
  8
0
 10
1520.672675
 20
45.397868
 42
-0.119295
  0
VERTEX
  8
0
 10
1520.179579
 20
45.877532
 42
-0.141365
  0
VERTEX
  8
0
 10
1520.000000
 20
46.500000
 42
-0.211442
  0
VERTEX
  8
0
 10
1520.316753
 20
47.215544
 42
-0.118311
  0
VERTEX
  8
0
 10
1521.166667
 20
47.681818
 42
-0.054498
  0
VERTEX
  8
0
 10
1522.752068
 20
47.933383
 42
-0.012120
  0
VERTEX
  8
0
 10
1525.500000
 20
48.000000
 42
-0.013763
  0
VERTEX
  8
0
 10
1527.608560
 20
47.941950
 42
-0.022607
  0
VERTEX
  8
0
 10
1529.384375
 20
47.763320
 42
-0.018687
  0
VERTEX
  8
0
 10
1530.745862
 20
47.511589
 42
-0.351094
  0
SEQEND
  0
POLYLINE
  8
0
 66
1
 70
1
  0
VERTEX
  8
0
 10
1541.800000
 20
46.800000
 42
-0.087124
  0
VERTEX
  8
0
 10
1542.260981
 20
46.142664
 42
-0.036597
  0
VERTEX
  8
0
 10
1542.647500
 20
45.130000
 42
-0.034792
  0
VERTEX
  8
0
 10
1542.911466
 20
43.960023
 42
-0.038105
  0
VERTEX
  8
0
 10
1543.000000
 20
42.800000
 42
-0.038437
  0
VERTEX
  8
0
 10
1542.877469
 20
41.208441
 42
-0.189864
  0
VERTEX
  8
0
 10
1542.432231
 20
40.446684
 42
-0.147191
  0
VERTEX
  8
0
 10
1541.511458
 20
40.084971
 42
-0.020511
  0
VERTEX
  8
0
 10
1539.440983
 20
40.000000
 42
0.021379
  0
VERTEX
  8
0
 10
1537.963090
 20
39.936780
 42
0.066132
  0
VERTEX
  8
0
 10
1536.989672
 20
39.721585
 42
0.157080
  0
VERTEX
  8
0
 10
1536.546154
 20
39.376474
 42
0.296100
  0
VERTEX
  8
0
 10
1536.536494
 20
38.940951
 42
0.148302
  0
VERTEX
  8
0
 10
1536.973429
 20
38.555587
 42
0.051400
  0
VERTEX
  8
0
 10
1537.778511
 20
38.283780
 42
0.045600
  0
VERTEX
  8
0
 10
1538.781435
 20
38.150875
 42
0.039149
  0
VERTEX
  8
0
 10
1539.845511
 20
38.190951
 42
-0.034796
  0
VERTEX
  8
0
 10
1541.047983
 20
38.246712
 42
-0.099958
  0
VERTEX
  8
0
 10
1541.859093
 20
38.063218
 42
-0.156556
  0
VERTEX
  8
0
 10
1542.326159
 20
37.643272
 42
-0.132741
  0
VERTEX
  8
0
 10
1542.500000
 20
37.000000
 42
-0.322357
  0
VERTEX
  8
0
 10
1541.521193
 20
35.639560
 42
-0.070620
  0
VERTEX
  8
0
 10
1538.515841
 20
35.085122
 42
-0.064261
  0
VERTEX
  8
0
 10
1535.199953
 20
35.374060
 42
-0.183045
  0
VERTEX
  8
0
 10
1533.289884
 20
36.618238
 42
-0.098262
  0
VERTEX
  8
0
 10
1532.394526
 20
38.542637
 42
-0.053207
  0
VERTEX
  8
0
 10
1532.046231
 20
41.140655
 42
-0.052196
  0
VERTEX
  8
0
 10
1532.255104
 20
43.835827
 42
-0.077594
  0
VERTEX
  8
0
 10
1533.035184
 20
46.065741
 42
-0.176932
  0
VERTEX
  8
0
 10
1534.505296
 20
47.379150
 42
-0.073970
  0
VERTEX
  8
0
 10
1537.129783
 20
47.997118
 42
-0.072339
  0
VERTEX
  8
0
 10
1539.896154
 20
47.828579
 42
-0.146056
  0
SEQEND
  0
POLYLINE
  8
0
 66
1
 70
1
  0
VERTEX
  8
0
 10
1554.964816
 20
46.065741
 42
-0.016992
  0
VERTEX
  8
0
 10
1555.832662
 20
44.302668
 42
-0.184122
  0
VERTEX
  8
0
 10
1555.878827
 20
43.524681
 42
-0.285153
  0
VERTEX
  8
0
 10
1555.394540
 20
43.108138
 42
-0.038714
  0
VERTEX
  8
0
 10
1554.000000
 20
43.000000
 42
-0.048028
  0
VERTEX
  8
0
 10
1553.234582
 20
43.073693
 42
-0.068025
  0
VERTEX
  8
0
 10
1552.587500
 20
43.293750
 42
-0.088204
  0
VERTEX
  8
0
 10
1552.151477
 20
43.618118
 42
-0.191087
  0
VERTEX
  8
0
 10
1552.000000
 20
44.000000
 42
0.262995
  0
VERTEX
  8
0
 10
1551.560604
 20
44.777589
 42
0.183928
  0
VERTEX
  8
0
 10
1550.547059
 20
44.960265
 42
0.124093
  0
VERTEX
  8
0
 10
1549.345812
 20
44.405861
 42
0.132027
  0
VERTEX
  8
0
 10
1548.584314
 20
43.359123
 42
0.094478
  0
VERTEX
  8
0
 10
1548.271124
 20
41.618354
 42
0.086219
  0
VERTEX
  8
0
 10
1548.602169
 20
39.823584
 42
0.102301
  0
VERTEX
  8
0
 10
1549.439833
 20
38.482446
 42
0.204948
  0
VERTEX
  8
0
 10
1550.567388
 20
38.000000
 42
0.068054
  0
VERTEX
  8
0
 10
1551.114976
 20
38.074877
 42
0.084602
  0
VERTEX
  8
0
 10
1551.579170
 20
38.293750
 42
0.099744
  0
VERTEX
  8
0
 10
1551.889573
 20
38.618660
 42
0.141874
  0
VERTEX
  8
0
 10
1552.000000
 20
39.000000
 42
-0.191087
  0
VERTEX
  8
0
 10
1552.151477
 20
39.381882
 42
-0.088204
  0
VERTEX
  8
0
 10
1552.587500
 20
39.706250
 42
-0.068025
  0
VERTEX
  8
0
 10
1553.234582
 20
39.926307
 42
-0.048028
  0
VERTEX
  8
0
 10
1554.000000
 20
40.000000
 42
-0.063155
  0
VERTEX
  8
0
 10
1554.764688
 20
39.903025
 42
-0.081200
  0
VERTEX
  8
0
 10
1555.412500
 20
39.618125
 42
-0.098319
  0
VERTEX
  8
0
 10
1555.845984
 20
39.195780
 42
-0.151750
  0
VERTEX
  8
0
 10
1556.000000
 20
38.700000
 42
-0.233903
  0
VERTEX
  8
0
 10
1554.822458
 20
36.320555
 42
-0.128491
  0
VERTEX
  8
0
 10
1551.754040
 20
35.037235
 42
-0.112330
  0
VERTEX
  8
0
 10
1548.120330
 20
35.340176
 42
-0.164686
  0
VERTEX
  8
0
 10
1545.556704
 20
37.222506
 42
-0.117935
  0
VERTEX
  8
0
 10
1544.126063
 20
40.843966
 42
-0.144271
  0
VERTEX
  8
0
 10
1544.650403
 20
44.431652
 42
-0.152078
  0
VERTEX
  8
0
 10
1546.994623
 20
47.032591
 42
-0.134660
  0
VERTEX
  8
0
 10
1550.521520
 20
48.000000
 42
-0.035917
  0
VERTEX
  8
0
 10
1552.113427
 20
47.885498
 42
-0.066842
  0
VERTEX
  8
0
 10
1553.355714
 20
47.532178
 42
-0.081575
  0
VERTEX
  8
0
 10
1554.291504
 20
46.927910
 42
-0.086022
  0
SEQEND
  0
POLYLINE
  8
0
 66
1
 70
1
  0
VERTEX
  8
0
 10
393.500000
 20
29.500000
 42
-0.030694
  0
VERTEX
  8
0
 10
393.396354
 20
27.813227
 42
-0.166609
  0
VERTEX
  8
0
 10
393.001141
 20
27.001146
 42
-0.167409
  0
VERTEX
  8
0
 10
392.192051
 20
26.604362
 42
-0.031061
  0
VERTEX
  8
0
 10
390.513695
 20
26.500000
 42
-0.037292
  0
VERTEX
  8
0
 10
389.133780
 20
26.603064
 42
-0.087177
  0
VERTEX
  8
0
 10
388.155455
 20
26.930548
 42
-0.116726
  0
VERTEX
  8
0
 10
387.521990
 20
27.496683
 42
-0.105087
  0
VERTEX
  8
0
 10
387.179122
 20
28.308413
 42
-0.066027
  0
VERTEX
  8
0
 10
387.055318
 20
30.426284
 42
-0.150013
  0
VERTEX
  8
0
 10
387.631095
 20
31.905159
 42
-0.167989
  0
VERTEX
  8
0
 10
388.879976
 20
32.703617
 42
-0.087849
  0
VERTEX
  8
0
 10
390.744314
 20
32.816971
 42
-0.041896
  0
VERTEX
  8
0
 10
392.205933
 20
32.523327
 42
-0.150000
  0
VERTEX
  8
0
 10
392.993945
 20
32.007288
 42
-0.139669
  0
VERTEX
  8
0
 10
393.388354
 20
31.113772
 42
-0.034550
  0
SEQEND
  0
POLYLINE
  8
0
 66
1
 70
1
  0
VERTEX
  8
0
 10
433.000000
 20
45.000000
 42
0.157684
  0
VERTEX
  8
0
 10
431.231100
 20
41.540039
 42
0.105068
  0
VERTEX
  8
0
 10
431.453438
 20
37.056998
 42
0.115890
  0
VERTEX
  8
0
 10
433.418740
 20
33.369541
 42
0.215855
  0
VERTEX
  8
0
 10
436.443296
 20
32.000000
 42
0.257795
  0
VERTEX
  8
0
 10
439.022366
 20
33.424404
 42
0.090232
  0
VERTEX
  8
0
 10
440.655047
 20
37.493009
 42
0.082896
  0
VERTEX
  8
0
 10
440.825105
 20
42.185346
 42
0.178367
  0
VERTEX
  8
0
 10
439.171259
 20
45.345012
 42
0.052877
  0
VERTEX
  8
0
 10
437.502067
 20
46.561810
 42
0.146050
  0
VERTEX
  8
0
 10
436.101580
 20
46.895938
 42
0.138037
  0
VERTEX
  8
0
 10
434.696439
 20
46.414346
 42
0.045248
  0
SEQEND
  0
POLYLINE
  8
0
 66
1
 70
1
  0
VERTEX
  8
0
 10
1287.000000
 20
43.500000
 42
0.010530
  0
VERTEX
  8
0
 10
1287.063260
 20
40.496450
 42
0.068650
  0
VERTEX
  8
0
 10
1287.331818
 20
39.013889
 42
0.166608
  0
VERTEX
  8
0
 10
1287.885732
 20
38.279886
 42
0.149638
  0
VERTEX
  8
0
 10
1288.800000
 20
38.000000
 42
0.103979
  0
VERTEX
  8
0
 10
1290.523297
 20
38.362289
 42
0.117840
  0
VERTEX
  8
0
 10
1291.866490
 20
39.381321
 42
0.104403
  0
VERTEX
  8
0
 10
1292.712468
 20
41.009775
 42
0.067872
  0
VERTEX
  8
0
 10
1293.000000
 20
43.118213
 42
0.034829
  0
VERTEX
  8
0
 10
1292.807901
 20
45.872584
 42
0.103073
  0
VERTEX
  8
0
 10
1292.170646
 20
47.647602
 42
0.149606
  0
VERTEX
  8
0
 10
1291.045166
 20
48.642086
 42
0.107076
  0
VERTEX
  8
0
 10
1289.393011
 20
49.000000
 42
0.076133
  0
VERTEX
  8
0
 10
1288.046775
 20
48.793818
 42
0.217448
  0
VERTEX
  8
0
 10
1287.358773
 20
48.175410
 42
0.094065
  0
VERTEX
  8
0
 10
1287.059065
 20
46.852612
 42
0.008808
  0
SEQEND
  0
POLYLINE
  8
0
 66
1
 70
1
  0
VERTEX
  8
0
 10
1323.696917
 20
44.606872
 42
0.031108
  0
VERTEX
  8
0
 10
1323.450554
 20
43.843711
 42
0.039794
  0
VERTEX
  8
0
 10
1323.325261
 20
43.116061
 42
0.044381
  0
VERTEX
  8
0
 10
1323.323903
 20
42.517723
 42
0.176541
  0
VERTEX
  8
0
 10
1323.476461
 20
42.190205
 42
0.242448
  0
VERTEX
  8
0
 10
1324.092690
 20
41.993026
 42
0.232038
  0
VERTEX
  8
0
 10
1324.627993
 20
42.376835
 42
0.112038
  0
VERTEX
  8
0
 10
1324.906850
 20
43.385971
 42
0.061341
  0
VERTEX
  8
0
 10
1324.808853
 20
44.671731
 42
0.006855
  0
VERTEX
  8
0
 10
1324.556938
 20
45.840400
 42
0.365890
  0
VERTEX
  8
0
 10
1324.387121
 20
45.967698
 42
0.286752
  0
VERTEX
  8
0
 10
1324.192360
 20
45.829600
 42
0.005261
  0
SEQEND
  0
POLYLINE
  8
0
 66
1
 70
1
  0
VERTEX
  8
0
 10
1350.401981
 20
47.605161
 42
0.090961
  0
VERTEX
  8
0
 10
1349.946220
 20
45.169548
 42
0.044354
  0
VERTEX
  8
0
 10
1350.215890
 20
42.007912
 42
0.042519
  0
VERTEX
  8
0
 10
1350.948264
 20
39.240638
 42
0.316771
  0
VERTEX
  8
0
 10
1352.000000
 20
38.500000
 42
0.208740
  0
VERTEX
  8
0
 10
1352.715469
 20
38.812301
 42
0.104623
  0
VERTEX
  8
0
 10
1353.231848
 20
39.675377
 42
0.053896
  0
VERTEX
  8
0
 10
1353.583706
 20
41.227006
 42
0.014451
  0
VERTEX
  8
0
 10
1353.802260
 20
43.750000
 42
0.011108
  0
VERTEX
  8
0
 10
1353.899765
 20
46.511501
 42
0.063202
  0
VERTEX
  8
0
 10
1353.734139
 20
47.968931
 42
0.153697
  0
VERTEX
  8
0
 10
1353.284224
 20
48.712068
 42
0.182328
  0
VERTEX
  8
0
 10
1352.520875
 20
49.000000
 42
0.080267
  0
VERTEX
  8
0
 10
1351.875468
 20
48.895718
 42
0.065543
  0
VERTEX
  8
0
 10
1351.245196
 20
48.590266
 42
0.066582
  0
VERTEX
  8
0
 10
1350.724925
 20
48.138403
 42
0.089305
  0
SEQEND
  0
POLYLINE
  8
0
 66
1
 70
1
  0
VERTEX
  8
0
 10
1364.335833
 20
47.432783
 42
0.135750
  0
VERTEX
  8
0
 10
1364.191905
 20
45.946818
 42
0.158748
  0
VERTEX
  8
0
 10
1364.853817
 20
44.700354
 42
0.198612
  0
VERTEX
  8
0
 10
1365.994798
 20
44.250389
 42
0.194633
  0
VERTEX
  8
0
 10
1367.132783
 20
44.732783
 42
0.155991
  0
VERTEX
  8
0
 10
1367.722282
 20
45.876502
 42
0.106879
  0
VERTEX
  8
0
 10
1367.653842
 20
47.346404
 42
0.118120
  0
VERTEX
  8
0
 10
1367.004171
 20
48.550952
 42
0.213408
  0
VERTEX
  8
0
 10
1366.000000
 20
49.000000
 42
0.125507
  0
VERTEX
  8
0
 10
1365.549001
 20
48.884981
 42
0.064084
  0
VERTEX
  8
0
 10
1365.072758
 20
48.539630
 42
0.057495
  0
VERTEX
  8
0
 10
1364.644856
 20
48.032150
 42
0.054869
  0
SEQEND
  0
POLYLINE
  8
0
 66
1
 70
1
  0
VERTEX
  8
0
 10
1378.429755
 20
42.677541
 42
0.087753
  0
VERTEX
  8
0
 10
1378.131879
 20
41.139876
 42
0.085248
  0
VERTEX
  8
0
 10
1378.374196
 20
39.576711
 42
0.103832
  0
VERTEX
  8
0
 10
1379.054051
 20
38.418512
 42
0.211333
  0
VERTEX
  8
0
 10
1380.000000
 20
38.000000
 42
0.217315
  0
VERTEX
  8
0
 10
1381.084934
 20
38.494918
 42
0.144530
  0
VERTEX
  8
0
 10
1381.661294
 20
39.759066
 42
0.114840
  0
VERTEX
  8
0
 10
1381.518286
 20
41.380355
 42
0.117725
  0
VERTEX
  8
0
 10
1380.673489
 20
42.755083
 42
0.015621
  0
VERTEX
  8
0
 10
1379.695906
 20
43.673418
 42
0.191662
  0
VERTEX
  8
0
 10
1379.222905
 20
43.842967
 42
0.268549
  0
VERTEX
  8
0
 10
1378.854723
 20
43.612513
 42
0.030111
  0
SEQEND
  0
POLYLINE
  8
0
 66
1
 70
1
  0
VERTEX
  8
0
 10
1438.518478
 20
48.375621
 42
0.144714
  0
VERTEX
  8
0
 10
1437.274954
 20
46.088315
 42
0.090820
  0
VERTEX
  8
0
 10
1437.184833
 20
43.022754
 42
0.086082
  0
VERTEX
  8
0
 10
1438.207922
 20
39.971239
 42
0.109514
  0
VERTEX
  8
0
 10
1440.146274
 20
37.731533
 42
0.021391
  0
VERTEX
  8
0
 10
1441.843562
 20
36.579143
 42
0.131642
  0
VERTEX
  8
0
 10
1442.846270
 20
36.277834
 42
0.123601
  0
VERTEX
  8
0
 10
1443.895728
 20
36.507915
 42
0.017949
  0
VERTEX
  8
0
 10
1445.832529
 20
37.560144
 42
0.042829
  0
VERTEX
  8
0
 10
1447.039249
 20
38.420121
 42
0.036578
  0
VERTEX
  8
0
 10
1448.152225
 20
39.516529
 42
0.038195
  0
VERTEX
  8
0
 10
1449.018500
 20
40.671760
 42
0.080463
  0
VERTEX
  8
0
 10
1449.460457
 20
41.698472
 42
0.094978
  0
VERTEX
  8
0
 10
1449.569682
 20
43.629047
 42
0.057528
  0
VERTEX
  8
0
 10
1449.006477
 20
45.855147
 42
0.057665
  0
VERTEX
  8
0
 10
1447.954086
 20
47.886848
 42
0.097540
  0
VERTEX
  8
0
 10
1446.600296
 20
49.234687
 42
0.115782
  0
VERTEX
  8
0
 10
1444.842044
 20
49.892871
 42
0.058454
  0
VERTEX
  8
0
 10
1442.462151
 20
49.918759
 42
0.058326
  0
VERTEX
  8
0
 10
1440.131191
 20
49.391589
 42
0.112081
  0
SEQEND
  0
POLYLINE
  8
0
 66
1
 70
1
  0
VERTEX
  8
0
 10
1445.800000
 20
47.800000
 42
-0.051974
  0
VERTEX
  8
0
 10
1446.259359
 20
47.233742
 42
-0.038316
  0
VERTEX
  8
0
 10
1446.647500
 20
46.525097
 42
-0.039065
  0
VERTEX
  8
0
 10
1446.913007
 20
45.789548
 42
-0.067180
  0
VERTEX
  8
0
 10
1447.000000
 20
45.145012
 42
-0.075703
  0
VERTEX
  8
0
 10
1446.902515
 20
44.504839
 42
-0.371044
  0
VERTEX
  8
0
 10
1446.615985
 20
44.326010
 42
-0.133109
  0
VERTEX
  8
0
 10
1446.097888
 20
44.555698
 42
-0.013403
  0
VERTEX
  8
0
 10
1445.063013
 20
45.442974
 42
0.078000
  0
VERTEX
  8
0
 10
1443.459013
 20
46.493589
 42
0.221064
  0
VERTEX
  8
0
 10
1442.154029
 20
46.479319
 42
0.211984
  0
VERTEX
  8
0
 10
1441.285805
 20
45.462948
 42
0.072418
  0
VERTEX
  8
0
 10
1441.000000
 20
43.500000
 42
0.070406
  0
VERTEX
  8
0
 10
1441.261390
 20
41.652911
 42
0.174009
  0
VERTEX
  8
0
 10
1442.051163
 20
40.559942
 42
0.218026
  0
VERTEX
  8
0
 10
1443.213425
 20
40.359039
 42
0.109068
  0
VERTEX
  8
0
 10
1444.567971
 20
41.056411
 42
-0.075952
  0
VERTEX
  8
0
 10
1445.813745
 20
41.805047
 42
-0.309816
  0
VERTEX
  8
0
 10
1446.632468
 20
41.629364
 42
-0.297617
  0
VERTEX
  8
0
 10
1446.785982
 20
40.785768
 42
-0.073681
  0
VERTEX
  8
0
 10
1446.020056
 20
39.524166
 42
-0.149992
  0
VERTEX
  8
0
 10
1443.802955
 20
38.070614
 42
-0.202152
  0
VERTEX
  8
0
 10
1441.446276
 20
38.346139
 42
-0.164146
  0
VERTEX
  8
0
 10
1439.644352
 20
40.359267
 42
-0.101523
  0
VERTEX
  8
0
 10
1439.000000
 20
43.500000
 42
-0.058635
  0
VERTEX
  8
0
 10
1439.268579
 20
45.782389
 42
-0.098952
  0
VERTEX
  8
0
 10
1440.071678
 20
47.526442
 42
-0.120083
  0
VERTEX
  8
0
 10
1441.350882
 20
48.610428
 42
-0.116512
  0
VERTEX
  8
0
 10
1443.000000
 20
49.000000
 42
-0.062206
  0
VERTEX
  8
0
 10
1443.700322
 20
48.912533
 42
-0.039117
  0
VERTEX
  8
0
 10
1444.482500
 20
48.647500
 42
-0.038823
  0
VERTEX
  8
0
 10
1445.223325
 20
48.259462
 42
-0.056383
  0
SEQEND
  0
POLYLINE
  8
0
 66
1
 70
1
  0
VERTEX
  8
0
 10
1464.000000
 20
46.500000
 42
0.033839
  0
VERTEX
  8
0
 10
1464.092891
 20
45.129015
 42
0.160065
  0
VERTEX
  8
0
 10
1464.432870
 20
44.430103
 42
0.187903
  0
VERTEX
  8
0
 10
1465.084730
 20
44.131823
 42
0.049728
  0
VERTEX
  8
0
 10
1466.250000
 20
44.180449
 42
0.063100
  0
VERTEX
  8
0
 10
1467.222385
 20
44.446544
 42
0.102222
  0
VERTEX
  8
0
 10
1467.928806
 20
44.926605
 42
0.110331
  0
VERTEX
  8
0
 10
1468.352757
 20
45.617458
 42
0.082847
  0
VERTEX
  8
0
 10
1468.500000
 20
46.500000
 42
0.082847
  0
VERTEX
  8
0
 10
1468.352757
 20
47.382542
 42
0.110331
  0
VERTEX
  8
0
 10
1467.928806
 20
48.073395
 42
0.102222
  0
VERTEX
  8
0
 10
1467.222385
 20
48.553456
 42
0.063100
  0
VERTEX
  8
0
 10
1466.250000
 20
48.819551
 42
0.049728
  0
VERTEX
  8
0
 10
1465.084730
 20
48.868177
 42
0.187903
  0
VERTEX
  8
0
 10
1464.432870
 20
48.569897
 42
0.160065
  0
VERTEX
  8
0
 10
1464.092891
 20
47.870985
 42
0.033839
  0
SEQEND
  0
POLYLINE
  8
0
 66
1
 70
1
  0
VERTEX
  8
0
 10
1536.000000
 20
44.000000
 42
0.148195
  0
VERTEX
  8
0
 10
1536.115568
 20
43.618646
 42
0.098894
  0
VERTEX
  8
0
 10
1536.440625
 20
43.293750
 42
0.082425
  0
VERTEX
  8
0
 10
1536.926543
 20
43.074694
 42
0.064853
  0
VERTEX
  8
0
 10
1537.500000
 20
43.000000
 42
0.064853
  0
VERTEX
  8
0
 10
1538.073457
 20
43.074694
 42
0.082425
  0
VERTEX
  8
0
 10
1538.559375
 20
43.293750
 42
0.098894
  0
VERTEX
  8
0
 10
1538.884432
 20
43.618646
 42
0.148195
  0
VERTEX
  8
0
 10
1539.000000
 20
44.000000
 42
0.148195
  0
VERTEX
  8
0
 10
1538.884432
 20
44.381354
 42
0.098894
  0
VERTEX
  8
0
 10
1538.559375
 20
44.706250
 42
0.082425
  0
VERTEX
  8
0
 10
1538.073457
 20
44.925306
 42
0.064853
  0
VERTEX
  8
0
 10
1537.500000
 20
45.000000
 42
0.064853
  0
VERTEX
  8
0
 10
1536.926543
 20
44.925306
 42
0.082425
  0
VERTEX
  8
0
 10
1536.440625
 20
44.706250
 42
0.098894
  0
VERTEX
  8
0
 10
1536.115568
 20
44.381354
 42
0.148195
  0
SEQEND
  0
ENDSEC
  0
EOF
