%TF.GenerationSoftware,KiCad,Pcbnew,(5.1.10)-1*%
%TF.CreationDate,2022-09-07T22:56:21-04:00*%
%TF.ProjectId,HACK Badges,4841434b-2042-4616-9467-65732e6b6963,rev?*%
%TF.SameCoordinates,Original*%
%TF.FileFunction,Soldermask,Top*%
%TF.FilePolarity,Negative*%
%FSLAX46Y46*%
G04 Gerber Fmt 4.6, Leading zero omitted, Abs format (unit mm)*
G04 Created by KiCad (PCBNEW (5.1.10)-1) date 2022-09-07 22:56:21*
%MOMM*%
%LPD*%
G01*
G04 APERTURE LIST*
%ADD10C,0.150000*%
%ADD11C,0.100000*%
%ADD12C,0.120000*%
%ADD13R,1.000000X1.000000*%
%ADD14C,1.000000*%
%ADD15C,0.254000*%
G04 APERTURE END LIST*
D10*
X204590000Y-119760000D02*
G75*
G03*
X204590000Y-119760000I-450000J0D01*
G01*
D11*
G36*
X204460000Y-119410000D02*
G01*
X204560000Y-119640000D01*
X204570000Y-119870000D01*
X204470000Y-120090000D01*
X204250000Y-120170000D01*
X203960000Y-120190000D01*
X203770000Y-120060000D01*
X203700000Y-119820000D01*
X203710000Y-119570000D01*
X203790000Y-119450000D01*
X203910000Y-119370000D01*
X204190000Y-119320000D01*
X204460000Y-119410000D01*
G37*
X204460000Y-119410000D02*
X204560000Y-119640000D01*
X204570000Y-119870000D01*
X204470000Y-120090000D01*
X204250000Y-120170000D01*
X203960000Y-120190000D01*
X203770000Y-120060000D01*
X203700000Y-119820000D01*
X203710000Y-119570000D01*
X203790000Y-119450000D01*
X203910000Y-119370000D01*
X204190000Y-119320000D01*
X204460000Y-119410000D01*
D10*
X169900000Y-132260000D02*
G75*
G03*
X169900000Y-132260000I-450000J0D01*
G01*
D11*
G36*
X169770000Y-131910000D02*
G01*
X169870000Y-132140000D01*
X169880000Y-132370000D01*
X169780000Y-132590000D01*
X169560000Y-132670000D01*
X169270000Y-132690000D01*
X169080000Y-132560000D01*
X169010000Y-132320000D01*
X169020000Y-132070000D01*
X169100000Y-131950000D01*
X169220000Y-131870000D01*
X169500000Y-131820000D01*
X169770000Y-131910000D01*
G37*
X169770000Y-131910000D02*
X169870000Y-132140000D01*
X169880000Y-132370000D01*
X169780000Y-132590000D01*
X169560000Y-132670000D01*
X169270000Y-132690000D01*
X169080000Y-132560000D01*
X169010000Y-132320000D01*
X169020000Y-132070000D01*
X169100000Y-131950000D01*
X169220000Y-131870000D01*
X169500000Y-131820000D01*
X169770000Y-131910000D01*
D10*
X185990000Y-111460000D02*
G75*
G03*
X185990000Y-111460000I-450000J0D01*
G01*
D11*
G36*
X185860000Y-111110000D02*
G01*
X185960000Y-111340000D01*
X185970000Y-111570000D01*
X185870000Y-111790000D01*
X185650000Y-111870000D01*
X185360000Y-111890000D01*
X185170000Y-111760000D01*
X185100000Y-111520000D01*
X185110000Y-111270000D01*
X185190000Y-111150000D01*
X185310000Y-111070000D01*
X185590000Y-111020000D01*
X185860000Y-111110000D01*
G37*
X185860000Y-111110000D02*
X185960000Y-111340000D01*
X185970000Y-111570000D01*
X185870000Y-111790000D01*
X185650000Y-111870000D01*
X185360000Y-111890000D01*
X185170000Y-111760000D01*
X185100000Y-111520000D01*
X185110000Y-111270000D01*
X185190000Y-111150000D01*
X185310000Y-111070000D01*
X185590000Y-111020000D01*
X185860000Y-111110000D01*
D10*
X178270000Y-113750000D02*
G75*
G03*
X178270000Y-113750000I-450000J0D01*
G01*
D11*
G36*
X178140000Y-113400000D02*
G01*
X178240000Y-113630000D01*
X178250000Y-113860000D01*
X178150000Y-114080000D01*
X177930000Y-114160000D01*
X177640000Y-114180000D01*
X177450000Y-114050000D01*
X177380000Y-113810000D01*
X177390000Y-113560000D01*
X177470000Y-113440000D01*
X177590000Y-113360000D01*
X177870000Y-113310000D01*
X178140000Y-113400000D01*
G37*
X178140000Y-113400000D02*
X178240000Y-113630000D01*
X178250000Y-113860000D01*
X178150000Y-114080000D01*
X177930000Y-114160000D01*
X177640000Y-114180000D01*
X177450000Y-114050000D01*
X177380000Y-113810000D01*
X177390000Y-113560000D01*
X177470000Y-113440000D01*
X177590000Y-113360000D01*
X177870000Y-113310000D01*
X178140000Y-113400000D01*
D10*
X145460000Y-109240000D02*
G75*
G03*
X145460000Y-109240000I-450000J0D01*
G01*
D11*
G36*
X145330000Y-108890000D02*
G01*
X145430000Y-109120000D01*
X145440000Y-109350000D01*
X145340000Y-109570000D01*
X145120000Y-109650000D01*
X144830000Y-109670000D01*
X144640000Y-109540000D01*
X144570000Y-109300000D01*
X144580000Y-109050000D01*
X144660000Y-108930000D01*
X144780000Y-108850000D01*
X145060000Y-108800000D01*
X145330000Y-108890000D01*
G37*
X145330000Y-108890000D02*
X145430000Y-109120000D01*
X145440000Y-109350000D01*
X145340000Y-109570000D01*
X145120000Y-109650000D01*
X144830000Y-109670000D01*
X144640000Y-109540000D01*
X144570000Y-109300000D01*
X144580000Y-109050000D01*
X144660000Y-108930000D01*
X144780000Y-108850000D01*
X145060000Y-108800000D01*
X145330000Y-108890000D01*
D10*
X135800000Y-124750000D02*
G75*
G03*
X135800000Y-124750000I-450000J0D01*
G01*
D11*
G36*
X135670000Y-124400000D02*
G01*
X135770000Y-124630000D01*
X135780000Y-124860000D01*
X135680000Y-125080000D01*
X135460000Y-125160000D01*
X135170000Y-125180000D01*
X134980000Y-125050000D01*
X134910000Y-124810000D01*
X134920000Y-124560000D01*
X135000000Y-124440000D01*
X135120000Y-124360000D01*
X135400000Y-124310000D01*
X135670000Y-124400000D01*
G37*
X135670000Y-124400000D02*
X135770000Y-124630000D01*
X135780000Y-124860000D01*
X135680000Y-125080000D01*
X135460000Y-125160000D01*
X135170000Y-125180000D01*
X134980000Y-125050000D01*
X134910000Y-124810000D01*
X134920000Y-124560000D01*
X135000000Y-124440000D01*
X135120000Y-124360000D01*
X135400000Y-124310000D01*
X135670000Y-124400000D01*
D10*
X108830000Y-116050000D02*
G75*
G03*
X108830000Y-116050000I-450000J0D01*
G01*
D11*
G36*
X108700000Y-115700000D02*
G01*
X108800000Y-115930000D01*
X108810000Y-116160000D01*
X108710000Y-116380000D01*
X108490000Y-116460000D01*
X108200000Y-116480000D01*
X108010000Y-116350000D01*
X107940000Y-116110000D01*
X107950000Y-115860000D01*
X108030000Y-115740000D01*
X108150000Y-115660000D01*
X108430000Y-115610000D01*
X108700000Y-115700000D01*
G37*
X108700000Y-115700000D02*
X108800000Y-115930000D01*
X108810000Y-116160000D01*
X108710000Y-116380000D01*
X108490000Y-116460000D01*
X108200000Y-116480000D01*
X108010000Y-116350000D01*
X107940000Y-116110000D01*
X107950000Y-115860000D01*
X108030000Y-115740000D01*
X108150000Y-115660000D01*
X108430000Y-115610000D01*
X108700000Y-115700000D01*
D10*
X109740000Y-117040000D02*
G75*
G03*
X109740000Y-117040000I-450000J0D01*
G01*
D11*
G36*
X109610000Y-116690000D02*
G01*
X109710000Y-116920000D01*
X109720000Y-117150000D01*
X109620000Y-117370000D01*
X109400000Y-117450000D01*
X109110000Y-117470000D01*
X108920000Y-117340000D01*
X108850000Y-117100000D01*
X108860000Y-116850000D01*
X108940000Y-116730000D01*
X109060000Y-116650000D01*
X109340000Y-116600000D01*
X109610000Y-116690000D01*
G37*
X109610000Y-116690000D02*
X109710000Y-116920000D01*
X109720000Y-117150000D01*
X109620000Y-117370000D01*
X109400000Y-117450000D01*
X109110000Y-117470000D01*
X108920000Y-117340000D01*
X108850000Y-117100000D01*
X108860000Y-116850000D01*
X108940000Y-116730000D01*
X109060000Y-116650000D01*
X109340000Y-116600000D01*
X109610000Y-116690000D01*
D10*
X105320000Y-119300000D02*
G75*
G03*
X105320000Y-119300000I-450000J0D01*
G01*
D11*
G36*
X105190000Y-118950000D02*
G01*
X105290000Y-119180000D01*
X105300000Y-119410000D01*
X105200000Y-119630000D01*
X104980000Y-119710000D01*
X104690000Y-119730000D01*
X104500000Y-119600000D01*
X104430000Y-119360000D01*
X104440000Y-119110000D01*
X104520000Y-118990000D01*
X104640000Y-118910000D01*
X104920000Y-118860000D01*
X105190000Y-118950000D01*
G37*
X105190000Y-118950000D02*
X105290000Y-119180000D01*
X105300000Y-119410000D01*
X105200000Y-119630000D01*
X104980000Y-119710000D01*
X104690000Y-119730000D01*
X104500000Y-119600000D01*
X104430000Y-119360000D01*
X104440000Y-119110000D01*
X104520000Y-118990000D01*
X104640000Y-118910000D01*
X104920000Y-118860000D01*
X105190000Y-118950000D01*
D10*
X150050000Y-111420000D02*
X150030000Y-116560000D01*
X147960000Y-109240000D02*
X150050000Y-111420000D01*
X145170000Y-109310000D02*
X147960000Y-109240000D01*
X174460000Y-110500000D02*
X177740000Y-113780000D01*
X165900000Y-110540000D02*
X174460000Y-110500000D01*
X162830000Y-113620000D02*
X165900000Y-110540000D01*
X158960000Y-113530000D02*
X162830000Y-113620000D01*
X162640000Y-120700000D02*
X158840000Y-120670000D01*
X164750000Y-118590000D02*
X162640000Y-120700000D01*
X178720000Y-118660000D02*
X164750000Y-118590000D01*
X185480000Y-111930000D02*
X178720000Y-118660000D01*
X185450000Y-111400000D02*
X185480000Y-111930000D01*
X190710000Y-119770000D02*
X204170000Y-119790000D01*
X181380000Y-129030000D02*
X190710000Y-119770000D01*
X172190000Y-129030000D02*
X181380000Y-129030000D01*
X166740000Y-123640000D02*
X172190000Y-129030000D01*
X158290000Y-123640000D02*
X166740000Y-123640000D01*
X165920000Y-132320000D02*
X169330000Y-132320000D01*
X159860000Y-126230000D02*
X165920000Y-132320000D01*
X157760000Y-126200000D02*
X159860000Y-126230000D01*
X117120000Y-119270000D02*
X104790000Y-119310000D01*
X122610000Y-124800000D02*
X117120000Y-119270000D01*
X131650000Y-124820000D02*
X122610000Y-124800000D01*
X135980000Y-129190000D02*
X131650000Y-124820000D01*
X140170000Y-129230000D02*
X135980000Y-129190000D01*
X137260000Y-122870000D02*
X135270000Y-124790000D01*
X140190000Y-122870000D02*
X137260000Y-122870000D01*
X137490000Y-116440000D02*
X140150000Y-116500000D01*
X131880000Y-122060000D02*
X137490000Y-116440000D01*
X127860000Y-122100000D02*
X131880000Y-122060000D01*
X122840000Y-117080000D02*
X127860000Y-122100000D01*
X109250000Y-117100000D02*
X122840000Y-117080000D01*
X123560000Y-116080000D02*
X108330000Y-116080000D01*
X128490000Y-121010000D02*
X123560000Y-116080000D01*
X131240000Y-121010000D02*
X128490000Y-121010000D01*
X137110000Y-115320000D02*
X131240000Y-121010000D01*
X140170000Y-115260000D02*
X137110000Y-115320000D01*
D12*
X184260000Y-62520000D02*
X184260000Y-61250000D01*
X190680000Y-62490000D02*
X184260000Y-62520000D01*
X190890000Y-62660000D02*
X190680000Y-62490000D01*
X190840000Y-65910000D02*
X190890000Y-62660000D01*
X189760000Y-65910000D02*
X190840000Y-65910000D01*
X189580000Y-66030000D02*
X189760000Y-65910000D01*
X189560000Y-69470000D02*
X189580000Y-66030000D01*
X188980000Y-70060000D02*
X189560000Y-69470000D01*
X188980000Y-70950000D02*
X188980000Y-70060000D01*
X190150000Y-71030000D02*
X188980000Y-70950000D01*
X190230000Y-72050000D02*
X190150000Y-71030000D01*
X190790000Y-72030000D02*
X190230000Y-72050000D01*
X190810000Y-71150000D02*
X190790000Y-72030000D01*
X191010000Y-70950000D02*
X190810000Y-71150000D01*
X192480000Y-70960000D02*
X191010000Y-70950000D01*
X192500000Y-72040000D02*
X192480000Y-70960000D01*
X193090000Y-72040000D02*
X192500000Y-72040000D01*
X193110000Y-70960000D02*
X193090000Y-72040000D01*
X194270000Y-70930000D02*
X193110000Y-70960000D01*
X194300000Y-69980000D02*
X194270000Y-70930000D01*
X193850000Y-69470000D02*
X194300000Y-69980000D01*
X193850000Y-66310000D02*
X193850000Y-69470000D01*
X193510000Y-65950000D02*
X193850000Y-66310000D01*
X192390000Y-65920000D02*
X193510000Y-65950000D01*
X192390000Y-62720000D02*
X192390000Y-65920000D01*
X190890000Y-61190000D02*
X192390000Y-62720000D01*
X184270000Y-61240000D02*
X190890000Y-61190000D01*
D10*
X140300000Y-115080000D02*
X140230000Y-115070000D01*
X140250000Y-115060000D02*
X140300000Y-115080000D01*
X140210000Y-115070000D02*
X140250000Y-115060000D01*
X140180000Y-129390000D02*
X140210000Y-115070000D01*
X140890000Y-129380000D02*
X140180000Y-129390000D01*
X141100000Y-129570000D02*
X140890000Y-129380000D01*
X141680000Y-129580000D02*
X141100000Y-129570000D01*
X142900000Y-130760000D02*
X141680000Y-129580000D01*
X142920000Y-131160000D02*
X142900000Y-130760000D01*
X143060000Y-131330000D02*
X142920000Y-131160000D01*
X144150000Y-131360000D02*
X143060000Y-131330000D01*
X144880000Y-132110000D02*
X144150000Y-131360000D01*
X145460000Y-132110000D02*
X144880000Y-132110000D01*
X145570000Y-131920000D02*
X145460000Y-132110000D01*
X146250000Y-131910000D02*
X145570000Y-131920000D01*
X146650000Y-132300000D02*
X146250000Y-131910000D01*
X147410000Y-132310000D02*
X146650000Y-132300000D01*
X147870000Y-131850000D02*
X147410000Y-132310000D01*
X148540000Y-131670000D02*
X147870000Y-131850000D01*
X148450000Y-131860000D02*
X148540000Y-131670000D01*
X150030000Y-133380000D02*
X148450000Y-131860000D01*
X150700000Y-133360000D02*
X150030000Y-133380000D01*
X151080000Y-132980000D02*
X150700000Y-133360000D01*
X151140000Y-132650000D02*
X151080000Y-132980000D01*
X151680000Y-132080000D02*
X151140000Y-132650000D01*
X151580000Y-131830000D02*
X151680000Y-132080000D01*
X151590000Y-131370000D02*
X151580000Y-131830000D01*
X151800000Y-131160000D02*
X151590000Y-131370000D01*
X151840000Y-130540000D02*
X151800000Y-131160000D01*
X152230000Y-130130000D02*
X151840000Y-130540000D01*
X152480000Y-130060000D02*
X152230000Y-130130000D01*
X152870000Y-130390000D02*
X152480000Y-130060000D01*
X152810000Y-130770000D02*
X152870000Y-130390000D01*
X153230000Y-130600000D02*
X152810000Y-130770000D01*
X153240000Y-130430000D02*
X153230000Y-130600000D01*
X153400000Y-130230000D02*
X153240000Y-130430000D01*
X153410000Y-129720000D02*
X153400000Y-130230000D01*
X153550000Y-129580000D02*
X153410000Y-129720000D01*
X153570000Y-129050000D02*
X153550000Y-129580000D01*
X153960000Y-128630000D02*
X153570000Y-129050000D01*
X154290000Y-128590000D02*
X153960000Y-128630000D01*
X154990000Y-127920000D02*
X154290000Y-128590000D01*
X155210000Y-128100000D02*
X154990000Y-127920000D01*
X155870000Y-128100000D02*
X155210000Y-128100000D01*
X157660000Y-126330000D02*
X155870000Y-128100000D01*
X157660000Y-125320000D02*
X157660000Y-126330000D01*
X158060000Y-124900000D02*
X157660000Y-125320000D01*
X158080000Y-123760000D02*
X158060000Y-124900000D01*
X158540000Y-123340000D02*
X158080000Y-123760000D01*
X158620000Y-121850000D02*
X158540000Y-123340000D01*
X158290000Y-121520000D02*
X158620000Y-121850000D01*
X158320000Y-121270000D02*
X158290000Y-121520000D01*
X158910000Y-120690000D02*
X158320000Y-121270000D01*
X158930000Y-113500000D02*
X158910000Y-120690000D01*
X157940000Y-113520000D02*
X158930000Y-113500000D01*
X156860000Y-114570000D02*
X157940000Y-113520000D01*
X155590000Y-114550000D02*
X156860000Y-114570000D01*
X153970000Y-116150000D02*
X155590000Y-114550000D01*
X152880000Y-116120000D02*
X153970000Y-116150000D01*
X152660000Y-116330000D02*
X152880000Y-116120000D01*
X151280000Y-116340000D02*
X152660000Y-116330000D01*
X150910000Y-116680000D02*
X151280000Y-116340000D01*
X149690000Y-116630000D02*
X150910000Y-116680000D01*
X149120000Y-116020000D02*
X149690000Y-116630000D01*
X148380000Y-116000000D02*
X149120000Y-116020000D01*
X147640000Y-115300000D02*
X148380000Y-116000000D01*
X146130000Y-115310000D02*
X147640000Y-115300000D01*
X145920000Y-115050000D02*
X146130000Y-115310000D01*
X140240000Y-115080000D02*
X145920000Y-115050000D01*
D11*
G36*
X110950000Y-105900000D02*
G01*
X108570000Y-105880000D01*
X108590000Y-101110000D01*
X103950000Y-101130000D01*
X104000000Y-105900000D01*
X101580000Y-105870000D01*
X101620000Y-94860000D01*
X103950000Y-94800000D01*
X103960000Y-99060000D01*
X108610000Y-99080000D01*
X108610000Y-94820000D01*
X110970000Y-94800000D01*
X110950000Y-105900000D01*
G37*
X110950000Y-105900000D02*
X108570000Y-105880000D01*
X108590000Y-101110000D01*
X103950000Y-101130000D01*
X104000000Y-105900000D01*
X101580000Y-105870000D01*
X101620000Y-94860000D01*
X103950000Y-94800000D01*
X103960000Y-99060000D01*
X108610000Y-99080000D01*
X108610000Y-94820000D01*
X110970000Y-94800000D01*
X110950000Y-105900000D01*
G36*
X179250000Y-94770000D02*
G01*
X179760000Y-94850000D01*
X180400000Y-95030000D01*
X181050000Y-95330000D01*
X181630000Y-95690000D01*
X182230000Y-96190000D01*
X182630000Y-96620000D01*
X183070000Y-97280000D01*
X183360000Y-97860000D01*
X183580000Y-98500000D01*
X183720000Y-99120000D01*
X183830000Y-99800000D01*
X183870000Y-100700000D01*
X183810000Y-101420000D01*
X183730000Y-102050000D01*
X183570000Y-102650000D01*
X183360000Y-103230000D01*
X183130000Y-103690000D01*
X182830000Y-104150000D01*
X182490000Y-104560000D01*
X182090000Y-104950000D01*
X181620000Y-105310000D01*
X181060000Y-105660000D01*
X180770000Y-105810000D01*
X180520000Y-105930000D01*
X180180000Y-106050000D01*
X179800000Y-106140000D01*
X179270000Y-106220000D01*
X178870000Y-106240000D01*
X178500000Y-106250000D01*
X178470000Y-104030000D01*
X178540000Y-104020000D01*
X178990000Y-103970000D01*
X179320000Y-103880000D01*
X179720000Y-103730000D01*
X180100000Y-103470000D01*
X180360000Y-103240000D01*
X180610000Y-102920000D01*
X180850000Y-102490000D01*
X180990000Y-102090000D01*
X181090000Y-101660000D01*
X181150000Y-101340000D01*
X181200000Y-100880000D01*
X181220000Y-100410000D01*
X181190000Y-99840000D01*
X181110000Y-99350000D01*
X180910000Y-98690000D01*
X180650000Y-98200000D01*
X180290000Y-97700000D01*
X179970000Y-97420000D01*
X179490000Y-97150000D01*
X178930000Y-97050000D01*
X178520000Y-97030000D01*
X177930000Y-97060000D01*
X177630000Y-97120000D01*
X177340000Y-97210000D01*
X177030000Y-97380000D01*
X176770000Y-97570000D01*
X176440000Y-97910000D01*
X176210000Y-98270000D01*
X175990000Y-98720000D01*
X175850000Y-99210000D01*
X175770000Y-99680000D01*
X175710000Y-100150000D01*
X175710000Y-100630000D01*
X175730000Y-101110000D01*
X175800000Y-101670000D01*
X175950000Y-102220000D01*
X176200000Y-102770000D01*
X176460000Y-103120000D01*
X176720000Y-103390000D01*
X177000000Y-103600000D01*
X177310000Y-103780000D01*
X177680000Y-103920000D01*
X178060000Y-104000000D01*
X178370000Y-104020000D01*
X178450000Y-104010000D01*
X178490000Y-106270000D01*
X177970000Y-106260000D01*
X177290000Y-106190000D01*
X176330000Y-105900000D01*
X175730000Y-105610000D01*
X175110000Y-105180000D01*
X174620000Y-104760000D01*
X174220000Y-104280000D01*
X173810000Y-103690000D01*
X173550000Y-103230000D01*
X173370000Y-102740000D01*
X173140000Y-101880000D01*
X173080000Y-101270000D01*
X173090000Y-100130000D01*
X173120000Y-99490000D01*
X173190000Y-98990000D01*
X173340000Y-98410000D01*
X173820000Y-97370000D01*
X174140000Y-96820000D01*
X174610000Y-96260000D01*
X175180000Y-95780000D01*
X175930000Y-95290000D01*
X176750000Y-94950000D01*
X177680000Y-94790000D01*
X178550000Y-94750000D01*
X178580000Y-94750000D01*
X179250000Y-94770000D01*
G37*
X179250000Y-94770000D02*
X179760000Y-94850000D01*
X180400000Y-95030000D01*
X181050000Y-95330000D01*
X181630000Y-95690000D01*
X182230000Y-96190000D01*
X182630000Y-96620000D01*
X183070000Y-97280000D01*
X183360000Y-97860000D01*
X183580000Y-98500000D01*
X183720000Y-99120000D01*
X183830000Y-99800000D01*
X183870000Y-100700000D01*
X183810000Y-101420000D01*
X183730000Y-102050000D01*
X183570000Y-102650000D01*
X183360000Y-103230000D01*
X183130000Y-103690000D01*
X182830000Y-104150000D01*
X182490000Y-104560000D01*
X182090000Y-104950000D01*
X181620000Y-105310000D01*
X181060000Y-105660000D01*
X180770000Y-105810000D01*
X180520000Y-105930000D01*
X180180000Y-106050000D01*
X179800000Y-106140000D01*
X179270000Y-106220000D01*
X178870000Y-106240000D01*
X178500000Y-106250000D01*
X178470000Y-104030000D01*
X178540000Y-104020000D01*
X178990000Y-103970000D01*
X179320000Y-103880000D01*
X179720000Y-103730000D01*
X180100000Y-103470000D01*
X180360000Y-103240000D01*
X180610000Y-102920000D01*
X180850000Y-102490000D01*
X180990000Y-102090000D01*
X181090000Y-101660000D01*
X181150000Y-101340000D01*
X181200000Y-100880000D01*
X181220000Y-100410000D01*
X181190000Y-99840000D01*
X181110000Y-99350000D01*
X180910000Y-98690000D01*
X180650000Y-98200000D01*
X180290000Y-97700000D01*
X179970000Y-97420000D01*
X179490000Y-97150000D01*
X178930000Y-97050000D01*
X178520000Y-97030000D01*
X177930000Y-97060000D01*
X177630000Y-97120000D01*
X177340000Y-97210000D01*
X177030000Y-97380000D01*
X176770000Y-97570000D01*
X176440000Y-97910000D01*
X176210000Y-98270000D01*
X175990000Y-98720000D01*
X175850000Y-99210000D01*
X175770000Y-99680000D01*
X175710000Y-100150000D01*
X175710000Y-100630000D01*
X175730000Y-101110000D01*
X175800000Y-101670000D01*
X175950000Y-102220000D01*
X176200000Y-102770000D01*
X176460000Y-103120000D01*
X176720000Y-103390000D01*
X177000000Y-103600000D01*
X177310000Y-103780000D01*
X177680000Y-103920000D01*
X178060000Y-104000000D01*
X178370000Y-104020000D01*
X178450000Y-104010000D01*
X178490000Y-106270000D01*
X177970000Y-106260000D01*
X177290000Y-106190000D01*
X176330000Y-105900000D01*
X175730000Y-105610000D01*
X175110000Y-105180000D01*
X174620000Y-104760000D01*
X174220000Y-104280000D01*
X173810000Y-103690000D01*
X173550000Y-103230000D01*
X173370000Y-102740000D01*
X173140000Y-101880000D01*
X173080000Y-101270000D01*
X173090000Y-100130000D01*
X173120000Y-99490000D01*
X173190000Y-98990000D01*
X173340000Y-98410000D01*
X173820000Y-97370000D01*
X174140000Y-96820000D01*
X174610000Y-96260000D01*
X175180000Y-95780000D01*
X175930000Y-95290000D01*
X176750000Y-94950000D01*
X177680000Y-94790000D01*
X178550000Y-94750000D01*
X178580000Y-94750000D01*
X179250000Y-94770000D01*
G36*
X172970000Y-94640000D02*
G01*
X173040000Y-94750000D01*
X172990000Y-94880000D01*
X168830000Y-106020000D01*
X167160000Y-106050000D01*
X171389272Y-94629843D01*
X172560000Y-94610000D01*
X172970000Y-94640000D01*
G37*
X172970000Y-94640000D02*
X173040000Y-94750000D01*
X172990000Y-94880000D01*
X168830000Y-106020000D01*
X167160000Y-106050000D01*
X171389272Y-94629843D01*
X172560000Y-94610000D01*
X172970000Y-94640000D01*
G36*
X171389272Y-94629843D02*
G01*
X171380000Y-94630000D01*
X171390117Y-94627562D01*
X171389272Y-94629843D01*
G37*
X171389272Y-94629843D02*
X171380000Y-94630000D01*
X171390117Y-94627562D01*
X171389272Y-94629843D01*
G36*
X166077302Y-105908000D02*
G01*
X163677302Y-105908000D01*
X163680000Y-94810000D01*
X163677302Y-94808000D01*
X166077302Y-94808000D01*
X166077302Y-105908000D01*
G37*
X166077302Y-105908000D02*
X163677302Y-105908000D01*
X163680000Y-94810000D01*
X163677302Y-94808000D01*
X166077302Y-94808000D01*
X166077302Y-105908000D01*
G36*
X154577302Y-99108000D02*
G01*
X159077302Y-99108000D01*
X159077302Y-94808000D01*
X161477302Y-94808000D01*
X161477302Y-105908000D01*
X159077302Y-105908000D01*
X159077302Y-101108000D01*
X154577302Y-101108000D01*
X154577302Y-105908000D01*
X152177302Y-105908000D01*
X152177302Y-94808000D01*
X154577302Y-94808000D01*
X154577302Y-99108000D01*
G37*
X154577302Y-99108000D02*
X159077302Y-99108000D01*
X159077302Y-94808000D01*
X161477302Y-94808000D01*
X161477302Y-105908000D01*
X159077302Y-105908000D01*
X159077302Y-101108000D01*
X154577302Y-101108000D01*
X154577302Y-105908000D01*
X152177302Y-105908000D01*
X152177302Y-94808000D01*
X154577302Y-94808000D01*
X154577302Y-99108000D01*
G36*
X145770000Y-94640000D02*
G01*
X146280000Y-94720000D01*
X146920000Y-94900000D01*
X147570000Y-95200000D01*
X148150000Y-95560000D01*
X148750000Y-96060000D01*
X149150000Y-96490000D01*
X149590000Y-97150000D01*
X149880000Y-97730000D01*
X150100000Y-98370000D01*
X150240000Y-98990000D01*
X150350000Y-99670000D01*
X150390000Y-100570000D01*
X150330000Y-101290000D01*
X150250000Y-101920000D01*
X150090000Y-102520000D01*
X149880000Y-103100000D01*
X149650000Y-103560000D01*
X149350000Y-104020000D01*
X149010000Y-104430000D01*
X148610000Y-104820000D01*
X148140000Y-105180000D01*
X147580000Y-105530000D01*
X147290000Y-105680000D01*
X147040000Y-105800000D01*
X146700000Y-105920000D01*
X146320000Y-106010000D01*
X145790000Y-106090000D01*
X145390000Y-106110000D01*
X145020000Y-106120000D01*
X144990000Y-103900000D01*
X145060000Y-103890000D01*
X145510000Y-103840000D01*
X145840000Y-103750000D01*
X146240000Y-103600000D01*
X146620000Y-103340000D01*
X146880000Y-103110000D01*
X147130000Y-102790000D01*
X147370000Y-102360000D01*
X147510000Y-101960000D01*
X147610000Y-101530000D01*
X147670000Y-101210000D01*
X147720000Y-100750000D01*
X147740000Y-100280000D01*
X147710000Y-99710000D01*
X147630000Y-99220000D01*
X147430000Y-98560000D01*
X147170000Y-98070000D01*
X146810000Y-97570000D01*
X146490000Y-97290000D01*
X146010000Y-97020000D01*
X145450000Y-96920000D01*
X145040000Y-96900000D01*
X144450000Y-96930000D01*
X144150000Y-96990000D01*
X143860000Y-97080000D01*
X143550000Y-97250000D01*
X143290000Y-97440000D01*
X142960000Y-97780000D01*
X142730000Y-98140000D01*
X142510000Y-98590000D01*
X142370000Y-99080000D01*
X142290000Y-99550000D01*
X142230000Y-100020000D01*
X142230000Y-100500000D01*
X142250000Y-100980000D01*
X142320000Y-101540000D01*
X142470000Y-102090000D01*
X142720000Y-102640000D01*
X142980000Y-102990000D01*
X143240000Y-103260000D01*
X143520000Y-103470000D01*
X143830000Y-103650000D01*
X144200000Y-103790000D01*
X144580000Y-103870000D01*
X144890000Y-103890000D01*
X144970000Y-103880000D01*
X145010000Y-106140000D01*
X144490000Y-106130000D01*
X143810000Y-106060000D01*
X142850000Y-105770000D01*
X142250000Y-105480000D01*
X141630000Y-105050000D01*
X141140000Y-104630000D01*
X140740000Y-104150000D01*
X140330000Y-103560000D01*
X140070000Y-103100000D01*
X139890000Y-102610000D01*
X139660000Y-101750000D01*
X139600000Y-101140000D01*
X139610000Y-100000000D01*
X139640000Y-99360000D01*
X139710000Y-98860000D01*
X139860000Y-98280000D01*
X140340000Y-97240000D01*
X140660000Y-96690000D01*
X141130000Y-96130000D01*
X141700000Y-95650000D01*
X142450000Y-95160000D01*
X143270000Y-94820000D01*
X144200000Y-94660000D01*
X145070000Y-94620000D01*
X145100000Y-94620000D01*
X145770000Y-94640000D01*
G37*
X145770000Y-94640000D02*
X146280000Y-94720000D01*
X146920000Y-94900000D01*
X147570000Y-95200000D01*
X148150000Y-95560000D01*
X148750000Y-96060000D01*
X149150000Y-96490000D01*
X149590000Y-97150000D01*
X149880000Y-97730000D01*
X150100000Y-98370000D01*
X150240000Y-98990000D01*
X150350000Y-99670000D01*
X150390000Y-100570000D01*
X150330000Y-101290000D01*
X150250000Y-101920000D01*
X150090000Y-102520000D01*
X149880000Y-103100000D01*
X149650000Y-103560000D01*
X149350000Y-104020000D01*
X149010000Y-104430000D01*
X148610000Y-104820000D01*
X148140000Y-105180000D01*
X147580000Y-105530000D01*
X147290000Y-105680000D01*
X147040000Y-105800000D01*
X146700000Y-105920000D01*
X146320000Y-106010000D01*
X145790000Y-106090000D01*
X145390000Y-106110000D01*
X145020000Y-106120000D01*
X144990000Y-103900000D01*
X145060000Y-103890000D01*
X145510000Y-103840000D01*
X145840000Y-103750000D01*
X146240000Y-103600000D01*
X146620000Y-103340000D01*
X146880000Y-103110000D01*
X147130000Y-102790000D01*
X147370000Y-102360000D01*
X147510000Y-101960000D01*
X147610000Y-101530000D01*
X147670000Y-101210000D01*
X147720000Y-100750000D01*
X147740000Y-100280000D01*
X147710000Y-99710000D01*
X147630000Y-99220000D01*
X147430000Y-98560000D01*
X147170000Y-98070000D01*
X146810000Y-97570000D01*
X146490000Y-97290000D01*
X146010000Y-97020000D01*
X145450000Y-96920000D01*
X145040000Y-96900000D01*
X144450000Y-96930000D01*
X144150000Y-96990000D01*
X143860000Y-97080000D01*
X143550000Y-97250000D01*
X143290000Y-97440000D01*
X142960000Y-97780000D01*
X142730000Y-98140000D01*
X142510000Y-98590000D01*
X142370000Y-99080000D01*
X142290000Y-99550000D01*
X142230000Y-100020000D01*
X142230000Y-100500000D01*
X142250000Y-100980000D01*
X142320000Y-101540000D01*
X142470000Y-102090000D01*
X142720000Y-102640000D01*
X142980000Y-102990000D01*
X143240000Y-103260000D01*
X143520000Y-103470000D01*
X143830000Y-103650000D01*
X144200000Y-103790000D01*
X144580000Y-103870000D01*
X144890000Y-103890000D01*
X144970000Y-103880000D01*
X145010000Y-106140000D01*
X144490000Y-106130000D01*
X143810000Y-106060000D01*
X142850000Y-105770000D01*
X142250000Y-105480000D01*
X141630000Y-105050000D01*
X141140000Y-104630000D01*
X140740000Y-104150000D01*
X140330000Y-103560000D01*
X140070000Y-103100000D01*
X139890000Y-102610000D01*
X139660000Y-101750000D01*
X139600000Y-101140000D01*
X139610000Y-100000000D01*
X139640000Y-99360000D01*
X139710000Y-98860000D01*
X139860000Y-98280000D01*
X140340000Y-97240000D01*
X140660000Y-96690000D01*
X141130000Y-96130000D01*
X141700000Y-95650000D01*
X142450000Y-95160000D01*
X143270000Y-94820000D01*
X144200000Y-94660000D01*
X145070000Y-94620000D01*
X145100000Y-94620000D01*
X145770000Y-94640000D01*
G36*
X133185424Y-100858000D02*
G01*
X136027302Y-97901942D01*
X138527302Y-97909811D01*
X135577302Y-100877601D01*
X138820000Y-105790000D01*
X138740000Y-105860000D01*
X136296148Y-105908000D01*
X134057162Y-102286124D01*
X133177302Y-103149642D01*
X133177302Y-105908000D01*
X131077302Y-105908000D01*
X131077302Y-94808000D01*
X133170000Y-94810000D01*
X133177302Y-94808000D01*
X133185424Y-100858000D01*
G37*
X133185424Y-100858000D02*
X136027302Y-97901942D01*
X138527302Y-97909811D01*
X135577302Y-100877601D01*
X138820000Y-105790000D01*
X138740000Y-105860000D01*
X136296148Y-105908000D01*
X134057162Y-102286124D01*
X133177302Y-103149642D01*
X133177302Y-105908000D01*
X131077302Y-105908000D01*
X131077302Y-94808000D01*
X133170000Y-94810000D01*
X133177302Y-94808000D01*
X133185424Y-100858000D01*
G36*
X126390000Y-97760000D02*
G01*
X126860000Y-97840000D01*
X127290000Y-97960000D01*
X127810000Y-98190000D01*
X128130000Y-98390000D01*
X128440000Y-98640000D01*
X128720000Y-98920000D01*
X128980000Y-99260000D01*
X129170000Y-99580000D01*
X129310000Y-99900000D01*
X129400000Y-100200000D01*
X129486364Y-100708000D01*
X129470000Y-100700000D01*
X127410000Y-100690000D01*
X127180000Y-100170000D01*
X126980000Y-99850000D01*
X126700000Y-99580000D01*
X126420000Y-99430000D01*
X126100000Y-99340000D01*
X125700000Y-99310000D01*
X125320000Y-99350000D01*
X125060000Y-99420000D01*
X124780000Y-99590000D01*
X124500000Y-99840000D01*
X124300000Y-100060000D01*
X124100000Y-100350000D01*
X123940000Y-100730000D01*
X123850000Y-101080000D01*
X123810000Y-101390000D01*
X123780000Y-101740000D01*
X123780000Y-102040000D01*
X123790000Y-102260000D01*
X123890000Y-102840000D01*
X123980000Y-103140000D01*
X124080000Y-103450000D01*
X124190000Y-103660000D01*
X124260000Y-103810000D01*
X124390000Y-103990000D01*
X124560000Y-104140000D01*
X124790000Y-104300000D01*
X125060000Y-104420000D01*
X125350000Y-104490000D01*
X125650000Y-104510000D01*
X125930000Y-104490000D01*
X126210000Y-104430000D01*
X126510000Y-104300000D01*
X126760000Y-104150000D01*
X127034408Y-103885411D01*
X127220000Y-103610000D01*
X127320000Y-103330000D01*
X127370000Y-103050000D01*
X127400000Y-102900000D01*
X129500000Y-102910000D01*
X129380000Y-103510000D01*
X129200000Y-104040000D01*
X129010000Y-104390000D01*
X128720000Y-104800000D01*
X128280000Y-105230000D01*
X128010000Y-105440000D01*
X127720000Y-105620000D01*
X127430000Y-105750000D01*
X127080000Y-105880000D01*
X126750000Y-105980000D01*
X126300000Y-106060000D01*
X125520000Y-106100000D01*
X124860000Y-106020000D01*
X124420000Y-105920000D01*
X123940000Y-105760000D01*
X123480000Y-105530000D01*
X123040000Y-105200000D01*
X122660000Y-104870000D01*
X122350000Y-104450000D01*
X122000000Y-103850000D01*
X121840000Y-103440000D01*
X121710000Y-102890000D01*
X121690000Y-102560000D01*
X121670000Y-102070000D01*
X121680000Y-101610000D01*
X121710000Y-101100000D01*
X121810000Y-100620000D01*
X121950000Y-100200000D01*
X122130000Y-99780000D01*
X122380000Y-99360000D01*
X122620000Y-99040000D01*
X123010000Y-98620000D01*
X123270000Y-98420000D01*
X123670000Y-98170000D01*
X124120000Y-97980000D01*
X124550000Y-97860000D01*
X125060000Y-97770000D01*
X125480000Y-97730000D01*
X125890000Y-97720000D01*
X126390000Y-97760000D01*
G37*
X126390000Y-97760000D02*
X126860000Y-97840000D01*
X127290000Y-97960000D01*
X127810000Y-98190000D01*
X128130000Y-98390000D01*
X128440000Y-98640000D01*
X128720000Y-98920000D01*
X128980000Y-99260000D01*
X129170000Y-99580000D01*
X129310000Y-99900000D01*
X129400000Y-100200000D01*
X129486364Y-100708000D01*
X129470000Y-100700000D01*
X127410000Y-100690000D01*
X127180000Y-100170000D01*
X126980000Y-99850000D01*
X126700000Y-99580000D01*
X126420000Y-99430000D01*
X126100000Y-99340000D01*
X125700000Y-99310000D01*
X125320000Y-99350000D01*
X125060000Y-99420000D01*
X124780000Y-99590000D01*
X124500000Y-99840000D01*
X124300000Y-100060000D01*
X124100000Y-100350000D01*
X123940000Y-100730000D01*
X123850000Y-101080000D01*
X123810000Y-101390000D01*
X123780000Y-101740000D01*
X123780000Y-102040000D01*
X123790000Y-102260000D01*
X123890000Y-102840000D01*
X123980000Y-103140000D01*
X124080000Y-103450000D01*
X124190000Y-103660000D01*
X124260000Y-103810000D01*
X124390000Y-103990000D01*
X124560000Y-104140000D01*
X124790000Y-104300000D01*
X125060000Y-104420000D01*
X125350000Y-104490000D01*
X125650000Y-104510000D01*
X125930000Y-104490000D01*
X126210000Y-104430000D01*
X126510000Y-104300000D01*
X126760000Y-104150000D01*
X127034408Y-103885411D01*
X127220000Y-103610000D01*
X127320000Y-103330000D01*
X127370000Y-103050000D01*
X127400000Y-102900000D01*
X129500000Y-102910000D01*
X129380000Y-103510000D01*
X129200000Y-104040000D01*
X129010000Y-104390000D01*
X128720000Y-104800000D01*
X128280000Y-105230000D01*
X128010000Y-105440000D01*
X127720000Y-105620000D01*
X127430000Y-105750000D01*
X127080000Y-105880000D01*
X126750000Y-105980000D01*
X126300000Y-106060000D01*
X125520000Y-106100000D01*
X124860000Y-106020000D01*
X124420000Y-105920000D01*
X123940000Y-105760000D01*
X123480000Y-105530000D01*
X123040000Y-105200000D01*
X122660000Y-104870000D01*
X122350000Y-104450000D01*
X122000000Y-103850000D01*
X121840000Y-103440000D01*
X121710000Y-102890000D01*
X121690000Y-102560000D01*
X121670000Y-102070000D01*
X121680000Y-101610000D01*
X121710000Y-101100000D01*
X121810000Y-100620000D01*
X121950000Y-100200000D01*
X122130000Y-99780000D01*
X122380000Y-99360000D01*
X122620000Y-99040000D01*
X123010000Y-98620000D01*
X123270000Y-98420000D01*
X123670000Y-98170000D01*
X124120000Y-97980000D01*
X124550000Y-97860000D01*
X125060000Y-97770000D01*
X125480000Y-97730000D01*
X125890000Y-97720000D01*
X126390000Y-97760000D01*
G36*
X117910000Y-97770000D02*
G01*
X118400000Y-97860000D01*
X118720000Y-97970000D01*
X119070000Y-98130000D01*
X119400000Y-98370000D01*
X119660000Y-98590000D01*
X119910000Y-99060000D01*
X120030000Y-99620000D01*
X120040000Y-100220000D01*
X120210000Y-105360000D01*
X120230000Y-105800000D01*
X119910000Y-105910000D01*
X119350000Y-105910000D01*
X118720000Y-105890000D01*
X118310000Y-105850000D01*
X118120000Y-105650000D01*
X118040000Y-105300000D01*
X117860000Y-105300000D01*
X116800000Y-105860000D01*
X116110000Y-106010000D01*
X115230000Y-106070000D01*
X114460000Y-106020000D01*
X113920000Y-105840000D01*
X113460000Y-105540000D01*
X113010000Y-105110000D01*
X112810000Y-104730000D01*
X112650000Y-104290000D01*
X112590000Y-103700000D01*
X112690000Y-103160000D01*
X112830000Y-102730000D01*
X113200000Y-102220000D01*
X113720000Y-101820000D01*
X114290000Y-101590000D01*
X115320000Y-101310000D01*
X115800000Y-102830000D01*
X115390000Y-102930000D01*
X115150000Y-103240000D01*
X115040000Y-103670000D01*
X115180000Y-104160000D01*
X115650000Y-104350000D01*
X116370000Y-104370000D01*
X116970000Y-104260000D01*
X117290000Y-103980000D01*
X117510000Y-103620000D01*
X117620000Y-103250000D01*
X117690000Y-102840000D01*
X117690000Y-102420000D01*
X117350000Y-102500000D01*
X116510000Y-102680000D01*
X115800000Y-102820000D01*
X115330000Y-101310000D01*
X116240000Y-101190000D01*
X117280000Y-100990000D01*
X117700000Y-100750000D01*
X117950000Y-100320000D01*
X117940000Y-100090000D01*
X117790000Y-99650000D01*
X117540000Y-99410000D01*
X117170000Y-99230000D01*
X116770000Y-99160000D01*
X116280000Y-99130000D01*
X115940000Y-99200000D01*
X115580000Y-99320000D01*
X115340000Y-99520000D01*
X115130000Y-99860000D01*
X114950000Y-100210000D01*
X114870000Y-100300000D01*
X112850000Y-100310000D01*
X112890000Y-100040000D01*
X112980000Y-99550000D01*
X113150000Y-99240000D01*
X113360000Y-98900000D01*
X113620000Y-98670000D01*
X113940000Y-98410000D01*
X114480000Y-98110000D01*
X115080000Y-97920000D01*
X115380000Y-97830000D01*
X115990000Y-97780000D01*
X116260000Y-97730000D01*
X116840000Y-97730000D01*
X117330000Y-97720000D01*
X117910000Y-97770000D01*
G37*
X117910000Y-97770000D02*
X118400000Y-97860000D01*
X118720000Y-97970000D01*
X119070000Y-98130000D01*
X119400000Y-98370000D01*
X119660000Y-98590000D01*
X119910000Y-99060000D01*
X120030000Y-99620000D01*
X120040000Y-100220000D01*
X120210000Y-105360000D01*
X120230000Y-105800000D01*
X119910000Y-105910000D01*
X119350000Y-105910000D01*
X118720000Y-105890000D01*
X118310000Y-105850000D01*
X118120000Y-105650000D01*
X118040000Y-105300000D01*
X117860000Y-105300000D01*
X116800000Y-105860000D01*
X116110000Y-106010000D01*
X115230000Y-106070000D01*
X114460000Y-106020000D01*
X113920000Y-105840000D01*
X113460000Y-105540000D01*
X113010000Y-105110000D01*
X112810000Y-104730000D01*
X112650000Y-104290000D01*
X112590000Y-103700000D01*
X112690000Y-103160000D01*
X112830000Y-102730000D01*
X113200000Y-102220000D01*
X113720000Y-101820000D01*
X114290000Y-101590000D01*
X115320000Y-101310000D01*
X115800000Y-102830000D01*
X115390000Y-102930000D01*
X115150000Y-103240000D01*
X115040000Y-103670000D01*
X115180000Y-104160000D01*
X115650000Y-104350000D01*
X116370000Y-104370000D01*
X116970000Y-104260000D01*
X117290000Y-103980000D01*
X117510000Y-103620000D01*
X117620000Y-103250000D01*
X117690000Y-102840000D01*
X117690000Y-102420000D01*
X117350000Y-102500000D01*
X116510000Y-102680000D01*
X115800000Y-102820000D01*
X115330000Y-101310000D01*
X116240000Y-101190000D01*
X117280000Y-100990000D01*
X117700000Y-100750000D01*
X117950000Y-100320000D01*
X117940000Y-100090000D01*
X117790000Y-99650000D01*
X117540000Y-99410000D01*
X117170000Y-99230000D01*
X116770000Y-99160000D01*
X116280000Y-99130000D01*
X115940000Y-99200000D01*
X115580000Y-99320000D01*
X115340000Y-99520000D01*
X115130000Y-99860000D01*
X114950000Y-100210000D01*
X114870000Y-100300000D01*
X112850000Y-100310000D01*
X112890000Y-100040000D01*
X112980000Y-99550000D01*
X113150000Y-99240000D01*
X113360000Y-98900000D01*
X113620000Y-98670000D01*
X113940000Y-98410000D01*
X114480000Y-98110000D01*
X115080000Y-97920000D01*
X115380000Y-97830000D01*
X115990000Y-97780000D01*
X116260000Y-97730000D01*
X116840000Y-97730000D01*
X117330000Y-97720000D01*
X117910000Y-97770000D01*
D13*
%TO.C,TP9*%
X160190000Y-95270000D03*
%TD*%
%TO.C,TP7*%
X165130000Y-95280000D03*
%TD*%
%TO.C,TP10*%
X172030000Y-95080000D03*
%TD*%
%TO.C,TP8*%
X178380000Y-95220000D03*
%TD*%
%TO.C,TP3*%
X125970000Y-105560000D03*
%TD*%
%TO.C,TP5*%
X119330000Y-105390000D03*
%TD*%
%TO.C,TP4*%
X132110000Y-105460000D03*
%TD*%
%TO.C,TP11*%
X145140000Y-95080000D03*
%TD*%
%TO.C,TP6*%
X109910000Y-105440000D03*
%TD*%
D14*
%TO.C,TP1*%
X138410000Y-110510000D03*
%TD*%
%TO.C,TP2*%
X142940000Y-91530000D03*
%TD*%
D15*
X199036635Y-95144772D02*
X195873716Y-99980482D01*
X195862196Y-100002553D01*
X195855203Y-100026447D01*
X195853006Y-100051246D01*
X195855689Y-100075998D01*
X195863150Y-100099750D01*
X195873711Y-100119511D01*
X199523447Y-105700324D01*
X197169566Y-105673776D01*
X194836602Y-102070971D01*
X194821087Y-102051500D01*
X194802071Y-102035431D01*
X194776031Y-102021635D01*
X194596031Y-101951635D01*
X194572054Y-101944930D01*
X194547231Y-101943030D01*
X194522513Y-101946010D01*
X194498852Y-101953755D01*
X194477157Y-101965967D01*
X194458261Y-101982177D01*
X194443595Y-102000667D01*
X192031171Y-105703000D01*
X189816602Y-105703000D01*
X193425843Y-100260187D01*
X193441644Y-100226493D01*
X193471644Y-100126493D01*
X193476426Y-100102060D01*
X193476350Y-100077164D01*
X193471418Y-100052761D01*
X193458243Y-100023573D01*
X190523102Y-95240736D01*
X192352812Y-95188952D01*
X194543898Y-98519796D01*
X194559553Y-98539154D01*
X194578684Y-98555086D01*
X194600556Y-98566980D01*
X194624328Y-98574378D01*
X194650000Y-98577000D01*
X194800000Y-98577000D01*
X194824776Y-98574560D01*
X194848601Y-98567333D01*
X194870557Y-98555597D01*
X194889803Y-98539803D01*
X194904538Y-98522116D01*
X197246235Y-95127639D01*
X199036635Y-95144772D01*
D11*
G36*
X199036635Y-95144772D02*
G01*
X195873716Y-99980482D01*
X195862196Y-100002553D01*
X195855203Y-100026447D01*
X195853006Y-100051246D01*
X195855689Y-100075998D01*
X195863150Y-100099750D01*
X195873711Y-100119511D01*
X199523447Y-105700324D01*
X197169566Y-105673776D01*
X194836602Y-102070971D01*
X194821087Y-102051500D01*
X194802071Y-102035431D01*
X194776031Y-102021635D01*
X194596031Y-101951635D01*
X194572054Y-101944930D01*
X194547231Y-101943030D01*
X194522513Y-101946010D01*
X194498852Y-101953755D01*
X194477157Y-101965967D01*
X194458261Y-101982177D01*
X194443595Y-102000667D01*
X192031171Y-105703000D01*
X189816602Y-105703000D01*
X193425843Y-100260187D01*
X193441644Y-100226493D01*
X193471644Y-100126493D01*
X193476426Y-100102060D01*
X193476350Y-100077164D01*
X193471418Y-100052761D01*
X193458243Y-100023573D01*
X190523102Y-95240736D01*
X192352812Y-95188952D01*
X194543898Y-98519796D01*
X194559553Y-98539154D01*
X194578684Y-98555086D01*
X194600556Y-98566980D01*
X194624328Y-98574378D01*
X194650000Y-98577000D01*
X194800000Y-98577000D01*
X194824776Y-98574560D01*
X194848601Y-98567333D01*
X194870557Y-98555597D01*
X194889803Y-98539803D01*
X194904538Y-98522116D01*
X197246235Y-95127639D01*
X199036635Y-95144772D01*
G37*
M02*
