%TF.GenerationSoftware,KiCad,Pcbnew,(5.1.10)-1*%
%TF.CreationDate,2022-09-07T22:56:21-04:00*%
%TF.ProjectId,HACK Badges,4841434b-2042-4616-9467-65732e6b6963,rev?*%
%TF.SameCoordinates,Original*%
%TF.FileFunction,Copper,L1,Top*%
%TF.FilePolarity,Positive*%
%FSLAX46Y46*%
G04 Gerber Fmt 4.6, Leading zero omitted, Abs format (unit mm)*
G04 Created by KiCad (PCBNEW (5.1.10)-1) date 2022-09-07 22:56:21*
%MOMM*%
%LPD*%
G01*
G04 APERTURE LIST*
%TA.AperFunction,NonConductor*%
%ADD10C,0.150000*%
%TD*%
%TA.AperFunction,NonConductor*%
%ADD11C,0.100000*%
%TD*%
%TA.AperFunction,SMDPad,CuDef*%
%ADD12R,1.000000X1.000000*%
%TD*%
%TA.AperFunction,SMDPad,CuDef*%
%ADD13C,1.000000*%
%TD*%
%TA.AperFunction,ViaPad*%
%ADD14C,0.800000*%
%TD*%
%TA.AperFunction,Conductor*%
%ADD15C,0.250000*%
%TD*%
G04 APERTURE END LIST*
D10*
X145470000Y-109240000D02*
G75*
G03*
X145470000Y-109240000I-450000J0D01*
G01*
D11*
G36*
X145340000Y-108890000D02*
G01*
X145440000Y-109120000D01*
X145450000Y-109350000D01*
X145350000Y-109570000D01*
X145130000Y-109650000D01*
X144840000Y-109670000D01*
X144650000Y-109540000D01*
X144580000Y-109300000D01*
X144590000Y-109050000D01*
X144670000Y-108930000D01*
X144790000Y-108850000D01*
X145070000Y-108800000D01*
X145340000Y-108890000D01*
G37*
X145340000Y-108890000D02*
X145440000Y-109120000D01*
X145450000Y-109350000D01*
X145350000Y-109570000D01*
X145130000Y-109650000D01*
X144840000Y-109670000D01*
X144650000Y-109540000D01*
X144580000Y-109300000D01*
X144590000Y-109050000D01*
X144670000Y-108930000D01*
X144790000Y-108850000D01*
X145070000Y-108800000D01*
X145340000Y-108890000D01*
D10*
X178260000Y-113750000D02*
G75*
G03*
X178260000Y-113750000I-450000J0D01*
G01*
D11*
G36*
X178130000Y-113400000D02*
G01*
X178230000Y-113630000D01*
X178240000Y-113860000D01*
X178140000Y-114080000D01*
X177920000Y-114160000D01*
X177630000Y-114180000D01*
X177440000Y-114050000D01*
X177370000Y-113810000D01*
X177380000Y-113560000D01*
X177460000Y-113440000D01*
X177580000Y-113360000D01*
X177860000Y-113310000D01*
X178130000Y-113400000D01*
G37*
X178130000Y-113400000D02*
X178230000Y-113630000D01*
X178240000Y-113860000D01*
X178140000Y-114080000D01*
X177920000Y-114160000D01*
X177630000Y-114180000D01*
X177440000Y-114050000D01*
X177370000Y-113810000D01*
X177380000Y-113560000D01*
X177460000Y-113440000D01*
X177580000Y-113360000D01*
X177860000Y-113310000D01*
X178130000Y-113400000D01*
D10*
X185990000Y-111470000D02*
G75*
G03*
X185990000Y-111470000I-450000J0D01*
G01*
D11*
G36*
X185860000Y-111120000D02*
G01*
X185960000Y-111350000D01*
X185970000Y-111580000D01*
X185870000Y-111800000D01*
X185650000Y-111880000D01*
X185360000Y-111900000D01*
X185170000Y-111770000D01*
X185100000Y-111530000D01*
X185110000Y-111280000D01*
X185190000Y-111160000D01*
X185310000Y-111080000D01*
X185590000Y-111030000D01*
X185860000Y-111120000D01*
G37*
X185860000Y-111120000D02*
X185960000Y-111350000D01*
X185970000Y-111580000D01*
X185870000Y-111800000D01*
X185650000Y-111880000D01*
X185360000Y-111900000D01*
X185170000Y-111770000D01*
X185100000Y-111530000D01*
X185110000Y-111280000D01*
X185190000Y-111160000D01*
X185310000Y-111080000D01*
X185590000Y-111030000D01*
X185860000Y-111120000D01*
D10*
X204610000Y-119740000D02*
G75*
G03*
X204610000Y-119740000I-450000J0D01*
G01*
D11*
G36*
X204480000Y-119390000D02*
G01*
X204580000Y-119620000D01*
X204590000Y-119850000D01*
X204490000Y-120070000D01*
X204270000Y-120150000D01*
X203980000Y-120170000D01*
X203790000Y-120040000D01*
X203720000Y-119800000D01*
X203730000Y-119550000D01*
X203810000Y-119430000D01*
X203930000Y-119350000D01*
X204210000Y-119300000D01*
X204480000Y-119390000D01*
G37*
X204480000Y-119390000D02*
X204580000Y-119620000D01*
X204590000Y-119850000D01*
X204490000Y-120070000D01*
X204270000Y-120150000D01*
X203980000Y-120170000D01*
X203790000Y-120040000D01*
X203720000Y-119800000D01*
X203730000Y-119550000D01*
X203810000Y-119430000D01*
X203930000Y-119350000D01*
X204210000Y-119300000D01*
X204480000Y-119390000D01*
D10*
X169900000Y-132260000D02*
G75*
G03*
X169900000Y-132260000I-450000J0D01*
G01*
D11*
G36*
X169770000Y-131910000D02*
G01*
X169870000Y-132140000D01*
X169880000Y-132370000D01*
X169780000Y-132590000D01*
X169560000Y-132670000D01*
X169270000Y-132690000D01*
X169080000Y-132560000D01*
X169010000Y-132320000D01*
X169020000Y-132070000D01*
X169100000Y-131950000D01*
X169220000Y-131870000D01*
X169500000Y-131820000D01*
X169770000Y-131910000D01*
G37*
X169770000Y-131910000D02*
X169870000Y-132140000D01*
X169880000Y-132370000D01*
X169780000Y-132590000D01*
X169560000Y-132670000D01*
X169270000Y-132690000D01*
X169080000Y-132560000D01*
X169010000Y-132320000D01*
X169020000Y-132070000D01*
X169100000Y-131950000D01*
X169220000Y-131870000D01*
X169500000Y-131820000D01*
X169770000Y-131910000D01*
D10*
X135810000Y-124760000D02*
G75*
G03*
X135810000Y-124760000I-450000J0D01*
G01*
D11*
G36*
X135680000Y-124410000D02*
G01*
X135780000Y-124640000D01*
X135790000Y-124870000D01*
X135690000Y-125090000D01*
X135470000Y-125170000D01*
X135180000Y-125190000D01*
X134990000Y-125060000D01*
X134920000Y-124820000D01*
X134930000Y-124570000D01*
X135010000Y-124450000D01*
X135130000Y-124370000D01*
X135410000Y-124320000D01*
X135680000Y-124410000D01*
G37*
X135680000Y-124410000D02*
X135780000Y-124640000D01*
X135790000Y-124870000D01*
X135690000Y-125090000D01*
X135470000Y-125170000D01*
X135180000Y-125190000D01*
X134990000Y-125060000D01*
X134920000Y-124820000D01*
X134930000Y-124570000D01*
X135010000Y-124450000D01*
X135130000Y-124370000D01*
X135410000Y-124320000D01*
X135680000Y-124410000D01*
D10*
X109740000Y-117040000D02*
G75*
G03*
X109740000Y-117040000I-450000J0D01*
G01*
D11*
G36*
X109610000Y-116690000D02*
G01*
X109710000Y-116920000D01*
X109720000Y-117150000D01*
X109620000Y-117370000D01*
X109400000Y-117450000D01*
X109110000Y-117470000D01*
X108920000Y-117340000D01*
X108850000Y-117100000D01*
X108860000Y-116850000D01*
X108940000Y-116730000D01*
X109060000Y-116650000D01*
X109340000Y-116600000D01*
X109610000Y-116690000D01*
G37*
X109610000Y-116690000D02*
X109710000Y-116920000D01*
X109720000Y-117150000D01*
X109620000Y-117370000D01*
X109400000Y-117450000D01*
X109110000Y-117470000D01*
X108920000Y-117340000D01*
X108850000Y-117100000D01*
X108860000Y-116850000D01*
X108940000Y-116730000D01*
X109060000Y-116650000D01*
X109340000Y-116600000D01*
X109610000Y-116690000D01*
D10*
X108820000Y-116060000D02*
G75*
G03*
X108820000Y-116060000I-450000J0D01*
G01*
D11*
G36*
X108690000Y-115710000D02*
G01*
X108790000Y-115940000D01*
X108800000Y-116170000D01*
X108700000Y-116390000D01*
X108480000Y-116470000D01*
X108190000Y-116490000D01*
X108000000Y-116360000D01*
X107930000Y-116120000D01*
X107940000Y-115870000D01*
X108020000Y-115750000D01*
X108140000Y-115670000D01*
X108420000Y-115620000D01*
X108690000Y-115710000D01*
G37*
X108690000Y-115710000D02*
X108790000Y-115940000D01*
X108800000Y-116170000D01*
X108700000Y-116390000D01*
X108480000Y-116470000D01*
X108190000Y-116490000D01*
X108000000Y-116360000D01*
X107930000Y-116120000D01*
X107940000Y-115870000D01*
X108020000Y-115750000D01*
X108140000Y-115670000D01*
X108420000Y-115620000D01*
X108690000Y-115710000D01*
D10*
X105320000Y-119310000D02*
G75*
G03*
X105320000Y-119310000I-450000J0D01*
G01*
D11*
G36*
X105190000Y-118960000D02*
G01*
X105290000Y-119190000D01*
X105300000Y-119420000D01*
X105200000Y-119640000D01*
X104980000Y-119720000D01*
X104690000Y-119740000D01*
X104500000Y-119610000D01*
X104430000Y-119370000D01*
X104440000Y-119120000D01*
X104520000Y-119000000D01*
X104640000Y-118920000D01*
X104920000Y-118870000D01*
X105190000Y-118960000D01*
G37*
X105190000Y-118960000D02*
X105290000Y-119190000D01*
X105300000Y-119420000D01*
X105200000Y-119640000D01*
X104980000Y-119720000D01*
X104690000Y-119740000D01*
X104500000Y-119610000D01*
X104430000Y-119370000D01*
X104440000Y-119120000D01*
X104520000Y-119000000D01*
X104640000Y-118920000D01*
X104920000Y-118870000D01*
X105190000Y-118960000D01*
G36*
X179252698Y-94768058D02*
G01*
X179762698Y-94848058D01*
X180402698Y-95028058D01*
X181052698Y-95328058D01*
X181632698Y-95688058D01*
X182232698Y-96188058D01*
X182632698Y-96618058D01*
X183072698Y-97278058D01*
X183362698Y-97858058D01*
X183582698Y-98498058D01*
X183722698Y-99118058D01*
X183832698Y-99798058D01*
X183872698Y-100698058D01*
X183812698Y-101418058D01*
X183732698Y-102048058D01*
X183572698Y-102648058D01*
X183362698Y-103228058D01*
X183132698Y-103688058D01*
X182832698Y-104148058D01*
X182492698Y-104558058D01*
X182092698Y-104948058D01*
X181622698Y-105308058D01*
X181062698Y-105658058D01*
X180772698Y-105808058D01*
X180522698Y-105928058D01*
X180182698Y-106048058D01*
X179802698Y-106138058D01*
X179272698Y-106218058D01*
X178872698Y-106238058D01*
X178502698Y-106248058D01*
X178472698Y-104028058D01*
X178542698Y-104018058D01*
X178992698Y-103968058D01*
X179322698Y-103878058D01*
X179722698Y-103728058D01*
X180102698Y-103468058D01*
X180362698Y-103238058D01*
X180612698Y-102918058D01*
X180852698Y-102488058D01*
X180992698Y-102088058D01*
X181092698Y-101658058D01*
X181152698Y-101338058D01*
X181202698Y-100878058D01*
X181222698Y-100408058D01*
X181192698Y-99838058D01*
X181112698Y-99348058D01*
X180912698Y-98688058D01*
X180652698Y-98198058D01*
X180292698Y-97698058D01*
X179972698Y-97418058D01*
X179492698Y-97148058D01*
X178932698Y-97048058D01*
X178522698Y-97028058D01*
X177932698Y-97058058D01*
X177632698Y-97118058D01*
X177342698Y-97208058D01*
X177032698Y-97378058D01*
X176772698Y-97568058D01*
X176442698Y-97908058D01*
X176212698Y-98268058D01*
X175992698Y-98718058D01*
X175852698Y-99208058D01*
X175772698Y-99678058D01*
X175712698Y-100148058D01*
X175712698Y-100628058D01*
X175732698Y-101108058D01*
X175802698Y-101668058D01*
X175952698Y-102218058D01*
X176202698Y-102768058D01*
X176462698Y-103118058D01*
X176722698Y-103388058D01*
X177002698Y-103598058D01*
X177312698Y-103778058D01*
X177682698Y-103918058D01*
X178062698Y-103998058D01*
X178372698Y-104018058D01*
X178452698Y-104008058D01*
X178492698Y-106268058D01*
X177972698Y-106258058D01*
X177292698Y-106188058D01*
X176332698Y-105898058D01*
X175732698Y-105608058D01*
X175112698Y-105178058D01*
X174622698Y-104758058D01*
X174222698Y-104278058D01*
X173812698Y-103688058D01*
X173552698Y-103228058D01*
X173372698Y-102738058D01*
X173142698Y-101878058D01*
X173082698Y-101268058D01*
X173092698Y-100128058D01*
X173122698Y-99488058D01*
X173192698Y-98988058D01*
X173342698Y-98408058D01*
X173822698Y-97368058D01*
X174142698Y-96818058D01*
X174612698Y-96258058D01*
X175182698Y-95778058D01*
X175932698Y-95288058D01*
X176752698Y-94948058D01*
X177682698Y-94788058D01*
X178552698Y-94748058D01*
X178582698Y-94748058D01*
X179252698Y-94768058D01*
G37*
X179252698Y-94768058D02*
X179762698Y-94848058D01*
X180402698Y-95028058D01*
X181052698Y-95328058D01*
X181632698Y-95688058D01*
X182232698Y-96188058D01*
X182632698Y-96618058D01*
X183072698Y-97278058D01*
X183362698Y-97858058D01*
X183582698Y-98498058D01*
X183722698Y-99118058D01*
X183832698Y-99798058D01*
X183872698Y-100698058D01*
X183812698Y-101418058D01*
X183732698Y-102048058D01*
X183572698Y-102648058D01*
X183362698Y-103228058D01*
X183132698Y-103688058D01*
X182832698Y-104148058D01*
X182492698Y-104558058D01*
X182092698Y-104948058D01*
X181622698Y-105308058D01*
X181062698Y-105658058D01*
X180772698Y-105808058D01*
X180522698Y-105928058D01*
X180182698Y-106048058D01*
X179802698Y-106138058D01*
X179272698Y-106218058D01*
X178872698Y-106238058D01*
X178502698Y-106248058D01*
X178472698Y-104028058D01*
X178542698Y-104018058D01*
X178992698Y-103968058D01*
X179322698Y-103878058D01*
X179722698Y-103728058D01*
X180102698Y-103468058D01*
X180362698Y-103238058D01*
X180612698Y-102918058D01*
X180852698Y-102488058D01*
X180992698Y-102088058D01*
X181092698Y-101658058D01*
X181152698Y-101338058D01*
X181202698Y-100878058D01*
X181222698Y-100408058D01*
X181192698Y-99838058D01*
X181112698Y-99348058D01*
X180912698Y-98688058D01*
X180652698Y-98198058D01*
X180292698Y-97698058D01*
X179972698Y-97418058D01*
X179492698Y-97148058D01*
X178932698Y-97048058D01*
X178522698Y-97028058D01*
X177932698Y-97058058D01*
X177632698Y-97118058D01*
X177342698Y-97208058D01*
X177032698Y-97378058D01*
X176772698Y-97568058D01*
X176442698Y-97908058D01*
X176212698Y-98268058D01*
X175992698Y-98718058D01*
X175852698Y-99208058D01*
X175772698Y-99678058D01*
X175712698Y-100148058D01*
X175712698Y-100628058D01*
X175732698Y-101108058D01*
X175802698Y-101668058D01*
X175952698Y-102218058D01*
X176202698Y-102768058D01*
X176462698Y-103118058D01*
X176722698Y-103388058D01*
X177002698Y-103598058D01*
X177312698Y-103778058D01*
X177682698Y-103918058D01*
X178062698Y-103998058D01*
X178372698Y-104018058D01*
X178452698Y-104008058D01*
X178492698Y-106268058D01*
X177972698Y-106258058D01*
X177292698Y-106188058D01*
X176332698Y-105898058D01*
X175732698Y-105608058D01*
X175112698Y-105178058D01*
X174622698Y-104758058D01*
X174222698Y-104278058D01*
X173812698Y-103688058D01*
X173552698Y-103228058D01*
X173372698Y-102738058D01*
X173142698Y-101878058D01*
X173082698Y-101268058D01*
X173092698Y-100128058D01*
X173122698Y-99488058D01*
X173192698Y-98988058D01*
X173342698Y-98408058D01*
X173822698Y-97368058D01*
X174142698Y-96818058D01*
X174612698Y-96258058D01*
X175182698Y-95778058D01*
X175932698Y-95288058D01*
X176752698Y-94948058D01*
X177682698Y-94788058D01*
X178552698Y-94748058D01*
X178582698Y-94748058D01*
X179252698Y-94768058D01*
G36*
X172972698Y-94638058D02*
G01*
X173042698Y-94748058D01*
X172992698Y-94878058D01*
X168832698Y-106018058D01*
X167162698Y-106048058D01*
X171391970Y-94627901D01*
X172562698Y-94608058D01*
X172972698Y-94638058D01*
G37*
X172972698Y-94638058D02*
X173042698Y-94748058D01*
X172992698Y-94878058D01*
X168832698Y-106018058D01*
X167162698Y-106048058D01*
X171391970Y-94627901D01*
X172562698Y-94608058D01*
X172972698Y-94638058D01*
G36*
X126392698Y-97758058D02*
G01*
X126862698Y-97838058D01*
X127292698Y-97958058D01*
X127812698Y-98188058D01*
X128132698Y-98388058D01*
X128442698Y-98638058D01*
X128722698Y-98918058D01*
X128982698Y-99258058D01*
X129172698Y-99578058D01*
X129312698Y-99898058D01*
X129402698Y-100198058D01*
X129489062Y-100706058D01*
X129472698Y-100698058D01*
X127412698Y-100688058D01*
X127182698Y-100168058D01*
X126982698Y-99848058D01*
X126702698Y-99578058D01*
X126422698Y-99428058D01*
X126102698Y-99338058D01*
X125702698Y-99308058D01*
X125322698Y-99348058D01*
X125062698Y-99418058D01*
X124782698Y-99588058D01*
X124502698Y-99838058D01*
X124302698Y-100058058D01*
X124102698Y-100348058D01*
X123942698Y-100728058D01*
X123852698Y-101078058D01*
X123812698Y-101388058D01*
X123782698Y-101738058D01*
X123782698Y-102038058D01*
X123792698Y-102258058D01*
X123892698Y-102838058D01*
X123982698Y-103138058D01*
X124082698Y-103448058D01*
X124192698Y-103658058D01*
X124262698Y-103808058D01*
X124392698Y-103988058D01*
X124562698Y-104138058D01*
X124792698Y-104298058D01*
X125062698Y-104418058D01*
X125352698Y-104488058D01*
X125652698Y-104508058D01*
X125932698Y-104488058D01*
X126212698Y-104428058D01*
X126512698Y-104298058D01*
X126762698Y-104148058D01*
X127037106Y-103883469D01*
X127222698Y-103608058D01*
X127322698Y-103328058D01*
X127372698Y-103048058D01*
X127402698Y-102898058D01*
X129502698Y-102908058D01*
X129382698Y-103508058D01*
X129202698Y-104038058D01*
X129012698Y-104388058D01*
X128722698Y-104798058D01*
X128282698Y-105228058D01*
X128012698Y-105438058D01*
X127722698Y-105618058D01*
X127432698Y-105748058D01*
X127082698Y-105878058D01*
X126752698Y-105978058D01*
X126302698Y-106058058D01*
X125522698Y-106098058D01*
X124862698Y-106018058D01*
X124422698Y-105918058D01*
X123942698Y-105758058D01*
X123482698Y-105528058D01*
X123042698Y-105198058D01*
X122662698Y-104868058D01*
X122352698Y-104448058D01*
X122002698Y-103848058D01*
X121842698Y-103438058D01*
X121712698Y-102888058D01*
X121692698Y-102558058D01*
X121672698Y-102068058D01*
X121682698Y-101608058D01*
X121712698Y-101098058D01*
X121812698Y-100618058D01*
X121952698Y-100198058D01*
X122132698Y-99778058D01*
X122382698Y-99358058D01*
X122622698Y-99038058D01*
X123012698Y-98618058D01*
X123272698Y-98418058D01*
X123672698Y-98168058D01*
X124122698Y-97978058D01*
X124552698Y-97858058D01*
X125062698Y-97768058D01*
X125482698Y-97728058D01*
X125892698Y-97718058D01*
X126392698Y-97758058D01*
G37*
X126392698Y-97758058D02*
X126862698Y-97838058D01*
X127292698Y-97958058D01*
X127812698Y-98188058D01*
X128132698Y-98388058D01*
X128442698Y-98638058D01*
X128722698Y-98918058D01*
X128982698Y-99258058D01*
X129172698Y-99578058D01*
X129312698Y-99898058D01*
X129402698Y-100198058D01*
X129489062Y-100706058D01*
X129472698Y-100698058D01*
X127412698Y-100688058D01*
X127182698Y-100168058D01*
X126982698Y-99848058D01*
X126702698Y-99578058D01*
X126422698Y-99428058D01*
X126102698Y-99338058D01*
X125702698Y-99308058D01*
X125322698Y-99348058D01*
X125062698Y-99418058D01*
X124782698Y-99588058D01*
X124502698Y-99838058D01*
X124302698Y-100058058D01*
X124102698Y-100348058D01*
X123942698Y-100728058D01*
X123852698Y-101078058D01*
X123812698Y-101388058D01*
X123782698Y-101738058D01*
X123782698Y-102038058D01*
X123792698Y-102258058D01*
X123892698Y-102838058D01*
X123982698Y-103138058D01*
X124082698Y-103448058D01*
X124192698Y-103658058D01*
X124262698Y-103808058D01*
X124392698Y-103988058D01*
X124562698Y-104138058D01*
X124792698Y-104298058D01*
X125062698Y-104418058D01*
X125352698Y-104488058D01*
X125652698Y-104508058D01*
X125932698Y-104488058D01*
X126212698Y-104428058D01*
X126512698Y-104298058D01*
X126762698Y-104148058D01*
X127037106Y-103883469D01*
X127222698Y-103608058D01*
X127322698Y-103328058D01*
X127372698Y-103048058D01*
X127402698Y-102898058D01*
X129502698Y-102908058D01*
X129382698Y-103508058D01*
X129202698Y-104038058D01*
X129012698Y-104388058D01*
X128722698Y-104798058D01*
X128282698Y-105228058D01*
X128012698Y-105438058D01*
X127722698Y-105618058D01*
X127432698Y-105748058D01*
X127082698Y-105878058D01*
X126752698Y-105978058D01*
X126302698Y-106058058D01*
X125522698Y-106098058D01*
X124862698Y-106018058D01*
X124422698Y-105918058D01*
X123942698Y-105758058D01*
X123482698Y-105528058D01*
X123042698Y-105198058D01*
X122662698Y-104868058D01*
X122352698Y-104448058D01*
X122002698Y-103848058D01*
X121842698Y-103438058D01*
X121712698Y-102888058D01*
X121692698Y-102558058D01*
X121672698Y-102068058D01*
X121682698Y-101608058D01*
X121712698Y-101098058D01*
X121812698Y-100618058D01*
X121952698Y-100198058D01*
X122132698Y-99778058D01*
X122382698Y-99358058D01*
X122622698Y-99038058D01*
X123012698Y-98618058D01*
X123272698Y-98418058D01*
X123672698Y-98168058D01*
X124122698Y-97978058D01*
X124552698Y-97858058D01*
X125062698Y-97768058D01*
X125482698Y-97728058D01*
X125892698Y-97718058D01*
X126392698Y-97758058D01*
G36*
X154580000Y-99106058D02*
G01*
X159080000Y-99106058D01*
X159080000Y-94806058D01*
X161480000Y-94806058D01*
X161480000Y-105906058D01*
X159080000Y-105906058D01*
X159080000Y-101106058D01*
X154580000Y-101106058D01*
X154580000Y-105906058D01*
X152180000Y-105906058D01*
X152180000Y-94806058D01*
X154580000Y-94806058D01*
X154580000Y-99106058D01*
G37*
X154580000Y-99106058D02*
X159080000Y-99106058D01*
X159080000Y-94806058D01*
X161480000Y-94806058D01*
X161480000Y-105906058D01*
X159080000Y-105906058D01*
X159080000Y-101106058D01*
X154580000Y-101106058D01*
X154580000Y-105906058D01*
X152180000Y-105906058D01*
X152180000Y-94806058D01*
X154580000Y-94806058D01*
X154580000Y-99106058D01*
G36*
X133188122Y-100856058D02*
G01*
X136030000Y-97900000D01*
X138530000Y-97907869D01*
X135580000Y-100875659D01*
X138822698Y-105788058D01*
X138742698Y-105858058D01*
X136298846Y-105906058D01*
X134059860Y-102284182D01*
X133180000Y-103147700D01*
X133180000Y-105906058D01*
X131080000Y-105906058D01*
X131080000Y-94806058D01*
X133172698Y-94808058D01*
X133180000Y-94806058D01*
X133188122Y-100856058D01*
G37*
X133188122Y-100856058D02*
X136030000Y-97900000D01*
X138530000Y-97907869D01*
X135580000Y-100875659D01*
X138822698Y-105788058D01*
X138742698Y-105858058D01*
X136298846Y-105906058D01*
X134059860Y-102284182D01*
X133180000Y-103147700D01*
X133180000Y-105906058D01*
X131080000Y-105906058D01*
X131080000Y-94806058D01*
X133172698Y-94808058D01*
X133180000Y-94806058D01*
X133188122Y-100856058D01*
G36*
X145772698Y-94638058D02*
G01*
X146282698Y-94718058D01*
X146922698Y-94898058D01*
X147572698Y-95198058D01*
X148152698Y-95558058D01*
X148752698Y-96058058D01*
X149152698Y-96488058D01*
X149592698Y-97148058D01*
X149882698Y-97728058D01*
X150102698Y-98368058D01*
X150242698Y-98988058D01*
X150352698Y-99668058D01*
X150392698Y-100568058D01*
X150332698Y-101288058D01*
X150252698Y-101918058D01*
X150092698Y-102518058D01*
X149882698Y-103098058D01*
X149652698Y-103558058D01*
X149352698Y-104018058D01*
X149012698Y-104428058D01*
X148612698Y-104818058D01*
X148142698Y-105178058D01*
X147582698Y-105528058D01*
X147292698Y-105678058D01*
X147042698Y-105798058D01*
X146702698Y-105918058D01*
X146322698Y-106008058D01*
X145792698Y-106088058D01*
X145392698Y-106108058D01*
X145022698Y-106118058D01*
X144992698Y-103898058D01*
X145062698Y-103888058D01*
X145512698Y-103838058D01*
X145842698Y-103748058D01*
X146242698Y-103598058D01*
X146622698Y-103338058D01*
X146882698Y-103108058D01*
X147132698Y-102788058D01*
X147372698Y-102358058D01*
X147512698Y-101958058D01*
X147612698Y-101528058D01*
X147672698Y-101208058D01*
X147722698Y-100748058D01*
X147742698Y-100278058D01*
X147712698Y-99708058D01*
X147632698Y-99218058D01*
X147432698Y-98558058D01*
X147172698Y-98068058D01*
X146812698Y-97568058D01*
X146492698Y-97288058D01*
X146012698Y-97018058D01*
X145452698Y-96918058D01*
X145042698Y-96898058D01*
X144452698Y-96928058D01*
X144152698Y-96988058D01*
X143862698Y-97078058D01*
X143552698Y-97248058D01*
X143292698Y-97438058D01*
X142962698Y-97778058D01*
X142732698Y-98138058D01*
X142512698Y-98588058D01*
X142372698Y-99078058D01*
X142292698Y-99548058D01*
X142232698Y-100018058D01*
X142232698Y-100498058D01*
X142252698Y-100978058D01*
X142322698Y-101538058D01*
X142472698Y-102088058D01*
X142722698Y-102638058D01*
X142982698Y-102988058D01*
X143242698Y-103258058D01*
X143522698Y-103468058D01*
X143832698Y-103648058D01*
X144202698Y-103788058D01*
X144582698Y-103868058D01*
X144892698Y-103888058D01*
X144972698Y-103878058D01*
X145012698Y-106138058D01*
X144492698Y-106128058D01*
X143812698Y-106058058D01*
X142852698Y-105768058D01*
X142252698Y-105478058D01*
X141632698Y-105048058D01*
X141142698Y-104628058D01*
X140742698Y-104148058D01*
X140332698Y-103558058D01*
X140072698Y-103098058D01*
X139892698Y-102608058D01*
X139662698Y-101748058D01*
X139602698Y-101138058D01*
X139612698Y-99998058D01*
X139642698Y-99358058D01*
X139712698Y-98858058D01*
X139862698Y-98278058D01*
X140342698Y-97238058D01*
X140662698Y-96688058D01*
X141132698Y-96128058D01*
X141702698Y-95648058D01*
X142452698Y-95158058D01*
X143272698Y-94818058D01*
X144202698Y-94658058D01*
X145072698Y-94618058D01*
X145102698Y-94618058D01*
X145772698Y-94638058D01*
G37*
X145772698Y-94638058D02*
X146282698Y-94718058D01*
X146922698Y-94898058D01*
X147572698Y-95198058D01*
X148152698Y-95558058D01*
X148752698Y-96058058D01*
X149152698Y-96488058D01*
X149592698Y-97148058D01*
X149882698Y-97728058D01*
X150102698Y-98368058D01*
X150242698Y-98988058D01*
X150352698Y-99668058D01*
X150392698Y-100568058D01*
X150332698Y-101288058D01*
X150252698Y-101918058D01*
X150092698Y-102518058D01*
X149882698Y-103098058D01*
X149652698Y-103558058D01*
X149352698Y-104018058D01*
X149012698Y-104428058D01*
X148612698Y-104818058D01*
X148142698Y-105178058D01*
X147582698Y-105528058D01*
X147292698Y-105678058D01*
X147042698Y-105798058D01*
X146702698Y-105918058D01*
X146322698Y-106008058D01*
X145792698Y-106088058D01*
X145392698Y-106108058D01*
X145022698Y-106118058D01*
X144992698Y-103898058D01*
X145062698Y-103888058D01*
X145512698Y-103838058D01*
X145842698Y-103748058D01*
X146242698Y-103598058D01*
X146622698Y-103338058D01*
X146882698Y-103108058D01*
X147132698Y-102788058D01*
X147372698Y-102358058D01*
X147512698Y-101958058D01*
X147612698Y-101528058D01*
X147672698Y-101208058D01*
X147722698Y-100748058D01*
X147742698Y-100278058D01*
X147712698Y-99708058D01*
X147632698Y-99218058D01*
X147432698Y-98558058D01*
X147172698Y-98068058D01*
X146812698Y-97568058D01*
X146492698Y-97288058D01*
X146012698Y-97018058D01*
X145452698Y-96918058D01*
X145042698Y-96898058D01*
X144452698Y-96928058D01*
X144152698Y-96988058D01*
X143862698Y-97078058D01*
X143552698Y-97248058D01*
X143292698Y-97438058D01*
X142962698Y-97778058D01*
X142732698Y-98138058D01*
X142512698Y-98588058D01*
X142372698Y-99078058D01*
X142292698Y-99548058D01*
X142232698Y-100018058D01*
X142232698Y-100498058D01*
X142252698Y-100978058D01*
X142322698Y-101538058D01*
X142472698Y-102088058D01*
X142722698Y-102638058D01*
X142982698Y-102988058D01*
X143242698Y-103258058D01*
X143522698Y-103468058D01*
X143832698Y-103648058D01*
X144202698Y-103788058D01*
X144582698Y-103868058D01*
X144892698Y-103888058D01*
X144972698Y-103878058D01*
X145012698Y-106138058D01*
X144492698Y-106128058D01*
X143812698Y-106058058D01*
X142852698Y-105768058D01*
X142252698Y-105478058D01*
X141632698Y-105048058D01*
X141142698Y-104628058D01*
X140742698Y-104148058D01*
X140332698Y-103558058D01*
X140072698Y-103098058D01*
X139892698Y-102608058D01*
X139662698Y-101748058D01*
X139602698Y-101138058D01*
X139612698Y-99998058D01*
X139642698Y-99358058D01*
X139712698Y-98858058D01*
X139862698Y-98278058D01*
X140342698Y-97238058D01*
X140662698Y-96688058D01*
X141132698Y-96128058D01*
X141702698Y-95648058D01*
X142452698Y-95158058D01*
X143272698Y-94818058D01*
X144202698Y-94658058D01*
X145072698Y-94618058D01*
X145102698Y-94618058D01*
X145772698Y-94638058D01*
G36*
X166080000Y-105906058D02*
G01*
X163680000Y-105906058D01*
X163682698Y-94808058D01*
X163680000Y-94806058D01*
X166080000Y-94806058D01*
X166080000Y-105906058D01*
G37*
X166080000Y-105906058D02*
X163680000Y-105906058D01*
X163682698Y-94808058D01*
X163680000Y-94806058D01*
X166080000Y-94806058D01*
X166080000Y-105906058D01*
G36*
X117910000Y-97770000D02*
G01*
X118400000Y-97860000D01*
X118720000Y-97970000D01*
X119070000Y-98130000D01*
X119400000Y-98370000D01*
X119660000Y-98590000D01*
X119910000Y-99060000D01*
X120030000Y-99620000D01*
X120040000Y-100220000D01*
X120210000Y-105360000D01*
X120230000Y-105800000D01*
X119910000Y-105910000D01*
X119350000Y-105910000D01*
X118720000Y-105890000D01*
X118310000Y-105850000D01*
X118120000Y-105650000D01*
X118040000Y-105300000D01*
X117860000Y-105300000D01*
X116800000Y-105860000D01*
X116110000Y-106010000D01*
X115230000Y-106070000D01*
X114460000Y-106020000D01*
X113920000Y-105840000D01*
X113460000Y-105540000D01*
X113010000Y-105110000D01*
X112810000Y-104730000D01*
X112650000Y-104290000D01*
X112590000Y-103700000D01*
X112690000Y-103160000D01*
X112830000Y-102730000D01*
X113200000Y-102220000D01*
X113720000Y-101820000D01*
X114290000Y-101590000D01*
X115320000Y-101310000D01*
X115800000Y-102830000D01*
X115390000Y-102930000D01*
X115150000Y-103240000D01*
X115040000Y-103670000D01*
X115180000Y-104160000D01*
X115650000Y-104350000D01*
X116370000Y-104370000D01*
X116970000Y-104260000D01*
X117290000Y-103980000D01*
X117510000Y-103620000D01*
X117620000Y-103250000D01*
X117690000Y-102840000D01*
X117690000Y-102420000D01*
X117350000Y-102500000D01*
X116510000Y-102680000D01*
X115800000Y-102820000D01*
X115330000Y-101310000D01*
X116240000Y-101190000D01*
X117280000Y-100990000D01*
X117700000Y-100750000D01*
X117950000Y-100320000D01*
X117940000Y-100090000D01*
X117790000Y-99650000D01*
X117540000Y-99410000D01*
X117170000Y-99230000D01*
X116770000Y-99160000D01*
X116280000Y-99130000D01*
X115940000Y-99200000D01*
X115580000Y-99320000D01*
X115340000Y-99520000D01*
X115130000Y-99860000D01*
X114950000Y-100210000D01*
X114870000Y-100300000D01*
X112850000Y-100310000D01*
X112890000Y-100040000D01*
X112980000Y-99550000D01*
X113150000Y-99240000D01*
X113360000Y-98900000D01*
X113620000Y-98670000D01*
X113940000Y-98410000D01*
X114480000Y-98110000D01*
X115080000Y-97920000D01*
X115380000Y-97830000D01*
X115990000Y-97780000D01*
X116260000Y-97730000D01*
X116840000Y-97730000D01*
X117330000Y-97720000D01*
X117910000Y-97770000D01*
G37*
X117910000Y-97770000D02*
X118400000Y-97860000D01*
X118720000Y-97970000D01*
X119070000Y-98130000D01*
X119400000Y-98370000D01*
X119660000Y-98590000D01*
X119910000Y-99060000D01*
X120030000Y-99620000D01*
X120040000Y-100220000D01*
X120210000Y-105360000D01*
X120230000Y-105800000D01*
X119910000Y-105910000D01*
X119350000Y-105910000D01*
X118720000Y-105890000D01*
X118310000Y-105850000D01*
X118120000Y-105650000D01*
X118040000Y-105300000D01*
X117860000Y-105300000D01*
X116800000Y-105860000D01*
X116110000Y-106010000D01*
X115230000Y-106070000D01*
X114460000Y-106020000D01*
X113920000Y-105840000D01*
X113460000Y-105540000D01*
X113010000Y-105110000D01*
X112810000Y-104730000D01*
X112650000Y-104290000D01*
X112590000Y-103700000D01*
X112690000Y-103160000D01*
X112830000Y-102730000D01*
X113200000Y-102220000D01*
X113720000Y-101820000D01*
X114290000Y-101590000D01*
X115320000Y-101310000D01*
X115800000Y-102830000D01*
X115390000Y-102930000D01*
X115150000Y-103240000D01*
X115040000Y-103670000D01*
X115180000Y-104160000D01*
X115650000Y-104350000D01*
X116370000Y-104370000D01*
X116970000Y-104260000D01*
X117290000Y-103980000D01*
X117510000Y-103620000D01*
X117620000Y-103250000D01*
X117690000Y-102840000D01*
X117690000Y-102420000D01*
X117350000Y-102500000D01*
X116510000Y-102680000D01*
X115800000Y-102820000D01*
X115330000Y-101310000D01*
X116240000Y-101190000D01*
X117280000Y-100990000D01*
X117700000Y-100750000D01*
X117950000Y-100320000D01*
X117940000Y-100090000D01*
X117790000Y-99650000D01*
X117540000Y-99410000D01*
X117170000Y-99230000D01*
X116770000Y-99160000D01*
X116280000Y-99130000D01*
X115940000Y-99200000D01*
X115580000Y-99320000D01*
X115340000Y-99520000D01*
X115130000Y-99860000D01*
X114950000Y-100210000D01*
X114870000Y-100300000D01*
X112850000Y-100310000D01*
X112890000Y-100040000D01*
X112980000Y-99550000D01*
X113150000Y-99240000D01*
X113360000Y-98900000D01*
X113620000Y-98670000D01*
X113940000Y-98410000D01*
X114480000Y-98110000D01*
X115080000Y-97920000D01*
X115380000Y-97830000D01*
X115990000Y-97780000D01*
X116260000Y-97730000D01*
X116840000Y-97730000D01*
X117330000Y-97720000D01*
X117910000Y-97770000D01*
G36*
X110950000Y-105900000D02*
G01*
X108570000Y-105880000D01*
X108590000Y-101110000D01*
X103950000Y-101130000D01*
X104000000Y-105900000D01*
X101580000Y-105870000D01*
X101620000Y-94860000D01*
X103950000Y-94800000D01*
X103960000Y-99060000D01*
X108610000Y-99080000D01*
X108610000Y-94820000D01*
X110970000Y-94800000D01*
X110950000Y-105900000D01*
G37*
X110950000Y-105900000D02*
X108570000Y-105880000D01*
X108590000Y-101110000D01*
X103950000Y-101130000D01*
X104000000Y-105900000D01*
X101580000Y-105870000D01*
X101620000Y-94860000D01*
X103950000Y-94800000D01*
X103960000Y-99060000D01*
X108610000Y-99080000D01*
X108610000Y-94820000D01*
X110970000Y-94800000D01*
X110950000Y-105900000D01*
D12*
%TO.P,TP9,1*%
%TO.N,Net-(D1-Pad2)*%
X160190000Y-95270000D03*
%TD*%
%TO.P,TP7,1*%
%TO.N,Net-(D1-Pad2)*%
X165130000Y-95280000D03*
%TD*%
%TO.P,TP10,1*%
%TO.N,Net-(D1-Pad2)*%
X172030000Y-95080000D03*
%TD*%
%TO.P,TP8,1*%
%TO.N,Net-(D1-Pad2)*%
X178380000Y-95220000D03*
%TD*%
%TO.P,TP3,1*%
%TO.N,Net-(BT1-Pad2)*%
X125970000Y-105560000D03*
%TD*%
%TO.P,TP5,1*%
%TO.N,Net-(BT1-Pad2)*%
X119330000Y-105390000D03*
%TD*%
%TO.P,TP4,1*%
%TO.N,Net-(BT1-Pad2)*%
X132110000Y-105460000D03*
%TD*%
%TO.P,TP11,1*%
%TO.N,Net-(D1-Pad2)*%
X145140000Y-95080000D03*
%TD*%
%TO.P,TP6,1*%
%TO.N,Net-(BT1-Pad2)*%
X109910000Y-105440000D03*
%TD*%
D13*
%TO.P,TP1,1*%
%TO.N,Net-(BT1-Pad2)*%
X138410000Y-110510000D03*
%TD*%
%TO.P,TP2,1*%
%TO.N,Net-(D1-Pad2)*%
X142940000Y-91530000D03*
%TD*%
D14*
%TO.N,Net-(BT1-Pad2)*%
X138400000Y-110550000D03*
%TO.N,Net-(D1-Pad2)*%
X142950000Y-91520000D03*
%TD*%
D15*
%TO.N,*%
X140170000Y-115060000D02*
X145880000Y-115060000D01*
X145880000Y-115060000D02*
X146160000Y-115340000D01*
X146160000Y-115340000D02*
X147730000Y-115340000D01*
X147730000Y-115340000D02*
X148370000Y-115980000D01*
X148370000Y-115980000D02*
X149060000Y-115980000D01*
X149060000Y-115980000D02*
X149760000Y-116680000D01*
X150930000Y-116680000D02*
X151270000Y-116340000D01*
X151270000Y-116340000D02*
X152650000Y-116340000D01*
X152650000Y-116340000D02*
X152840000Y-116150000D01*
X152840000Y-116150000D02*
X154020000Y-116150000D01*
X154020000Y-116150000D02*
X155600000Y-114570000D01*
X155600000Y-114570000D02*
X156910000Y-114570000D01*
X156910000Y-114570000D02*
X157950000Y-113530000D01*
X157950000Y-113530000D02*
X158950000Y-113530000D01*
X158950000Y-113530000D02*
X158900000Y-113580000D01*
X158900000Y-113580000D02*
X158900000Y-120720000D01*
X158900000Y-120720000D02*
X158300000Y-121320000D01*
X158300000Y-121320000D02*
X158300000Y-121530000D01*
X158300000Y-121530000D02*
X158610000Y-121840000D01*
X158610000Y-121840000D02*
X158610000Y-122760000D01*
X158610000Y-122760000D02*
X158560000Y-122810000D01*
X158560000Y-122810000D02*
X158560000Y-123310000D01*
X158070000Y-123800000D02*
X158070000Y-124910000D01*
X158070000Y-124910000D02*
X157670000Y-125310000D01*
X157670000Y-125310000D02*
X157670000Y-126330000D01*
X157670000Y-126330000D02*
X155890000Y-128110000D01*
X155890000Y-128110000D02*
X155210000Y-128110000D01*
X155210000Y-128110000D02*
X155020000Y-127920000D01*
X155020000Y-127920000D02*
X154970000Y-127920000D01*
X154970000Y-127920000D02*
X154270000Y-128620000D01*
X154270000Y-128620000D02*
X153990000Y-128620000D01*
X153990000Y-128620000D02*
X153550000Y-129060000D01*
X153550000Y-129060000D02*
X153550000Y-129590000D01*
X153550000Y-129590000D02*
X153420000Y-129720000D01*
X153420000Y-129720000D02*
X153420000Y-130250000D01*
X153420000Y-130250000D02*
X153250000Y-130420000D01*
X153250000Y-130420000D02*
X153250000Y-130560000D01*
X153250000Y-130560000D02*
X153040000Y-130770000D01*
X153040000Y-130770000D02*
X152830000Y-130770000D01*
X152830000Y-130770000D02*
X152870000Y-130730000D01*
X152870000Y-130730000D02*
X152870000Y-130400000D01*
X152870000Y-130400000D02*
X152530000Y-130060000D01*
X152530000Y-130060000D02*
X152320000Y-130060000D01*
X152320000Y-130060000D02*
X151800000Y-130580000D01*
X151800000Y-130580000D02*
X151800000Y-131170000D01*
X151800000Y-131170000D02*
X151560000Y-131410000D01*
X151560000Y-131410000D02*
X151560000Y-131850000D01*
X151560000Y-131850000D02*
X151640000Y-131930000D01*
X151640000Y-131930000D02*
X151640000Y-132140000D01*
X151640000Y-132140000D02*
X151090000Y-132690000D01*
X151090000Y-132690000D02*
X151090000Y-132980000D01*
X151090000Y-132980000D02*
X150680000Y-133390000D01*
X150680000Y-133390000D02*
X150020000Y-133390000D01*
X150020000Y-133390000D02*
X149210000Y-132580000D01*
X149210000Y-132580000D02*
X149170000Y-132580000D01*
X149170000Y-132580000D02*
X148530000Y-131940000D01*
X148530000Y-131940000D02*
X148530000Y-131680000D01*
X148530000Y-131680000D02*
X148380000Y-131830000D01*
X148380000Y-131830000D02*
X147900000Y-131830000D01*
X147900000Y-131830000D02*
X147410000Y-132320000D01*
X147410000Y-132320000D02*
X146680000Y-132320000D01*
X146680000Y-132320000D02*
X146260000Y-131900000D01*
X146260000Y-131900000D02*
X145650000Y-131900000D01*
X145650000Y-131900000D02*
X145430000Y-132120000D01*
X145430000Y-132120000D02*
X144900000Y-132120000D01*
X144900000Y-132120000D02*
X144140000Y-131360000D01*
X144140000Y-131360000D02*
X143100000Y-131360000D01*
X143100000Y-131360000D02*
X142910000Y-131170000D01*
X142910000Y-131170000D02*
X142910000Y-130800000D01*
X142910000Y-130800000D02*
X141680000Y-129570000D01*
X141680000Y-129570000D02*
X141120000Y-129570000D01*
X141120000Y-129570000D02*
X140930000Y-129380000D01*
X140930000Y-129380000D02*
X140270000Y-129380000D01*
X140270000Y-129380000D02*
X140190000Y-129460000D01*
X140190000Y-115080000D02*
X140170000Y-115060000D01*
X191000000Y-70940000D02*
X192210000Y-70940000D01*
X190810000Y-71130000D02*
X191000000Y-70940000D01*
X190810000Y-72050000D02*
X190810000Y-71130000D01*
X190230000Y-72050000D02*
X190810000Y-72050000D01*
X192390000Y-62670000D02*
X190950000Y-61230000D01*
X192390000Y-65870000D02*
X192390000Y-62670000D01*
X192480000Y-65960000D02*
X192390000Y-65870000D01*
X193190000Y-70960000D02*
X194270000Y-70960000D01*
X193560000Y-65960000D02*
X192480000Y-65960000D01*
X193850000Y-66250000D02*
X193560000Y-65960000D01*
X190770000Y-62520000D02*
X190890000Y-62640000D01*
X193850000Y-69510000D02*
X193850000Y-66250000D01*
X194310000Y-69970000D02*
X193850000Y-69510000D01*
X194310000Y-70920000D02*
X194310000Y-69970000D01*
X184280000Y-61230000D02*
X184280000Y-62480000D01*
X193090000Y-71060000D02*
X193190000Y-70960000D01*
X189560000Y-69480000D02*
X188990000Y-70050000D01*
X193090000Y-72050000D02*
X193090000Y-71060000D01*
X190950000Y-61230000D02*
X184280000Y-61230000D01*
X194270000Y-70960000D02*
X194310000Y-70920000D01*
X184280000Y-62480000D02*
X184320000Y-62520000D01*
X184320000Y-62520000D02*
X190770000Y-62520000D01*
X190890000Y-62640000D02*
X190890000Y-65930000D01*
X190890000Y-65930000D02*
X189680000Y-65930000D01*
X189680000Y-65930000D02*
X189560000Y-66050000D01*
X189560000Y-66050000D02*
X189560000Y-69480000D01*
X188990000Y-70050000D02*
X188990000Y-70920000D01*
X188990000Y-70920000D02*
X189030000Y-70960000D01*
X189030000Y-70960000D02*
X190070000Y-70960000D01*
X190070000Y-70960000D02*
X190170000Y-71060000D01*
X190170000Y-71060000D02*
X190170000Y-71990000D01*
X190170000Y-71990000D02*
X190230000Y-72050000D01*
X193090000Y-72050000D02*
X192460000Y-72050000D01*
X192460000Y-72050000D02*
X192480000Y-72030000D01*
X192480000Y-72030000D02*
X192480000Y-70920000D01*
X192230000Y-70920000D02*
X192210000Y-70940000D01*
X192480000Y-70920000D02*
X192230000Y-70920000D01*
X158900000Y-113580000D02*
X162880000Y-113580000D01*
X162880000Y-113580000D02*
X165950000Y-110510000D01*
X165950000Y-110510000D02*
X174490000Y-110510000D01*
X174490000Y-110510000D02*
X177770000Y-113790000D01*
X150040000Y-116680000D02*
X150040000Y-111420000D01*
X149760000Y-116680000D02*
X150040000Y-116680000D01*
X150040000Y-116680000D02*
X150930000Y-116680000D01*
X150040000Y-111420000D02*
X147950000Y-109330000D01*
X147950000Y-109330000D02*
X145210000Y-109330000D01*
X140190000Y-115300000D02*
X137050000Y-115300000D01*
X140190000Y-115300000D02*
X140190000Y-115080000D01*
X137050000Y-115300000D02*
X131320000Y-121030000D01*
X131320000Y-121030000D02*
X128540000Y-121030000D01*
X128540000Y-121030000D02*
X123580000Y-116070000D01*
X123580000Y-116070000D02*
X108350000Y-116070000D01*
X140190000Y-129220000D02*
X136040000Y-129220000D01*
X140190000Y-129460000D02*
X140190000Y-129220000D01*
X136040000Y-129220000D02*
X131620000Y-124800000D01*
X131620000Y-124800000D02*
X122660000Y-124800000D01*
X122660000Y-124800000D02*
X117160000Y-119300000D01*
X117160000Y-119300000D02*
X104830000Y-119300000D01*
X158900000Y-120720000D02*
X162630000Y-120720000D01*
X162630000Y-120720000D02*
X164730000Y-118620000D01*
X164730000Y-118620000D02*
X178760000Y-118620000D01*
X178760000Y-118620000D02*
X185470000Y-111910000D01*
X185470000Y-111910000D02*
X185470000Y-111390000D01*
X157370000Y-126230000D02*
X159870000Y-126230000D01*
X159870000Y-126230000D02*
X165960000Y-132320000D01*
X165960000Y-132320000D02*
X169430000Y-132320000D01*
X140190000Y-116500000D02*
X137490000Y-116500000D01*
X140190000Y-116500000D02*
X140190000Y-115300000D01*
X137490000Y-116500000D02*
X131910000Y-122080000D01*
X131910000Y-122080000D02*
X128810000Y-122080000D01*
X128810000Y-122080000D02*
X128260000Y-122080000D01*
X128260000Y-122080000D02*
X127880000Y-122080000D01*
X127880000Y-122080000D02*
X122880000Y-117080000D01*
X122880000Y-117080000D02*
X109240000Y-117080000D01*
X140190000Y-122880000D02*
X137240000Y-122880000D01*
X140190000Y-129220000D02*
X140190000Y-122880000D01*
X140190000Y-122880000D02*
X140190000Y-116500000D01*
X137240000Y-122880000D02*
X135300000Y-124820000D01*
X158240000Y-123630000D02*
X166780000Y-123630000D01*
X158560000Y-123310000D02*
X158240000Y-123630000D01*
X158240000Y-123630000D02*
X158070000Y-123800000D01*
X166780000Y-123630000D02*
X172190000Y-129040000D01*
X172190000Y-129040000D02*
X181390000Y-129040000D01*
X181390000Y-129040000D02*
X190670000Y-119760000D01*
X190670000Y-119760000D02*
X204130000Y-119760000D01*
%TO.N,Net-(BT1-Pad2)*%
X121310000Y-109080000D02*
X121310000Y-110520000D01*
X132110000Y-108920000D02*
X133710000Y-110520000D01*
X133710000Y-110520000D02*
X138390000Y-110520000D01*
X130390000Y-110520000D02*
X133710000Y-110520000D01*
X138390000Y-110520000D02*
X138390000Y-110520000D01*
X126050000Y-108410000D02*
X128160000Y-110520000D01*
X126050000Y-105470000D02*
X126050000Y-108410000D01*
X128160000Y-110520000D02*
X130390000Y-110520000D01*
X121310000Y-110520000D02*
X128160000Y-110520000D01*
%TO.N,Net-(D1-Pad2)*%
X171970000Y-92790000D02*
X170700000Y-91520000D01*
X176460000Y-91520000D02*
X170700000Y-91520000D01*
X170700000Y-91520000D02*
X163090000Y-91520000D01*
X163090000Y-91520000D02*
X157970000Y-91520000D01*
X145100000Y-92870000D02*
X143750000Y-91520000D01*
X143750000Y-91520000D02*
X142950000Y-91520000D01*
X157970000Y-91520000D02*
X143750000Y-91520000D01*
%TO.N,Net-(BT1-Pad2)*%
X138390000Y-110520000D02*
X138390000Y-110520000D01*
X138390000Y-110540000D02*
X138400000Y-110550000D01*
X138390000Y-110520000D02*
X138390000Y-110540000D01*
X111700000Y-110520000D02*
X121310000Y-110520000D01*
X109910000Y-108730000D02*
X111700000Y-110520000D01*
X109910000Y-105440000D02*
X109910000Y-108730000D01*
X132110000Y-105460000D02*
X132110000Y-108920000D01*
X119330000Y-107100000D02*
X119475000Y-107245000D01*
X119330000Y-105390000D02*
X119330000Y-107100000D01*
X119475000Y-107245000D02*
X121310000Y-109080000D01*
X119380000Y-107150000D02*
X119475000Y-107245000D01*
%TO.N,Net-(D1-Pad2)*%
X142940000Y-91510000D02*
X142950000Y-91520000D01*
X142900000Y-91510000D02*
X142940000Y-91510000D01*
X145140000Y-92910000D02*
X145100000Y-92870000D01*
X145140000Y-95080000D02*
X145140000Y-92910000D01*
X172030000Y-92850000D02*
X171970000Y-92790000D01*
X172030000Y-95080000D02*
X172030000Y-92850000D01*
X178380000Y-93440000D02*
X178230000Y-93290000D01*
X178380000Y-95220000D02*
X178380000Y-93440000D01*
X178230000Y-93290000D02*
X176460000Y-91520000D01*
X178340000Y-93400000D02*
X178230000Y-93290000D01*
X165130000Y-95280000D02*
X165130000Y-93560000D01*
X165130000Y-93560000D02*
X164955000Y-93385000D01*
X164955000Y-93385000D02*
X163090000Y-91520000D01*
X165190000Y-93620000D02*
X164955000Y-93385000D01*
X160190000Y-93740000D02*
X159970000Y-93520000D01*
X160190000Y-95270000D02*
X160190000Y-93740000D01*
X159970000Y-93520000D02*
X157970000Y-91520000D01*
X160160000Y-93710000D02*
X159970000Y-93520000D01*
%TD*%
M02*
