%TF.GenerationSoftware,KiCad,Pcbnew,(5.1.10)-1*%
%TF.CreationDate,2022-09-07T22:56:21-04:00*%
%TF.ProjectId,HACK Badges,4841434b-2042-4616-9467-65732e6b6963,rev?*%
%TF.SameCoordinates,Original*%
%TF.FileFunction,Copper,L2,Bot*%
%TF.FilePolarity,Positive*%
%FSLAX46Y46*%
G04 Gerber Fmt 4.6, Leading zero omitted, Abs format (unit mm)*
G04 Created by KiCad (PCBNEW (5.1.10)-1) date 2022-09-07 22:56:21*
%MOMM*%
%LPD*%
G01*
G04 APERTURE LIST*
%TA.AperFunction,SMDPad,CuDef*%
%ADD10R,3.000000X4.200000*%
%TD*%
%TA.AperFunction,SMDPad,CuDef*%
%ADD11R,0.700000X1.500000*%
%TD*%
%TA.AperFunction,SMDPad,CuDef*%
%ADD12R,1.000000X0.800000*%
%TD*%
%TA.AperFunction,ViaPad*%
%ADD13C,0.800000*%
%TD*%
%TA.AperFunction,Conductor*%
%ADD14C,0.250000*%
%TD*%
G04 APERTURE END LIST*
D10*
%TO.P,BT1,1*%
%TO.N,Net-(BT1-Pad1)*%
X162390000Y-123080000D03*
%TO.P,BT1,2*%
%TO.N,Net-(BT1-Pad2)*%
X133390000Y-123080000D03*
%TD*%
%TO.P,D1,1*%
%TO.N,Net-(BT1-Pad2)*%
%TA.AperFunction,SMDPad,CuDef*%
G36*
G01*
X197110000Y-99845000D02*
X197110000Y-101095000D01*
G75*
G02*
X196860000Y-101345000I-250000J0D01*
G01*
X195935000Y-101345000D01*
G75*
G02*
X195685000Y-101095000I0J250000D01*
G01*
X195685000Y-99845000D01*
G75*
G02*
X195935000Y-99595000I250000J0D01*
G01*
X196860000Y-99595000D01*
G75*
G02*
X197110000Y-99845000I0J-250000D01*
G01*
G37*
%TD.AperFunction*%
%TO.P,D1,2*%
%TO.N,Net-(D1-Pad2)*%
%TA.AperFunction,SMDPad,CuDef*%
G36*
G01*
X194135000Y-99845000D02*
X194135000Y-101095000D01*
G75*
G02*
X193885000Y-101345000I-250000J0D01*
G01*
X192960000Y-101345000D01*
G75*
G02*
X192710000Y-101095000I0J250000D01*
G01*
X192710000Y-99845000D01*
G75*
G02*
X192960000Y-99595000I250000J0D01*
G01*
X193885000Y-99595000D01*
G75*
G02*
X194135000Y-99845000I0J-250000D01*
G01*
G37*
%TD.AperFunction*%
%TD*%
%TO.P,R1,1*%
%TO.N,Net-(D1-Pad2)*%
%TA.AperFunction,SMDPad,CuDef*%
G36*
G01*
X173309999Y-110080000D02*
X174210001Y-110080000D01*
G75*
G02*
X174460000Y-110329999I0J-249999D01*
G01*
X174460000Y-111030001D01*
G75*
G02*
X174210001Y-111280000I-249999J0D01*
G01*
X173309999Y-111280000D01*
G75*
G02*
X173060000Y-111030001I0J249999D01*
G01*
X173060000Y-110329999D01*
G75*
G02*
X173309999Y-110080000I249999J0D01*
G01*
G37*
%TD.AperFunction*%
%TO.P,R1,2*%
%TO.N,Net-(R1-Pad2)*%
%TA.AperFunction,SMDPad,CuDef*%
G36*
G01*
X173309999Y-112080000D02*
X174210001Y-112080000D01*
G75*
G02*
X174460000Y-112329999I0J-249999D01*
G01*
X174460000Y-113030001D01*
G75*
G02*
X174210001Y-113280000I-249999J0D01*
G01*
X173309999Y-113280000D01*
G75*
G02*
X173060000Y-113030001I0J249999D01*
G01*
X173060000Y-112329999D01*
G75*
G02*
X173309999Y-112080000I249999J0D01*
G01*
G37*
%TD.AperFunction*%
%TD*%
D11*
%TO.P,SW1,1*%
%TO.N,Net-(BT1-Pad1)*%
X175830000Y-123790000D03*
%TO.P,SW1,2*%
%TO.N,Net-(R1-Pad2)*%
X178830000Y-123790000D03*
%TO.P,SW1,3*%
%TO.N,N/C*%
X180330000Y-123790000D03*
D12*
%TO.P,SW1,4*%
X174430000Y-123140000D03*
%TO.P,SW1,5*%
X174430000Y-120940000D03*
%TO.P,SW1,6*%
X181730000Y-123140000D03*
%TO.P,SW1,7*%
X181730000Y-120940000D03*
%TD*%
D13*
%TO.N,Net-(BT1-Pad2)*%
X138400000Y-110550000D03*
%TO.N,Net-(D1-Pad2)*%
X142950000Y-91520000D03*
%TD*%
D14*
%TO.N,Net-(BT1-Pad1)*%
X162390000Y-123080000D02*
X162390000Y-123710000D01*
X162390000Y-123710000D02*
X165480000Y-126800000D01*
X172820000Y-126800000D02*
X175830000Y-123790000D01*
X165480000Y-126800000D02*
X172820000Y-126800000D01*
%TO.N,Net-(BT1-Pad2)*%
X138400000Y-110550000D02*
X138500000Y-110450000D01*
X139600000Y-129290000D02*
X133390000Y-123080000D01*
X138400000Y-118070000D02*
X133390000Y-123080000D01*
X138400000Y-110550000D02*
X138400000Y-118070000D01*
X196397500Y-100470000D02*
X198190000Y-100470000D01*
X198190000Y-100470000D02*
X202530000Y-104810000D01*
X202530000Y-104810000D02*
X202530000Y-107690000D01*
X180930000Y-129290000D02*
X139600000Y-129290000D01*
X202530000Y-107690000D02*
X180930000Y-129290000D01*
%TO.N,Net-(D1-Pad2)*%
X142950000Y-91520000D02*
X160550000Y-91520000D01*
X173760000Y-104730000D02*
X173760000Y-110680000D01*
X160550000Y-91520000D02*
X173760000Y-104730000D01*
X183970000Y-100470000D02*
X173760000Y-110680000D01*
X193422500Y-100470000D02*
X183970000Y-100470000D01*
%TO.N,Net-(R1-Pad2)*%
X178830000Y-117750000D02*
X173760000Y-112680000D01*
X178830000Y-123790000D02*
X178830000Y-117750000D01*
%TD*%
M02*
