%TF.GenerationSoftware,KiCad,Pcbnew,(5.1.10)-1*%
%TF.CreationDate,2022-09-07T22:56:21-04:00*%
%TF.ProjectId,HACK Badges,4841434b-2042-4616-9467-65732e6b6963,rev?*%
%TF.SameCoordinates,Original*%
%TF.FileFunction,Soldermask,Bot*%
%TF.FilePolarity,Negative*%
%FSLAX46Y46*%
G04 Gerber Fmt 4.6, Leading zero omitted, Abs format (unit mm)*
G04 Created by KiCad (PCBNEW (5.1.10)-1) date 2022-09-07 22:56:21*
%MOMM*%
%LPD*%
G01*
G04 APERTURE LIST*
%ADD10C,0.100000*%
%ADD11R,3.000000X4.200000*%
%ADD12R,0.700000X1.500000*%
%ADD13R,1.000000X0.800000*%
G04 APERTURE END LIST*
D10*
G36*
X196260000Y-101610000D02*
G01*
X193230000Y-101590000D01*
X193230000Y-99350000D01*
X196240000Y-99330000D01*
X196260000Y-101610000D01*
G37*
X196260000Y-101610000D02*
X193230000Y-101590000D01*
X193230000Y-99350000D01*
X196240000Y-99330000D01*
X196260000Y-101610000D01*
D11*
%TO.C,BT1*%
X162390000Y-123080000D03*
X133390000Y-123080000D03*
%TD*%
%TO.C,D1*%
G36*
G01*
X197110000Y-99845000D02*
X197110000Y-101095000D01*
G75*
G02*
X196860000Y-101345000I-250000J0D01*
G01*
X195935000Y-101345000D01*
G75*
G02*
X195685000Y-101095000I0J250000D01*
G01*
X195685000Y-99845000D01*
G75*
G02*
X195935000Y-99595000I250000J0D01*
G01*
X196860000Y-99595000D01*
G75*
G02*
X197110000Y-99845000I0J-250000D01*
G01*
G37*
G36*
G01*
X194135000Y-99845000D02*
X194135000Y-101095000D01*
G75*
G02*
X193885000Y-101345000I-250000J0D01*
G01*
X192960000Y-101345000D01*
G75*
G02*
X192710000Y-101095000I0J250000D01*
G01*
X192710000Y-99845000D01*
G75*
G02*
X192960000Y-99595000I250000J0D01*
G01*
X193885000Y-99595000D01*
G75*
G02*
X194135000Y-99845000I0J-250000D01*
G01*
G37*
%TD*%
%TO.C,R1*%
G36*
G01*
X173309999Y-110080000D02*
X174210001Y-110080000D01*
G75*
G02*
X174460000Y-110329999I0J-249999D01*
G01*
X174460000Y-111030001D01*
G75*
G02*
X174210001Y-111280000I-249999J0D01*
G01*
X173309999Y-111280000D01*
G75*
G02*
X173060000Y-111030001I0J249999D01*
G01*
X173060000Y-110329999D01*
G75*
G02*
X173309999Y-110080000I249999J0D01*
G01*
G37*
G36*
G01*
X173309999Y-112080000D02*
X174210001Y-112080000D01*
G75*
G02*
X174460000Y-112329999I0J-249999D01*
G01*
X174460000Y-113030001D01*
G75*
G02*
X174210001Y-113280000I-249999J0D01*
G01*
X173309999Y-113280000D01*
G75*
G02*
X173060000Y-113030001I0J249999D01*
G01*
X173060000Y-112329999D01*
G75*
G02*
X173309999Y-112080000I249999J0D01*
G01*
G37*
%TD*%
D12*
%TO.C,SW1*%
X175830000Y-123790000D03*
X178830000Y-123790000D03*
X180330000Y-123790000D03*
D13*
X174430000Y-123140000D03*
X174430000Y-120940000D03*
X181730000Y-123140000D03*
X181730000Y-120940000D03*
%TD*%
M02*
